M48
; DRILL file {KiCad 7.0.10-7.0.10~ubuntu22.04.1} date Sun 14 Jan 2024 03:54:05 PM MST
; FORMAT={-:-/ absolute / inch / decimal}
; #@! TF.CreationDate,2024-01-14T15:54:05-07:00
; #@! TF.GenerationSoftware,Kicad,Pcbnew,7.0.10-7.0.10~ubuntu22.04.1
; #@! TF.FileFunction,Plated,1,2,PTH
FMAT,2
INCH
; #@! TA.AperFunction,Plated,PTH,ViaDrill
T1C0.0157
; #@! TA.AperFunction,Plated,PTH,ComponentDrill
T2C0.0394
%
G90
G05
T1
X1.3681Y-3.9055
X1.5157Y-3.9055
X1.6634Y-3.9055
X1.811Y-3.9055
X1.9587Y-3.9055
X2.1063Y-3.9055
X2.2539Y-3.9055
X2.4016Y-3.9055
X2.5492Y-3.9055
X2.6969Y-3.9055
X2.8445Y-3.9055
X2.9921Y-3.9055
X3.1398Y-3.9055
X3.2874Y-3.9055
X3.435Y-3.9055
X3.5827Y-3.9055
X3.7303Y-3.9055
X3.878Y-3.9055
X4.0256Y-3.9055
X4.1732Y-3.9055
X4.3209Y-3.9055
X4.4685Y-3.9055
X4.6161Y-3.9055
X4.7638Y-3.9055
X4.8465Y-3.8563
X4.9114Y-3.9055
X4.9783Y-3.813
X5.0591Y-3.9055
X5.2067Y-3.9055
X5.3543Y-3.9055
X5.502Y-3.9055
X5.6496Y-3.9055
X5.6772Y-3.4843
X5.7146Y-3.7894
X5.7677Y-3.4665
X5.7913Y-3.6969
X5.7972Y-3.9055
X5.8041Y-3.6022
X5.8543Y-3.4665
X5.872Y-4.3071
X5.8957Y-3.5359
X5.9409Y-3.4646
X5.9449Y-3.9055
X5.9547Y-4.1929
X5.9844Y-3.4665
X6.0069Y-3.7022
X6.0069Y-3.7431
X6.0315Y-4.4035
X6.0492Y-4.0748
X6.061Y-4.2146
X6.061Y-4.252
X6.0925Y-3.9055
X6.128Y-3.4724
X6.1949Y-4.2579
X6.2402Y-3.9055
X6.2835Y-4.2618
X6.311Y-3.8602
X6.3346Y-4.187
X6.3346Y-4.2185
X6.3524Y-4.0846
X6.3661Y-4.2185
X6.3681Y-4.187
X6.3915Y-3.9018
X6.4803Y-4.1437
X6.4823Y-4.0846
X6.4823Y-4.2028
X6.5354Y-3.9055
X6.6831Y-3.9055
X6.8307Y-3.9055
X6.9783Y-3.9055
X7.126Y-3.9055
X7.2736Y-3.9055
X7.4213Y-3.9055
X7.5689Y-3.9055
X7.7165Y-3.9055
X7.8642Y-3.9055
X8.0118Y-3.9055
X8.1594Y-3.9055
X8.3071Y-3.9055
X8.4547Y-3.9055
X8.6024Y-3.9055
X8.75Y-3.9055
X8.8976Y-3.9055
X9.0453Y-3.9055
X9.1929Y-3.9055
X9.3406Y-3.9055
X9.4882Y-3.9055
X9.6358Y-3.9055
X9.7835Y-3.9055
X9.9311Y-3.9055
X10.0787Y-3.9055
X10.2264Y-3.9055
X10.374Y-3.9055
X10.5217Y-3.9055
X10.6161Y-3.8839
T2
X5.4154Y-4.089
X5.4154Y-4.189
M30
