%TF.GenerationSoftware,KiCad,Pcbnew,7.0.9-7.0.9~ubuntu22.04.1*%
%TF.CreationDate,2023-12-22T18:09:10-07:00*%
%TF.ProjectId,tiny_pov_arm,74696e79-5f70-46f7-965f-61726d2e6b69,rev?*%
%TF.SameCoordinates,Original*%
%TF.FileFunction,Profile,NP*%
%FSLAX46Y46*%
G04 Gerber Fmt 4.6, Leading zero omitted, Abs format (unit mm)*
G04 Created by KiCad (PCBNEW 7.0.9-7.0.9~ubuntu22.04.1) date 2023-12-22 18:09:10*
%MOMM*%
%LPD*%
G01*
G04 APERTURE LIST*
%TA.AperFunction,Profile*%
%ADD10C,0.200000*%
%TD*%
G04 APERTURE END LIST*
D10*
X270000000Y-110000000D02*
G75*
G03*
X270000000Y-100000000I0J5000000D01*
G01*
X159793449Y-119318892D02*
G75*
G03*
X165256171Y-117056171I2262751J2262692D01*
G01*
X163756171Y-117056171D02*
G75*
G03*
X163756171Y-117056171I-1700000J0D01*
G01*
X140206588Y-90681071D02*
G75*
G03*
X145495326Y-91903037I3622512J3622471D01*
G01*
X127687659Y-99999999D02*
G75*
G03*
X134743829Y-92943829I1J7056169D01*
G01*
X270000000Y-100000000D02*
X172312341Y-100000000D01*
X163756171Y-92943829D02*
G75*
G03*
X163756171Y-92943829I-1700000J0D01*
G01*
X139643829Y-117056171D02*
G75*
G03*
X139643829Y-117056171I-1700000J0D01*
G01*
X127687659Y-110000000D02*
X30000000Y-110000000D01*
X270000000Y-110000000D02*
X172312341Y-110000000D01*
X139643829Y-92943829D02*
G75*
G03*
X139643829Y-92943829I-1700000J0D01*
G01*
X165256100Y-92943829D02*
G75*
G03*
X172312341Y-100000000I7056200J29D01*
G01*
X154504674Y-91903039D02*
G75*
G03*
X145495326Y-91903039I-4504674J-13096962D01*
G01*
X172312341Y-110000071D02*
G75*
G03*
X165256171Y-117056171I-41J-7056129D01*
G01*
X145495334Y-118096940D02*
G75*
G03*
X140206571Y-119318912I-1666234J-4844460D01*
G01*
X140206551Y-90681108D02*
G75*
G03*
X134743829Y-92943829I-2262751J-2262692D01*
G01*
X145495326Y-118096961D02*
G75*
G03*
X154504674Y-118096961I4504674J13096962D01*
G01*
X30000000Y-100000000D02*
G75*
G03*
X30000000Y-110000000I0J-5000000D01*
G01*
X154504666Y-91903060D02*
G75*
G03*
X159793429Y-90681088I1666234J4844460D01*
G01*
X165256199Y-92943829D02*
G75*
G03*
X159793430Y-90681089I-3199999J29D01*
G01*
X134743900Y-117056171D02*
G75*
G03*
X127687659Y-110000000I-7056200J-29D01*
G01*
X159793412Y-119318929D02*
G75*
G03*
X154504674Y-118096963I-3622512J-3622471D01*
G01*
X134743801Y-117056171D02*
G75*
G03*
X140206570Y-119318911I3199999J-29D01*
G01*
X127687659Y-100000000D02*
X30000000Y-100000000D01*
M02*
