%TF.GenerationSoftware,KiCad,Pcbnew,7.0.10-7.0.10~ubuntu22.04.1*%
%TF.CreationDate,2024-01-14T15:54:16-07:00*%
%TF.ProjectId,tiny_pov_arm,74696e79-5f70-46f7-965f-61726d2e6b69,rev?*%
%TF.SameCoordinates,Original*%
%TF.FileFunction,Copper,L2,Bot*%
%TF.FilePolarity,Positive*%
%FSLAX46Y46*%
G04 Gerber Fmt 4.6, Leading zero omitted, Abs format (unit mm)*
G04 Created by KiCad (PCBNEW 7.0.10-7.0.10~ubuntu22.04.1) date 2024-01-14 15:54:16*
%MOMM*%
%LPD*%
G01*
G04 APERTURE LIST*
G04 Aperture macros list*
%AMRoundRect*
0 Rectangle with rounded corners*
0 $1 Rounding radius*
0 $2 $3 $4 $5 $6 $7 $8 $9 X,Y pos of 4 corners*
0 Add a 4 corners polygon primitive as box body*
4,1,4,$2,$3,$4,$5,$6,$7,$8,$9,$2,$3,0*
0 Add four circle primitives for the rounded corners*
1,1,$1+$1,$2,$3*
1,1,$1+$1,$4,$5*
1,1,$1+$1,$6,$7*
1,1,$1+$1,$8,$9*
0 Add four rect primitives between the rounded corners*
20,1,$1+$1,$2,$3,$4,$5,0*
20,1,$1+$1,$4,$5,$6,$7,0*
20,1,$1+$1,$6,$7,$8,$9,0*
20,1,$1+$1,$8,$9,$2,$3,0*%
G04 Aperture macros list end*
%TA.AperFunction,ComponentPad*%
%ADD10R,1.700000X1.700000*%
%TD*%
%TA.AperFunction,ComponentPad*%
%ADD11O,1.700000X1.700000*%
%TD*%
%TA.AperFunction,SMDPad,CuDef*%
%ADD12RoundRect,0.237500X0.300000X0.237500X-0.300000X0.237500X-0.300000X-0.237500X0.300000X-0.237500X0*%
%TD*%
%TA.AperFunction,SMDPad,CuDef*%
%ADD13RoundRect,0.237500X-0.300000X-0.237500X0.300000X-0.237500X0.300000X0.237500X-0.300000X0.237500X0*%
%TD*%
%TA.AperFunction,SMDPad,CuDef*%
%ADD14R,1.800000X0.800000*%
%TD*%
%TA.AperFunction,SMDPad,CuDef*%
%ADD15R,1.701800X1.143000*%
%TD*%
%TA.AperFunction,SMDPad,CuDef*%
%ADD16R,0.850000X1.100000*%
%TD*%
%TA.AperFunction,SMDPad,CuDef*%
%ADD17R,0.750000X1.100000*%
%TD*%
%TA.AperFunction,SMDPad,CuDef*%
%ADD18R,1.200000X1.000000*%
%TD*%
%TA.AperFunction,SMDPad,CuDef*%
%ADD19R,1.550000X1.350000*%
%TD*%
%TA.AperFunction,SMDPad,CuDef*%
%ADD20R,1.900000X1.350000*%
%TD*%
%TA.AperFunction,SMDPad,CuDef*%
%ADD21R,1.170000X1.800000*%
%TD*%
%TA.AperFunction,ViaPad*%
%ADD22C,0.800000*%
%TD*%
%TA.AperFunction,Conductor*%
%ADD23C,0.250000*%
%TD*%
%TA.AperFunction,Conductor*%
%ADD24C,1.000000*%
%TD*%
%TA.AperFunction,Conductor*%
%ADD25C,0.500000*%
%TD*%
G04 APERTURE END LIST*
D10*
%TO.P,J1,1*%
%TO.N,Vac_a*%
X137550000Y-106400000D03*
D11*
%TO.P,J1,2*%
%TO.N,Vac_b*%
X137550000Y-103860000D03*
%TD*%
D12*
%TO.P,C10,1*%
%TO.N,Vdd*%
X161312500Y-108250000D03*
%TO.P,C10,2*%
%TO.N,GND*%
X159587500Y-108250000D03*
%TD*%
D13*
%TO.P,C2,1*%
%TO.N,V_rect_plus*%
X155462500Y-108550000D03*
%TO.P,C2,2*%
%TO.N,GND*%
X157187500Y-108550000D03*
%TD*%
%TO.P,C12,1*%
%TO.N,Vdd*%
X162900000Y-105250000D03*
%TO.P,C12,2*%
%TO.N,GND*%
X164625000Y-105250000D03*
%TD*%
D12*
%TO.P,C7,1*%
%TO.N,Vdd*%
X161312500Y-103750000D03*
%TO.P,C7,2*%
%TO.N,GND*%
X159587500Y-103750000D03*
%TD*%
%TO.P,C1,1*%
%TO.N,V_rect_plus*%
X153837500Y-108550000D03*
%TO.P,C1,2*%
%TO.N,GND*%
X152112500Y-108550000D03*
%TD*%
%TO.P,C4,1*%
%TO.N,V_rect_plus*%
X153812500Y-110050000D03*
%TO.P,C4,2*%
%TO.N,GND*%
X152087500Y-110050000D03*
%TD*%
D13*
%TO.P,C5,1*%
%TO.N,V_rect_plus*%
X155425000Y-111550000D03*
%TO.P,C5,2*%
%TO.N,GND*%
X157150000Y-111550000D03*
%TD*%
D14*
%TO.P,U2,1*%
%TO.N,Vdd*%
X123100000Y-97800000D03*
%TO.P,U2,2*%
%TO.N,HALL_DATA*%
X123100000Y-95900000D03*
%TO.P,U2,3*%
%TO.N,GND*%
X126400000Y-96850000D03*
%TD*%
D15*
%TO.P,BR1,1*%
%TO.N,V_rect_plus*%
X149200000Y-104359300D03*
%TO.P,BR1,2*%
%TO.N,Vac_b*%
X141402200Y-104359300D03*
%TO.P,BR1,3*%
%TO.N,GND*%
X149200000Y-109359300D03*
%TO.P,BR1,4*%
%TO.N,Vac_a*%
X141402200Y-109359300D03*
%TD*%
D13*
%TO.P,C13,1*%
%TO.N,Vdd*%
X162900000Y-103750000D03*
%TO.P,C13,2*%
%TO.N,GND*%
X164625000Y-103750000D03*
%TD*%
D12*
%TO.P,C9,1*%
%TO.N,Vdd*%
X161312500Y-106750000D03*
%TO.P,C9,2*%
%TO.N,GND*%
X159587500Y-106750000D03*
%TD*%
D16*
%TO.P,J2,1*%
%TO.N,N/C*%
X153105000Y-88050000D03*
%TO.P,J2,2*%
%TO.N,SD_CS*%
X152005000Y-88050000D03*
%TO.P,J2,3*%
%TO.N,SD_MOSI*%
X150905000Y-88050000D03*
%TO.P,J2,4*%
%TO.N,Vdd*%
X149805000Y-88050000D03*
%TO.P,J2,5*%
%TO.N,SD_SCK*%
X148705000Y-88050000D03*
%TO.P,J2,6*%
%TO.N,GND*%
X147605000Y-88050000D03*
%TO.P,J2,7*%
%TO.N,SD_MISO*%
X146505000Y-88050000D03*
D17*
%TO.P,J2,8*%
%TO.N,N/C*%
X145455000Y-88050000D03*
D18*
%TO.P,J2,9*%
X155740000Y-94200000D03*
%TO.P,J2,10*%
X155740000Y-97900000D03*
D19*
%TO.P,J2,11*%
%TO.N,GND*%
X155565000Y-88175000D03*
D20*
X152240000Y-98875000D03*
X146270000Y-98875000D03*
D21*
X144245000Y-88400000D03*
%TD*%
D12*
%TO.P,C8,1*%
%TO.N,Vdd*%
X161312500Y-105250000D03*
%TO.P,C8,2*%
%TO.N,GND*%
X159587500Y-105250000D03*
%TD*%
D13*
%TO.P,C11,1*%
%TO.N,Vdd*%
X162900000Y-106750000D03*
%TO.P,C11,2*%
%TO.N,GND*%
X164625000Y-106750000D03*
%TD*%
%TO.P,C3,1*%
%TO.N,V_rect_plus*%
X155437500Y-110050000D03*
%TO.P,C3,2*%
%TO.N,GND*%
X157162500Y-110050000D03*
%TD*%
D22*
%TO.N,GND*%
X159600000Y-108250000D03*
X143500000Y-99200000D03*
X241000000Y-99200000D03*
X164650000Y-106750000D03*
X42250000Y-99200000D03*
X64750000Y-99200000D03*
X199750000Y-99200000D03*
X184750000Y-99200000D03*
X192250000Y-99200000D03*
X106000000Y-99200000D03*
X155650000Y-88200000D03*
X91000000Y-99200000D03*
X153650000Y-103500000D03*
X98500000Y-99200000D03*
X153200000Y-111850000D03*
X121000000Y-99200000D03*
X226000000Y-99200000D03*
X57250000Y-99200000D03*
X158500000Y-99200000D03*
X181000000Y-99200000D03*
X218500000Y-99200000D03*
X207250000Y-99200000D03*
X252250000Y-99200000D03*
X94750000Y-99200000D03*
X34750000Y-99200000D03*
X188500000Y-99200000D03*
X173500000Y-99200000D03*
X248500000Y-99200000D03*
X132250000Y-99200000D03*
X38500000Y-99200000D03*
X117250000Y-99200000D03*
X126450000Y-96850000D03*
X53500000Y-99200000D03*
X102250000Y-99200000D03*
X61000000Y-99200000D03*
X164600000Y-105250000D03*
X139750000Y-99200000D03*
X203500000Y-99200000D03*
X244750000Y-99200000D03*
X237250000Y-99200000D03*
X68500000Y-99200000D03*
X162344742Y-99105258D03*
X211000000Y-99200000D03*
X147250000Y-99200000D03*
X49750000Y-99200000D03*
X149150000Y-109400000D03*
X269650000Y-98650000D03*
X79750000Y-99200000D03*
X214750000Y-99200000D03*
X164650000Y-103750000D03*
X144200000Y-88500000D03*
X166000000Y-99200000D03*
X263500000Y-99200000D03*
X157350000Y-108150000D03*
X259750000Y-99200000D03*
X83500000Y-99200000D03*
X196000000Y-99200000D03*
X233500000Y-99200000D03*
X169750000Y-99200000D03*
X154750000Y-99200000D03*
X113500000Y-99200000D03*
X109750000Y-99200000D03*
X267250000Y-99200000D03*
X256000000Y-99200000D03*
X229750000Y-99200000D03*
X124750000Y-99200000D03*
X87250000Y-99200000D03*
X222250000Y-99200000D03*
X151250000Y-106500000D03*
X136000000Y-99200000D03*
X147100000Y-93900000D03*
X46000000Y-99200000D03*
X76000000Y-99200000D03*
X177250000Y-99200000D03*
X151000000Y-99200000D03*
X128500000Y-99200000D03*
X72250000Y-99200000D03*
%TO.N,SD_SCK*%
X147425000Y-91495000D03*
X148700000Y-88050000D03*
%TO.N,Vdd*%
X161750000Y-106350000D03*
X160900000Y-107150000D03*
X160300000Y-98050000D03*
X161700000Y-107150000D03*
X160900000Y-106350000D03*
X123100000Y-97950000D03*
X161350000Y-103750000D03*
X149750000Y-89812500D03*
%TO.N,SD_MOSI*%
X150900000Y-88000000D03*
X152575000Y-94035000D03*
%TO.N,SD_MISO*%
X146500000Y-88050000D03*
X152575000Y-95075000D03*
%TO.N,V_rect_plus*%
X153950000Y-107050000D03*
X153950000Y-108000000D03*
%TO.N,HALL_DATA*%
X145150000Y-96250000D03*
%TO.N,SD_CS*%
X152004998Y-88050001D03*
%TD*%
D23*
%TO.N,GND*%
X267250000Y-99200000D02*
X269100000Y-99200000D01*
X269100000Y-99200000D02*
X269650000Y-98650000D01*
%TO.N,SD_SCK*%
X148705000Y-90215000D02*
X147425000Y-91495000D01*
X148705000Y-88050000D02*
X148705000Y-90215000D01*
D24*
%TO.N,Vdd*%
X161350000Y-103750000D02*
X162900000Y-103750000D01*
D25*
X149805000Y-89757500D02*
X149750000Y-89812500D01*
D24*
X162900000Y-106750000D02*
X161312500Y-106750000D01*
X161312500Y-105250000D02*
X161312500Y-106750000D01*
X162900000Y-103750000D02*
X162900000Y-106750000D01*
X161312500Y-108250000D02*
X161400000Y-108250000D01*
X160300000Y-101150000D02*
X160300000Y-98050000D01*
X161312500Y-103750000D02*
X161312500Y-105250000D01*
D25*
X149805000Y-88050000D02*
X149805000Y-89757500D01*
D24*
X162812500Y-106750000D02*
X161312500Y-105250000D01*
X161400000Y-103750000D02*
X162900000Y-105250000D01*
X161312500Y-103750000D02*
X161350000Y-103750000D01*
X161400000Y-108250000D02*
X162900000Y-106750000D01*
X161312500Y-105250000D02*
X162900000Y-105250000D01*
X162900000Y-106750000D02*
X162812500Y-106750000D01*
X162900000Y-103750000D02*
X160300000Y-101150000D01*
X161312500Y-103750000D02*
X161400000Y-103750000D01*
X161312500Y-108250000D02*
X161312500Y-106750000D01*
D23*
%TO.N,SD_MOSI*%
X150905000Y-92365000D02*
X152575000Y-94035000D01*
X150905000Y-88050000D02*
X150905000Y-92365000D01*
%TO.N,SD_MISO*%
X146505000Y-91784153D02*
X149795847Y-95075000D01*
X146505000Y-88050000D02*
X146505000Y-91784153D01*
X149795847Y-95075000D02*
X152575000Y-95075000D01*
D24*
%TO.N,V_rect_plus*%
X155425000Y-111550000D02*
X155312500Y-111550000D01*
X153950000Y-107050000D02*
X153950000Y-109912500D01*
X155312500Y-108550000D02*
X153812500Y-110050000D01*
X149200000Y-104359300D02*
X151259300Y-104359300D01*
X153812500Y-110050000D02*
X155437500Y-110050000D01*
X155462500Y-108550000D02*
X155462500Y-111512500D01*
X153937500Y-108550000D02*
X155437500Y-110050000D01*
X153950000Y-108000000D02*
X154912500Y-108000000D01*
X155462500Y-111512500D02*
X155425000Y-111550000D01*
X153837500Y-108550000D02*
X153937500Y-108550000D01*
X153950000Y-109912500D02*
X153812500Y-110050000D01*
X155462500Y-108550000D02*
X155312500Y-108550000D01*
X154912500Y-108000000D02*
X155462500Y-108550000D01*
X155312500Y-111550000D02*
X153812500Y-110050000D01*
X151259300Y-104359300D02*
X153950000Y-107050000D01*
D23*
%TO.N,HALL_DATA*%
X145150000Y-96250000D02*
X144800000Y-95900000D01*
X144800000Y-95900000D02*
X123100000Y-95900000D01*
D24*
%TO.N,Vac_a*%
X140509300Y-109359300D02*
X137550000Y-106400000D01*
X141402200Y-109359300D02*
X140509300Y-109359300D01*
%TO.N,Vac_b*%
X141402200Y-104359300D02*
X138049300Y-104359300D01*
X138049300Y-104359300D02*
X137550000Y-103860000D01*
%TD*%
%TA.AperFunction,Conductor*%
%TO.N,GND*%
G36*
X162173351Y-84750469D02*
G01*
X162178016Y-84750641D01*
X162340187Y-84759748D01*
X162348636Y-84760515D01*
X162521653Y-84782246D01*
X162526882Y-84783018D01*
X162687090Y-84810237D01*
X162694800Y-84811801D01*
X162864441Y-84851887D01*
X162870193Y-84853395D01*
X163026401Y-84898398D01*
X163033281Y-84900601D01*
X163080998Y-84917434D01*
X163197591Y-84958567D01*
X163203789Y-84960942D01*
X163353923Y-85023129D01*
X163359987Y-85025833D01*
X163416027Y-85052644D01*
X163517144Y-85101021D01*
X163523589Y-85104340D01*
X163665861Y-85182971D01*
X163671020Y-85185988D01*
X163671073Y-85186021D01*
X163819250Y-85277554D01*
X163825838Y-85281919D01*
X163958349Y-85375940D01*
X163962664Y-85379145D01*
X164100327Y-85486085D01*
X164106856Y-85491527D01*
X164169352Y-85547377D01*
X164227911Y-85599709D01*
X164231386Y-85602936D01*
X164356927Y-85724074D01*
X164363285Y-85730679D01*
X164471379Y-85851637D01*
X164474066Y-85854747D01*
X164516527Y-85905554D01*
X164586020Y-85988707D01*
X164591992Y-85996455D01*
X164659180Y-86091147D01*
X164685731Y-86128568D01*
X164687704Y-86131433D01*
X164784858Y-86276837D01*
X164790283Y-86285746D01*
X164868429Y-86427141D01*
X164869777Y-86429647D01*
X164951039Y-86584998D01*
X164955724Y-86595021D01*
X165017308Y-86743701D01*
X165018137Y-86745753D01*
X165082559Y-86909489D01*
X165086323Y-86920563D01*
X165130572Y-87074161D01*
X165131000Y-87075682D01*
X165177852Y-87246468D01*
X165180518Y-87258504D01*
X165206841Y-87413441D01*
X165206996Y-87414376D01*
X165235754Y-87591853D01*
X165237157Y-87604745D01*
X165245487Y-87753295D01*
X165245503Y-87753600D01*
X165255493Y-87939988D01*
X165255671Y-87946625D01*
X165255671Y-87995468D01*
X165255698Y-87995720D01*
X165255694Y-88195858D01*
X165255694Y-88195866D01*
X165273612Y-88446462D01*
X165290575Y-88683719D01*
X165291641Y-88698621D01*
X165291644Y-88698656D01*
X165349874Y-89103705D01*
X165363368Y-89197569D01*
X165470505Y-89690113D01*
X165595355Y-90115341D01*
X165612510Y-90173769D01*
X165788650Y-90646037D01*
X165998042Y-91104557D01*
X166239605Y-91546959D01*
X166512119Y-91971005D01*
X166549461Y-92020889D01*
X166814190Y-92374530D01*
X166814195Y-92374536D01*
X166814196Y-92374537D01*
X167144241Y-92755433D01*
X167144278Y-92755475D01*
X167144285Y-92755482D01*
X167144297Y-92755495D01*
X167500640Y-93111838D01*
X167500703Y-93111901D01*
X167690304Y-93276191D01*
X167881648Y-93441992D01*
X168285158Y-93744055D01*
X168285169Y-93744063D01*
X168642582Y-93973756D01*
X168709148Y-94016535D01*
X168709214Y-94016577D01*
X169151619Y-94258146D01*
X169610131Y-94467537D01*
X169610156Y-94467546D01*
X169610160Y-94467548D01*
X170082402Y-94643679D01*
X170082413Y-94643683D01*
X170566058Y-94785688D01*
X171058601Y-94892827D01*
X171557533Y-94964554D01*
X172060310Y-95000505D01*
X172312341Y-95000500D01*
X172312841Y-95000500D01*
X269997294Y-95000500D01*
X270002702Y-95000617D01*
X270400997Y-95018008D01*
X270430934Y-95019353D01*
X270441519Y-95020286D01*
X270720702Y-95057041D01*
X270869569Y-95077207D01*
X270879682Y-95079009D01*
X271131090Y-95134745D01*
X271131665Y-95134875D01*
X271301326Y-95173599D01*
X271310967Y-95176214D01*
X271524826Y-95243643D01*
X271546675Y-95250533D01*
X271547705Y-95250863D01*
X271722853Y-95307771D01*
X271731948Y-95311127D01*
X271955240Y-95403617D01*
X271956101Y-95403979D01*
X272130870Y-95478679D01*
X272139329Y-95482682D01*
X272350424Y-95592571D01*
X272351817Y-95593308D01*
X272522108Y-95684946D01*
X272529961Y-95689553D01*
X272728620Y-95816113D01*
X272730237Y-95817160D01*
X272893578Y-95924981D01*
X272900752Y-95930092D01*
X273086215Y-96072402D01*
X273088042Y-96073831D01*
X273242373Y-96196906D01*
X273248823Y-96202421D01*
X273420332Y-96359581D01*
X273422108Y-96361244D01*
X273509241Y-96444552D01*
X273565739Y-96498570D01*
X273571469Y-96504423D01*
X273727850Y-96675082D01*
X273729809Y-96677271D01*
X273861166Y-96827621D01*
X273866161Y-96833719D01*
X274006610Y-97016756D01*
X274008552Y-97019357D01*
X274126336Y-97181473D01*
X274130598Y-97187733D01*
X274254215Y-97381772D01*
X274256083Y-97384798D01*
X274359180Y-97557354D01*
X274362721Y-97563696D01*
X274468751Y-97767376D01*
X274470482Y-97770831D01*
X274557874Y-97952302D01*
X274560715Y-97958652D01*
X274648462Y-98170494D01*
X274649994Y-98174375D01*
X274720874Y-98363233D01*
X274723042Y-98369517D01*
X274791915Y-98587957D01*
X274793185Y-98592255D01*
X274846915Y-98786936D01*
X274848445Y-98793087D01*
X274897978Y-99016522D01*
X274898924Y-99021218D01*
X274935017Y-99220102D01*
X274935949Y-99226059D01*
X274965799Y-99452798D01*
X274966361Y-99457868D01*
X274984493Y-99659330D01*
X274984874Y-99665036D01*
X274994847Y-99893430D01*
X274994965Y-99898839D01*
X274994965Y-100101159D01*
X274994847Y-100106568D01*
X274984874Y-100334962D01*
X274984493Y-100340668D01*
X274966361Y-100542130D01*
X274965799Y-100547200D01*
X274935949Y-100773939D01*
X274935017Y-100779896D01*
X274898924Y-100978780D01*
X274897978Y-100983476D01*
X274848445Y-101206911D01*
X274846915Y-101213062D01*
X274793185Y-101407743D01*
X274791915Y-101412041D01*
X274723042Y-101630481D01*
X274720874Y-101636765D01*
X274649994Y-101825623D01*
X274648462Y-101829504D01*
X274560715Y-102041346D01*
X274557874Y-102047696D01*
X274470482Y-102229167D01*
X274468751Y-102232622D01*
X274362721Y-102436302D01*
X274359180Y-102442644D01*
X274256083Y-102615200D01*
X274254215Y-102618226D01*
X274130598Y-102812265D01*
X274126336Y-102818525D01*
X274008552Y-102980641D01*
X274006610Y-102983242D01*
X273866161Y-103166279D01*
X273861166Y-103172377D01*
X273729809Y-103322727D01*
X273727850Y-103324916D01*
X273571469Y-103495575D01*
X273565739Y-103501428D01*
X273422155Y-103638710D01*
X273420236Y-103640507D01*
X273248833Y-103797568D01*
X273242373Y-103803092D01*
X273088042Y-103926167D01*
X273086215Y-103927596D01*
X272900752Y-104069906D01*
X272893578Y-104075017D01*
X272730307Y-104182792D01*
X272728620Y-104183885D01*
X272529961Y-104310445D01*
X272522096Y-104315059D01*
X272351867Y-104406663D01*
X272350364Y-104407458D01*
X272139349Y-104517306D01*
X272130827Y-104521339D01*
X271956335Y-104595920D01*
X271955053Y-104596459D01*
X271731972Y-104688862D01*
X271722837Y-104692232D01*
X271547705Y-104749135D01*
X271546675Y-104749465D01*
X271310995Y-104823776D01*
X271301299Y-104826406D01*
X271131735Y-104865107D01*
X271130982Y-104865277D01*
X270879723Y-104920981D01*
X270869528Y-104922798D01*
X270720727Y-104942953D01*
X270720268Y-104943014D01*
X270441536Y-104979710D01*
X270430915Y-104980646D01*
X270400369Y-104982018D01*
X270400214Y-104982025D01*
X270002703Y-104999382D01*
X269997294Y-104999500D01*
X172302255Y-104999500D01*
X172302241Y-104999501D01*
X172060311Y-104999503D01*
X171557538Y-105035468D01*
X171058607Y-105107208D01*
X170566072Y-105214357D01*
X170566057Y-105214361D01*
X170082444Y-105356367D01*
X170082408Y-105356379D01*
X169610169Y-105532519D01*
X169610161Y-105532522D01*
X169151663Y-105741913D01*
X168709257Y-105983487D01*
X168709244Y-105983495D01*
X168285208Y-106256009D01*
X167881698Y-106558075D01*
X167500766Y-106888155D01*
X167500741Y-106888178D01*
X167144348Y-107244571D01*
X167144325Y-107244596D01*
X166814245Y-107625528D01*
X166512179Y-108029038D01*
X166239665Y-108453074D01*
X166239657Y-108453087D01*
X165998083Y-108895493D01*
X165788692Y-109353991D01*
X165788689Y-109353999D01*
X165612549Y-109826238D01*
X165612537Y-109826274D01*
X165470531Y-110309887D01*
X165470527Y-110309902D01*
X165363378Y-110802437D01*
X165291638Y-111301368D01*
X165255673Y-111804141D01*
X165255671Y-112052856D01*
X165255493Y-112059491D01*
X165245215Y-112251269D01*
X165245198Y-112251585D01*
X165237131Y-112395250D01*
X165235729Y-112408133D01*
X165206990Y-112585487D01*
X165206835Y-112586421D01*
X165180489Y-112741496D01*
X165177823Y-112753532D01*
X165130982Y-112924276D01*
X165130554Y-112925797D01*
X165086296Y-113079426D01*
X165082532Y-113090500D01*
X165018130Y-113254188D01*
X165017301Y-113256240D01*
X164955691Y-113404981D01*
X164951006Y-113415004D01*
X164869783Y-113570280D01*
X164868435Y-113572786D01*
X164790251Y-113714250D01*
X164784826Y-113723159D01*
X164687692Y-113868532D01*
X164685719Y-113871397D01*
X164591979Y-114003512D01*
X164585997Y-114011274D01*
X164474044Y-114145234D01*
X164471356Y-114148344D01*
X164363254Y-114269310D01*
X164356897Y-114275915D01*
X164231382Y-114397028D01*
X164227906Y-114400256D01*
X164106854Y-114508435D01*
X164100298Y-114513900D01*
X163962641Y-114620836D01*
X163958325Y-114624041D01*
X163825820Y-114718057D01*
X163819232Y-114722422D01*
X163671019Y-114813977D01*
X163665833Y-114817010D01*
X163523578Y-114895631D01*
X163517114Y-114898960D01*
X163359992Y-114974133D01*
X163353927Y-114976837D01*
X163203768Y-115039034D01*
X163197570Y-115041409D01*
X163033293Y-115099364D01*
X163026366Y-115101582D01*
X162870199Y-115146572D01*
X162864388Y-115148095D01*
X162694829Y-115188162D01*
X162687083Y-115189733D01*
X162526903Y-115216948D01*
X162521586Y-115217733D01*
X162348665Y-115239452D01*
X162340164Y-115240224D01*
X162178034Y-115249328D01*
X162173295Y-115249503D01*
X161998929Y-115252615D01*
X161989762Y-115252440D01*
X161827761Y-115243341D01*
X161823662Y-115243042D01*
X161649807Y-115227483D01*
X161640088Y-115226225D01*
X161480372Y-115199087D01*
X161476952Y-115198456D01*
X161305465Y-115164344D01*
X161295328Y-115161880D01*
X161140046Y-115117142D01*
X161137321Y-115116323D01*
X160970075Y-115063953D01*
X160959676Y-115060180D01*
X160810906Y-114998557D01*
X160808868Y-114997691D01*
X160647609Y-114927495D01*
X160637117Y-114922327D01*
X160497236Y-114845015D01*
X160495858Y-114844241D01*
X160341954Y-114756599D01*
X160331559Y-114749975D01*
X160203338Y-114658996D01*
X160202566Y-114658444D01*
X160198929Y-114655821D01*
X160056752Y-114553295D01*
X160046677Y-114545197D01*
X159943045Y-114452598D01*
X159942828Y-114452404D01*
X159939696Y-114449591D01*
X159884775Y-114400256D01*
X159795857Y-114320382D01*
X159791051Y-114315827D01*
X159649217Y-114174029D01*
X159649213Y-114174025D01*
X159649205Y-114174017D01*
X159337967Y-113908855D01*
X159337950Y-113908843D01*
X159173375Y-113789887D01*
X159006591Y-113669335D01*
X159006578Y-113669327D01*
X159006572Y-113669323D01*
X158657201Y-113456988D01*
X158657192Y-113456983D01*
X158291962Y-113273135D01*
X157913276Y-113118984D01*
X157913274Y-113118983D01*
X157913266Y-113118980D01*
X157632563Y-113030045D01*
X157523495Y-112995489D01*
X157523489Y-112995487D01*
X157125106Y-112903441D01*
X157125107Y-112903441D01*
X156720666Y-112843432D01*
X156720647Y-112843430D01*
X156312714Y-112815836D01*
X156312711Y-112815836D01*
X156297723Y-112816019D01*
X155903868Y-112820832D01*
X155496726Y-112858387D01*
X155093860Y-112928265D01*
X155093857Y-112928265D01*
X155093855Y-112928266D01*
X154697842Y-113030020D01*
X154697839Y-113030020D01*
X154697835Y-113030022D01*
X154506049Y-113095959D01*
X154503062Y-113096944D01*
X154279766Y-113167436D01*
X154279516Y-113167515D01*
X153814580Y-113313207D01*
X153808758Y-113314876D01*
X153490156Y-113397868D01*
X153489391Y-113398064D01*
X153101837Y-113496385D01*
X153096449Y-113497625D01*
X152757439Y-113567710D01*
X152756148Y-113567970D01*
X152380267Y-113641524D01*
X152375339Y-113642385D01*
X152026490Y-113696142D01*
X152024666Y-113696410D01*
X151651881Y-113748195D01*
X151647438Y-113748730D01*
X151292959Y-113784988D01*
X151290599Y-113785207D01*
X150918717Y-113816076D01*
X150914776Y-113816340D01*
X150557249Y-113834577D01*
X150554355Y-113834691D01*
X150182664Y-113844956D01*
X150179241Y-113845003D01*
X149820759Y-113845003D01*
X149817336Y-113844956D01*
X149445643Y-113834691D01*
X149442749Y-113834577D01*
X149085222Y-113816340D01*
X149081281Y-113816076D01*
X148709399Y-113785207D01*
X148707039Y-113784988D01*
X148352560Y-113748730D01*
X148348117Y-113748195D01*
X147975332Y-113696410D01*
X147973508Y-113696142D01*
X147624659Y-113642385D01*
X147619731Y-113641524D01*
X147243850Y-113567970D01*
X147242559Y-113567710D01*
X146903549Y-113497625D01*
X146898161Y-113496385D01*
X146510607Y-113398064D01*
X146509842Y-113397868D01*
X146191240Y-113314876D01*
X146185419Y-113313207D01*
X145720483Y-113167516D01*
X145720231Y-113167437D01*
X145496854Y-113096919D01*
X145494004Y-113095981D01*
X145471126Y-113088145D01*
X145470986Y-113088097D01*
X145302156Y-113030045D01*
X145302151Y-113030043D01*
X145302149Y-113030043D01*
X145107761Y-112980089D01*
X144906147Y-112928278D01*
X144906141Y-112928276D01*
X144906138Y-112928276D01*
X144906130Y-112928274D01*
X144906122Y-112928273D01*
X144503291Y-112858389D01*
X144503287Y-112858388D01*
X144503278Y-112858387D01*
X144262587Y-112836179D01*
X144096135Y-112820821D01*
X143873121Y-112818091D01*
X143687282Y-112815817D01*
X143687281Y-112815817D01*
X143687277Y-112815817D01*
X143279345Y-112843404D01*
X142874884Y-112903413D01*
X142476510Y-112995453D01*
X142086729Y-113118947D01*
X142086720Y-113118950D01*
X141708017Y-113273109D01*
X141708013Y-113273110D01*
X141708008Y-113273113D01*
X141342810Y-113456950D01*
X140993393Y-113669319D01*
X140993381Y-113669327D01*
X140662032Y-113908837D01*
X140662030Y-113908839D01*
X140662027Y-113908841D01*
X140662025Y-113908843D01*
X140350792Y-114174012D01*
X140350787Y-114174017D01*
X140350786Y-114174018D01*
X140350778Y-114174025D01*
X140208562Y-114316212D01*
X140203754Y-114320769D01*
X140060580Y-114449379D01*
X140060344Y-114449591D01*
X139953352Y-114545207D01*
X139943251Y-114553325D01*
X139797393Y-114658505D01*
X139796623Y-114659057D01*
X139668450Y-114750003D01*
X139658054Y-114756627D01*
X139504210Y-114844235D01*
X139502831Y-114845009D01*
X139362886Y-114922356D01*
X139352395Y-114927525D01*
X139191176Y-114997702D01*
X139189139Y-114998567D01*
X139040330Y-115060207D01*
X139029931Y-115063980D01*
X138862687Y-115116350D01*
X138859961Y-115117169D01*
X138704675Y-115161908D01*
X138694538Y-115164372D01*
X138523044Y-115198485D01*
X138519623Y-115199116D01*
X138359916Y-115226252D01*
X138350198Y-115227510D01*
X138176327Y-115243071D01*
X138172228Y-115243370D01*
X138010248Y-115252468D01*
X138001081Y-115252643D01*
X137826685Y-115249530D01*
X137821946Y-115249355D01*
X137659838Y-115240252D01*
X137651337Y-115239480D01*
X137478389Y-115217758D01*
X137473072Y-115216973D01*
X137312927Y-115189764D01*
X137305181Y-115188193D01*
X137135587Y-115148118D01*
X137129776Y-115146595D01*
X136973631Y-115101611D01*
X136966704Y-115099393D01*
X136802407Y-115041431D01*
X136796209Y-115039056D01*
X136646075Y-114976869D01*
X136640011Y-114974165D01*
X136482865Y-114898982D01*
X136476400Y-114895653D01*
X136334151Y-114817035D01*
X136328965Y-114814002D01*
X136180748Y-114722444D01*
X136174160Y-114718079D01*
X136041649Y-114624058D01*
X136037334Y-114620853D01*
X135942828Y-114547439D01*
X135899677Y-114513919D01*
X135893138Y-114508467D01*
X135772087Y-114400289D01*
X135768612Y-114397062D01*
X135643071Y-114275924D01*
X135636713Y-114269319D01*
X135528619Y-114148361D01*
X135525932Y-114145251D01*
X135497694Y-114111463D01*
X135413973Y-114011285D01*
X135408012Y-114003552D01*
X135314244Y-113871397D01*
X135312311Y-113868589D01*
X135215139Y-113723159D01*
X135209715Y-113714252D01*
X135200630Y-113697814D01*
X135131544Y-113572811D01*
X135130247Y-113570399D01*
X135048950Y-113414982D01*
X135044283Y-113404996D01*
X134982664Y-113256233D01*
X134981887Y-113254309D01*
X134917432Y-113090489D01*
X134913679Y-113079449D01*
X134869415Y-112925797D01*
X134868998Y-112924316D01*
X134822141Y-112753508D01*
X134819484Y-112741513D01*
X134793134Y-112586421D01*
X134793002Y-112585622D01*
X134788656Y-112558804D01*
X134764244Y-112408145D01*
X134762841Y-112395253D01*
X134754512Y-112246704D01*
X134754496Y-112246398D01*
X134744507Y-112060011D01*
X134744404Y-112056175D01*
X136238561Y-112056175D01*
X136257606Y-112310325D01*
X136313932Y-112557107D01*
X136314321Y-112558808D01*
X136407436Y-112796059D01*
X136534870Y-113016783D01*
X136693779Y-113216048D01*
X136880612Y-113389403D01*
X137091195Y-113532976D01*
X137091200Y-113532978D01*
X137091201Y-113532979D01*
X137091202Y-113532980D01*
X137250535Y-113609710D01*
X137320825Y-113643560D01*
X137360906Y-113655923D01*
X137366235Y-113657701D01*
X137368345Y-113658458D01*
X137368355Y-113658463D01*
X137373710Y-113659934D01*
X137377323Y-113660987D01*
X137564371Y-113718684D01*
X137564376Y-113718684D01*
X137564377Y-113718685D01*
X137608304Y-113725306D01*
X137615010Y-113726727D01*
X137615030Y-113726627D01*
X137619674Y-113727527D01*
X137619688Y-113727531D01*
X137632016Y-113728954D01*
X137636167Y-113729505D01*
X137816394Y-113756671D01*
X137816400Y-113756671D01*
X137864970Y-113756671D01*
X137876890Y-113757356D01*
X137878618Y-113757423D01*
X137878618Y-113757422D01*
X137878619Y-113757423D01*
X137895865Y-113756762D01*
X137900614Y-113756671D01*
X138071260Y-113756671D01*
X138071264Y-113756671D01*
X138123449Y-113748805D01*
X138137175Y-113747512D01*
X138139078Y-113747440D01*
X138159492Y-113743480D01*
X138164532Y-113742612D01*
X138323287Y-113718684D01*
X138377799Y-113701869D01*
X138390692Y-113698641D01*
X138394960Y-113697814D01*
X138394967Y-113697811D01*
X138394969Y-113697811D01*
X138402670Y-113695044D01*
X138416737Y-113689992D01*
X138422051Y-113688219D01*
X138566833Y-113643560D01*
X138622097Y-113616945D01*
X138633958Y-113611976D01*
X138640269Y-113609710D01*
X138661994Y-113597896D01*
X138667312Y-113595171D01*
X138796463Y-113532976D01*
X138850759Y-113495957D01*
X138861351Y-113489489D01*
X138869254Y-113485192D01*
X138889611Y-113469673D01*
X138894842Y-113465901D01*
X139007046Y-113389403D01*
X139058502Y-113341658D01*
X139067630Y-113333975D01*
X139076547Y-113327179D01*
X139094500Y-113308524D01*
X139099423Y-113303689D01*
X139193879Y-113216048D01*
X139240475Y-113157618D01*
X139248051Y-113148974D01*
X139257290Y-113139375D01*
X139272104Y-113118312D01*
X139276544Y-113112389D01*
X139352788Y-113016783D01*
X139354665Y-113013533D01*
X139377247Y-112974417D01*
X139392473Y-112948044D01*
X139398431Y-112938715D01*
X139407248Y-112926181D01*
X139418463Y-112903528D01*
X139422152Y-112896638D01*
X139480222Y-112796059D01*
X139510958Y-112717744D01*
X139515263Y-112708025D01*
X139522901Y-112692599D01*
X139522902Y-112692598D01*
X139522903Y-112692595D01*
X139530285Y-112669268D01*
X139533050Y-112661456D01*
X139573337Y-112558808D01*
X139593150Y-112472000D01*
X139595808Y-112462224D01*
X139601547Y-112444092D01*
X139605120Y-112420958D01*
X139606764Y-112412352D01*
X139630051Y-112310328D01*
X139637083Y-112216489D01*
X139638179Y-112206925D01*
X139641335Y-112186496D01*
X139641957Y-112153991D01*
X139642276Y-112147186D01*
X139649097Y-112056171D01*
X139648887Y-112053375D01*
X139648413Y-112047054D01*
X139642276Y-111965158D01*
X139641956Y-111958346D01*
X139641335Y-111925846D01*
X139638176Y-111905399D01*
X139637082Y-111895846D01*
X139630051Y-111802014D01*
X139606763Y-111699984D01*
X139605119Y-111691378D01*
X139601547Y-111668250D01*
X139595804Y-111650103D01*
X139593152Y-111640349D01*
X139573337Y-111553534D01*
X139533051Y-111450888D01*
X139530284Y-111443070D01*
X139522903Y-111419747D01*
X139515245Y-111404281D01*
X139510966Y-111394618D01*
X139480222Y-111316283D01*
X139422177Y-111215746D01*
X139418458Y-111208802D01*
X139407248Y-111186161D01*
X139398422Y-111173613D01*
X139392480Y-111164309D01*
X139352788Y-111095559D01*
X139276548Y-110999957D01*
X139272089Y-110994007D01*
X139257290Y-110972967D01*
X139248068Y-110963384D01*
X139240469Y-110954715D01*
X139193880Y-110896295D01*
X139099472Y-110808697D01*
X139094471Y-110803786D01*
X139076550Y-110785165D01*
X139076547Y-110785163D01*
X139067654Y-110778384D01*
X139058485Y-110770667D01*
X139007046Y-110722938D01*
X138894865Y-110646454D01*
X138889546Y-110642618D01*
X138869254Y-110627150D01*
X138869250Y-110627147D01*
X138869249Y-110627147D01*
X138861357Y-110622855D01*
X138850746Y-110616375D01*
X138796463Y-110579366D01*
X138796459Y-110579364D01*
X138667376Y-110517201D01*
X138661941Y-110514417D01*
X138640263Y-110502629D01*
X138633955Y-110500363D01*
X138622078Y-110495386D01*
X138566835Y-110468783D01*
X138566833Y-110468782D01*
X138500170Y-110448219D01*
X138422073Y-110424129D01*
X138416711Y-110422340D01*
X138394958Y-110414527D01*
X138390702Y-110413702D01*
X138377764Y-110410462D01*
X138323291Y-110393659D01*
X138323289Y-110393658D01*
X138323287Y-110393658D01*
X138193889Y-110374154D01*
X138164566Y-110369734D01*
X138159446Y-110368852D01*
X138155050Y-110367999D01*
X138139076Y-110364901D01*
X138137155Y-110364828D01*
X138123435Y-110363534D01*
X138071271Y-110355671D01*
X138071264Y-110355671D01*
X137900614Y-110355671D01*
X137895865Y-110355580D01*
X137878618Y-110354918D01*
X137876890Y-110354985D01*
X137864970Y-110355671D01*
X137816386Y-110355671D01*
X137636250Y-110382823D01*
X137631999Y-110383389D01*
X137619689Y-110384810D01*
X137615032Y-110385714D01*
X137615012Y-110385615D01*
X137608326Y-110387031D01*
X137564368Y-110393658D01*
X137377389Y-110451333D01*
X137373721Y-110452403D01*
X137368356Y-110453878D01*
X137366208Y-110454649D01*
X137360890Y-110456422D01*
X137320826Y-110468781D01*
X137091199Y-110579363D01*
X136880611Y-110722939D01*
X136693781Y-110896292D01*
X136693779Y-110896294D01*
X136534870Y-111095559D01*
X136407437Y-111316280D01*
X136314321Y-111553533D01*
X136314319Y-111553540D01*
X136257606Y-111802016D01*
X136238561Y-112056166D01*
X136238561Y-112056175D01*
X134744404Y-112056175D01*
X134744329Y-112053375D01*
X134744329Y-112004538D01*
X134744301Y-112004278D01*
X134744302Y-111958346D01*
X134744306Y-111804140D01*
X134708358Y-111301363D01*
X134636632Y-110802431D01*
X134529495Y-110309887D01*
X134387493Y-109826241D01*
X134211348Y-109353959D01*
X134001959Y-108895446D01*
X134001957Y-108895442D01*
X133760394Y-108453040D01*
X133487880Y-108028994D01*
X133465202Y-107998699D01*
X133185810Y-107625470D01*
X133020684Y-107434903D01*
X132877581Y-107269752D01*
X136499500Y-107269752D01*
X136511131Y-107328229D01*
X136511132Y-107328230D01*
X136555447Y-107394552D01*
X136621769Y-107438867D01*
X136621770Y-107438868D01*
X136680247Y-107450499D01*
X136680250Y-107450500D01*
X136680252Y-107450500D01*
X137091577Y-107450500D01*
X137158616Y-107470185D01*
X137159776Y-107470939D01*
X138526499Y-108370976D01*
X138526501Y-108370977D01*
X138527136Y-108371395D01*
X138546618Y-108387275D01*
X139996358Y-109837015D01*
X140001478Y-109842453D01*
X140041371Y-109887483D01*
X140041373Y-109887485D01*
X140090863Y-109921645D01*
X140096869Y-109926063D01*
X140144243Y-109963178D01*
X140153480Y-109967335D01*
X140173026Y-109978358D01*
X140181370Y-109984118D01*
X140237617Y-110005449D01*
X140244523Y-110008310D01*
X140299368Y-110032994D01*
X140308997Y-110034758D01*
X140309328Y-110034819D01*
X140330950Y-110040845D01*
X140340428Y-110044440D01*
X140340431Y-110044440D01*
X140347710Y-110046235D01*
X140347261Y-110048056D01*
X140396222Y-110069121D01*
X140396593Y-110068567D01*
X140399594Y-110070572D01*
X140402417Y-110071787D01*
X140405185Y-110074308D01*
X140473069Y-110119667D01*
X140473070Y-110119668D01*
X140531547Y-110131299D01*
X140531550Y-110131300D01*
X140531552Y-110131300D01*
X142272850Y-110131300D01*
X142272851Y-110131299D01*
X142287668Y-110128352D01*
X142331329Y-110119668D01*
X142331329Y-110119667D01*
X142331331Y-110119667D01*
X142397652Y-110075352D01*
X142441967Y-110009031D01*
X142441967Y-110009029D01*
X142441968Y-110009029D01*
X142453599Y-109950552D01*
X142453600Y-109950550D01*
X142453600Y-109609300D01*
X147849100Y-109609300D01*
X147849100Y-109978644D01*
X147855501Y-110038172D01*
X147855503Y-110038179D01*
X147905745Y-110172886D01*
X147905749Y-110172893D01*
X147991909Y-110287987D01*
X147991912Y-110287990D01*
X148107006Y-110374150D01*
X148107013Y-110374154D01*
X148241720Y-110424396D01*
X148241727Y-110424398D01*
X148301255Y-110430799D01*
X148301272Y-110430800D01*
X148950000Y-110430800D01*
X148950000Y-109609300D01*
X149450000Y-109609300D01*
X149450000Y-110430800D01*
X150098728Y-110430800D01*
X150098744Y-110430799D01*
X150158272Y-110424398D01*
X150158279Y-110424396D01*
X150292986Y-110374154D01*
X150292993Y-110374150D01*
X150392044Y-110300000D01*
X151050001Y-110300000D01*
X151050001Y-110336654D01*
X151060319Y-110437652D01*
X151114546Y-110601300D01*
X151114551Y-110601311D01*
X151205052Y-110748034D01*
X151205055Y-110748038D01*
X151326961Y-110869944D01*
X151326965Y-110869947D01*
X151473688Y-110960448D01*
X151473699Y-110960453D01*
X151637347Y-111014680D01*
X151738351Y-111024999D01*
X151837500Y-111024998D01*
X151837500Y-110300000D01*
X151050001Y-110300000D01*
X150392044Y-110300000D01*
X150408087Y-110287990D01*
X150408090Y-110287987D01*
X150494250Y-110172893D01*
X150494254Y-110172886D01*
X150544496Y-110038179D01*
X150544498Y-110038172D01*
X150550899Y-109978644D01*
X150550900Y-109978627D01*
X150550900Y-109800000D01*
X151050000Y-109800000D01*
X151837500Y-109800000D01*
X151837500Y-109108362D01*
X151857185Y-109041323D01*
X151862500Y-109034727D01*
X151862500Y-108800000D01*
X151075001Y-108800000D01*
X151075001Y-108836654D01*
X151085319Y-108937652D01*
X151139546Y-109101300D01*
X151139548Y-109101305D01*
X151209528Y-109214759D01*
X151227968Y-109282151D01*
X151208126Y-109345371D01*
X151208846Y-109345815D01*
X151207098Y-109348648D01*
X151207046Y-109348815D01*
X151206715Y-109349268D01*
X151114551Y-109498688D01*
X151114546Y-109498699D01*
X151060319Y-109662347D01*
X151050000Y-109763345D01*
X151050000Y-109800000D01*
X150550900Y-109800000D01*
X150550900Y-109609300D01*
X149450000Y-109609300D01*
X148950000Y-109609300D01*
X147849100Y-109609300D01*
X142453600Y-109609300D01*
X142453600Y-109109300D01*
X147849100Y-109109300D01*
X148950000Y-109109300D01*
X148950000Y-108287800D01*
X149450000Y-108287800D01*
X149450000Y-109109300D01*
X150550900Y-109109300D01*
X150550900Y-108739972D01*
X150550899Y-108739955D01*
X150544498Y-108680427D01*
X150544496Y-108680420D01*
X150494254Y-108545713D01*
X150494250Y-108545706D01*
X150408090Y-108430612D01*
X150408087Y-108430609D01*
X150292993Y-108344449D01*
X150292986Y-108344445D01*
X150173822Y-108300000D01*
X151075000Y-108300000D01*
X151862500Y-108300000D01*
X151862500Y-107574999D01*
X151763360Y-107575000D01*
X151763344Y-107575001D01*
X151662347Y-107585319D01*
X151498699Y-107639546D01*
X151498688Y-107639551D01*
X151351965Y-107730052D01*
X151351961Y-107730055D01*
X151230055Y-107851961D01*
X151230052Y-107851965D01*
X151139551Y-107998688D01*
X151139546Y-107998699D01*
X151085319Y-108162347D01*
X151075000Y-108263345D01*
X151075000Y-108300000D01*
X150173822Y-108300000D01*
X150158279Y-108294203D01*
X150158272Y-108294201D01*
X150098744Y-108287800D01*
X149450000Y-108287800D01*
X148950000Y-108287800D01*
X148301255Y-108287800D01*
X148241727Y-108294201D01*
X148241720Y-108294203D01*
X148107013Y-108344445D01*
X148107006Y-108344449D01*
X147991912Y-108430609D01*
X147991909Y-108430612D01*
X147905749Y-108545706D01*
X147905745Y-108545713D01*
X147855503Y-108680420D01*
X147855501Y-108680427D01*
X147849100Y-108739955D01*
X147849100Y-109109300D01*
X142453600Y-109109300D01*
X142453600Y-108768049D01*
X142453599Y-108768047D01*
X142441968Y-108709570D01*
X142441967Y-108709569D01*
X142397652Y-108643247D01*
X142331330Y-108598932D01*
X142331329Y-108598931D01*
X142272852Y-108587300D01*
X142272848Y-108587300D01*
X141536210Y-108587300D01*
X141509863Y-108583932D01*
X141509860Y-108583953D01*
X141509132Y-108583838D01*
X141505021Y-108583313D01*
X141503841Y-108583006D01*
X140617932Y-108443673D01*
X140554765Y-108413812D01*
X140549517Y-108408860D01*
X139537279Y-107396622D01*
X139521399Y-107377140D01*
X139513510Y-107365161D01*
X138620939Y-106009774D01*
X138600508Y-105942958D01*
X138600500Y-105941575D01*
X138600500Y-105530249D01*
X138600499Y-105530247D01*
X138588868Y-105471770D01*
X138588867Y-105471769D01*
X138544552Y-105405447D01*
X138478230Y-105361132D01*
X138478229Y-105361131D01*
X138419752Y-105349500D01*
X138419748Y-105349500D01*
X136680252Y-105349500D01*
X136680247Y-105349500D01*
X136621770Y-105361131D01*
X136621769Y-105361132D01*
X136555447Y-105405447D01*
X136511132Y-105471769D01*
X136511131Y-105471770D01*
X136499500Y-105530247D01*
X136499500Y-107269752D01*
X132877581Y-107269752D01*
X132855737Y-107244542D01*
X132855732Y-107244537D01*
X132855722Y-107244525D01*
X132855713Y-107244516D01*
X132855702Y-107244504D01*
X132499311Y-106888113D01*
X132499310Y-106888112D01*
X132499297Y-106888099D01*
X132146122Y-106582071D01*
X132118351Y-106558007D01*
X131714841Y-106255944D01*
X131714836Y-106255941D01*
X131714831Y-106255937D01*
X131469054Y-106097987D01*
X131290790Y-105983425D01*
X131177781Y-105921718D01*
X130848381Y-105741854D01*
X130389869Y-105532463D01*
X130389853Y-105532457D01*
X130389839Y-105532451D01*
X129917597Y-105356320D01*
X129894369Y-105349500D01*
X129433942Y-105214312D01*
X128941399Y-105107173D01*
X128640991Y-105063986D01*
X128442468Y-105035446D01*
X127939692Y-104999495D01*
X127939690Y-104999495D01*
X127687659Y-104999500D01*
X30002706Y-104999500D01*
X29997297Y-104999382D01*
X29599784Y-104982025D01*
X29599629Y-104982018D01*
X29569083Y-104980646D01*
X29558462Y-104979710D01*
X29279730Y-104943014D01*
X29279271Y-104942953D01*
X29130470Y-104922798D01*
X29120280Y-104920981D01*
X29079429Y-104911925D01*
X28869016Y-104865277D01*
X28868263Y-104865107D01*
X28698699Y-104826406D01*
X28689003Y-104823776D01*
X28453323Y-104749465D01*
X28452293Y-104749135D01*
X28277161Y-104692232D01*
X28268026Y-104688862D01*
X28044945Y-104596459D01*
X28043732Y-104595949D01*
X27869152Y-104521330D01*
X27860649Y-104517306D01*
X27649634Y-104407458D01*
X27648131Y-104406663D01*
X27477902Y-104315059D01*
X27470037Y-104310445D01*
X27271378Y-104183885D01*
X27269691Y-104182792D01*
X27106420Y-104075017D01*
X27099246Y-104069906D01*
X26913783Y-103927596D01*
X26911956Y-103926167D01*
X26828985Y-103860000D01*
X136494417Y-103860000D01*
X136514699Y-104065932D01*
X136515905Y-104069906D01*
X136574768Y-104263954D01*
X136672315Y-104446450D01*
X136672317Y-104446452D01*
X136803589Y-104606410D01*
X136900209Y-104685702D01*
X136963550Y-104737685D01*
X137146046Y-104835232D01*
X137344066Y-104895300D01*
X137525323Y-104913151D01*
X137537346Y-104914935D01*
X137540438Y-104915549D01*
X137540442Y-104915551D01*
X137540445Y-104915551D01*
X137540449Y-104915552D01*
X137599431Y-104921349D01*
X137663774Y-104947142D01*
X137684242Y-104963177D01*
X137684246Y-104963180D01*
X137693477Y-104967334D01*
X137713031Y-104978362D01*
X137721370Y-104984118D01*
X137777631Y-105005454D01*
X137784508Y-105008303D01*
X137805863Y-105017915D01*
X137839363Y-105032993D01*
X137839366Y-105032993D01*
X137839369Y-105032995D01*
X137849334Y-105034821D01*
X137870956Y-105040848D01*
X137874077Y-105042031D01*
X137880428Y-105044440D01*
X137937989Y-105051428D01*
X137940115Y-105051687D01*
X137947522Y-105052814D01*
X138006694Y-105063658D01*
X138066733Y-105060025D01*
X138074221Y-105059800D01*
X139002000Y-105059800D01*
X139014129Y-105060394D01*
X139036077Y-105062552D01*
X139036088Y-105062552D01*
X139036090Y-105062553D01*
X139038242Y-105062711D01*
X139046131Y-105063291D01*
X139047142Y-105063340D01*
X139047273Y-105063347D01*
X139047273Y-105063346D01*
X139047275Y-105063347D01*
X139047278Y-105063346D01*
X139047282Y-105063346D01*
X139057182Y-105061628D01*
X139078392Y-105059800D01*
X139930354Y-105059800D01*
X139958333Y-105064325D01*
X139958600Y-105063148D01*
X139964537Y-105064492D01*
X140521449Y-105134167D01*
X140570777Y-105131483D01*
X140577513Y-105131300D01*
X142272850Y-105131300D01*
X142272851Y-105131299D01*
X142287668Y-105128352D01*
X142331329Y-105119668D01*
X142331329Y-105119667D01*
X142331331Y-105119667D01*
X142397652Y-105075352D01*
X142441967Y-105009031D01*
X142441967Y-105009029D01*
X142441968Y-105009029D01*
X142451052Y-104963360D01*
X142453599Y-104950552D01*
X148148600Y-104950552D01*
X148160231Y-105009029D01*
X148160232Y-105009030D01*
X148204547Y-105075352D01*
X148270869Y-105119667D01*
X148270870Y-105119668D01*
X148329347Y-105131299D01*
X148329350Y-105131300D01*
X148329352Y-105131300D01*
X150024686Y-105131300D01*
X150031422Y-105131483D01*
X150080750Y-105134167D01*
X150637663Y-105064492D01*
X150637664Y-105064491D01*
X150637669Y-105064491D01*
X150642679Y-105063439D01*
X150642794Y-105063986D01*
X150671492Y-105059800D01*
X150917781Y-105059800D01*
X150984820Y-105079485D01*
X151005462Y-105096119D01*
X153213181Y-107303838D01*
X153246666Y-107365161D01*
X153249500Y-107391519D01*
X153249500Y-107827422D01*
X153229815Y-107894461D01*
X153177011Y-107940216D01*
X153107853Y-107950160D01*
X153044297Y-107921135D01*
X153019962Y-107892520D01*
X152994945Y-107851962D01*
X152873038Y-107730055D01*
X152873034Y-107730052D01*
X152726311Y-107639551D01*
X152726300Y-107639546D01*
X152562652Y-107585319D01*
X152461654Y-107575000D01*
X152362500Y-107575000D01*
X152362500Y-109491638D01*
X152342815Y-109558677D01*
X152337500Y-109565272D01*
X152337500Y-111024999D01*
X152436640Y-111024999D01*
X152436654Y-111024998D01*
X152537652Y-111014680D01*
X152701300Y-110960453D01*
X152701311Y-110960448D01*
X152848034Y-110869947D01*
X152848038Y-110869944D01*
X152969945Y-110748037D01*
X153033388Y-110645180D01*
X153085336Y-110598455D01*
X153154298Y-110587232D01*
X153212558Y-110610504D01*
X153235109Y-110627147D01*
X153305525Y-110679116D01*
X153430151Y-110722725D01*
X153456733Y-110725218D01*
X153521642Y-110751075D01*
X153532838Y-110760995D01*
X154695643Y-111923800D01*
X154725003Y-111970524D01*
X154733385Y-111994477D01*
X154811788Y-112100710D01*
X154811789Y-112100711D01*
X154918023Y-112179115D01*
X154918024Y-112179115D01*
X154918025Y-112179116D01*
X155042651Y-112222725D01*
X155042650Y-112222725D01*
X155072240Y-112225500D01*
X155072244Y-112225500D01*
X155095484Y-112225500D01*
X155139456Y-112233558D01*
X155143624Y-112235139D01*
X155143626Y-112235139D01*
X155143628Y-112235140D01*
X155187734Y-112240495D01*
X155203330Y-112242389D01*
X155210735Y-112243516D01*
X155226463Y-112246398D01*
X155269894Y-112254357D01*
X155329923Y-112250726D01*
X155337410Y-112250500D01*
X155400079Y-112250500D01*
X155407566Y-112250725D01*
X155467606Y-112254358D01*
X155526782Y-112243513D01*
X155534185Y-112242387D01*
X155537921Y-112241933D01*
X155593872Y-112235140D01*
X155596185Y-112234262D01*
X155598041Y-112233559D01*
X155642014Y-112225500D01*
X155777760Y-112225500D01*
X155807349Y-112222725D01*
X155824967Y-112216560D01*
X155931975Y-112179116D01*
X156024940Y-112110505D01*
X156090567Y-112086535D01*
X156158738Y-112101850D01*
X156204110Y-112145179D01*
X156267552Y-112248034D01*
X156267555Y-112248038D01*
X156389461Y-112369944D01*
X156389465Y-112369947D01*
X156536188Y-112460448D01*
X156536199Y-112460453D01*
X156699847Y-112514680D01*
X156800851Y-112524999D01*
X156900000Y-112524998D01*
X156900000Y-111800000D01*
X157400000Y-111800000D01*
X157400000Y-112524999D01*
X157499140Y-112524999D01*
X157499154Y-112524998D01*
X157600152Y-112514680D01*
X157763800Y-112460453D01*
X157763811Y-112460448D01*
X157910534Y-112369947D01*
X157910538Y-112369944D01*
X158032444Y-112248038D01*
X158032447Y-112248034D01*
X158122948Y-112101311D01*
X158122953Y-112101300D01*
X158137906Y-112056175D01*
X160350903Y-112056175D01*
X160369948Y-112310325D01*
X160426274Y-112557107D01*
X160426663Y-112558808D01*
X160519778Y-112796059D01*
X160647212Y-113016783D01*
X160806121Y-113216048D01*
X160992954Y-113389403D01*
X161203537Y-113532976D01*
X161203542Y-113532978D01*
X161203543Y-113532979D01*
X161203544Y-113532980D01*
X161362877Y-113609710D01*
X161433167Y-113643560D01*
X161473248Y-113655923D01*
X161478577Y-113657701D01*
X161480687Y-113658458D01*
X161480697Y-113658463D01*
X161486052Y-113659934D01*
X161489665Y-113660987D01*
X161676713Y-113718684D01*
X161676718Y-113718684D01*
X161676719Y-113718685D01*
X161720646Y-113725306D01*
X161727352Y-113726727D01*
X161727372Y-113726627D01*
X161732016Y-113727527D01*
X161732030Y-113727531D01*
X161744358Y-113728954D01*
X161748509Y-113729505D01*
X161928736Y-113756671D01*
X161928742Y-113756671D01*
X161977312Y-113756671D01*
X161989232Y-113757356D01*
X161990960Y-113757423D01*
X161990960Y-113757422D01*
X161990961Y-113757423D01*
X162008207Y-113756762D01*
X162012956Y-113756671D01*
X162183602Y-113756671D01*
X162183606Y-113756671D01*
X162235791Y-113748805D01*
X162249517Y-113747512D01*
X162251420Y-113747440D01*
X162271834Y-113743480D01*
X162276874Y-113742612D01*
X162435629Y-113718684D01*
X162490141Y-113701869D01*
X162503034Y-113698641D01*
X162507302Y-113697814D01*
X162507309Y-113697811D01*
X162507311Y-113697811D01*
X162515012Y-113695044D01*
X162529079Y-113689992D01*
X162534393Y-113688219D01*
X162679175Y-113643560D01*
X162734439Y-113616945D01*
X162746300Y-113611976D01*
X162752611Y-113609710D01*
X162774336Y-113597896D01*
X162779654Y-113595171D01*
X162908805Y-113532976D01*
X162963101Y-113495957D01*
X162973693Y-113489489D01*
X162981596Y-113485192D01*
X163001953Y-113469673D01*
X163007184Y-113465901D01*
X163119388Y-113389403D01*
X163170844Y-113341658D01*
X163179972Y-113333975D01*
X163188889Y-113327179D01*
X163206842Y-113308524D01*
X163211765Y-113303689D01*
X163306221Y-113216048D01*
X163352817Y-113157618D01*
X163360393Y-113148974D01*
X163369632Y-113139375D01*
X163384446Y-113118312D01*
X163388886Y-113112389D01*
X163465130Y-113016783D01*
X163467007Y-113013533D01*
X163489589Y-112974417D01*
X163504815Y-112948044D01*
X163510773Y-112938715D01*
X163519590Y-112926181D01*
X163530805Y-112903528D01*
X163534494Y-112896638D01*
X163592564Y-112796059D01*
X163623300Y-112717744D01*
X163627605Y-112708025D01*
X163635243Y-112692599D01*
X163635244Y-112692598D01*
X163635245Y-112692595D01*
X163642627Y-112669268D01*
X163645392Y-112661456D01*
X163685679Y-112558808D01*
X163705492Y-112472000D01*
X163708150Y-112462224D01*
X163713889Y-112444092D01*
X163717462Y-112420958D01*
X163719106Y-112412352D01*
X163742393Y-112310328D01*
X163749425Y-112216489D01*
X163750521Y-112206925D01*
X163753677Y-112186496D01*
X163754299Y-112153991D01*
X163754618Y-112147186D01*
X163761439Y-112056171D01*
X163761229Y-112053375D01*
X163760755Y-112047054D01*
X163754618Y-111965158D01*
X163754298Y-111958346D01*
X163753677Y-111925846D01*
X163750518Y-111905399D01*
X163749424Y-111895846D01*
X163742393Y-111802014D01*
X163719105Y-111699984D01*
X163717461Y-111691378D01*
X163713889Y-111668250D01*
X163708146Y-111650103D01*
X163705494Y-111640349D01*
X163685679Y-111553534D01*
X163645393Y-111450888D01*
X163642626Y-111443070D01*
X163635245Y-111419747D01*
X163627587Y-111404281D01*
X163623308Y-111394618D01*
X163592564Y-111316283D01*
X163534519Y-111215746D01*
X163530800Y-111208802D01*
X163519590Y-111186161D01*
X163510764Y-111173613D01*
X163504822Y-111164309D01*
X163465130Y-111095559D01*
X163388890Y-110999957D01*
X163384431Y-110994007D01*
X163369632Y-110972967D01*
X163360410Y-110963384D01*
X163352811Y-110954715D01*
X163306222Y-110896295D01*
X163211814Y-110808697D01*
X163206813Y-110803786D01*
X163188892Y-110785165D01*
X163188889Y-110785163D01*
X163179996Y-110778384D01*
X163170827Y-110770667D01*
X163119388Y-110722938D01*
X163007207Y-110646454D01*
X163001888Y-110642618D01*
X162981596Y-110627150D01*
X162981592Y-110627147D01*
X162981591Y-110627147D01*
X162973699Y-110622855D01*
X162963088Y-110616375D01*
X162908805Y-110579366D01*
X162908801Y-110579364D01*
X162779718Y-110517201D01*
X162774283Y-110514417D01*
X162752605Y-110502629D01*
X162746297Y-110500363D01*
X162734420Y-110495386D01*
X162679177Y-110468783D01*
X162679175Y-110468782D01*
X162612512Y-110448219D01*
X162534415Y-110424129D01*
X162529053Y-110422340D01*
X162507300Y-110414527D01*
X162503044Y-110413702D01*
X162490106Y-110410462D01*
X162435633Y-110393659D01*
X162435631Y-110393658D01*
X162435629Y-110393658D01*
X162306231Y-110374154D01*
X162276908Y-110369734D01*
X162271788Y-110368852D01*
X162267392Y-110367999D01*
X162251418Y-110364901D01*
X162249497Y-110364828D01*
X162235777Y-110363534D01*
X162183613Y-110355671D01*
X162183606Y-110355671D01*
X162012956Y-110355671D01*
X162008207Y-110355580D01*
X161990960Y-110354918D01*
X161989232Y-110354985D01*
X161977312Y-110355671D01*
X161928728Y-110355671D01*
X161748592Y-110382823D01*
X161744341Y-110383389D01*
X161732031Y-110384810D01*
X161727374Y-110385714D01*
X161727354Y-110385615D01*
X161720668Y-110387031D01*
X161676710Y-110393658D01*
X161489731Y-110451333D01*
X161486063Y-110452403D01*
X161480698Y-110453878D01*
X161478550Y-110454649D01*
X161473232Y-110456422D01*
X161433168Y-110468781D01*
X161203541Y-110579363D01*
X160992953Y-110722939D01*
X160806123Y-110896292D01*
X160806121Y-110896294D01*
X160647212Y-111095559D01*
X160519779Y-111316280D01*
X160426663Y-111553533D01*
X160426661Y-111553540D01*
X160369948Y-111802016D01*
X160350903Y-112056166D01*
X160350903Y-112056175D01*
X158137906Y-112056175D01*
X158177180Y-111937652D01*
X158187499Y-111836654D01*
X158187500Y-111836641D01*
X158187500Y-111800000D01*
X157400000Y-111800000D01*
X156900000Y-111800000D01*
X156900000Y-111300000D01*
X157400000Y-111300000D01*
X158187499Y-111300000D01*
X158187499Y-111263360D01*
X158187498Y-111263345D01*
X158177180Y-111162347D01*
X158122953Y-110998699D01*
X158122948Y-110998688D01*
X158046797Y-110875229D01*
X158028356Y-110807837D01*
X158046797Y-110745034D01*
X158135450Y-110601307D01*
X158135453Y-110601300D01*
X158189680Y-110437652D01*
X158199999Y-110336654D01*
X158200000Y-110336641D01*
X158200000Y-110300000D01*
X157412500Y-110300000D01*
X157412500Y-111004138D01*
X157400000Y-111046707D01*
X157400000Y-111300000D01*
X156900000Y-111300000D01*
X156900000Y-110595862D01*
X156912500Y-110553292D01*
X156912500Y-109800000D01*
X157412500Y-109800000D01*
X158199999Y-109800000D01*
X158199999Y-109763360D01*
X158199998Y-109763345D01*
X158189680Y-109662347D01*
X158135453Y-109498699D01*
X158135448Y-109498688D01*
X158065472Y-109385240D01*
X158047031Y-109317848D01*
X158066872Y-109254627D01*
X158066154Y-109254185D01*
X158067899Y-109251355D01*
X158067953Y-109251184D01*
X158068291Y-109250719D01*
X158160448Y-109101311D01*
X158160453Y-109101300D01*
X158214680Y-108937652D01*
X158224999Y-108836654D01*
X158225000Y-108836641D01*
X158225000Y-108800000D01*
X157437500Y-108800000D01*
X157437500Y-109491638D01*
X157417815Y-109558677D01*
X157412500Y-109565272D01*
X157412500Y-109800000D01*
X156912500Y-109800000D01*
X156912500Y-109108362D01*
X156932185Y-109041323D01*
X156937500Y-109034727D01*
X156937500Y-108500000D01*
X158550001Y-108500000D01*
X158550001Y-108536654D01*
X158560319Y-108637652D01*
X158614546Y-108801300D01*
X158614551Y-108801311D01*
X158705052Y-108948034D01*
X158705055Y-108948038D01*
X158826961Y-109069944D01*
X158826965Y-109069947D01*
X158973688Y-109160448D01*
X158973699Y-109160453D01*
X159137347Y-109214680D01*
X159238351Y-109224999D01*
X159337500Y-109224998D01*
X159337500Y-108500000D01*
X158550001Y-108500000D01*
X156937500Y-108500000D01*
X156937500Y-107575000D01*
X157437500Y-107575000D01*
X157437500Y-108300000D01*
X158224999Y-108300000D01*
X158224999Y-108263360D01*
X158224998Y-108263345D01*
X158214680Y-108162347D01*
X158160884Y-108000000D01*
X158550000Y-108000000D01*
X159337500Y-108000000D01*
X159337500Y-107000000D01*
X158550001Y-107000000D01*
X158550001Y-107036654D01*
X158560319Y-107137652D01*
X158614546Y-107301300D01*
X158614548Y-107301305D01*
X158696953Y-107434903D01*
X158715393Y-107502295D01*
X158696953Y-107565097D01*
X158614548Y-107698694D01*
X158614546Y-107698699D01*
X158560319Y-107862347D01*
X158550000Y-107963345D01*
X158550000Y-108000000D01*
X158160884Y-108000000D01*
X158160453Y-107998699D01*
X158160448Y-107998688D01*
X158069947Y-107851965D01*
X158069944Y-107851961D01*
X157948038Y-107730055D01*
X157948034Y-107730052D01*
X157801311Y-107639551D01*
X157801300Y-107639546D01*
X157637652Y-107585319D01*
X157536654Y-107575000D01*
X157437500Y-107575000D01*
X156937500Y-107575000D01*
X156937500Y-107574999D01*
X156838360Y-107575000D01*
X156838344Y-107575001D01*
X156737347Y-107585319D01*
X156573699Y-107639546D01*
X156573688Y-107639551D01*
X156426965Y-107730052D01*
X156426961Y-107730055D01*
X156305054Y-107851962D01*
X156241610Y-107954821D01*
X156189662Y-108001545D01*
X156120699Y-108012766D01*
X156062439Y-107989494D01*
X155969474Y-107920883D01*
X155844848Y-107877274D01*
X155844849Y-107877274D01*
X155818263Y-107874781D01*
X155753354Y-107848922D01*
X155742161Y-107839004D01*
X155425440Y-107522283D01*
X155420305Y-107516828D01*
X155380429Y-107471816D01*
X155380424Y-107471812D01*
X155330938Y-107437655D01*
X155324903Y-107433215D01*
X155277560Y-107396124D01*
X155277555Y-107396120D01*
X155268313Y-107391961D01*
X155248766Y-107380936D01*
X155246128Y-107379115D01*
X155240430Y-107375182D01*
X155184194Y-107353854D01*
X155177290Y-107350994D01*
X155122432Y-107326305D01*
X155122430Y-107326304D01*
X155112446Y-107324474D01*
X155090843Y-107318451D01*
X155081374Y-107314860D01*
X155081371Y-107314859D01*
X155021671Y-107307610D01*
X155014270Y-107306483D01*
X154955109Y-107295642D01*
X154955103Y-107295642D01*
X154895067Y-107299274D01*
X154887579Y-107299500D01*
X154774500Y-107299500D01*
X154707461Y-107279815D01*
X154661706Y-107227011D01*
X154650500Y-107175500D01*
X154650500Y-107074908D01*
X154650726Y-107067421D01*
X154654357Y-107007394D01*
X154654356Y-107007391D01*
X154643516Y-106948235D01*
X154642389Y-106940830D01*
X154635140Y-106881129D01*
X154635139Y-106881125D01*
X154631546Y-106871651D01*
X154625519Y-106850029D01*
X154623694Y-106840070D01*
X154623694Y-106840068D01*
X154599012Y-106785228D01*
X154596151Y-106778322D01*
X154574818Y-106722070D01*
X154569059Y-106713727D01*
X154558030Y-106694172D01*
X154553877Y-106684943D01*
X154553874Y-106684938D01*
X154516788Y-106637601D01*
X154512349Y-106631569D01*
X154507827Y-106625018D01*
X154478183Y-106582071D01*
X154433153Y-106542178D01*
X154427715Y-106537058D01*
X154390657Y-106500000D01*
X158550000Y-106500000D01*
X159337500Y-106500000D01*
X159337500Y-105500000D01*
X158550001Y-105500000D01*
X158550001Y-105536654D01*
X158560319Y-105637652D01*
X158614546Y-105801300D01*
X158614548Y-105801305D01*
X158696953Y-105934903D01*
X158715393Y-106002295D01*
X158696953Y-106065097D01*
X158614548Y-106198694D01*
X158614546Y-106198699D01*
X158560319Y-106362347D01*
X158550000Y-106463345D01*
X158550000Y-106500000D01*
X154390657Y-106500000D01*
X152890657Y-105000000D01*
X158550000Y-105000000D01*
X159337500Y-105000000D01*
X159337500Y-104000000D01*
X158550001Y-104000000D01*
X158550001Y-104036654D01*
X158560319Y-104137652D01*
X158614546Y-104301300D01*
X158614548Y-104301305D01*
X158696953Y-104434903D01*
X158715393Y-104502295D01*
X158696953Y-104565097D01*
X158614548Y-104698694D01*
X158614546Y-104698699D01*
X158560319Y-104862347D01*
X158550000Y-104963345D01*
X158550000Y-105000000D01*
X152890657Y-105000000D01*
X151772240Y-103881583D01*
X151767105Y-103876128D01*
X151727229Y-103831116D01*
X151727224Y-103831112D01*
X151677738Y-103796955D01*
X151671703Y-103792515D01*
X151624360Y-103755424D01*
X151624355Y-103755420D01*
X151615113Y-103751261D01*
X151595566Y-103740236D01*
X151587231Y-103734483D01*
X151587232Y-103734483D01*
X151587230Y-103734482D01*
X151530994Y-103713154D01*
X151524090Y-103710294D01*
X151469232Y-103685605D01*
X151469230Y-103685604D01*
X151459246Y-103683774D01*
X151437643Y-103677751D01*
X151428174Y-103674160D01*
X151428171Y-103674159D01*
X151368471Y-103666910D01*
X151361070Y-103665783D01*
X151301909Y-103654942D01*
X151301903Y-103654942D01*
X151241867Y-103658574D01*
X151234379Y-103658800D01*
X150671845Y-103658800D01*
X150643863Y-103654274D01*
X150643597Y-103655451D01*
X150637666Y-103654108D01*
X150359205Y-103619270D01*
X150080747Y-103584432D01*
X150080745Y-103584432D01*
X150031409Y-103587117D01*
X150024672Y-103587300D01*
X148329347Y-103587300D01*
X148270870Y-103598931D01*
X148270869Y-103598932D01*
X148204547Y-103643247D01*
X148160232Y-103709569D01*
X148160231Y-103709570D01*
X148148600Y-103768047D01*
X148148600Y-104950552D01*
X142453599Y-104950552D01*
X142453600Y-104950548D01*
X142453600Y-103768052D01*
X142453600Y-103768049D01*
X142453599Y-103768047D01*
X142441968Y-103709570D01*
X142441967Y-103709569D01*
X142397652Y-103643247D01*
X142331330Y-103598932D01*
X142331329Y-103598931D01*
X142272852Y-103587300D01*
X142272848Y-103587300D01*
X140577508Y-103587300D01*
X140570768Y-103587117D01*
X140567832Y-103586957D01*
X140521451Y-103584432D01*
X140521449Y-103584432D01*
X140521447Y-103584432D01*
X139964528Y-103654108D01*
X139959525Y-103655160D01*
X139959410Y-103654612D01*
X139930706Y-103658800D01*
X139175219Y-103658800D01*
X139108180Y-103639115D01*
X139107112Y-103638422D01*
X138896508Y-103500000D01*
X158550000Y-103500000D01*
X159337500Y-103500000D01*
X159337500Y-102774999D01*
X159238360Y-102775000D01*
X159238344Y-102775001D01*
X159137347Y-102785319D01*
X158973699Y-102839546D01*
X158973688Y-102839551D01*
X158826965Y-102930052D01*
X158826961Y-102930055D01*
X158705055Y-103051961D01*
X158705052Y-103051965D01*
X158614551Y-103198688D01*
X158614546Y-103198699D01*
X158560319Y-103362347D01*
X158550000Y-103463345D01*
X158550000Y-103500000D01*
X138896508Y-103500000D01*
X138252875Y-103076965D01*
X138242318Y-103069197D01*
X138152519Y-102995502D01*
X138136450Y-102982315D01*
X138136449Y-102982314D01*
X138136445Y-102982311D01*
X137953958Y-102884769D01*
X137854944Y-102854734D01*
X137755934Y-102824700D01*
X137755932Y-102824699D01*
X137755934Y-102824699D01*
X137550000Y-102804417D01*
X137344067Y-102824699D01*
X137146043Y-102884769D01*
X137035898Y-102943643D01*
X136963550Y-102982315D01*
X136963548Y-102982316D01*
X136963547Y-102982317D01*
X136803589Y-103113589D01*
X136672317Y-103273547D01*
X136574769Y-103456043D01*
X136514699Y-103654067D01*
X136494417Y-103860000D01*
X26828985Y-103860000D01*
X26757625Y-103803092D01*
X26751165Y-103797568D01*
X26579674Y-103640424D01*
X26577885Y-103638749D01*
X26491803Y-103556446D01*
X26434259Y-103501428D01*
X26428529Y-103495575D01*
X26272148Y-103324916D01*
X26270189Y-103322727D01*
X26161819Y-103198688D01*
X26138829Y-103172373D01*
X26133837Y-103166279D01*
X26099003Y-103120883D01*
X25993385Y-102983239D01*
X25991446Y-102980641D01*
X25873662Y-102818525D01*
X25869400Y-102812265D01*
X25845660Y-102775001D01*
X25745767Y-102618200D01*
X25743915Y-102615200D01*
X25640818Y-102442644D01*
X25637277Y-102436302D01*
X25572139Y-102311174D01*
X25531226Y-102232580D01*
X25529537Y-102229210D01*
X25442109Y-102047664D01*
X25439292Y-102041367D01*
X25351534Y-101829500D01*
X25350022Y-101825669D01*
X25279110Y-101636726D01*
X25276965Y-101630508D01*
X25208083Y-101412041D01*
X25206813Y-101407743D01*
X25190862Y-101349946D01*
X25153070Y-101213010D01*
X25151566Y-101206963D01*
X25148383Y-101192605D01*
X159595642Y-101192605D01*
X159606483Y-101251770D01*
X159607610Y-101259171D01*
X159614859Y-101318871D01*
X159614860Y-101318874D01*
X159618451Y-101328343D01*
X159624474Y-101349946D01*
X159626304Y-101359930D01*
X159650991Y-101414782D01*
X159653854Y-101421694D01*
X159675182Y-101477930D01*
X159675183Y-101477931D01*
X159680936Y-101486266D01*
X159691961Y-101505813D01*
X159696120Y-101515055D01*
X159696124Y-101515060D01*
X159733215Y-101562403D01*
X159737655Y-101568438D01*
X159771812Y-101617924D01*
X159771816Y-101617929D01*
X159816828Y-101657805D01*
X159822283Y-101662940D01*
X161023830Y-102864487D01*
X161057315Y-102925810D01*
X161052331Y-102995502D01*
X161010459Y-103051435D01*
X160947728Y-103075626D01*
X160930150Y-103077274D01*
X160805525Y-103120883D01*
X160712560Y-103189494D01*
X160646930Y-103213464D01*
X160578760Y-103198148D01*
X160533388Y-103154820D01*
X160469943Y-103051960D01*
X160348038Y-102930055D01*
X160348034Y-102930052D01*
X160201311Y-102839551D01*
X160201300Y-102839546D01*
X160037652Y-102785319D01*
X159936654Y-102775000D01*
X159837500Y-102775000D01*
X159837500Y-109224999D01*
X159936640Y-109224999D01*
X159936654Y-109224998D01*
X160037652Y-109214680D01*
X160201300Y-109160453D01*
X160201311Y-109160448D01*
X160348034Y-109069947D01*
X160348038Y-109069944D01*
X160469945Y-108948037D01*
X160533388Y-108845180D01*
X160585336Y-108798455D01*
X160654298Y-108787232D01*
X160712558Y-108810504D01*
X160752871Y-108840256D01*
X160805525Y-108879116D01*
X160930151Y-108922725D01*
X160930150Y-108922725D01*
X160959740Y-108925500D01*
X160959744Y-108925500D01*
X161095486Y-108925500D01*
X161139455Y-108933557D01*
X161143628Y-108935140D01*
X161178552Y-108939380D01*
X161193279Y-108942078D01*
X161214711Y-108947361D01*
X161227443Y-108950500D01*
X161227444Y-108950500D01*
X161270128Y-108950500D01*
X161375079Y-108950500D01*
X161382566Y-108950725D01*
X161442606Y-108954358D01*
X161501782Y-108943513D01*
X161509185Y-108942387D01*
X161512921Y-108941933D01*
X161568872Y-108935140D01*
X161571185Y-108934262D01*
X161573041Y-108933559D01*
X161617014Y-108925500D01*
X161665260Y-108925500D01*
X161694849Y-108922725D01*
X161819475Y-108879116D01*
X161925711Y-108800711D01*
X162004116Y-108694475D01*
X162025953Y-108632067D01*
X162055311Y-108585344D01*
X163179663Y-107460993D01*
X163240984Y-107427510D01*
X163255753Y-107425218D01*
X163282349Y-107422725D01*
X163406975Y-107379116D01*
X163499940Y-107310505D01*
X163565567Y-107286535D01*
X163633738Y-107301850D01*
X163679110Y-107345179D01*
X163742552Y-107448034D01*
X163742555Y-107448038D01*
X163864461Y-107569944D01*
X163864465Y-107569947D01*
X164011188Y-107660448D01*
X164011199Y-107660453D01*
X164174847Y-107714680D01*
X164275851Y-107724999D01*
X164375000Y-107724998D01*
X164375000Y-107000000D01*
X164875000Y-107000000D01*
X164875000Y-107724999D01*
X164974140Y-107724999D01*
X164974154Y-107724998D01*
X165075152Y-107714680D01*
X165238800Y-107660453D01*
X165238811Y-107660448D01*
X165385534Y-107569947D01*
X165385538Y-107569944D01*
X165507444Y-107448038D01*
X165507447Y-107448034D01*
X165597948Y-107301311D01*
X165597953Y-107301300D01*
X165652180Y-107137652D01*
X165662499Y-107036654D01*
X165662500Y-107036641D01*
X165662500Y-107000000D01*
X164875000Y-107000000D01*
X164375000Y-107000000D01*
X164375000Y-105500000D01*
X164875000Y-105500000D01*
X164875000Y-106500000D01*
X165662499Y-106500000D01*
X165662499Y-106463360D01*
X165662498Y-106463345D01*
X165652180Y-106362347D01*
X165597953Y-106198699D01*
X165597950Y-106198692D01*
X165515547Y-106065098D01*
X165497106Y-105997705D01*
X165515547Y-105934902D01*
X165597950Y-105801307D01*
X165597953Y-105801300D01*
X165652180Y-105637652D01*
X165662499Y-105536654D01*
X165662500Y-105536641D01*
X165662500Y-105500000D01*
X164875000Y-105500000D01*
X164375000Y-105500000D01*
X164375000Y-104000000D01*
X164875000Y-104000000D01*
X164875000Y-105000000D01*
X165662499Y-105000000D01*
X165662499Y-104963360D01*
X165662498Y-104963345D01*
X165652180Y-104862347D01*
X165597953Y-104698699D01*
X165597950Y-104698692D01*
X165515547Y-104565098D01*
X165497106Y-104497705D01*
X165515547Y-104434902D01*
X165597950Y-104301307D01*
X165597953Y-104301300D01*
X165652180Y-104137652D01*
X165662499Y-104036654D01*
X165662500Y-104036641D01*
X165662500Y-104000000D01*
X164875000Y-104000000D01*
X164375000Y-104000000D01*
X164375000Y-102775000D01*
X164875000Y-102775000D01*
X164875000Y-103500000D01*
X165662499Y-103500000D01*
X165662499Y-103463360D01*
X165662498Y-103463345D01*
X165652180Y-103362347D01*
X165597953Y-103198699D01*
X165597948Y-103198688D01*
X165507447Y-103051965D01*
X165507444Y-103051961D01*
X165385538Y-102930055D01*
X165385534Y-102930052D01*
X165238811Y-102839551D01*
X165238800Y-102839546D01*
X165075152Y-102785319D01*
X164974154Y-102775000D01*
X164875000Y-102775000D01*
X164375000Y-102775000D01*
X164375000Y-102774999D01*
X164275860Y-102775000D01*
X164275844Y-102775001D01*
X164174847Y-102785319D01*
X164011199Y-102839546D01*
X164011188Y-102839551D01*
X163864465Y-102930052D01*
X163864461Y-102930055D01*
X163742554Y-103051962D01*
X163679110Y-103154821D01*
X163627162Y-103201545D01*
X163558199Y-103212766D01*
X163499939Y-103189494D01*
X163406974Y-103120883D01*
X163282348Y-103077274D01*
X163282349Y-103077274D01*
X163255763Y-103074781D01*
X163190854Y-103048922D01*
X163179661Y-103039004D01*
X161036819Y-100896162D01*
X161003334Y-100834839D01*
X161000500Y-100808481D01*
X161000500Y-98007625D01*
X160992820Y-97944378D01*
X160985140Y-97881128D01*
X160924818Y-97722070D01*
X160914002Y-97706401D01*
X160890476Y-97672318D01*
X160828183Y-97582071D01*
X160733316Y-97498026D01*
X160700849Y-97469263D01*
X160550226Y-97390210D01*
X160385056Y-97349500D01*
X160214944Y-97349500D01*
X160049773Y-97390210D01*
X159899150Y-97469263D01*
X159771816Y-97582072D01*
X159675182Y-97722068D01*
X159614860Y-97881125D01*
X159614859Y-97881131D01*
X159599500Y-98007625D01*
X159599500Y-101125078D01*
X159599274Y-101132566D01*
X159595642Y-101192603D01*
X159595642Y-101192605D01*
X25148383Y-101192605D01*
X25102017Y-100983465D01*
X25101074Y-100978780D01*
X25064971Y-100779836D01*
X25064057Y-100773994D01*
X25034195Y-100547169D01*
X25033640Y-100542163D01*
X25015502Y-100340627D01*
X25015126Y-100335002D01*
X25005153Y-100106568D01*
X25005035Y-100101160D01*
X25005035Y-99898838D01*
X25005153Y-99893430D01*
X25015127Y-99664991D01*
X25015501Y-99659378D01*
X25033641Y-99457825D01*
X25034194Y-99452841D01*
X25064059Y-99225992D01*
X25064969Y-99220176D01*
X25082241Y-99125000D01*
X144820000Y-99125000D01*
X144820000Y-99597844D01*
X144826401Y-99657372D01*
X144826403Y-99657379D01*
X144876645Y-99792086D01*
X144876649Y-99792093D01*
X144962809Y-99907187D01*
X144962812Y-99907190D01*
X145077906Y-99993350D01*
X145077913Y-99993354D01*
X145212620Y-100043596D01*
X145212627Y-100043598D01*
X145272155Y-100049999D01*
X145272172Y-100050000D01*
X146020000Y-100050000D01*
X146020000Y-99125000D01*
X146520000Y-99125000D01*
X146520000Y-100050000D01*
X147267828Y-100050000D01*
X147267844Y-100049999D01*
X147327372Y-100043598D01*
X147327379Y-100043596D01*
X147462086Y-99993354D01*
X147462093Y-99993350D01*
X147577187Y-99907190D01*
X147577190Y-99907187D01*
X147663350Y-99792093D01*
X147663354Y-99792086D01*
X147713596Y-99657379D01*
X147713598Y-99657372D01*
X147719999Y-99597844D01*
X147720000Y-99597827D01*
X147720000Y-99125000D01*
X150790000Y-99125000D01*
X150790000Y-99597844D01*
X150796401Y-99657372D01*
X150796403Y-99657379D01*
X150846645Y-99792086D01*
X150846649Y-99792093D01*
X150932809Y-99907187D01*
X150932812Y-99907190D01*
X151047906Y-99993350D01*
X151047913Y-99993354D01*
X151182620Y-100043596D01*
X151182627Y-100043598D01*
X151242155Y-100049999D01*
X151242172Y-100050000D01*
X151990000Y-100050000D01*
X151990000Y-99125000D01*
X152490000Y-99125000D01*
X152490000Y-100050000D01*
X153237828Y-100050000D01*
X153237844Y-100049999D01*
X153297372Y-100043598D01*
X153297379Y-100043596D01*
X153432086Y-99993354D01*
X153432093Y-99993350D01*
X153547187Y-99907190D01*
X153547190Y-99907187D01*
X153633350Y-99792093D01*
X153633354Y-99792086D01*
X153683596Y-99657379D01*
X153683598Y-99657372D01*
X153689999Y-99597844D01*
X153690000Y-99597827D01*
X153690000Y-99125000D01*
X152490000Y-99125000D01*
X151990000Y-99125000D01*
X150790000Y-99125000D01*
X147720000Y-99125000D01*
X146520000Y-99125000D01*
X146020000Y-99125000D01*
X144820000Y-99125000D01*
X25082241Y-99125000D01*
X25101082Y-99021177D01*
X25102013Y-99016554D01*
X25151570Y-98793017D01*
X25153065Y-98787007D01*
X25197776Y-98625000D01*
X144820000Y-98625000D01*
X146020000Y-98625000D01*
X146020000Y-97700000D01*
X146520000Y-97700000D01*
X146520000Y-98625000D01*
X147720000Y-98625000D01*
X150790000Y-98625000D01*
X151990000Y-98625000D01*
X151990000Y-97700000D01*
X152490000Y-97700000D01*
X152490000Y-98625000D01*
X153690000Y-98625000D01*
X153690000Y-98419752D01*
X154939500Y-98419752D01*
X154951131Y-98478229D01*
X154951132Y-98478230D01*
X154995447Y-98544552D01*
X155061769Y-98588867D01*
X155061770Y-98588868D01*
X155120247Y-98600499D01*
X155120250Y-98600500D01*
X155120252Y-98600500D01*
X156359750Y-98600500D01*
X156359751Y-98600499D01*
X156374568Y-98597552D01*
X156418229Y-98588868D01*
X156418229Y-98588867D01*
X156418231Y-98588867D01*
X156484552Y-98544552D01*
X156528867Y-98478231D01*
X156528867Y-98478229D01*
X156528868Y-98478229D01*
X156540499Y-98419752D01*
X156540500Y-98419750D01*
X156540500Y-97380249D01*
X156540499Y-97380247D01*
X156528868Y-97321770D01*
X156528867Y-97321769D01*
X156484552Y-97255447D01*
X156418230Y-97211132D01*
X156418229Y-97211131D01*
X156359752Y-97199500D01*
X156359748Y-97199500D01*
X155120252Y-97199500D01*
X155120247Y-97199500D01*
X155061770Y-97211131D01*
X155061769Y-97211132D01*
X154995447Y-97255447D01*
X154951132Y-97321769D01*
X154951131Y-97321770D01*
X154939500Y-97380247D01*
X154939500Y-98419752D01*
X153690000Y-98419752D01*
X153690000Y-98152172D01*
X153689999Y-98152155D01*
X153683598Y-98092627D01*
X153683596Y-98092620D01*
X153633354Y-97957913D01*
X153633350Y-97957906D01*
X153547190Y-97842812D01*
X153547187Y-97842809D01*
X153432093Y-97756649D01*
X153432086Y-97756645D01*
X153297379Y-97706403D01*
X153297372Y-97706401D01*
X153237844Y-97700000D01*
X152490000Y-97700000D01*
X151990000Y-97700000D01*
X151242155Y-97700000D01*
X151182627Y-97706401D01*
X151182620Y-97706403D01*
X151047913Y-97756645D01*
X151047906Y-97756649D01*
X150932812Y-97842809D01*
X150932809Y-97842812D01*
X150846649Y-97957906D01*
X150846645Y-97957913D01*
X150796403Y-98092620D01*
X150796401Y-98092627D01*
X150790000Y-98152155D01*
X150790000Y-98625000D01*
X147720000Y-98625000D01*
X147720000Y-98152172D01*
X147719999Y-98152155D01*
X147713598Y-98092627D01*
X147713596Y-98092620D01*
X147663354Y-97957913D01*
X147663350Y-97957906D01*
X147577190Y-97842812D01*
X147577187Y-97842809D01*
X147462093Y-97756649D01*
X147462086Y-97756645D01*
X147327379Y-97706403D01*
X147327372Y-97706401D01*
X147267844Y-97700000D01*
X146520000Y-97700000D01*
X146020000Y-97700000D01*
X145272155Y-97700000D01*
X145212627Y-97706401D01*
X145212620Y-97706403D01*
X145077913Y-97756645D01*
X145077906Y-97756649D01*
X144962812Y-97842809D01*
X144962809Y-97842812D01*
X144876649Y-97957906D01*
X144876645Y-97957913D01*
X144826403Y-98092620D01*
X144826401Y-98092627D01*
X144820000Y-98152155D01*
X144820000Y-98625000D01*
X25197776Y-98625000D01*
X25206821Y-98592227D01*
X25208074Y-98587984D01*
X25276972Y-98369468D01*
X25279102Y-98363295D01*
X25332974Y-98219752D01*
X121999500Y-98219752D01*
X122011131Y-98278229D01*
X122011132Y-98278230D01*
X122055447Y-98344552D01*
X122121769Y-98388867D01*
X122121770Y-98388868D01*
X122180247Y-98400499D01*
X122180250Y-98400500D01*
X122180252Y-98400500D01*
X122658581Y-98400500D01*
X122725620Y-98420185D01*
X122734067Y-98426124D01*
X122797157Y-98474535D01*
X122797158Y-98474535D01*
X122797159Y-98474536D01*
X122943238Y-98535044D01*
X123015459Y-98544552D01*
X123099999Y-98555682D01*
X123100000Y-98555682D01*
X123100001Y-98555682D01*
X123184541Y-98544552D01*
X123256762Y-98535044D01*
X123402841Y-98474536D01*
X123465933Y-98426123D01*
X123531102Y-98400930D01*
X123541419Y-98400500D01*
X124019750Y-98400500D01*
X124019751Y-98400499D01*
X124034568Y-98397552D01*
X124078229Y-98388868D01*
X124078229Y-98388867D01*
X124078231Y-98388867D01*
X124144552Y-98344552D01*
X124188867Y-98278231D01*
X124188867Y-98278229D01*
X124188868Y-98278229D01*
X124200499Y-98219752D01*
X124200500Y-98219750D01*
X124200500Y-97380249D01*
X124200499Y-97380247D01*
X124188868Y-97321770D01*
X124188867Y-97321769D01*
X124144552Y-97255447D01*
X124078230Y-97211132D01*
X124078229Y-97211131D01*
X124019752Y-97199500D01*
X124019748Y-97199500D01*
X122180252Y-97199500D01*
X122180247Y-97199500D01*
X122121770Y-97211131D01*
X122121769Y-97211132D01*
X122055447Y-97255447D01*
X122011132Y-97321769D01*
X122011131Y-97321770D01*
X121999500Y-97380247D01*
X121999500Y-98219752D01*
X25332974Y-98219752D01*
X25350037Y-98174289D01*
X25351517Y-98170540D01*
X25439303Y-97958605D01*
X25442097Y-97952361D01*
X25529562Y-97770738D01*
X25531199Y-97767471D01*
X25637292Y-97563667D01*
X25640809Y-97557368D01*
X25743950Y-97384740D01*
X25745726Y-97381863D01*
X25869418Y-97187705D01*
X25873643Y-97181500D01*
X25932856Y-97100000D01*
X125000000Y-97100000D01*
X125000000Y-97297844D01*
X125006401Y-97357372D01*
X125006403Y-97357379D01*
X125056645Y-97492086D01*
X125056649Y-97492093D01*
X125142809Y-97607187D01*
X125142812Y-97607190D01*
X125257906Y-97693350D01*
X125257913Y-97693354D01*
X125392620Y-97743596D01*
X125392627Y-97743598D01*
X125452155Y-97749999D01*
X125452172Y-97750000D01*
X126150000Y-97750000D01*
X126150000Y-97100000D01*
X126650000Y-97100000D01*
X126650000Y-97750000D01*
X127347828Y-97750000D01*
X127347844Y-97749999D01*
X127407372Y-97743598D01*
X127407379Y-97743596D01*
X127542086Y-97693354D01*
X127542093Y-97693350D01*
X127657187Y-97607190D01*
X127657190Y-97607187D01*
X127743350Y-97492093D01*
X127743354Y-97492086D01*
X127793596Y-97357379D01*
X127793598Y-97357372D01*
X127799999Y-97297844D01*
X127800000Y-97297827D01*
X127800000Y-97100000D01*
X126650000Y-97100000D01*
X126150000Y-97100000D01*
X125000000Y-97100000D01*
X25932856Y-97100000D01*
X25991503Y-97019280D01*
X25993329Y-97016833D01*
X26133865Y-96833683D01*
X26138803Y-96827656D01*
X26270264Y-96677186D01*
X26272068Y-96675170D01*
X26428551Y-96504399D01*
X26434236Y-96498592D01*
X26577986Y-96361153D01*
X26579568Y-96359672D01*
X26623133Y-96319752D01*
X121999500Y-96319752D01*
X122011131Y-96378229D01*
X122011132Y-96378230D01*
X122055447Y-96444552D01*
X122121769Y-96488867D01*
X122121770Y-96488868D01*
X122180247Y-96500499D01*
X122180250Y-96500500D01*
X122180252Y-96500500D01*
X124019752Y-96500500D01*
X124025811Y-96499903D01*
X124025871Y-96500514D01*
X124032461Y-96499912D01*
X124032454Y-96499835D01*
X124039390Y-96499157D01*
X124039390Y-96499156D01*
X124039392Y-96499157D01*
X124048150Y-96497294D01*
X124048161Y-96497289D01*
X124053958Y-96495447D01*
X124054019Y-96495639D01*
X124071523Y-96490201D01*
X124078231Y-96488867D01*
X124087647Y-96482574D01*
X124107575Y-96471751D01*
X124121814Y-96465632D01*
X124439362Y-96247318D01*
X124505757Y-96225560D01*
X124509611Y-96225500D01*
X124880948Y-96225500D01*
X124947987Y-96245185D01*
X124993742Y-96297989D01*
X125004237Y-96362756D01*
X125000000Y-96402155D01*
X125000000Y-96600000D01*
X127800000Y-96600000D01*
X127800000Y-96402172D01*
X127799999Y-96402155D01*
X127795763Y-96362756D01*
X127808168Y-96293996D01*
X127855778Y-96242859D01*
X127919052Y-96225500D01*
X144324278Y-96225500D01*
X144391317Y-96245185D01*
X144424294Y-96276201D01*
X144615636Y-96537288D01*
X144623001Y-96548577D01*
X144625460Y-96552836D01*
X144659624Y-96597360D01*
X144661263Y-96599546D01*
X144693349Y-96643327D01*
X144702949Y-96655443D01*
X144704104Y-96656793D01*
X144710829Y-96664497D01*
X144715786Y-96670552D01*
X144721714Y-96678278D01*
X144721716Y-96678279D01*
X144721718Y-96678282D01*
X144847159Y-96774536D01*
X144993238Y-96835044D01*
X145071619Y-96845363D01*
X145149999Y-96855682D01*
X145150000Y-96855682D01*
X145150001Y-96855682D01*
X145202254Y-96848802D01*
X145306762Y-96835044D01*
X145452841Y-96774536D01*
X145578282Y-96678282D01*
X145674536Y-96552841D01*
X145735044Y-96406762D01*
X145755682Y-96250000D01*
X145752464Y-96225560D01*
X145735044Y-96093239D01*
X145735044Y-96093238D01*
X145674536Y-95947159D01*
X145578282Y-95821718D01*
X145452841Y-95725464D01*
X145306762Y-95664956D01*
X145260473Y-95658861D01*
X145181420Y-95648454D01*
X145169044Y-95645679D01*
X145168990Y-95645932D01*
X145163034Y-95644648D01*
X145002741Y-95626295D01*
X144945725Y-95604676D01*
X144939684Y-95600446D01*
X144939683Y-95600445D01*
X144939682Y-95600445D01*
X144934862Y-95598197D01*
X144918055Y-95591235D01*
X144913042Y-95589411D01*
X144875852Y-95582852D01*
X144865298Y-95580512D01*
X144828808Y-95570735D01*
X144791181Y-95574028D01*
X144780372Y-95574500D01*
X144557451Y-95574500D01*
X144543348Y-95573695D01*
X144531390Y-95572326D01*
X144531388Y-95572325D01*
X144531381Y-95572325D01*
X144527388Y-95571984D01*
X144519591Y-95571318D01*
X144519575Y-95571317D01*
X144519574Y-95571317D01*
X144518428Y-95571252D01*
X144518364Y-95571229D01*
X144518334Y-95571231D01*
X144518241Y-95571241D01*
X144518192Y-95571239D01*
X144518191Y-95571239D01*
X144518190Y-95571239D01*
X144509310Y-95572748D01*
X144488540Y-95574500D01*
X124509612Y-95574500D01*
X124442573Y-95554815D01*
X124439398Y-95552705D01*
X124121815Y-95334367D01*
X124113743Y-95329488D01*
X124101217Y-95321917D01*
X124098781Y-95320633D01*
X124085490Y-95314140D01*
X124078230Y-95311132D01*
X124019750Y-95299499D01*
X124013688Y-95298903D01*
X124013717Y-95298605D01*
X123998081Y-95297041D01*
X123997852Y-95296995D01*
X123988891Y-95297218D01*
X123982850Y-95297966D01*
X123982794Y-95297519D01*
X123964979Y-95299500D01*
X122180247Y-95299500D01*
X122121770Y-95311131D01*
X122121769Y-95311132D01*
X122055447Y-95355447D01*
X122011132Y-95421769D01*
X122011131Y-95421770D01*
X121999500Y-95480247D01*
X121999500Y-96319752D01*
X26623133Y-96319752D01*
X26751204Y-96202395D01*
X26757601Y-96196926D01*
X26912058Y-96073750D01*
X26913673Y-96072487D01*
X27099260Y-95930081D01*
X27106393Y-95924999D01*
X27269868Y-95817090D01*
X27271330Y-95816143D01*
X27470052Y-95689543D01*
X27477867Y-95684959D01*
X27648297Y-95593246D01*
X27649430Y-95592647D01*
X27860690Y-95482672D01*
X27869108Y-95478688D01*
X28044018Y-95403928D01*
X28044597Y-95403684D01*
X28268068Y-95311120D01*
X28277130Y-95307777D01*
X28452406Y-95250826D01*
X28453203Y-95250571D01*
X28689045Y-95176210D01*
X28698661Y-95173602D01*
X28868516Y-95134833D01*
X28868645Y-95134804D01*
X29120326Y-95079007D01*
X29130422Y-95077208D01*
X29279249Y-95057047D01*
X29558484Y-95020286D01*
X29569061Y-95019353D01*
X29599034Y-95018006D01*
X29997297Y-95000617D01*
X30002706Y-95000500D01*
X127702192Y-95000500D01*
X127702200Y-95000499D01*
X127939689Y-95000499D01*
X128442464Y-94964540D01*
X128941392Y-94892805D01*
X128941393Y-94892804D01*
X128941398Y-94892804D01*
X129433924Y-94785661D01*
X129433927Y-94785660D01*
X129433932Y-94785659D01*
X129917573Y-94643649D01*
X130389852Y-94467499D01*
X130848360Y-94258105D01*
X131290762Y-94016535D01*
X131714804Y-93744020D01*
X132118324Y-93441949D01*
X132499267Y-93111860D01*
X132855690Y-92755437D01*
X133185779Y-92374494D01*
X133487850Y-91970974D01*
X133760365Y-91546932D01*
X134001935Y-91104530D01*
X134211329Y-90646022D01*
X134387479Y-90173743D01*
X134529489Y-89690102D01*
X134530140Y-89687111D01*
X134636634Y-89197568D01*
X134648528Y-89114845D01*
X134708370Y-88698634D01*
X134744329Y-88195859D01*
X134744329Y-87947142D01*
X134744418Y-87943833D01*
X136238561Y-87943833D01*
X136257606Y-88197983D01*
X136313932Y-88444765D01*
X136314321Y-88446466D01*
X136407436Y-88683717D01*
X136534870Y-88904441D01*
X136693779Y-89103706D01*
X136880612Y-89277061D01*
X137091195Y-89420634D01*
X137091200Y-89420636D01*
X137091201Y-89420637D01*
X137091202Y-89420638D01*
X137250535Y-89497368D01*
X137320825Y-89531218D01*
X137360906Y-89543581D01*
X137366235Y-89545359D01*
X137368345Y-89546116D01*
X137368355Y-89546121D01*
X137373710Y-89547592D01*
X137377323Y-89548645D01*
X137564371Y-89606342D01*
X137564376Y-89606342D01*
X137564377Y-89606343D01*
X137608304Y-89612964D01*
X137615010Y-89614385D01*
X137615030Y-89614285D01*
X137619674Y-89615185D01*
X137619688Y-89615189D01*
X137632016Y-89616612D01*
X137636167Y-89617163D01*
X137816394Y-89644329D01*
X137816400Y-89644329D01*
X137864970Y-89644329D01*
X137876890Y-89645014D01*
X137878618Y-89645081D01*
X137878618Y-89645080D01*
X137878619Y-89645081D01*
X137895865Y-89644420D01*
X137900614Y-89644329D01*
X138071260Y-89644329D01*
X138071264Y-89644329D01*
X138123449Y-89636463D01*
X138137175Y-89635170D01*
X138139078Y-89635098D01*
X138159492Y-89631138D01*
X138164532Y-89630270D01*
X138323287Y-89606342D01*
X138377799Y-89589527D01*
X138390692Y-89586299D01*
X138394960Y-89585472D01*
X138394967Y-89585469D01*
X138394969Y-89585469D01*
X138402670Y-89582702D01*
X138416737Y-89577650D01*
X138422051Y-89575877D01*
X138566833Y-89531218D01*
X138622097Y-89504603D01*
X138633958Y-89499634D01*
X138640269Y-89497368D01*
X138661994Y-89485554D01*
X138667312Y-89482829D01*
X138796463Y-89420634D01*
X138850759Y-89383615D01*
X138861351Y-89377147D01*
X138869254Y-89372850D01*
X138889611Y-89357331D01*
X138894842Y-89353559D01*
X139007046Y-89277061D01*
X139058502Y-89229316D01*
X139067630Y-89221633D01*
X139076547Y-89214837D01*
X139094500Y-89196182D01*
X139099423Y-89191347D01*
X139193879Y-89103706D01*
X139240475Y-89045276D01*
X139248051Y-89036632D01*
X139257290Y-89027033D01*
X139272104Y-89005970D01*
X139276544Y-89000047D01*
X139352788Y-88904441D01*
X139354665Y-88901191D01*
X139392471Y-88835707D01*
X139398431Y-88826373D01*
X139407248Y-88813839D01*
X139418463Y-88791186D01*
X139422152Y-88784296D01*
X139480222Y-88683717D01*
X139493455Y-88650000D01*
X143160000Y-88650000D01*
X143160000Y-89347844D01*
X143166401Y-89407372D01*
X143166403Y-89407379D01*
X143216645Y-89542086D01*
X143216649Y-89542093D01*
X143302809Y-89657187D01*
X143302812Y-89657190D01*
X143417906Y-89743350D01*
X143417913Y-89743354D01*
X143552620Y-89793596D01*
X143552627Y-89793598D01*
X143612155Y-89799999D01*
X143612172Y-89800000D01*
X143995000Y-89800000D01*
X143995000Y-88650000D01*
X143160000Y-88650000D01*
X139493455Y-88650000D01*
X139510958Y-88605402D01*
X139515263Y-88595683D01*
X139522901Y-88580257D01*
X139522902Y-88580256D01*
X139522903Y-88580253D01*
X139530285Y-88556926D01*
X139533050Y-88549114D01*
X139573337Y-88446466D01*
X139593150Y-88359658D01*
X139595808Y-88349882D01*
X139601547Y-88331750D01*
X139605120Y-88308616D01*
X139606764Y-88300010D01*
X139630051Y-88197986D01*
X139637083Y-88104147D01*
X139638179Y-88094583D01*
X139641335Y-88074154D01*
X139641957Y-88041649D01*
X139642276Y-88034844D01*
X139648849Y-87947142D01*
X139649097Y-87943830D01*
X139649097Y-87943827D01*
X139647686Y-87925000D01*
X139642276Y-87852816D01*
X139641956Y-87846004D01*
X139641335Y-87813504D01*
X139638176Y-87793057D01*
X139637082Y-87783504D01*
X139630051Y-87689672D01*
X139606763Y-87587642D01*
X139605119Y-87579036D01*
X139601547Y-87555908D01*
X139595804Y-87537761D01*
X139593152Y-87528007D01*
X139573337Y-87441192D01*
X139533051Y-87338546D01*
X139530284Y-87330728D01*
X139524137Y-87311303D01*
X139522905Y-87307410D01*
X139522903Y-87307405D01*
X139515245Y-87291939D01*
X139510966Y-87282276D01*
X139480222Y-87203941D01*
X139422177Y-87103404D01*
X139418458Y-87096460D01*
X139407248Y-87073819D01*
X139398422Y-87061271D01*
X139392480Y-87051967D01*
X139352788Y-86983217D01*
X139276548Y-86887615D01*
X139272089Y-86881665D01*
X139257290Y-86860625D01*
X139257181Y-86860512D01*
X139248068Y-86851042D01*
X139240469Y-86842373D01*
X139193880Y-86783953D01*
X139099472Y-86696355D01*
X139094471Y-86691444D01*
X139076550Y-86672823D01*
X139076547Y-86672821D01*
X139067654Y-86666042D01*
X139058485Y-86658325D01*
X139007046Y-86610596D01*
X138894865Y-86534112D01*
X138889546Y-86530276D01*
X138869254Y-86514808D01*
X138869250Y-86514805D01*
X138869249Y-86514805D01*
X138861357Y-86510513D01*
X138850746Y-86504033D01*
X138796463Y-86467024D01*
X138796459Y-86467022D01*
X138667376Y-86404859D01*
X138661941Y-86402075D01*
X138640263Y-86390287D01*
X138633955Y-86388021D01*
X138622078Y-86383044D01*
X138566835Y-86356441D01*
X138566833Y-86356440D01*
X138483308Y-86330676D01*
X138422073Y-86311787D01*
X138416711Y-86309998D01*
X138394958Y-86302185D01*
X138390702Y-86301360D01*
X138377764Y-86298120D01*
X138323291Y-86281317D01*
X138323289Y-86281316D01*
X138323287Y-86281316D01*
X138226257Y-86266690D01*
X138164566Y-86257392D01*
X138159446Y-86256510D01*
X138155050Y-86255657D01*
X138139076Y-86252559D01*
X138137155Y-86252486D01*
X138123435Y-86251192D01*
X138071271Y-86243329D01*
X138071264Y-86243329D01*
X137900614Y-86243329D01*
X137895865Y-86243238D01*
X137878618Y-86242576D01*
X137876890Y-86242643D01*
X137864970Y-86243329D01*
X137816386Y-86243329D01*
X137636250Y-86270481D01*
X137631999Y-86271047D01*
X137619689Y-86272468D01*
X137615032Y-86273372D01*
X137615012Y-86273273D01*
X137608326Y-86274689D01*
X137564368Y-86281316D01*
X137377389Y-86338991D01*
X137373721Y-86340061D01*
X137368356Y-86341536D01*
X137366208Y-86342307D01*
X137360890Y-86344080D01*
X137320826Y-86356439D01*
X137091199Y-86467021D01*
X136880611Y-86610597D01*
X136693781Y-86783950D01*
X136693779Y-86783952D01*
X136534870Y-86983217D01*
X136407437Y-87203938D01*
X136314321Y-87441191D01*
X136314319Y-87441198D01*
X136257606Y-87689674D01*
X136238561Y-87943824D01*
X136238561Y-87943833D01*
X134744418Y-87943833D01*
X134744507Y-87940507D01*
X134749204Y-87852865D01*
X134754809Y-87748262D01*
X134762870Y-87604720D01*
X134764265Y-87591898D01*
X134793051Y-87414247D01*
X134793135Y-87413745D01*
X134819516Y-87258468D01*
X134822166Y-87246502D01*
X134869068Y-87075535D01*
X134869405Y-87074336D01*
X134913710Y-86920546D01*
X134917454Y-86909530D01*
X134981941Y-86745627D01*
X134982622Y-86743942D01*
X135044323Y-86594982D01*
X135048975Y-86585028D01*
X135130279Y-86429598D01*
X135131498Y-86427331D01*
X135209762Y-86285722D01*
X135215157Y-86276863D01*
X135312366Y-86131377D01*
X135314219Y-86128687D01*
X135408038Y-85996460D01*
X135413980Y-85988749D01*
X135526008Y-85854700D01*
X135528587Y-85851716D01*
X135636763Y-85730667D01*
X135643081Y-85724102D01*
X135768668Y-85602921D01*
X135772011Y-85599816D01*
X135893186Y-85491527D01*
X135899674Y-85486119D01*
X136037414Y-85379119D01*
X136041614Y-85376000D01*
X136174189Y-85281933D01*
X136180753Y-85277583D01*
X136329022Y-85185995D01*
X136334121Y-85183013D01*
X136476455Y-85104348D01*
X136482835Y-85101062D01*
X136640066Y-85025837D01*
X136646027Y-85023180D01*
X136796249Y-84960956D01*
X136802428Y-84958589D01*
X136811522Y-84955380D01*
X136966751Y-84900619D01*
X136973566Y-84898436D01*
X137129859Y-84853410D01*
X137135551Y-84851918D01*
X137305204Y-84811828D01*
X137312881Y-84810271D01*
X137473150Y-84783041D01*
X137478358Y-84782272D01*
X137651383Y-84760541D01*
X137659785Y-84759778D01*
X137822043Y-84750667D01*
X137826626Y-84750497D01*
X138001106Y-84747383D01*
X138010199Y-84747557D01*
X138172300Y-84756661D01*
X138176275Y-84756951D01*
X138350218Y-84772518D01*
X138359885Y-84773769D01*
X138519682Y-84800921D01*
X138522989Y-84801531D01*
X138694562Y-84835661D01*
X138704642Y-84838111D01*
X138860019Y-84882876D01*
X138862610Y-84883655D01*
X139029929Y-84936047D01*
X139040318Y-84939816D01*
X139189199Y-85001486D01*
X139191016Y-85002258D01*
X139352399Y-85072508D01*
X139362865Y-85077663D01*
X139502837Y-85155025D01*
X139504140Y-85155757D01*
X139658044Y-85243399D01*
X139668439Y-85250023D01*
X139796794Y-85341098D01*
X139797317Y-85341472D01*
X139943252Y-85446708D01*
X139953318Y-85454798D01*
X140056886Y-85547339D01*
X140203740Y-85679255D01*
X140204142Y-85679616D01*
X140208940Y-85684163D01*
X140350795Y-85825983D01*
X140662033Y-86091145D01*
X140993409Y-86330665D01*
X140993421Y-86330672D01*
X140993427Y-86330676D01*
X141342798Y-86543011D01*
X141342807Y-86543016D01*
X141342811Y-86543018D01*
X141342816Y-86543021D01*
X141708032Y-86726862D01*
X142086734Y-86881020D01*
X142476515Y-87004514D01*
X142874896Y-87096559D01*
X143070792Y-87125625D01*
X143104241Y-87130588D01*
X143167666Y-87159898D01*
X143205175Y-87218846D01*
X143204861Y-87288715D01*
X143202224Y-87296577D01*
X143166403Y-87392617D01*
X143166401Y-87392627D01*
X143160000Y-87452155D01*
X143160000Y-88150000D01*
X144371000Y-88150000D01*
X144438039Y-88169685D01*
X144483794Y-88222489D01*
X144495000Y-88274000D01*
X144495000Y-89800000D01*
X144877828Y-89800000D01*
X144877844Y-89799999D01*
X144937372Y-89793598D01*
X144937379Y-89793596D01*
X145072086Y-89743354D01*
X145072093Y-89743350D01*
X145187187Y-89657190D01*
X145187190Y-89657187D01*
X145273350Y-89542093D01*
X145273354Y-89542086D01*
X145323596Y-89407379D01*
X145323598Y-89407372D01*
X145329999Y-89347844D01*
X145330000Y-89347827D01*
X145330000Y-88924500D01*
X145349685Y-88857461D01*
X145402489Y-88811706D01*
X145454000Y-88800500D01*
X145849748Y-88800500D01*
X145876155Y-88795247D01*
X145945745Y-88801473D01*
X146000923Y-88844335D01*
X146001629Y-88845325D01*
X146152563Y-89059146D01*
X146156804Y-89065153D01*
X146179383Y-89131274D01*
X146179500Y-89136662D01*
X146179500Y-91764525D01*
X146179028Y-91775334D01*
X146175735Y-91812961D01*
X146185512Y-91849451D01*
X146187852Y-91860005D01*
X146194411Y-91897195D01*
X146196235Y-91902208D01*
X146203197Y-91919014D01*
X146205446Y-91923837D01*
X146227104Y-91954769D01*
X146232914Y-91963887D01*
X146251806Y-91996608D01*
X146280743Y-92020889D01*
X146288718Y-92028197D01*
X149551802Y-95291282D01*
X149559109Y-95299256D01*
X149577048Y-95320633D01*
X149583392Y-95328194D01*
X149594082Y-95334366D01*
X149616108Y-95347082D01*
X149625213Y-95352882D01*
X149656163Y-95374553D01*
X149656165Y-95374553D01*
X149656166Y-95374554D01*
X149661015Y-95376815D01*
X149677794Y-95383765D01*
X149682799Y-95385587D01*
X149682800Y-95385587D01*
X149682802Y-95385588D01*
X149720009Y-95392148D01*
X149730548Y-95394484D01*
X149767040Y-95404263D01*
X149804658Y-95400971D01*
X149815465Y-95400500D01*
X151701577Y-95400500D01*
X151745421Y-95408510D01*
X152338679Y-95632775D01*
X152349027Y-95634588D01*
X152375077Y-95642166D01*
X152384169Y-95645932D01*
X152418238Y-95660044D01*
X152554361Y-95677964D01*
X152574999Y-95680682D01*
X152575000Y-95680682D01*
X152575001Y-95680682D01*
X152627254Y-95673802D01*
X152731762Y-95660044D01*
X152877841Y-95599536D01*
X153003282Y-95503282D01*
X153099536Y-95377841D01*
X153160044Y-95231762D01*
X153180391Y-95077208D01*
X153180682Y-95075001D01*
X153180682Y-95074998D01*
X153160044Y-94918239D01*
X153160044Y-94918238D01*
X153099536Y-94772159D01*
X153059323Y-94719752D01*
X154939500Y-94719752D01*
X154951131Y-94778229D01*
X154951132Y-94778230D01*
X154995447Y-94844552D01*
X155061769Y-94888867D01*
X155061770Y-94888868D01*
X155120247Y-94900499D01*
X155120250Y-94900500D01*
X155120252Y-94900500D01*
X156359750Y-94900500D01*
X156359751Y-94900499D01*
X156374568Y-94897552D01*
X156418229Y-94888868D01*
X156418229Y-94888867D01*
X156418231Y-94888867D01*
X156484552Y-94844552D01*
X156528867Y-94778231D01*
X156528867Y-94778229D01*
X156528868Y-94778229D01*
X156537552Y-94734568D01*
X156540500Y-94719748D01*
X156540500Y-93680252D01*
X156540500Y-93680249D01*
X156540499Y-93680247D01*
X156528868Y-93621770D01*
X156528867Y-93621769D01*
X156484552Y-93555447D01*
X156418230Y-93511132D01*
X156418229Y-93511131D01*
X156359752Y-93499500D01*
X156359748Y-93499500D01*
X155120252Y-93499500D01*
X155120247Y-93499500D01*
X155061770Y-93511131D01*
X155061769Y-93511132D01*
X154995447Y-93555447D01*
X154951132Y-93621769D01*
X154951131Y-93621770D01*
X154939500Y-93680247D01*
X154939500Y-94719752D01*
X153059323Y-94719752D01*
X153003282Y-94646718D01*
X153003279Y-94646715D01*
X153003277Y-94646713D01*
X152999245Y-94642681D01*
X152965760Y-94581358D01*
X152970744Y-94511666D01*
X152999245Y-94467319D01*
X153003277Y-94463286D01*
X153003277Y-94463285D01*
X153003282Y-94463282D01*
X153099536Y-94337841D01*
X153160044Y-94191762D01*
X153180682Y-94035000D01*
X153178251Y-94016538D01*
X153160044Y-93878239D01*
X153160044Y-93878238D01*
X153099536Y-93732159D01*
X153003282Y-93606718D01*
X153003280Y-93606717D01*
X153003280Y-93606716D01*
X152877841Y-93510464D01*
X152877838Y-93510462D01*
X152834338Y-93492444D01*
X152809713Y-93478783D01*
X152802301Y-93473488D01*
X152802299Y-93473487D01*
X152224222Y-93212568D01*
X152187554Y-93187228D01*
X151266819Y-92266493D01*
X151233334Y-92205170D01*
X151230500Y-92178812D01*
X151230500Y-89136661D01*
X151250185Y-89069622D01*
X151253196Y-89065153D01*
X151371308Y-88897827D01*
X151408346Y-88845355D01*
X151463088Y-88801938D01*
X151532613Y-88795009D01*
X151533842Y-88795247D01*
X151560249Y-88800500D01*
X151560252Y-88800500D01*
X152449750Y-88800500D01*
X152449751Y-88800499D01*
X152476157Y-88795247D01*
X152520210Y-88786485D01*
X152520464Y-88787762D01*
X152577009Y-88781680D01*
X152600899Y-88788694D01*
X152660247Y-88800499D01*
X152660250Y-88800500D01*
X152660252Y-88800500D01*
X153549750Y-88800500D01*
X153549751Y-88800499D01*
X153576157Y-88795247D01*
X153608229Y-88788868D01*
X153608229Y-88788867D01*
X153608231Y-88788867D01*
X153674552Y-88744552D01*
X153718867Y-88678231D01*
X153718867Y-88678229D01*
X153718868Y-88678229D01*
X153730499Y-88619752D01*
X153730500Y-88619750D01*
X153730500Y-88425000D01*
X154290000Y-88425000D01*
X154290000Y-88897844D01*
X154296401Y-88957372D01*
X154296403Y-88957379D01*
X154346645Y-89092086D01*
X154346649Y-89092093D01*
X154432809Y-89207187D01*
X154432812Y-89207190D01*
X154547906Y-89293350D01*
X154547913Y-89293354D01*
X154682620Y-89343596D01*
X154682627Y-89343598D01*
X154742155Y-89349999D01*
X154742172Y-89350000D01*
X155315000Y-89350000D01*
X155315000Y-88425000D01*
X155815000Y-88425000D01*
X155815000Y-89350000D01*
X156387828Y-89350000D01*
X156387844Y-89349999D01*
X156447372Y-89343598D01*
X156447379Y-89343596D01*
X156582086Y-89293354D01*
X156582093Y-89293350D01*
X156697187Y-89207190D01*
X156697190Y-89207187D01*
X156783350Y-89092093D01*
X156783354Y-89092086D01*
X156833596Y-88957379D01*
X156833598Y-88957372D01*
X156839999Y-88897844D01*
X156840000Y-88897827D01*
X156840000Y-88425000D01*
X155815000Y-88425000D01*
X155315000Y-88425000D01*
X154290000Y-88425000D01*
X153730500Y-88425000D01*
X153730500Y-87943833D01*
X160350903Y-87943833D01*
X160369948Y-88197983D01*
X160426274Y-88444765D01*
X160426663Y-88446466D01*
X160519778Y-88683717D01*
X160647212Y-88904441D01*
X160806121Y-89103706D01*
X160992954Y-89277061D01*
X161203537Y-89420634D01*
X161203542Y-89420636D01*
X161203543Y-89420637D01*
X161203544Y-89420638D01*
X161362877Y-89497368D01*
X161433167Y-89531218D01*
X161473248Y-89543581D01*
X161478577Y-89545359D01*
X161480687Y-89546116D01*
X161480697Y-89546121D01*
X161486052Y-89547592D01*
X161489665Y-89548645D01*
X161676713Y-89606342D01*
X161676718Y-89606342D01*
X161676719Y-89606343D01*
X161720646Y-89612964D01*
X161727352Y-89614385D01*
X161727372Y-89614285D01*
X161732016Y-89615185D01*
X161732030Y-89615189D01*
X161744358Y-89616612D01*
X161748509Y-89617163D01*
X161928736Y-89644329D01*
X161928742Y-89644329D01*
X161977312Y-89644329D01*
X161989232Y-89645014D01*
X161990960Y-89645081D01*
X161990960Y-89645080D01*
X161990961Y-89645081D01*
X162008207Y-89644420D01*
X162012956Y-89644329D01*
X162183602Y-89644329D01*
X162183606Y-89644329D01*
X162235791Y-89636463D01*
X162249517Y-89635170D01*
X162251420Y-89635098D01*
X162271834Y-89631138D01*
X162276874Y-89630270D01*
X162435629Y-89606342D01*
X162490141Y-89589527D01*
X162503034Y-89586299D01*
X162507302Y-89585472D01*
X162507309Y-89585469D01*
X162507311Y-89585469D01*
X162515012Y-89582702D01*
X162529079Y-89577650D01*
X162534393Y-89575877D01*
X162679175Y-89531218D01*
X162734439Y-89504603D01*
X162746300Y-89499634D01*
X162752611Y-89497368D01*
X162774336Y-89485554D01*
X162779654Y-89482829D01*
X162908805Y-89420634D01*
X162963101Y-89383615D01*
X162973693Y-89377147D01*
X162981596Y-89372850D01*
X163001953Y-89357331D01*
X163007184Y-89353559D01*
X163119388Y-89277061D01*
X163170844Y-89229316D01*
X163179972Y-89221633D01*
X163188889Y-89214837D01*
X163206842Y-89196182D01*
X163211765Y-89191347D01*
X163306221Y-89103706D01*
X163352817Y-89045276D01*
X163360393Y-89036632D01*
X163369632Y-89027033D01*
X163384446Y-89005970D01*
X163388886Y-89000047D01*
X163465130Y-88904441D01*
X163467007Y-88901191D01*
X163504813Y-88835707D01*
X163510773Y-88826373D01*
X163519590Y-88813839D01*
X163530805Y-88791186D01*
X163534494Y-88784296D01*
X163592564Y-88683717D01*
X163623300Y-88605402D01*
X163627605Y-88595683D01*
X163635243Y-88580257D01*
X163635244Y-88580256D01*
X163635245Y-88580253D01*
X163642627Y-88556926D01*
X163645392Y-88549114D01*
X163685679Y-88446466D01*
X163705492Y-88359658D01*
X163708150Y-88349882D01*
X163713889Y-88331750D01*
X163717462Y-88308616D01*
X163719106Y-88300010D01*
X163742393Y-88197986D01*
X163749425Y-88104147D01*
X163750521Y-88094583D01*
X163753677Y-88074154D01*
X163754299Y-88041649D01*
X163754618Y-88034844D01*
X163761191Y-87947142D01*
X163761439Y-87943830D01*
X163761439Y-87943827D01*
X163760028Y-87925000D01*
X163754618Y-87852816D01*
X163754298Y-87846004D01*
X163753677Y-87813504D01*
X163750518Y-87793057D01*
X163749424Y-87783504D01*
X163742393Y-87689672D01*
X163719105Y-87587642D01*
X163717461Y-87579036D01*
X163713889Y-87555908D01*
X163708146Y-87537761D01*
X163705494Y-87528007D01*
X163685679Y-87441192D01*
X163645393Y-87338546D01*
X163642626Y-87330728D01*
X163636479Y-87311303D01*
X163635247Y-87307410D01*
X163635245Y-87307405D01*
X163627587Y-87291939D01*
X163623308Y-87282276D01*
X163592564Y-87203941D01*
X163534519Y-87103404D01*
X163530800Y-87096460D01*
X163519590Y-87073819D01*
X163510764Y-87061271D01*
X163504822Y-87051967D01*
X163465130Y-86983217D01*
X163388890Y-86887615D01*
X163384431Y-86881665D01*
X163369632Y-86860625D01*
X163369523Y-86860512D01*
X163360410Y-86851042D01*
X163352811Y-86842373D01*
X163306222Y-86783953D01*
X163211814Y-86696355D01*
X163206813Y-86691444D01*
X163188892Y-86672823D01*
X163188889Y-86672821D01*
X163179996Y-86666042D01*
X163170827Y-86658325D01*
X163119388Y-86610596D01*
X163007207Y-86534112D01*
X163001888Y-86530276D01*
X162981596Y-86514808D01*
X162981592Y-86514805D01*
X162981591Y-86514805D01*
X162973699Y-86510513D01*
X162963088Y-86504033D01*
X162908805Y-86467024D01*
X162908801Y-86467022D01*
X162779718Y-86404859D01*
X162774283Y-86402075D01*
X162752605Y-86390287D01*
X162746297Y-86388021D01*
X162734420Y-86383044D01*
X162679177Y-86356441D01*
X162679175Y-86356440D01*
X162595650Y-86330676D01*
X162534415Y-86311787D01*
X162529053Y-86309998D01*
X162507300Y-86302185D01*
X162503044Y-86301360D01*
X162490106Y-86298120D01*
X162435633Y-86281317D01*
X162435631Y-86281316D01*
X162435629Y-86281316D01*
X162338599Y-86266690D01*
X162276908Y-86257392D01*
X162271788Y-86256510D01*
X162267392Y-86255657D01*
X162251418Y-86252559D01*
X162249497Y-86252486D01*
X162235777Y-86251192D01*
X162183613Y-86243329D01*
X162183606Y-86243329D01*
X162012956Y-86243329D01*
X162008207Y-86243238D01*
X161990960Y-86242576D01*
X161989232Y-86242643D01*
X161977312Y-86243329D01*
X161928728Y-86243329D01*
X161748592Y-86270481D01*
X161744341Y-86271047D01*
X161732031Y-86272468D01*
X161727374Y-86273372D01*
X161727354Y-86273273D01*
X161720668Y-86274689D01*
X161676710Y-86281316D01*
X161489731Y-86338991D01*
X161486063Y-86340061D01*
X161480698Y-86341536D01*
X161478550Y-86342307D01*
X161473232Y-86344080D01*
X161433168Y-86356439D01*
X161203541Y-86467021D01*
X160992953Y-86610597D01*
X160806123Y-86783950D01*
X160806121Y-86783952D01*
X160647212Y-86983217D01*
X160519779Y-87203938D01*
X160426663Y-87441191D01*
X160426661Y-87441198D01*
X160369948Y-87689674D01*
X160350903Y-87943824D01*
X160350903Y-87943833D01*
X153730500Y-87943833D01*
X153730500Y-87480249D01*
X153730499Y-87480247D01*
X153718868Y-87421770D01*
X153718867Y-87421769D01*
X153674552Y-87355447D01*
X153608230Y-87311132D01*
X153608229Y-87311131D01*
X153549752Y-87299500D01*
X153549748Y-87299500D01*
X152660252Y-87299500D01*
X152660249Y-87299500D01*
X152589791Y-87313515D01*
X152589537Y-87312239D01*
X152532977Y-87318317D01*
X152509089Y-87311303D01*
X152449751Y-87299500D01*
X152449748Y-87299500D01*
X151560252Y-87299500D01*
X151560249Y-87299500D01*
X151489791Y-87313515D01*
X151489537Y-87312239D01*
X151432977Y-87318317D01*
X151409089Y-87311303D01*
X151349751Y-87299500D01*
X151349748Y-87299500D01*
X150460252Y-87299500D01*
X150460249Y-87299500D01*
X150389791Y-87313515D01*
X150389537Y-87312239D01*
X150332977Y-87318317D01*
X150309089Y-87311303D01*
X150249751Y-87299500D01*
X150249748Y-87299500D01*
X149360252Y-87299500D01*
X149360249Y-87299500D01*
X149289791Y-87313515D01*
X149289537Y-87312239D01*
X149232977Y-87318317D01*
X149209089Y-87311303D01*
X149149751Y-87299500D01*
X149149748Y-87299500D01*
X148566556Y-87299500D01*
X148499517Y-87279815D01*
X148467290Y-87249811D01*
X148387190Y-87142812D01*
X148387187Y-87142809D01*
X148272093Y-87056649D01*
X148272086Y-87056645D01*
X148137379Y-87006403D01*
X148137372Y-87006401D01*
X148077844Y-87000000D01*
X147855000Y-87000000D01*
X147855000Y-89100000D01*
X148077828Y-89100000D01*
X148077844Y-89099999D01*
X148137372Y-89093598D01*
X148137383Y-89093595D01*
X148212166Y-89065703D01*
X148281857Y-89060718D01*
X148343181Y-89094202D01*
X148376666Y-89155525D01*
X148379500Y-89181884D01*
X148379500Y-90028811D01*
X148359815Y-90095850D01*
X148343181Y-90116492D01*
X147812446Y-90647226D01*
X147775778Y-90672566D01*
X147197696Y-90933489D01*
X147197686Y-90933494D01*
X147189089Y-90939528D01*
X147165320Y-90952584D01*
X147122159Y-90970463D01*
X147029986Y-91041190D01*
X146964817Y-91066384D01*
X146896372Y-91052345D01*
X146846382Y-91003531D01*
X146830500Y-90942814D01*
X146830500Y-89181884D01*
X146850185Y-89114845D01*
X146902989Y-89069090D01*
X146972147Y-89059146D01*
X146997834Y-89065703D01*
X147072616Y-89093595D01*
X147072627Y-89093598D01*
X147132155Y-89099999D01*
X147132172Y-89100000D01*
X147355000Y-89100000D01*
X147355000Y-87000000D01*
X147132155Y-87000000D01*
X147072627Y-87006401D01*
X147072620Y-87006403D01*
X146937913Y-87056645D01*
X146937906Y-87056649D01*
X146822812Y-87142809D01*
X146822809Y-87142812D01*
X146742710Y-87249811D01*
X146686777Y-87291682D01*
X146643444Y-87299500D01*
X146060249Y-87299500D01*
X145989791Y-87313515D01*
X145989537Y-87312239D01*
X145932977Y-87318317D01*
X145909089Y-87311303D01*
X145849751Y-87299500D01*
X145849748Y-87299500D01*
X145366556Y-87299500D01*
X145299517Y-87279815D01*
X145267290Y-87249812D01*
X145208248Y-87170943D01*
X145183830Y-87105478D01*
X145198681Y-87037205D01*
X145248086Y-86987799D01*
X145276651Y-86976533D01*
X145302158Y-86969980D01*
X145494078Y-86903995D01*
X145496892Y-86903068D01*
X145720134Y-86832592D01*
X145720403Y-86832588D01*
X145720380Y-86832515D01*
X145720583Y-86832451D01*
X146185454Y-86686780D01*
X146191205Y-86685131D01*
X146510203Y-86602036D01*
X146898201Y-86503603D01*
X146903510Y-86502381D01*
X147242924Y-86432213D01*
X147243572Y-86432083D01*
X147619798Y-86358462D01*
X147624594Y-86357624D01*
X147973656Y-86303834D01*
X147975201Y-86303607D01*
X148348175Y-86251795D01*
X148352501Y-86251275D01*
X148707189Y-86214995D01*
X148709260Y-86214803D01*
X149081347Y-86183917D01*
X149085156Y-86183662D01*
X149442819Y-86165418D01*
X149445576Y-86165309D01*
X149817336Y-86155044D01*
X149820759Y-86154997D01*
X150179241Y-86154997D01*
X150182664Y-86155044D01*
X150554416Y-86165309D01*
X150557188Y-86165418D01*
X150914834Y-86183661D01*
X150918661Y-86183918D01*
X151290720Y-86214802D01*
X151292835Y-86214998D01*
X151647484Y-86251273D01*
X151651837Y-86251797D01*
X152024761Y-86303602D01*
X152026387Y-86303840D01*
X152375389Y-86357621D01*
X152380218Y-86358465D01*
X152756356Y-86432070D01*
X152757221Y-86432244D01*
X153096469Y-86502377D01*
X153101818Y-86503608D01*
X153489596Y-86601986D01*
X153490004Y-86602091D01*
X153808772Y-86685126D01*
X153814577Y-86686790D01*
X154279492Y-86832475D01*
X154448537Y-86885841D01*
X154506538Y-86924794D01*
X154534274Y-86988923D01*
X154522936Y-87057866D01*
X154485518Y-87103353D01*
X154432811Y-87142810D01*
X154432809Y-87142812D01*
X154346649Y-87257906D01*
X154346645Y-87257913D01*
X154296403Y-87392620D01*
X154296401Y-87392627D01*
X154290000Y-87452155D01*
X154290000Y-87925000D01*
X156840000Y-87925000D01*
X156840000Y-87452172D01*
X156839999Y-87452155D01*
X156833598Y-87392627D01*
X156833596Y-87392620D01*
X156797785Y-87296604D01*
X156792801Y-87226912D01*
X156826286Y-87165589D01*
X156887609Y-87132105D01*
X156895762Y-87130615D01*
X157125114Y-87096587D01*
X157515451Y-87006403D01*
X157523489Y-87004546D01*
X157523490Y-87004545D01*
X157523497Y-87004544D01*
X157913280Y-86881050D01*
X158291983Y-86726891D01*
X158657198Y-86543045D01*
X159006602Y-86330684D01*
X159337975Y-86091157D01*
X159619011Y-85851716D01*
X159649199Y-85825996D01*
X159649201Y-85825993D01*
X159649208Y-85825988D01*
X159791438Y-85683783D01*
X159796204Y-85679266D01*
X159939921Y-85550169D01*
X160046671Y-85454770D01*
X160056728Y-85446687D01*
X160202773Y-85341371D01*
X160203212Y-85341057D01*
X160331566Y-85249983D01*
X160341926Y-85243382D01*
X160495976Y-85155656D01*
X160497005Y-85155079D01*
X160637145Y-85077625D01*
X160647553Y-85072497D01*
X160809018Y-85002212D01*
X160810765Y-85001470D01*
X160959674Y-84939788D01*
X160970054Y-84936022D01*
X161137432Y-84883611D01*
X161139947Y-84882856D01*
X161295356Y-84838081D01*
X161305428Y-84835633D01*
X161477010Y-84801502D01*
X161480322Y-84800891D01*
X161640097Y-84773744D01*
X161649785Y-84772489D01*
X161823742Y-84756921D01*
X161827700Y-84756633D01*
X161989784Y-84747529D01*
X161998885Y-84747355D01*
X162173351Y-84750469D01*
G37*
%TD.AperFunction*%
%TD*%
%TA.AperFunction,Conductor*%
%TO.N,SD_SCK*%
G36*
X149059174Y-88198746D02*
G01*
X149065492Y-88205093D01*
X149065642Y-88213613D01*
X148832830Y-88841373D01*
X148826740Y-88847939D01*
X148821860Y-88849005D01*
X148588023Y-88849005D01*
X148579750Y-88845578D01*
X148577109Y-88841521D01*
X148334554Y-88213702D01*
X148334769Y-88204750D01*
X148340964Y-88198688D01*
X148695500Y-88050875D01*
X148704449Y-88050855D01*
X149059174Y-88198746D01*
G37*
%TD.AperFunction*%
%TD*%
%TA.AperFunction,Conductor*%
%TO.N,HALL_DATA*%
G36*
X124005393Y-95503708D02*
G01*
X124394928Y-95771513D01*
X124399804Y-95779024D01*
X124400000Y-95781154D01*
X124400000Y-96018846D01*
X124396573Y-96027119D01*
X124394928Y-96028487D01*
X124005393Y-96296291D01*
X123996635Y-96298154D01*
X123994018Y-96297344D01*
X123123088Y-95910694D01*
X123116917Y-95904205D01*
X123117141Y-95895253D01*
X123123088Y-95889306D01*
X123994019Y-95502654D01*
X124002970Y-95502431D01*
X124005393Y-95503708D01*
G37*
%TD.AperFunction*%
%TD*%
%TA.AperFunction,Conductor*%
%TO.N,SD_MOSI*%
G36*
X150912146Y-88058892D02*
G01*
X150914264Y-88061010D01*
X151324725Y-88593161D01*
X151327065Y-88601805D01*
X151325020Y-88607054D01*
X151033496Y-89020047D01*
X151025925Y-89024830D01*
X151023937Y-89025000D01*
X150786063Y-89025000D01*
X150777790Y-89021573D01*
X150776504Y-89020047D01*
X150484979Y-88607054D01*
X150483008Y-88598319D01*
X150485272Y-88593164D01*
X150895736Y-88061009D01*
X150903502Y-88056552D01*
X150912146Y-88058892D01*
G37*
%TD.AperFunction*%
%TD*%
%TA.AperFunction,Conductor*%
%TO.N,Vac_b*%
G36*
X140554930Y-103790235D02*
G01*
X141388716Y-104349584D01*
X141393677Y-104357039D01*
X141391914Y-104365818D01*
X141388716Y-104369016D01*
X140554930Y-104928364D01*
X140546960Y-104930257D01*
X139990048Y-104860582D01*
X139982264Y-104856155D01*
X139979800Y-104848973D01*
X139979800Y-103869626D01*
X139983227Y-103861353D01*
X139990045Y-103858018D01*
X140546962Y-103788342D01*
X140554930Y-103790235D01*
G37*
%TD.AperFunction*%
%TD*%
%TA.AperFunction,Conductor*%
%TO.N,SD_MOSI*%
G36*
X151259174Y-88148746D02*
G01*
X151265492Y-88155093D01*
X151265642Y-88163613D01*
X151032830Y-88791373D01*
X151026740Y-88797939D01*
X151021860Y-88799005D01*
X150788023Y-88799005D01*
X150779750Y-88795578D01*
X150777109Y-88791521D01*
X150534554Y-88163702D01*
X150534769Y-88154750D01*
X150540964Y-88148688D01*
X150895500Y-88000875D01*
X150904449Y-88000855D01*
X151259174Y-88148746D01*
G37*
%TD.AperFunction*%
%TD*%
%TA.AperFunction,Conductor*%
%TO.N,SD_MOSI*%
G36*
X152105071Y-93384252D02*
G01*
X152717760Y-93660793D01*
X152723891Y-93667320D01*
X152723767Y-93675909D01*
X152577563Y-94031195D01*
X152571245Y-94037542D01*
X152571195Y-94037563D01*
X152215909Y-94183767D01*
X152206955Y-94183746D01*
X152200793Y-94177760D01*
X152136676Y-94035707D01*
X151974279Y-93675909D01*
X151924252Y-93565071D01*
X151923972Y-93556121D01*
X151926641Y-93551987D01*
X152091986Y-93386642D01*
X152100258Y-93383216D01*
X152105071Y-93384252D01*
G37*
%TD.AperFunction*%
%TD*%
%TA.AperFunction,Conductor*%
%TO.N,SD_SCK*%
G36*
X148712146Y-88058892D02*
G01*
X148714264Y-88061010D01*
X149124725Y-88593161D01*
X149127065Y-88601805D01*
X149125020Y-88607054D01*
X148833496Y-89020047D01*
X148825925Y-89024830D01*
X148823937Y-89025000D01*
X148586063Y-89025000D01*
X148577790Y-89021573D01*
X148576504Y-89020047D01*
X148284979Y-88607054D01*
X148283008Y-88598319D01*
X148285272Y-88593164D01*
X148695736Y-88061009D01*
X148703502Y-88056552D01*
X148712146Y-88058892D01*
G37*
%TD.AperFunction*%
%TD*%
%TA.AperFunction,Conductor*%
%TO.N,Vac_a*%
G36*
X140494309Y-108632257D02*
G01*
X141471913Y-108786012D01*
X141479551Y-108790682D01*
X141481679Y-108799196D01*
X141403846Y-109353316D01*
X141399302Y-109361032D01*
X141396643Y-109362537D01*
X140556062Y-109702133D01*
X140547107Y-109702055D01*
X140546660Y-109701854D01*
X140019705Y-109451631D01*
X139796314Y-109345554D01*
X139790312Y-109338911D01*
X139790765Y-109329967D01*
X139793058Y-109326716D01*
X140484232Y-108635542D01*
X140492504Y-108632116D01*
X140494309Y-108632257D01*
G37*
%TD.AperFunction*%
%TD*%
%TA.AperFunction,Conductor*%
%TO.N,Vdd*%
G36*
X149812146Y-88058892D02*
G01*
X149814264Y-88061010D01*
X150225871Y-88594648D01*
X150228211Y-88603292D01*
X150227426Y-88606249D01*
X150057983Y-89017755D01*
X150051664Y-89024100D01*
X150047164Y-89025000D01*
X149562836Y-89025000D01*
X149554563Y-89021573D01*
X149552017Y-89017755D01*
X149382573Y-88606249D01*
X149382592Y-88597294D01*
X149384128Y-88594648D01*
X149795736Y-88061010D01*
X149803502Y-88056552D01*
X149812146Y-88058892D01*
G37*
%TD.AperFunction*%
%TD*%
%TA.AperFunction,Conductor*%
%TO.N,SD_MISO*%
G36*
X152420294Y-94709728D02*
G01*
X152426280Y-94715890D01*
X152574123Y-95070498D01*
X152574144Y-95079452D01*
X152574123Y-95079502D01*
X152426280Y-95434109D01*
X152419933Y-95440427D01*
X152411344Y-95440551D01*
X151782563Y-95202858D01*
X151776036Y-95196727D01*
X151775000Y-95191914D01*
X151775000Y-94958085D01*
X151778427Y-94949812D01*
X151782563Y-94947141D01*
X152411345Y-94709448D01*
X152420294Y-94709728D01*
G37*
%TD.AperFunction*%
%TD*%
%TA.AperFunction,Conductor*%
%TO.N,Vac_a*%
G36*
X138400028Y-106051613D02*
G01*
X138405310Y-106055981D01*
X139349349Y-107489522D01*
X139351037Y-107498316D01*
X139347850Y-107504230D01*
X138654230Y-108197850D01*
X138645957Y-108201277D01*
X138639522Y-108199348D01*
X137205984Y-107255311D01*
X137200959Y-107247899D01*
X137201604Y-107241076D01*
X137547438Y-106403782D01*
X137553761Y-106397447D01*
X138391075Y-106051604D01*
X138400028Y-106051613D01*
G37*
%TD.AperFunction*%
%TD*%
%TA.AperFunction,Conductor*%
%TO.N,V_rect_plus*%
G36*
X150612153Y-103858018D02*
G01*
X150619936Y-103862444D01*
X150622400Y-103869626D01*
X150622400Y-104848973D01*
X150618973Y-104857246D01*
X150612152Y-104860582D01*
X150055239Y-104930257D01*
X150047269Y-104928364D01*
X149213483Y-104369016D01*
X149208522Y-104361561D01*
X149210285Y-104352782D01*
X149213483Y-104349584D01*
X150047271Y-103790234D01*
X150055236Y-103788342D01*
X150612153Y-103858018D01*
G37*
%TD.AperFunction*%
%TD*%
%TA.AperFunction,Conductor*%
%TO.N,Vdd*%
G36*
X150052897Y-89026867D02*
G01*
X150056240Y-89033741D01*
X150148426Y-89799433D01*
X150146013Y-89808057D01*
X150138209Y-89812448D01*
X150136839Y-89812532D01*
X149752355Y-89813494D01*
X149747824Y-89812593D01*
X149658323Y-89775278D01*
X149389955Y-89663390D01*
X149383637Y-89657043D01*
X149383174Y-89649494D01*
X149552639Y-89032043D01*
X149558134Y-89024972D01*
X149563922Y-89023440D01*
X150044624Y-89023440D01*
X150052897Y-89026867D01*
G37*
%TD.AperFunction*%
%TD*%
%TA.AperFunction,Conductor*%
%TO.N,HALL_DATA*%
G36*
X144508004Y-95776491D02*
G01*
X145139658Y-95848815D01*
X145147487Y-95853161D01*
X145150026Y-95860410D01*
X145150987Y-96245124D01*
X145147581Y-96253405D01*
X145147546Y-96253441D01*
X144876803Y-96523230D01*
X144868523Y-96526642D01*
X144860256Y-96523201D01*
X144859107Y-96521858D01*
X144497237Y-96028087D01*
X144494974Y-96021171D01*
X144494974Y-95788116D01*
X144498401Y-95779843D01*
X144506674Y-95776416D01*
X144508004Y-95776491D01*
G37*
%TD.AperFunction*%
%TD*%
%TA.AperFunction,Conductor*%
%TO.N,SD_MISO*%
G36*
X146859174Y-88198746D02*
G01*
X146865492Y-88205093D01*
X146865642Y-88213613D01*
X146632830Y-88841373D01*
X146626740Y-88847939D01*
X146621860Y-88849005D01*
X146388023Y-88849005D01*
X146379750Y-88845578D01*
X146377109Y-88841521D01*
X146134554Y-88213702D01*
X146134769Y-88204750D01*
X146140964Y-88198688D01*
X146495500Y-88050875D01*
X146504449Y-88050855D01*
X146859174Y-88198746D01*
G37*
%TD.AperFunction*%
%TD*%
%TA.AperFunction,Conductor*%
%TO.N,Vac_b*%
G36*
X137885153Y-103081435D02*
G01*
X137887085Y-103082460D01*
X139063748Y-103855834D01*
X139068780Y-103863240D01*
X139069022Y-103865610D01*
X139069022Y-104846393D01*
X139065595Y-104854666D01*
X139057322Y-104858093D01*
X139056178Y-104858037D01*
X137560543Y-104711036D01*
X137552644Y-104706816D01*
X137549987Y-104699407D01*
X137549002Y-103862338D01*
X137549896Y-103857843D01*
X137869859Y-103087750D01*
X137876198Y-103081426D01*
X137885153Y-103081435D01*
G37*
%TD.AperFunction*%
%TD*%
%TA.AperFunction,Conductor*%
%TO.N,SD_SCK*%
G36*
X147908014Y-90846643D02*
G01*
X148073356Y-91011985D01*
X148076783Y-91020258D01*
X148075747Y-91025071D01*
X147799206Y-91637760D01*
X147792679Y-91643891D01*
X147784090Y-91643767D01*
X147428804Y-91497563D01*
X147422457Y-91491245D01*
X147422436Y-91491195D01*
X147276232Y-91135909D01*
X147276253Y-91126955D01*
X147282237Y-91120794D01*
X147894928Y-90844251D01*
X147903878Y-90843972D01*
X147908014Y-90846643D01*
G37*
%TD.AperFunction*%
%TD*%
%TA.AperFunction,Conductor*%
%TO.N,SD_MISO*%
G36*
X146512146Y-88058892D02*
G01*
X146514264Y-88061010D01*
X146924725Y-88593161D01*
X146927065Y-88601805D01*
X146925020Y-88607054D01*
X146633496Y-89020047D01*
X146625925Y-89024830D01*
X146623937Y-89025000D01*
X146386063Y-89025000D01*
X146377790Y-89021573D01*
X146376504Y-89020047D01*
X146084979Y-88607054D01*
X146083008Y-88598319D01*
X146085272Y-88593164D01*
X146495736Y-88061009D01*
X146503502Y-88056552D01*
X146512146Y-88058892D01*
G37*
%TD.AperFunction*%
%TD*%
M02*
