%TF.GenerationSoftware,KiCad,Pcbnew,7.0.10-7.0.10~ubuntu22.04.1*%
%TF.CreationDate,2024-01-14T15:54:16-07:00*%
%TF.ProjectId,tiny_pov_arm,74696e79-5f70-46f7-965f-61726d2e6b69,rev?*%
%TF.SameCoordinates,Original*%
%TF.FileFunction,Soldermask,Bot*%
%TF.FilePolarity,Negative*%
%FSLAX46Y46*%
G04 Gerber Fmt 4.6, Leading zero omitted, Abs format (unit mm)*
G04 Created by KiCad (PCBNEW 7.0.10-7.0.10~ubuntu22.04.1) date 2024-01-14 15:54:16*
%MOMM*%
%LPD*%
G01*
G04 APERTURE LIST*
G04 Aperture macros list*
%AMRoundRect*
0 Rectangle with rounded corners*
0 $1 Rounding radius*
0 $2 $3 $4 $5 $6 $7 $8 $9 X,Y pos of 4 corners*
0 Add a 4 corners polygon primitive as box body*
4,1,4,$2,$3,$4,$5,$6,$7,$8,$9,$2,$3,0*
0 Add four circle primitives for the rounded corners*
1,1,$1+$1,$2,$3*
1,1,$1+$1,$4,$5*
1,1,$1+$1,$6,$7*
1,1,$1+$1,$8,$9*
0 Add four rect primitives between the rounded corners*
20,1,$1+$1,$2,$3,$4,$5,0*
20,1,$1+$1,$4,$5,$6,$7,0*
20,1,$1+$1,$6,$7,$8,$9,0*
20,1,$1+$1,$8,$9,$2,$3,0*%
G04 Aperture macros list end*
%ADD10R,1.700000X1.700000*%
%ADD11O,1.700000X1.700000*%
%ADD12RoundRect,0.237500X0.300000X0.237500X-0.300000X0.237500X-0.300000X-0.237500X0.300000X-0.237500X0*%
%ADD13RoundRect,0.237500X-0.300000X-0.237500X0.300000X-0.237500X0.300000X0.237500X-0.300000X0.237500X0*%
%ADD14R,1.800000X0.800000*%
%ADD15R,1.701800X1.143000*%
%ADD16R,0.850000X1.100000*%
%ADD17R,0.750000X1.100000*%
%ADD18R,1.200000X1.000000*%
%ADD19R,1.550000X1.350000*%
%ADD20R,1.900000X1.350000*%
%ADD21R,1.170000X1.800000*%
G04 APERTURE END LIST*
D10*
%TO.C,J1*%
X137550000Y-106400000D03*
D11*
X137550000Y-103860000D03*
%TD*%
D12*
%TO.C,C10*%
X161312500Y-108250000D03*
X159587500Y-108250000D03*
%TD*%
D13*
%TO.C,C2*%
X155462500Y-108550000D03*
X157187500Y-108550000D03*
%TD*%
%TO.C,C12*%
X162900000Y-105250000D03*
X164625000Y-105250000D03*
%TD*%
D12*
%TO.C,C7*%
X161312500Y-103750000D03*
X159587500Y-103750000D03*
%TD*%
%TO.C,C1*%
X153837500Y-108550000D03*
X152112500Y-108550000D03*
%TD*%
%TO.C,C4*%
X153812500Y-110050000D03*
X152087500Y-110050000D03*
%TD*%
D13*
%TO.C,C5*%
X155425000Y-111550000D03*
X157150000Y-111550000D03*
%TD*%
D14*
%TO.C,U2*%
X123100000Y-97800000D03*
X123100000Y-95900000D03*
X126400000Y-96850000D03*
%TD*%
D15*
%TO.C,BR1*%
X149200000Y-104359300D03*
X141402200Y-104359300D03*
X149200000Y-109359300D03*
X141402200Y-109359300D03*
%TD*%
D13*
%TO.C,C13*%
X162900000Y-103750000D03*
X164625000Y-103750000D03*
%TD*%
D12*
%TO.C,C9*%
X161312500Y-106750000D03*
X159587500Y-106750000D03*
%TD*%
D16*
%TO.C,J2*%
X153105000Y-88050000D03*
X152005000Y-88050000D03*
X150905000Y-88050000D03*
X149805000Y-88050000D03*
X148705000Y-88050000D03*
X147605000Y-88050000D03*
X146505000Y-88050000D03*
D17*
X145455000Y-88050000D03*
D18*
X155740000Y-94200000D03*
X155740000Y-97900000D03*
D19*
X155565000Y-88175000D03*
D20*
X152240000Y-98875000D03*
X146270000Y-98875000D03*
D21*
X144245000Y-88400000D03*
%TD*%
D12*
%TO.C,C8*%
X161312500Y-105250000D03*
X159587500Y-105250000D03*
%TD*%
D13*
%TO.C,C11*%
X162900000Y-106750000D03*
X164625000Y-106750000D03*
%TD*%
%TO.C,C3*%
X155437500Y-110050000D03*
X157162500Y-110050000D03*
%TD*%
M02*
