%TF.GenerationSoftware,KiCad,Pcbnew,7.0.9-7.0.9~ubuntu22.04.1*%
%TF.CreationDate,2023-12-22T18:08:52-07:00*%
%TF.ProjectId,tiny_pov_arm,74696e79-5f70-46f7-965f-61726d2e6b69,rev?*%
%TF.SameCoordinates,Original*%
%TF.FileFunction,Paste,Top*%
%TF.FilePolarity,Positive*%
%FSLAX46Y46*%
G04 Gerber Fmt 4.6, Leading zero omitted, Abs format (unit mm)*
G04 Created by KiCad (PCBNEW 7.0.9-7.0.9~ubuntu22.04.1) date 2023-12-22 18:08:52*
%MOMM*%
%LPD*%
G01*
G04 APERTURE LIST*
G04 Aperture macros list*
%AMRoundRect*
0 Rectangle with rounded corners*
0 $1 Rounding radius*
0 $2 $3 $4 $5 $6 $7 $8 $9 X,Y pos of 4 corners*
0 Add a 4 corners polygon primitive as box body*
4,1,4,$2,$3,$4,$5,$6,$7,$8,$9,$2,$3,0*
0 Add four circle primitives for the rounded corners*
1,1,$1+$1,$2,$3*
1,1,$1+$1,$4,$5*
1,1,$1+$1,$6,$7*
1,1,$1+$1,$8,$9*
0 Add four rect primitives between the rounded corners*
20,1,$1+$1,$2,$3,$4,$5,0*
20,1,$1+$1,$4,$5,$6,$7,0*
20,1,$1+$1,$6,$7,$8,$9,0*
20,1,$1+$1,$8,$9,$2,$3,0*%
G04 Aperture macros list end*
%ADD10R,0.800000X0.500000*%
%ADD11R,0.500000X1.000000*%
%ADD12R,0.800000X0.300000*%
%ADD13R,0.500000X1.480000*%
%ADD14RoundRect,0.237500X0.300000X0.237500X-0.300000X0.237500X-0.300000X-0.237500X0.300000X-0.237500X0*%
%ADD15RoundRect,0.237500X0.250000X0.237500X-0.250000X0.237500X-0.250000X-0.237500X0.250000X-0.237500X0*%
%ADD16RoundRect,0.237500X-0.250000X-0.237500X0.250000X-0.237500X0.250000X0.237500X-0.250000X0.237500X0*%
%ADD17RoundRect,0.150000X-0.725000X-0.150000X0.725000X-0.150000X0.725000X0.150000X-0.725000X0.150000X0*%
%ADD18RoundRect,0.237500X0.237500X-0.300000X0.237500X0.300000X-0.237500X0.300000X-0.237500X-0.300000X0*%
%ADD19RoundRect,0.237500X-0.300000X-0.237500X0.300000X-0.237500X0.300000X0.237500X-0.300000X0.237500X0*%
%ADD20RoundRect,0.237500X0.287500X0.237500X-0.287500X0.237500X-0.287500X-0.237500X0.287500X-0.237500X0*%
G04 APERTURE END LIST*
D10*
%TO.C,D13*%
X223150000Y-104100000D03*
D11*
X224000000Y-104170000D03*
D12*
X223150000Y-105000000D03*
D10*
X223150000Y-105900000D03*
X224850000Y-105900000D03*
D12*
X224850000Y-105000000D03*
D13*
X224000000Y-105590000D03*
D10*
X224850000Y-104100000D03*
%TD*%
%TO.C,D10*%
X234400000Y-104100000D03*
D11*
X235250000Y-104170000D03*
D12*
X234400000Y-105000000D03*
D10*
X234400000Y-105900000D03*
X236100000Y-105900000D03*
D12*
X236100000Y-105000000D03*
D13*
X235250000Y-105590000D03*
D10*
X236100000Y-104100000D03*
%TD*%
%TO.C,D46*%
X99400000Y-104100000D03*
D11*
X100250000Y-104170000D03*
D12*
X99400000Y-105000000D03*
D10*
X99400000Y-105900000D03*
X101100000Y-105900000D03*
D12*
X101100000Y-105000000D03*
D13*
X100250000Y-105590000D03*
D10*
X101100000Y-104100000D03*
%TD*%
D14*
%TO.C,C4*%
X144612500Y-113750000D03*
X142887500Y-113750000D03*
%TD*%
D10*
%TO.C,D20*%
X196900000Y-104100000D03*
D11*
X197750000Y-104170000D03*
D12*
X196900000Y-105000000D03*
D10*
X196900000Y-105900000D03*
X198600000Y-105900000D03*
D12*
X198600000Y-105000000D03*
D13*
X197750000Y-105590000D03*
D10*
X198600000Y-104100000D03*
%TD*%
%TO.C,D7*%
X245650000Y-104100000D03*
D11*
X246500000Y-104170000D03*
D12*
X245650000Y-105000000D03*
D10*
X245650000Y-105900000D03*
X247350000Y-105900000D03*
D12*
X247350000Y-105000000D03*
D13*
X246500000Y-105590000D03*
D10*
X247350000Y-104100000D03*
%TD*%
%TO.C,D54*%
X69400000Y-104100000D03*
D11*
X70250000Y-104170000D03*
D12*
X69400000Y-105000000D03*
D10*
X69400000Y-105900000D03*
X71100000Y-105900000D03*
D12*
X71100000Y-105000000D03*
D13*
X70250000Y-105590000D03*
D10*
X71100000Y-104100000D03*
%TD*%
D15*
%TO.C,R2*%
X144025000Y-95750000D03*
X142200000Y-95750000D03*
%TD*%
D10*
%TO.C,D9*%
X238150000Y-104100000D03*
D11*
X239000000Y-104170000D03*
D12*
X238150000Y-105000000D03*
D10*
X238150000Y-105900000D03*
X239850000Y-105900000D03*
D12*
X239850000Y-105000000D03*
D13*
X239000000Y-105590000D03*
D10*
X239850000Y-104100000D03*
%TD*%
%TO.C,D3*%
X260650000Y-104100000D03*
D11*
X261500000Y-104170000D03*
D12*
X260650000Y-105000000D03*
D10*
X260650000Y-105900000D03*
X262350000Y-105900000D03*
D12*
X262350000Y-105000000D03*
D13*
X261500000Y-105590000D03*
D10*
X262350000Y-104100000D03*
%TD*%
%TO.C,D57*%
X58150000Y-104100000D03*
D11*
X59000000Y-104170000D03*
D12*
X58150000Y-105000000D03*
D10*
X58150000Y-105900000D03*
X59850000Y-105900000D03*
D12*
X59850000Y-105000000D03*
D13*
X59000000Y-105590000D03*
D10*
X59850000Y-104100000D03*
%TD*%
%TO.C,D41*%
X118150000Y-104100000D03*
D11*
X119000000Y-104170000D03*
D12*
X118150000Y-105000000D03*
D10*
X118150000Y-105900000D03*
X119850000Y-105900000D03*
D12*
X119850000Y-105000000D03*
D13*
X119000000Y-105590000D03*
D10*
X119850000Y-104100000D03*
%TD*%
D15*
%TO.C,R3*%
X144025000Y-97250000D03*
X142200000Y-97250000D03*
%TD*%
D10*
%TO.C,D60*%
X46900000Y-104100000D03*
D11*
X47750000Y-104170000D03*
D12*
X46900000Y-105000000D03*
D10*
X46900000Y-105900000D03*
X48600000Y-105900000D03*
D12*
X48600000Y-105000000D03*
D13*
X47750000Y-105590000D03*
D10*
X48600000Y-104100000D03*
%TD*%
%TO.C,D59*%
X50650000Y-104100000D03*
D11*
X51500000Y-104170000D03*
D12*
X50650000Y-105000000D03*
D10*
X50650000Y-105900000D03*
X52350000Y-105900000D03*
D12*
X52350000Y-105000000D03*
D13*
X51500000Y-105590000D03*
D10*
X52350000Y-104100000D03*
%TD*%
D16*
%TO.C,R1*%
X142200000Y-94250000D03*
X144025000Y-94250000D03*
%TD*%
D17*
%TO.C,U3*%
X147925000Y-96690000D03*
X147925000Y-97960000D03*
X147925000Y-99230000D03*
X147925000Y-100500000D03*
X153075000Y-100500000D03*
X153075000Y-99230000D03*
X153075000Y-97960000D03*
X153075000Y-96690000D03*
%TD*%
D10*
%TO.C,D25*%
X178150000Y-104100000D03*
D11*
X179000000Y-104170000D03*
D12*
X178150000Y-105000000D03*
D10*
X178150000Y-105900000D03*
X179850000Y-105900000D03*
D12*
X179850000Y-105000000D03*
D13*
X179000000Y-105590000D03*
D10*
X179850000Y-104100000D03*
%TD*%
%TO.C,D35*%
X140650000Y-104100000D03*
D11*
X141500000Y-104170000D03*
D12*
X140650000Y-105000000D03*
D10*
X140650000Y-105900000D03*
X142350000Y-105900000D03*
D12*
X142350000Y-105000000D03*
D13*
X141500000Y-105590000D03*
D10*
X142350000Y-104100000D03*
%TD*%
%TO.C,D33*%
X148150000Y-104100000D03*
D11*
X149000000Y-104170000D03*
D12*
X148150000Y-105000000D03*
D10*
X148150000Y-105900000D03*
X149850000Y-105900000D03*
D12*
X149850000Y-105000000D03*
D13*
X149000000Y-105590000D03*
D10*
X149850000Y-104100000D03*
%TD*%
%TO.C,D15*%
X215650000Y-104100000D03*
D11*
X216500000Y-104170000D03*
D12*
X215650000Y-105000000D03*
D10*
X215650000Y-105900000D03*
X217350000Y-105900000D03*
D12*
X217350000Y-105000000D03*
D13*
X216500000Y-105590000D03*
D10*
X217350000Y-104100000D03*
%TD*%
%TO.C,D49*%
X88150000Y-104100000D03*
D11*
X89000000Y-104170000D03*
D12*
X88150000Y-105000000D03*
D10*
X88150000Y-105900000D03*
X89850000Y-105900000D03*
D12*
X89850000Y-105000000D03*
D13*
X89000000Y-105590000D03*
D10*
X89850000Y-104100000D03*
%TD*%
%TO.C,D55*%
X65650000Y-104100000D03*
D11*
X66500000Y-104170000D03*
D12*
X65650000Y-105000000D03*
D10*
X65650000Y-105900000D03*
X67350000Y-105900000D03*
D12*
X67350000Y-105000000D03*
D13*
X66500000Y-105590000D03*
D10*
X67350000Y-104100000D03*
%TD*%
%TO.C,D48*%
X91900000Y-104100000D03*
D11*
X92750000Y-104170000D03*
D12*
X91900000Y-105000000D03*
D10*
X91900000Y-105900000D03*
X93600000Y-105900000D03*
D12*
X93600000Y-105000000D03*
D13*
X92750000Y-105590000D03*
D10*
X93600000Y-104100000D03*
%TD*%
%TO.C,D6*%
X249400000Y-104100000D03*
D11*
X250250000Y-104170000D03*
D12*
X249400000Y-105000000D03*
D10*
X249400000Y-105900000D03*
X251100000Y-105900000D03*
D12*
X251100000Y-105000000D03*
D13*
X250250000Y-105590000D03*
D10*
X251100000Y-104100000D03*
%TD*%
%TO.C,D4*%
X256900000Y-104100000D03*
D11*
X257750000Y-104170000D03*
D12*
X256900000Y-105000000D03*
D10*
X256900000Y-105900000D03*
X258600000Y-105900000D03*
D12*
X258600000Y-105000000D03*
D13*
X257750000Y-105590000D03*
D10*
X258600000Y-104100000D03*
%TD*%
%TO.C,D61*%
X43150000Y-104100000D03*
D11*
X44000000Y-104170000D03*
D12*
X43150000Y-105000000D03*
D10*
X43150000Y-105900000D03*
X44850000Y-105900000D03*
D12*
X44850000Y-105000000D03*
D13*
X44000000Y-105590000D03*
D10*
X44850000Y-104100000D03*
%TD*%
%TO.C,D52*%
X76900000Y-104100000D03*
D11*
X77750000Y-104170000D03*
D12*
X76900000Y-105000000D03*
D10*
X76900000Y-105900000D03*
X78600000Y-105900000D03*
D12*
X78600000Y-105000000D03*
D13*
X77750000Y-105590000D03*
D10*
X78600000Y-104100000D03*
%TD*%
%TO.C,D23*%
X185650000Y-104100000D03*
D11*
X186500000Y-104170000D03*
D12*
X185650000Y-105000000D03*
D10*
X185650000Y-105900000D03*
X187350000Y-105900000D03*
D12*
X187350000Y-105000000D03*
D13*
X186500000Y-105590000D03*
D10*
X187350000Y-104100000D03*
%TD*%
%TO.C,D56*%
X61900000Y-104100000D03*
D11*
X62750000Y-104170000D03*
D12*
X61900000Y-105000000D03*
D10*
X61900000Y-105900000D03*
X63600000Y-105900000D03*
D12*
X63600000Y-105000000D03*
D13*
X62750000Y-105590000D03*
D10*
X63600000Y-104100000D03*
%TD*%
%TO.C,D64*%
X31900000Y-104100000D03*
D11*
X32750000Y-104170000D03*
D12*
X31900000Y-105000000D03*
D10*
X31900000Y-105900000D03*
X33600000Y-105900000D03*
D12*
X33600000Y-105000000D03*
D13*
X32750000Y-105590000D03*
D10*
X33600000Y-104100000D03*
%TD*%
%TO.C,D39*%
X125650000Y-104100000D03*
D11*
X126500000Y-104170000D03*
D12*
X125650000Y-105000000D03*
D10*
X125650000Y-105900000D03*
X127350000Y-105900000D03*
D12*
X127350000Y-105000000D03*
D13*
X126500000Y-105590000D03*
D10*
X127350000Y-104100000D03*
%TD*%
%TO.C,D30*%
X159400000Y-104100000D03*
D11*
X160250000Y-104170000D03*
D12*
X159400000Y-105000000D03*
D10*
X159400000Y-105900000D03*
X161100000Y-105900000D03*
D12*
X161100000Y-105000000D03*
D13*
X160250000Y-105590000D03*
D10*
X161100000Y-104100000D03*
%TD*%
%TO.C,D18*%
X204400000Y-104100000D03*
D11*
X205250000Y-104170000D03*
D12*
X204400000Y-105000000D03*
D10*
X204400000Y-105900000D03*
X206100000Y-105900000D03*
D12*
X206100000Y-105000000D03*
D13*
X205250000Y-105590000D03*
D10*
X206100000Y-104100000D03*
%TD*%
%TO.C,D24*%
X181900000Y-104100000D03*
D11*
X182750000Y-104170000D03*
D12*
X181900000Y-105000000D03*
D10*
X181900000Y-105900000D03*
X183600000Y-105900000D03*
D12*
X183600000Y-105000000D03*
D13*
X182750000Y-105590000D03*
D10*
X183600000Y-104100000D03*
%TD*%
%TO.C,D32*%
X151900000Y-104100000D03*
D11*
X152750000Y-104170000D03*
D12*
X151900000Y-105000000D03*
D10*
X151900000Y-105900000D03*
X153600000Y-105900000D03*
D12*
X153600000Y-105000000D03*
D13*
X152750000Y-105590000D03*
D10*
X153600000Y-104100000D03*
%TD*%
%TO.C,D16*%
X211900000Y-104100000D03*
D11*
X212750000Y-104170000D03*
D12*
X211900000Y-105000000D03*
D10*
X211900000Y-105900000D03*
X213600000Y-105900000D03*
D12*
X213600000Y-105000000D03*
D13*
X212750000Y-105590000D03*
D10*
X213600000Y-104100000D03*
%TD*%
%TO.C,D40*%
X121900000Y-104100000D03*
D11*
X122750000Y-104170000D03*
D12*
X121900000Y-105000000D03*
D10*
X121900000Y-105900000D03*
X123600000Y-105900000D03*
D12*
X123600000Y-105000000D03*
D13*
X122750000Y-105590000D03*
D10*
X123600000Y-104100000D03*
%TD*%
%TO.C,D37*%
X133150000Y-104100000D03*
D11*
X134000000Y-104170000D03*
D12*
X133150000Y-105000000D03*
D10*
X133150000Y-105900000D03*
X134850000Y-105900000D03*
D12*
X134850000Y-105000000D03*
D13*
X134000000Y-105590000D03*
D10*
X134850000Y-104100000D03*
%TD*%
%TO.C,D45*%
X103150000Y-104100000D03*
D11*
X104000000Y-104170000D03*
D12*
X103150000Y-105000000D03*
D10*
X103150000Y-105900000D03*
X104850000Y-105900000D03*
D12*
X104850000Y-105000000D03*
D13*
X104000000Y-105590000D03*
D10*
X104850000Y-104100000D03*
%TD*%
%TO.C,D5*%
X253150000Y-104100000D03*
D11*
X254000000Y-104170000D03*
D12*
X253150000Y-105000000D03*
D10*
X253150000Y-105900000D03*
X254850000Y-105900000D03*
D12*
X254850000Y-105000000D03*
D13*
X254000000Y-105590000D03*
D10*
X254850000Y-104100000D03*
%TD*%
%TO.C,D44*%
X106900000Y-104100000D03*
D11*
X107750000Y-104170000D03*
D12*
X106900000Y-105000000D03*
D10*
X106900000Y-105900000D03*
X108600000Y-105900000D03*
D12*
X108600000Y-105000000D03*
D13*
X107750000Y-105590000D03*
D10*
X108600000Y-104100000D03*
%TD*%
%TO.C,D50*%
X84400000Y-104100000D03*
D11*
X85250000Y-104170000D03*
D12*
X84400000Y-105000000D03*
D10*
X84400000Y-105900000D03*
X86100000Y-105900000D03*
D12*
X86100000Y-105000000D03*
D13*
X85250000Y-105590000D03*
D10*
X86100000Y-104100000D03*
%TD*%
%TO.C,D34*%
X144400000Y-104100000D03*
D11*
X145250000Y-104170000D03*
D12*
X144400000Y-105000000D03*
D10*
X144400000Y-105900000D03*
X146100000Y-105900000D03*
D12*
X146100000Y-105000000D03*
D13*
X145250000Y-105590000D03*
D10*
X146100000Y-104100000D03*
%TD*%
%TO.C,D14*%
X219400000Y-104100000D03*
D11*
X220250000Y-104170000D03*
D12*
X219400000Y-105000000D03*
D10*
X219400000Y-105900000D03*
X221100000Y-105900000D03*
D12*
X221100000Y-105000000D03*
D13*
X220250000Y-105590000D03*
D10*
X221100000Y-104100000D03*
%TD*%
%TO.C,D43*%
X110650000Y-104100000D03*
D11*
X111500000Y-104170000D03*
D12*
X110650000Y-105000000D03*
D10*
X110650000Y-105900000D03*
X112350000Y-105900000D03*
D12*
X112350000Y-105000000D03*
D13*
X111500000Y-105590000D03*
D10*
X112350000Y-104100000D03*
%TD*%
%TO.C,D51*%
X80650000Y-104100000D03*
D11*
X81500000Y-104170000D03*
D12*
X80650000Y-105000000D03*
D10*
X80650000Y-105900000D03*
X82350000Y-105900000D03*
D12*
X82350000Y-105000000D03*
D13*
X81500000Y-105590000D03*
D10*
X82350000Y-104100000D03*
%TD*%
%TO.C,D21*%
X193150000Y-104100000D03*
D11*
X194000000Y-104170000D03*
D12*
X193150000Y-105000000D03*
D10*
X193150000Y-105900000D03*
X194850000Y-105900000D03*
D12*
X194850000Y-105000000D03*
D13*
X194000000Y-105590000D03*
D10*
X194850000Y-104100000D03*
%TD*%
%TO.C,D2*%
X264400000Y-104100000D03*
D11*
X265250000Y-104170000D03*
D12*
X264400000Y-105000000D03*
D10*
X264400000Y-105900000D03*
X266100000Y-105900000D03*
D12*
X266100000Y-105000000D03*
D13*
X265250000Y-105590000D03*
D10*
X266100000Y-104100000D03*
%TD*%
%TO.C,D28*%
X166900000Y-104100000D03*
D11*
X167750000Y-104170000D03*
D12*
X166900000Y-105000000D03*
D10*
X166900000Y-105900000D03*
X168600000Y-105900000D03*
D12*
X168600000Y-105000000D03*
D13*
X167750000Y-105590000D03*
D10*
X168600000Y-104100000D03*
%TD*%
%TO.C,D8*%
X241900000Y-104100000D03*
D11*
X242750000Y-104170000D03*
D12*
X241900000Y-105000000D03*
D10*
X241900000Y-105900000D03*
X243600000Y-105900000D03*
D12*
X243600000Y-105000000D03*
D13*
X242750000Y-105590000D03*
D10*
X243600000Y-104100000D03*
%TD*%
%TO.C,D1*%
X268150000Y-104100000D03*
D11*
X269000000Y-104170000D03*
D12*
X268150000Y-105000000D03*
D10*
X268150000Y-105900000D03*
X269850000Y-105900000D03*
D12*
X269850000Y-105000000D03*
D13*
X269000000Y-105590000D03*
D10*
X269850000Y-104100000D03*
%TD*%
%TO.C,D11*%
X230650000Y-104100000D03*
D11*
X231500000Y-104170000D03*
D12*
X230650000Y-105000000D03*
D10*
X230650000Y-105900000D03*
X232350000Y-105900000D03*
D12*
X232350000Y-105000000D03*
D13*
X231500000Y-105590000D03*
D10*
X232350000Y-104100000D03*
%TD*%
%TO.C,D26*%
X174400000Y-104100000D03*
D11*
X175250000Y-104170000D03*
D12*
X174400000Y-105000000D03*
D10*
X174400000Y-105900000D03*
X176100000Y-105900000D03*
D12*
X176100000Y-105000000D03*
D13*
X175250000Y-105590000D03*
D10*
X176100000Y-104100000D03*
%TD*%
D18*
%TO.C,C2*%
X153250000Y-115862500D03*
X153250000Y-114137500D03*
%TD*%
D10*
%TO.C,D63*%
X35650000Y-104100000D03*
D11*
X36500000Y-104170000D03*
D12*
X35650000Y-105000000D03*
D10*
X35650000Y-105900000D03*
X37350000Y-105900000D03*
D12*
X37350000Y-105000000D03*
D13*
X36500000Y-105590000D03*
D10*
X37350000Y-104100000D03*
%TD*%
%TO.C,D36*%
X136900000Y-104100000D03*
D11*
X137750000Y-104170000D03*
D12*
X136900000Y-105000000D03*
D10*
X136900000Y-105900000D03*
X138600000Y-105900000D03*
D12*
X138600000Y-105000000D03*
D13*
X137750000Y-105590000D03*
D10*
X138600000Y-104100000D03*
%TD*%
%TO.C,D19*%
X200650000Y-104100000D03*
D11*
X201500000Y-104170000D03*
D12*
X200650000Y-105000000D03*
D10*
X200650000Y-105900000D03*
X202350000Y-105900000D03*
D12*
X202350000Y-105000000D03*
D13*
X201500000Y-105590000D03*
D10*
X202350000Y-104100000D03*
%TD*%
%TO.C,D27*%
X170650000Y-104100000D03*
D11*
X171500000Y-104170000D03*
D12*
X170650000Y-105000000D03*
D10*
X170650000Y-105900000D03*
X172350000Y-105900000D03*
D12*
X172350000Y-105000000D03*
D13*
X171500000Y-105590000D03*
D10*
X172350000Y-104100000D03*
%TD*%
%TO.C,D53*%
X73150000Y-104100000D03*
D11*
X74000000Y-104170000D03*
D12*
X73150000Y-105000000D03*
D10*
X73150000Y-105900000D03*
X74850000Y-105900000D03*
D12*
X74850000Y-105000000D03*
D13*
X74000000Y-105590000D03*
D10*
X74850000Y-104100000D03*
%TD*%
%TO.C,D38*%
X129400000Y-104100000D03*
D11*
X130250000Y-104170000D03*
D12*
X129400000Y-105000000D03*
D10*
X129400000Y-105900000D03*
X131100000Y-105900000D03*
D12*
X131100000Y-105000000D03*
D13*
X130250000Y-105590000D03*
D10*
X131100000Y-104100000D03*
%TD*%
D14*
%TO.C,C6*%
X143975000Y-100250000D03*
X142250000Y-100250000D03*
%TD*%
D15*
%TO.C,R4*%
X144025000Y-98750000D03*
X142200000Y-98750000D03*
%TD*%
D10*
%TO.C,D62*%
X39400000Y-104100000D03*
D11*
X40250000Y-104170000D03*
D12*
X39400000Y-105000000D03*
D10*
X39400000Y-105900000D03*
X41100000Y-105900000D03*
D12*
X41100000Y-105000000D03*
D13*
X40250000Y-105590000D03*
D10*
X41100000Y-104100000D03*
%TD*%
%TO.C,D12*%
X226900000Y-104100000D03*
D11*
X227750000Y-104170000D03*
D12*
X226900000Y-105000000D03*
D10*
X226900000Y-105900000D03*
X228600000Y-105900000D03*
D12*
X228600000Y-105000000D03*
D13*
X227750000Y-105590000D03*
D10*
X228600000Y-104100000D03*
%TD*%
D19*
%TO.C,C3*%
X146887500Y-111500000D03*
X148612500Y-111500000D03*
%TD*%
D10*
%TO.C,D22*%
X189400000Y-104100000D03*
D11*
X190250000Y-104170000D03*
D12*
X189400000Y-105000000D03*
D10*
X189400000Y-105900000D03*
X191100000Y-105900000D03*
D12*
X191100000Y-105000000D03*
D13*
X190250000Y-105590000D03*
D10*
X191100000Y-104100000D03*
%TD*%
%TO.C,D42*%
X114400000Y-104100000D03*
D11*
X115250000Y-104170000D03*
D12*
X114400000Y-105000000D03*
D10*
X114400000Y-105900000D03*
X116100000Y-105900000D03*
D12*
X116100000Y-105000000D03*
D13*
X115250000Y-105590000D03*
D10*
X116100000Y-104100000D03*
%TD*%
%TO.C,D47*%
X95650000Y-104100000D03*
D11*
X96500000Y-104170000D03*
D12*
X95650000Y-105000000D03*
D10*
X95650000Y-105900000D03*
X97350000Y-105900000D03*
D12*
X97350000Y-105000000D03*
D13*
X96500000Y-105590000D03*
D10*
X97350000Y-104100000D03*
%TD*%
%TO.C,D31*%
X155650000Y-104100000D03*
D11*
X156500000Y-104170000D03*
D12*
X155650000Y-105000000D03*
D10*
X155650000Y-105900000D03*
X157350000Y-105900000D03*
D12*
X157350000Y-105000000D03*
D13*
X156500000Y-105590000D03*
D10*
X157350000Y-104100000D03*
%TD*%
%TO.C,D17*%
X208150000Y-104100000D03*
D11*
X209000000Y-104170000D03*
D12*
X208150000Y-105000000D03*
D10*
X208150000Y-105900000D03*
X209850000Y-105900000D03*
D12*
X209850000Y-105000000D03*
D13*
X209000000Y-105590000D03*
D10*
X209850000Y-104100000D03*
%TD*%
D20*
%TO.C,L1*%
X146875000Y-116750000D03*
X148625000Y-116750000D03*
%TD*%
D10*
%TO.C,D58*%
X54400000Y-104100000D03*
D11*
X55250000Y-104170000D03*
D12*
X54400000Y-105000000D03*
D10*
X54400000Y-105900000D03*
X56100000Y-105900000D03*
D12*
X56100000Y-105000000D03*
D13*
X55250000Y-105590000D03*
D10*
X56100000Y-104100000D03*
%TD*%
%TO.C,D29*%
X163150000Y-104100000D03*
D11*
X164000000Y-104170000D03*
D12*
X163150000Y-105000000D03*
D10*
X163150000Y-105900000D03*
X164850000Y-105900000D03*
D12*
X164850000Y-105000000D03*
D13*
X164000000Y-105590000D03*
D10*
X164850000Y-104100000D03*
%TD*%
M02*
