M48
; DRILL file {KiCad 7.0.9-7.0.9~ubuntu22.04.1} date Fri 22 Dec 2023 06:08:06 PM MST
; FORMAT={-:-/ absolute / inch / decimal}
; #@! TF.CreationDate,2023-12-22T18:08:06-07:00
; #@! TF.GenerationSoftware,Kicad,Pcbnew,7.0.9-7.0.9~ubuntu22.04.1
; #@! TF.FileFunction,Plated,1,2,PTH
FMAT,2
INCH
; #@! TA.AperFunction,Plated,PTH,ViaDrill
T1C0.0157
; #@! TA.AperFunction,Plated,PTH,ComponentDrill
T2C0.0315
; #@! TA.AperFunction,Plated,PTH,ComponentDrill
T3C0.0394
%
G90
G05
T1
X1.2894Y-4.2028
X1.3287Y-4.0945
X1.437Y-4.2028
X1.4764Y-4.0945
X1.5846Y-4.2028
X1.624Y-4.0945
X1.7323Y-4.2028
X1.7717Y-4.0945
X1.8799Y-4.2028
X1.9193Y-4.0945
X2.0276Y-4.2028
X2.0669Y-4.0945
X2.1752Y-4.2028
X2.2146Y-4.0945
X2.3228Y-4.2028
X2.3622Y-4.0945
X2.4705Y-4.2028
X2.5098Y-4.0945
X2.6181Y-4.2028
X2.6575Y-4.0945
X2.7657Y-4.2028
X2.8051Y-4.0945
X2.9134Y-4.2028
X2.9528Y-4.0945
X3.061Y-4.2028
X3.1004Y-4.0945
X3.2087Y-4.2028
X3.248Y-4.0945
X3.3563Y-4.2028
X3.3957Y-4.0945
X3.5039Y-4.2028
X3.5433Y-4.0945
X3.6516Y-4.2028
X3.6909Y-4.0945
X3.7992Y-4.2028
X3.8386Y-4.0945
X3.9469Y-4.2028
X3.9862Y-4.0945
X4.0945Y-4.2028
X4.1339Y-4.0945
X4.2421Y-4.2028
X4.2815Y-4.0945
X4.3898Y-4.2028
X4.4291Y-4.0945
X4.5374Y-4.2028
X4.5768Y-4.0945
X4.685Y-4.2028
X4.7244Y-4.0945
X4.8327Y-4.2028
X4.872Y-4.0945
X4.9803Y-4.2028
X5.0197Y-4.0945
X5.128Y-4.2028
X5.1673Y-4.0945
X5.2756Y-4.2028
X5.3445Y-4.1142
X5.4232Y-4.2028
X5.4626Y-4.0945
X5.5709Y-4.2028
X5.6004Y-3.9469
X5.6102Y-4.0945
X5.6331Y-4.0157
X5.6594Y-4.2421
X5.6693Y-3.8287
X5.6693Y-3.8878
X5.6988Y-3.6614
X5.7185Y-4.2028
X5.7357Y-4.5497
X5.7382Y-3.8583
X5.7579Y-4.0945
X5.8238Y-3.9567
X5.8268Y-3.6614
X5.863Y-3.7757
X5.8661Y-4.2028
X5.9055Y-4.0945
X5.935Y-3.7697
X5.935Y-4.5669
X5.9843Y-4.5669
X5.9955Y-3.6811
X6.0138Y-4.2028
X6.0266Y-3.8067
X6.0266Y-3.9567
X6.0531Y-4.0945
X6.0925Y-3.8091
X6.1417Y-3.6811
X6.1614Y-4.2028
X6.2008Y-4.0945
X6.2402Y-4.0157
X6.3091Y-4.2028
X6.3484Y-4.0945
X6.3681Y-3.8819
X6.4567Y-4.2028
X6.4961Y-4.0945
X6.6043Y-4.2028
X6.6084Y-3.9368
X6.6437Y-4.0945
X6.752Y-4.2028
X6.7913Y-4.0945
X6.8996Y-4.1947
X6.939Y-4.0945
X6.9669Y-3.9613
X7.0472Y-4.1947
X7.0807Y-4.0984
X7.1949Y-4.1947
X7.2343Y-4.0945
X7.3425Y-4.1947
X7.3819Y-4.0945
X7.4902Y-4.2028
X7.5295Y-4.0945
X7.6378Y-4.2028
X7.6772Y-4.0945
X7.7854Y-4.2028
X7.8248Y-4.0945
X7.9331Y-4.2028
X7.9724Y-4.0945
X8.0807Y-4.2028
X8.1201Y-4.0945
X8.2283Y-4.2028
X8.2677Y-4.0945
X8.376Y-4.2028
X8.4154Y-4.0945
X8.5236Y-4.2028
X8.563Y-4.0945
X8.6713Y-4.2028
X8.7106Y-4.0945
X8.8189Y-4.2028
X8.8583Y-4.0945
X8.9665Y-4.2028
X9.0059Y-4.0945
X9.1142Y-4.2028
X9.1535Y-4.0945
X9.2618Y-4.2028
X9.3012Y-4.0945
X9.4094Y-4.2028
X9.4488Y-4.0945
X9.5571Y-4.2028
X9.5965Y-4.0945
X9.7047Y-4.2028
X9.7441Y-4.0945
X9.8524Y-4.2028
X9.8917Y-4.0945
X10.0Y-4.2028
X10.0394Y-4.0945
X10.1476Y-4.2028
X10.187Y-4.0945
X10.2953Y-4.2028
X10.3346Y-4.0945
X10.4429Y-4.2028
X10.4823Y-4.0945
X10.6299Y-4.1339
X10.634Y-4.1773
T2
X5.9565Y-4.311
X6.0352Y-4.311
X6.2106Y-4.3209
X6.2106Y-4.3996
T3
X5.2937Y-3.9272
X5.3937Y-3.9272
T0
M30
