%TF.GenerationSoftware,KiCad,Pcbnew,7.0.9-7.0.9~ubuntu22.04.1*%
%TF.CreationDate,2023-12-22T18:08:58-07:00*%
%TF.ProjectId,tiny_pov_arm,74696e79-5f70-46f7-965f-61726d2e6b69,rev?*%
%TF.SameCoordinates,Original*%
%TF.FileFunction,Legend,Top*%
%TF.FilePolarity,Positive*%
%FSLAX46Y46*%
G04 Gerber Fmt 4.6, Leading zero omitted, Abs format (unit mm)*
G04 Created by KiCad (PCBNEW 7.0.9-7.0.9~ubuntu22.04.1) date 2023-12-22 18:08:58*
%MOMM*%
%LPD*%
G01*
G04 APERTURE LIST*
%ADD10C,0.150000*%
%ADD11C,0.100000*%
%ADD12C,0.120000*%
G04 APERTURE END LIST*
D10*
X131666666Y-99954819D02*
X131666666Y-100669104D01*
X131666666Y-100669104D02*
X131619047Y-100811961D01*
X131619047Y-100811961D02*
X131523809Y-100907200D01*
X131523809Y-100907200D02*
X131380952Y-100954819D01*
X131380952Y-100954819D02*
X131285714Y-100954819D01*
X132666666Y-100954819D02*
X132095238Y-100954819D01*
X132380952Y-100954819D02*
X132380952Y-99954819D01*
X132380952Y-99954819D02*
X132285714Y-100097676D01*
X132285714Y-100097676D02*
X132190476Y-100192914D01*
X132190476Y-100192914D02*
X132095238Y-100240533D01*
X222785714Y-107564819D02*
X222785714Y-106564819D01*
X222785714Y-106564819D02*
X223023809Y-106564819D01*
X223023809Y-106564819D02*
X223166666Y-106612438D01*
X223166666Y-106612438D02*
X223261904Y-106707676D01*
X223261904Y-106707676D02*
X223309523Y-106802914D01*
X223309523Y-106802914D02*
X223357142Y-106993390D01*
X223357142Y-106993390D02*
X223357142Y-107136247D01*
X223357142Y-107136247D02*
X223309523Y-107326723D01*
X223309523Y-107326723D02*
X223261904Y-107421961D01*
X223261904Y-107421961D02*
X223166666Y-107517200D01*
X223166666Y-107517200D02*
X223023809Y-107564819D01*
X223023809Y-107564819D02*
X222785714Y-107564819D01*
X224309523Y-107564819D02*
X223738095Y-107564819D01*
X224023809Y-107564819D02*
X224023809Y-106564819D01*
X224023809Y-106564819D02*
X223928571Y-106707676D01*
X223928571Y-106707676D02*
X223833333Y-106802914D01*
X223833333Y-106802914D02*
X223738095Y-106850533D01*
X224642857Y-106564819D02*
X225261904Y-106564819D01*
X225261904Y-106564819D02*
X224928571Y-106945771D01*
X224928571Y-106945771D02*
X225071428Y-106945771D01*
X225071428Y-106945771D02*
X225166666Y-106993390D01*
X225166666Y-106993390D02*
X225214285Y-107041009D01*
X225214285Y-107041009D02*
X225261904Y-107136247D01*
X225261904Y-107136247D02*
X225261904Y-107374342D01*
X225261904Y-107374342D02*
X225214285Y-107469580D01*
X225214285Y-107469580D02*
X225166666Y-107517200D01*
X225166666Y-107517200D02*
X225071428Y-107564819D01*
X225071428Y-107564819D02*
X224785714Y-107564819D01*
X224785714Y-107564819D02*
X224690476Y-107517200D01*
X224690476Y-107517200D02*
X224642857Y-107469580D01*
D11*
X222471428Y-104372371D02*
X222128571Y-104372371D01*
X222300000Y-104372371D02*
X222300000Y-103772371D01*
X222300000Y-103772371D02*
X222242857Y-103858085D01*
X222242857Y-103858085D02*
X222185714Y-103915228D01*
X222185714Y-103915228D02*
X222128571Y-103943800D01*
D10*
X234035714Y-107564819D02*
X234035714Y-106564819D01*
X234035714Y-106564819D02*
X234273809Y-106564819D01*
X234273809Y-106564819D02*
X234416666Y-106612438D01*
X234416666Y-106612438D02*
X234511904Y-106707676D01*
X234511904Y-106707676D02*
X234559523Y-106802914D01*
X234559523Y-106802914D02*
X234607142Y-106993390D01*
X234607142Y-106993390D02*
X234607142Y-107136247D01*
X234607142Y-107136247D02*
X234559523Y-107326723D01*
X234559523Y-107326723D02*
X234511904Y-107421961D01*
X234511904Y-107421961D02*
X234416666Y-107517200D01*
X234416666Y-107517200D02*
X234273809Y-107564819D01*
X234273809Y-107564819D02*
X234035714Y-107564819D01*
X235559523Y-107564819D02*
X234988095Y-107564819D01*
X235273809Y-107564819D02*
X235273809Y-106564819D01*
X235273809Y-106564819D02*
X235178571Y-106707676D01*
X235178571Y-106707676D02*
X235083333Y-106802914D01*
X235083333Y-106802914D02*
X234988095Y-106850533D01*
X236178571Y-106564819D02*
X236273809Y-106564819D01*
X236273809Y-106564819D02*
X236369047Y-106612438D01*
X236369047Y-106612438D02*
X236416666Y-106660057D01*
X236416666Y-106660057D02*
X236464285Y-106755295D01*
X236464285Y-106755295D02*
X236511904Y-106945771D01*
X236511904Y-106945771D02*
X236511904Y-107183866D01*
X236511904Y-107183866D02*
X236464285Y-107374342D01*
X236464285Y-107374342D02*
X236416666Y-107469580D01*
X236416666Y-107469580D02*
X236369047Y-107517200D01*
X236369047Y-107517200D02*
X236273809Y-107564819D01*
X236273809Y-107564819D02*
X236178571Y-107564819D01*
X236178571Y-107564819D02*
X236083333Y-107517200D01*
X236083333Y-107517200D02*
X236035714Y-107469580D01*
X236035714Y-107469580D02*
X235988095Y-107374342D01*
X235988095Y-107374342D02*
X235940476Y-107183866D01*
X235940476Y-107183866D02*
X235940476Y-106945771D01*
X235940476Y-106945771D02*
X235988095Y-106755295D01*
X235988095Y-106755295D02*
X236035714Y-106660057D01*
X236035714Y-106660057D02*
X236083333Y-106612438D01*
X236083333Y-106612438D02*
X236178571Y-106564819D01*
D11*
X233721428Y-104372371D02*
X233378571Y-104372371D01*
X233550000Y-104372371D02*
X233550000Y-103772371D01*
X233550000Y-103772371D02*
X233492857Y-103858085D01*
X233492857Y-103858085D02*
X233435714Y-103915228D01*
X233435714Y-103915228D02*
X233378571Y-103943800D01*
D10*
X99035714Y-107564819D02*
X99035714Y-106564819D01*
X99035714Y-106564819D02*
X99273809Y-106564819D01*
X99273809Y-106564819D02*
X99416666Y-106612438D01*
X99416666Y-106612438D02*
X99511904Y-106707676D01*
X99511904Y-106707676D02*
X99559523Y-106802914D01*
X99559523Y-106802914D02*
X99607142Y-106993390D01*
X99607142Y-106993390D02*
X99607142Y-107136247D01*
X99607142Y-107136247D02*
X99559523Y-107326723D01*
X99559523Y-107326723D02*
X99511904Y-107421961D01*
X99511904Y-107421961D02*
X99416666Y-107517200D01*
X99416666Y-107517200D02*
X99273809Y-107564819D01*
X99273809Y-107564819D02*
X99035714Y-107564819D01*
X100464285Y-106898152D02*
X100464285Y-107564819D01*
X100226190Y-106517200D02*
X99988095Y-107231485D01*
X99988095Y-107231485D02*
X100607142Y-107231485D01*
X101416666Y-106564819D02*
X101226190Y-106564819D01*
X101226190Y-106564819D02*
X101130952Y-106612438D01*
X101130952Y-106612438D02*
X101083333Y-106660057D01*
X101083333Y-106660057D02*
X100988095Y-106802914D01*
X100988095Y-106802914D02*
X100940476Y-106993390D01*
X100940476Y-106993390D02*
X100940476Y-107374342D01*
X100940476Y-107374342D02*
X100988095Y-107469580D01*
X100988095Y-107469580D02*
X101035714Y-107517200D01*
X101035714Y-107517200D02*
X101130952Y-107564819D01*
X101130952Y-107564819D02*
X101321428Y-107564819D01*
X101321428Y-107564819D02*
X101416666Y-107517200D01*
X101416666Y-107517200D02*
X101464285Y-107469580D01*
X101464285Y-107469580D02*
X101511904Y-107374342D01*
X101511904Y-107374342D02*
X101511904Y-107136247D01*
X101511904Y-107136247D02*
X101464285Y-107041009D01*
X101464285Y-107041009D02*
X101416666Y-106993390D01*
X101416666Y-106993390D02*
X101321428Y-106945771D01*
X101321428Y-106945771D02*
X101130952Y-106945771D01*
X101130952Y-106945771D02*
X101035714Y-106993390D01*
X101035714Y-106993390D02*
X100988095Y-107041009D01*
X100988095Y-107041009D02*
X100940476Y-107136247D01*
D11*
X98721428Y-104372371D02*
X98378571Y-104372371D01*
X98550000Y-104372371D02*
X98550000Y-103772371D01*
X98550000Y-103772371D02*
X98492857Y-103858085D01*
X98492857Y-103858085D02*
X98435714Y-103915228D01*
X98435714Y-103915228D02*
X98378571Y-103943800D01*
D10*
X140833333Y-114109580D02*
X140785714Y-114157200D01*
X140785714Y-114157200D02*
X140642857Y-114204819D01*
X140642857Y-114204819D02*
X140547619Y-114204819D01*
X140547619Y-114204819D02*
X140404762Y-114157200D01*
X140404762Y-114157200D02*
X140309524Y-114061961D01*
X140309524Y-114061961D02*
X140261905Y-113966723D01*
X140261905Y-113966723D02*
X140214286Y-113776247D01*
X140214286Y-113776247D02*
X140214286Y-113633390D01*
X140214286Y-113633390D02*
X140261905Y-113442914D01*
X140261905Y-113442914D02*
X140309524Y-113347676D01*
X140309524Y-113347676D02*
X140404762Y-113252438D01*
X140404762Y-113252438D02*
X140547619Y-113204819D01*
X140547619Y-113204819D02*
X140642857Y-113204819D01*
X140642857Y-113204819D02*
X140785714Y-113252438D01*
X140785714Y-113252438D02*
X140833333Y-113300057D01*
X141690476Y-113538152D02*
X141690476Y-114204819D01*
X141452381Y-113157200D02*
X141214286Y-113871485D01*
X141214286Y-113871485D02*
X141833333Y-113871485D01*
X196535714Y-107564819D02*
X196535714Y-106564819D01*
X196535714Y-106564819D02*
X196773809Y-106564819D01*
X196773809Y-106564819D02*
X196916666Y-106612438D01*
X196916666Y-106612438D02*
X197011904Y-106707676D01*
X197011904Y-106707676D02*
X197059523Y-106802914D01*
X197059523Y-106802914D02*
X197107142Y-106993390D01*
X197107142Y-106993390D02*
X197107142Y-107136247D01*
X197107142Y-107136247D02*
X197059523Y-107326723D01*
X197059523Y-107326723D02*
X197011904Y-107421961D01*
X197011904Y-107421961D02*
X196916666Y-107517200D01*
X196916666Y-107517200D02*
X196773809Y-107564819D01*
X196773809Y-107564819D02*
X196535714Y-107564819D01*
X197488095Y-106660057D02*
X197535714Y-106612438D01*
X197535714Y-106612438D02*
X197630952Y-106564819D01*
X197630952Y-106564819D02*
X197869047Y-106564819D01*
X197869047Y-106564819D02*
X197964285Y-106612438D01*
X197964285Y-106612438D02*
X198011904Y-106660057D01*
X198011904Y-106660057D02*
X198059523Y-106755295D01*
X198059523Y-106755295D02*
X198059523Y-106850533D01*
X198059523Y-106850533D02*
X198011904Y-106993390D01*
X198011904Y-106993390D02*
X197440476Y-107564819D01*
X197440476Y-107564819D02*
X198059523Y-107564819D01*
X198678571Y-106564819D02*
X198773809Y-106564819D01*
X198773809Y-106564819D02*
X198869047Y-106612438D01*
X198869047Y-106612438D02*
X198916666Y-106660057D01*
X198916666Y-106660057D02*
X198964285Y-106755295D01*
X198964285Y-106755295D02*
X199011904Y-106945771D01*
X199011904Y-106945771D02*
X199011904Y-107183866D01*
X199011904Y-107183866D02*
X198964285Y-107374342D01*
X198964285Y-107374342D02*
X198916666Y-107469580D01*
X198916666Y-107469580D02*
X198869047Y-107517200D01*
X198869047Y-107517200D02*
X198773809Y-107564819D01*
X198773809Y-107564819D02*
X198678571Y-107564819D01*
X198678571Y-107564819D02*
X198583333Y-107517200D01*
X198583333Y-107517200D02*
X198535714Y-107469580D01*
X198535714Y-107469580D02*
X198488095Y-107374342D01*
X198488095Y-107374342D02*
X198440476Y-107183866D01*
X198440476Y-107183866D02*
X198440476Y-106945771D01*
X198440476Y-106945771D02*
X198488095Y-106755295D01*
X198488095Y-106755295D02*
X198535714Y-106660057D01*
X198535714Y-106660057D02*
X198583333Y-106612438D01*
X198583333Y-106612438D02*
X198678571Y-106564819D01*
D11*
X196221428Y-104372371D02*
X195878571Y-104372371D01*
X196050000Y-104372371D02*
X196050000Y-103772371D01*
X196050000Y-103772371D02*
X195992857Y-103858085D01*
X195992857Y-103858085D02*
X195935714Y-103915228D01*
X195935714Y-103915228D02*
X195878571Y-103943800D01*
D10*
X245761905Y-107564819D02*
X245761905Y-106564819D01*
X245761905Y-106564819D02*
X246000000Y-106564819D01*
X246000000Y-106564819D02*
X246142857Y-106612438D01*
X246142857Y-106612438D02*
X246238095Y-106707676D01*
X246238095Y-106707676D02*
X246285714Y-106802914D01*
X246285714Y-106802914D02*
X246333333Y-106993390D01*
X246333333Y-106993390D02*
X246333333Y-107136247D01*
X246333333Y-107136247D02*
X246285714Y-107326723D01*
X246285714Y-107326723D02*
X246238095Y-107421961D01*
X246238095Y-107421961D02*
X246142857Y-107517200D01*
X246142857Y-107517200D02*
X246000000Y-107564819D01*
X246000000Y-107564819D02*
X245761905Y-107564819D01*
X246666667Y-106564819D02*
X247333333Y-106564819D01*
X247333333Y-106564819D02*
X246904762Y-107564819D01*
D11*
X244971428Y-104372371D02*
X244628571Y-104372371D01*
X244800000Y-104372371D02*
X244800000Y-103772371D01*
X244800000Y-103772371D02*
X244742857Y-103858085D01*
X244742857Y-103858085D02*
X244685714Y-103915228D01*
X244685714Y-103915228D02*
X244628571Y-103943800D01*
D10*
X69035714Y-107564819D02*
X69035714Y-106564819D01*
X69035714Y-106564819D02*
X69273809Y-106564819D01*
X69273809Y-106564819D02*
X69416666Y-106612438D01*
X69416666Y-106612438D02*
X69511904Y-106707676D01*
X69511904Y-106707676D02*
X69559523Y-106802914D01*
X69559523Y-106802914D02*
X69607142Y-106993390D01*
X69607142Y-106993390D02*
X69607142Y-107136247D01*
X69607142Y-107136247D02*
X69559523Y-107326723D01*
X69559523Y-107326723D02*
X69511904Y-107421961D01*
X69511904Y-107421961D02*
X69416666Y-107517200D01*
X69416666Y-107517200D02*
X69273809Y-107564819D01*
X69273809Y-107564819D02*
X69035714Y-107564819D01*
X70511904Y-106564819D02*
X70035714Y-106564819D01*
X70035714Y-106564819D02*
X69988095Y-107041009D01*
X69988095Y-107041009D02*
X70035714Y-106993390D01*
X70035714Y-106993390D02*
X70130952Y-106945771D01*
X70130952Y-106945771D02*
X70369047Y-106945771D01*
X70369047Y-106945771D02*
X70464285Y-106993390D01*
X70464285Y-106993390D02*
X70511904Y-107041009D01*
X70511904Y-107041009D02*
X70559523Y-107136247D01*
X70559523Y-107136247D02*
X70559523Y-107374342D01*
X70559523Y-107374342D02*
X70511904Y-107469580D01*
X70511904Y-107469580D02*
X70464285Y-107517200D01*
X70464285Y-107517200D02*
X70369047Y-107564819D01*
X70369047Y-107564819D02*
X70130952Y-107564819D01*
X70130952Y-107564819D02*
X70035714Y-107517200D01*
X70035714Y-107517200D02*
X69988095Y-107469580D01*
X71416666Y-106898152D02*
X71416666Y-107564819D01*
X71178571Y-106517200D02*
X70940476Y-107231485D01*
X70940476Y-107231485D02*
X71559523Y-107231485D01*
D11*
X68721428Y-104372371D02*
X68378571Y-104372371D01*
X68550000Y-104372371D02*
X68550000Y-103772371D01*
X68550000Y-103772371D02*
X68492857Y-103858085D01*
X68492857Y-103858085D02*
X68435714Y-103915228D01*
X68435714Y-103915228D02*
X68378571Y-103943800D01*
D10*
X140108333Y-96204819D02*
X139775000Y-95728628D01*
X139536905Y-96204819D02*
X139536905Y-95204819D01*
X139536905Y-95204819D02*
X139917857Y-95204819D01*
X139917857Y-95204819D02*
X140013095Y-95252438D01*
X140013095Y-95252438D02*
X140060714Y-95300057D01*
X140060714Y-95300057D02*
X140108333Y-95395295D01*
X140108333Y-95395295D02*
X140108333Y-95538152D01*
X140108333Y-95538152D02*
X140060714Y-95633390D01*
X140060714Y-95633390D02*
X140013095Y-95681009D01*
X140013095Y-95681009D02*
X139917857Y-95728628D01*
X139917857Y-95728628D02*
X139536905Y-95728628D01*
X140489286Y-95300057D02*
X140536905Y-95252438D01*
X140536905Y-95252438D02*
X140632143Y-95204819D01*
X140632143Y-95204819D02*
X140870238Y-95204819D01*
X140870238Y-95204819D02*
X140965476Y-95252438D01*
X140965476Y-95252438D02*
X141013095Y-95300057D01*
X141013095Y-95300057D02*
X141060714Y-95395295D01*
X141060714Y-95395295D02*
X141060714Y-95490533D01*
X141060714Y-95490533D02*
X141013095Y-95633390D01*
X141013095Y-95633390D02*
X140441667Y-96204819D01*
X140441667Y-96204819D02*
X141060714Y-96204819D01*
X238261905Y-107564819D02*
X238261905Y-106564819D01*
X238261905Y-106564819D02*
X238500000Y-106564819D01*
X238500000Y-106564819D02*
X238642857Y-106612438D01*
X238642857Y-106612438D02*
X238738095Y-106707676D01*
X238738095Y-106707676D02*
X238785714Y-106802914D01*
X238785714Y-106802914D02*
X238833333Y-106993390D01*
X238833333Y-106993390D02*
X238833333Y-107136247D01*
X238833333Y-107136247D02*
X238785714Y-107326723D01*
X238785714Y-107326723D02*
X238738095Y-107421961D01*
X238738095Y-107421961D02*
X238642857Y-107517200D01*
X238642857Y-107517200D02*
X238500000Y-107564819D01*
X238500000Y-107564819D02*
X238261905Y-107564819D01*
X239309524Y-107564819D02*
X239500000Y-107564819D01*
X239500000Y-107564819D02*
X239595238Y-107517200D01*
X239595238Y-107517200D02*
X239642857Y-107469580D01*
X239642857Y-107469580D02*
X239738095Y-107326723D01*
X239738095Y-107326723D02*
X239785714Y-107136247D01*
X239785714Y-107136247D02*
X239785714Y-106755295D01*
X239785714Y-106755295D02*
X239738095Y-106660057D01*
X239738095Y-106660057D02*
X239690476Y-106612438D01*
X239690476Y-106612438D02*
X239595238Y-106564819D01*
X239595238Y-106564819D02*
X239404762Y-106564819D01*
X239404762Y-106564819D02*
X239309524Y-106612438D01*
X239309524Y-106612438D02*
X239261905Y-106660057D01*
X239261905Y-106660057D02*
X239214286Y-106755295D01*
X239214286Y-106755295D02*
X239214286Y-106993390D01*
X239214286Y-106993390D02*
X239261905Y-107088628D01*
X239261905Y-107088628D02*
X239309524Y-107136247D01*
X239309524Y-107136247D02*
X239404762Y-107183866D01*
X239404762Y-107183866D02*
X239595238Y-107183866D01*
X239595238Y-107183866D02*
X239690476Y-107136247D01*
X239690476Y-107136247D02*
X239738095Y-107088628D01*
X239738095Y-107088628D02*
X239785714Y-106993390D01*
D11*
X237471428Y-104372371D02*
X237128571Y-104372371D01*
X237300000Y-104372371D02*
X237300000Y-103772371D01*
X237300000Y-103772371D02*
X237242857Y-103858085D01*
X237242857Y-103858085D02*
X237185714Y-103915228D01*
X237185714Y-103915228D02*
X237128571Y-103943800D01*
D10*
X260761905Y-107564819D02*
X260761905Y-106564819D01*
X260761905Y-106564819D02*
X261000000Y-106564819D01*
X261000000Y-106564819D02*
X261142857Y-106612438D01*
X261142857Y-106612438D02*
X261238095Y-106707676D01*
X261238095Y-106707676D02*
X261285714Y-106802914D01*
X261285714Y-106802914D02*
X261333333Y-106993390D01*
X261333333Y-106993390D02*
X261333333Y-107136247D01*
X261333333Y-107136247D02*
X261285714Y-107326723D01*
X261285714Y-107326723D02*
X261238095Y-107421961D01*
X261238095Y-107421961D02*
X261142857Y-107517200D01*
X261142857Y-107517200D02*
X261000000Y-107564819D01*
X261000000Y-107564819D02*
X260761905Y-107564819D01*
X261666667Y-106564819D02*
X262285714Y-106564819D01*
X262285714Y-106564819D02*
X261952381Y-106945771D01*
X261952381Y-106945771D02*
X262095238Y-106945771D01*
X262095238Y-106945771D02*
X262190476Y-106993390D01*
X262190476Y-106993390D02*
X262238095Y-107041009D01*
X262238095Y-107041009D02*
X262285714Y-107136247D01*
X262285714Y-107136247D02*
X262285714Y-107374342D01*
X262285714Y-107374342D02*
X262238095Y-107469580D01*
X262238095Y-107469580D02*
X262190476Y-107517200D01*
X262190476Y-107517200D02*
X262095238Y-107564819D01*
X262095238Y-107564819D02*
X261809524Y-107564819D01*
X261809524Y-107564819D02*
X261714286Y-107517200D01*
X261714286Y-107517200D02*
X261666667Y-107469580D01*
D11*
X259971428Y-104372371D02*
X259628571Y-104372371D01*
X259800000Y-104372371D02*
X259800000Y-103772371D01*
X259800000Y-103772371D02*
X259742857Y-103858085D01*
X259742857Y-103858085D02*
X259685714Y-103915228D01*
X259685714Y-103915228D02*
X259628571Y-103943800D01*
D10*
X160916666Y-96204819D02*
X160916666Y-96919104D01*
X160916666Y-96919104D02*
X160869047Y-97061961D01*
X160869047Y-97061961D02*
X160773809Y-97157200D01*
X160773809Y-97157200D02*
X160630952Y-97204819D01*
X160630952Y-97204819D02*
X160535714Y-97204819D01*
X161392857Y-97204819D02*
X161392857Y-96204819D01*
X161392857Y-96204819D02*
X161773809Y-96204819D01*
X161773809Y-96204819D02*
X161869047Y-96252438D01*
X161869047Y-96252438D02*
X161916666Y-96300057D01*
X161916666Y-96300057D02*
X161964285Y-96395295D01*
X161964285Y-96395295D02*
X161964285Y-96538152D01*
X161964285Y-96538152D02*
X161916666Y-96633390D01*
X161916666Y-96633390D02*
X161869047Y-96681009D01*
X161869047Y-96681009D02*
X161773809Y-96728628D01*
X161773809Y-96728628D02*
X161392857Y-96728628D01*
X162916666Y-97204819D02*
X162345238Y-97204819D01*
X162630952Y-97204819D02*
X162630952Y-96204819D01*
X162630952Y-96204819D02*
X162535714Y-96347676D01*
X162535714Y-96347676D02*
X162440476Y-96442914D01*
X162440476Y-96442914D02*
X162345238Y-96490533D01*
X57785714Y-107564819D02*
X57785714Y-106564819D01*
X57785714Y-106564819D02*
X58023809Y-106564819D01*
X58023809Y-106564819D02*
X58166666Y-106612438D01*
X58166666Y-106612438D02*
X58261904Y-106707676D01*
X58261904Y-106707676D02*
X58309523Y-106802914D01*
X58309523Y-106802914D02*
X58357142Y-106993390D01*
X58357142Y-106993390D02*
X58357142Y-107136247D01*
X58357142Y-107136247D02*
X58309523Y-107326723D01*
X58309523Y-107326723D02*
X58261904Y-107421961D01*
X58261904Y-107421961D02*
X58166666Y-107517200D01*
X58166666Y-107517200D02*
X58023809Y-107564819D01*
X58023809Y-107564819D02*
X57785714Y-107564819D01*
X59261904Y-106564819D02*
X58785714Y-106564819D01*
X58785714Y-106564819D02*
X58738095Y-107041009D01*
X58738095Y-107041009D02*
X58785714Y-106993390D01*
X58785714Y-106993390D02*
X58880952Y-106945771D01*
X58880952Y-106945771D02*
X59119047Y-106945771D01*
X59119047Y-106945771D02*
X59214285Y-106993390D01*
X59214285Y-106993390D02*
X59261904Y-107041009D01*
X59261904Y-107041009D02*
X59309523Y-107136247D01*
X59309523Y-107136247D02*
X59309523Y-107374342D01*
X59309523Y-107374342D02*
X59261904Y-107469580D01*
X59261904Y-107469580D02*
X59214285Y-107517200D01*
X59214285Y-107517200D02*
X59119047Y-107564819D01*
X59119047Y-107564819D02*
X58880952Y-107564819D01*
X58880952Y-107564819D02*
X58785714Y-107517200D01*
X58785714Y-107517200D02*
X58738095Y-107469580D01*
X59642857Y-106564819D02*
X60309523Y-106564819D01*
X60309523Y-106564819D02*
X59880952Y-107564819D01*
D11*
X57471428Y-104372371D02*
X57128571Y-104372371D01*
X57300000Y-104372371D02*
X57300000Y-103772371D01*
X57300000Y-103772371D02*
X57242857Y-103858085D01*
X57242857Y-103858085D02*
X57185714Y-103915228D01*
X57185714Y-103915228D02*
X57128571Y-103943800D01*
D10*
X117785714Y-107564819D02*
X117785714Y-106564819D01*
X117785714Y-106564819D02*
X118023809Y-106564819D01*
X118023809Y-106564819D02*
X118166666Y-106612438D01*
X118166666Y-106612438D02*
X118261904Y-106707676D01*
X118261904Y-106707676D02*
X118309523Y-106802914D01*
X118309523Y-106802914D02*
X118357142Y-106993390D01*
X118357142Y-106993390D02*
X118357142Y-107136247D01*
X118357142Y-107136247D02*
X118309523Y-107326723D01*
X118309523Y-107326723D02*
X118261904Y-107421961D01*
X118261904Y-107421961D02*
X118166666Y-107517200D01*
X118166666Y-107517200D02*
X118023809Y-107564819D01*
X118023809Y-107564819D02*
X117785714Y-107564819D01*
X119214285Y-106898152D02*
X119214285Y-107564819D01*
X118976190Y-106517200D02*
X118738095Y-107231485D01*
X118738095Y-107231485D02*
X119357142Y-107231485D01*
X120261904Y-107564819D02*
X119690476Y-107564819D01*
X119976190Y-107564819D02*
X119976190Y-106564819D01*
X119976190Y-106564819D02*
X119880952Y-106707676D01*
X119880952Y-106707676D02*
X119785714Y-106802914D01*
X119785714Y-106802914D02*
X119690476Y-106850533D01*
D11*
X117471428Y-104372371D02*
X117128571Y-104372371D01*
X117300000Y-104372371D02*
X117300000Y-103772371D01*
X117300000Y-103772371D02*
X117242857Y-103858085D01*
X117242857Y-103858085D02*
X117185714Y-103915228D01*
X117185714Y-103915228D02*
X117128571Y-103943800D01*
D10*
X140108333Y-97704819D02*
X139775000Y-97228628D01*
X139536905Y-97704819D02*
X139536905Y-96704819D01*
X139536905Y-96704819D02*
X139917857Y-96704819D01*
X139917857Y-96704819D02*
X140013095Y-96752438D01*
X140013095Y-96752438D02*
X140060714Y-96800057D01*
X140060714Y-96800057D02*
X140108333Y-96895295D01*
X140108333Y-96895295D02*
X140108333Y-97038152D01*
X140108333Y-97038152D02*
X140060714Y-97133390D01*
X140060714Y-97133390D02*
X140013095Y-97181009D01*
X140013095Y-97181009D02*
X139917857Y-97228628D01*
X139917857Y-97228628D02*
X139536905Y-97228628D01*
X140441667Y-96704819D02*
X141060714Y-96704819D01*
X141060714Y-96704819D02*
X140727381Y-97085771D01*
X140727381Y-97085771D02*
X140870238Y-97085771D01*
X140870238Y-97085771D02*
X140965476Y-97133390D01*
X140965476Y-97133390D02*
X141013095Y-97181009D01*
X141013095Y-97181009D02*
X141060714Y-97276247D01*
X141060714Y-97276247D02*
X141060714Y-97514342D01*
X141060714Y-97514342D02*
X141013095Y-97609580D01*
X141013095Y-97609580D02*
X140965476Y-97657200D01*
X140965476Y-97657200D02*
X140870238Y-97704819D01*
X140870238Y-97704819D02*
X140584524Y-97704819D01*
X140584524Y-97704819D02*
X140489286Y-97657200D01*
X140489286Y-97657200D02*
X140441667Y-97609580D01*
X46535714Y-107564819D02*
X46535714Y-106564819D01*
X46535714Y-106564819D02*
X46773809Y-106564819D01*
X46773809Y-106564819D02*
X46916666Y-106612438D01*
X46916666Y-106612438D02*
X47011904Y-106707676D01*
X47011904Y-106707676D02*
X47059523Y-106802914D01*
X47059523Y-106802914D02*
X47107142Y-106993390D01*
X47107142Y-106993390D02*
X47107142Y-107136247D01*
X47107142Y-107136247D02*
X47059523Y-107326723D01*
X47059523Y-107326723D02*
X47011904Y-107421961D01*
X47011904Y-107421961D02*
X46916666Y-107517200D01*
X46916666Y-107517200D02*
X46773809Y-107564819D01*
X46773809Y-107564819D02*
X46535714Y-107564819D01*
X47964285Y-106564819D02*
X47773809Y-106564819D01*
X47773809Y-106564819D02*
X47678571Y-106612438D01*
X47678571Y-106612438D02*
X47630952Y-106660057D01*
X47630952Y-106660057D02*
X47535714Y-106802914D01*
X47535714Y-106802914D02*
X47488095Y-106993390D01*
X47488095Y-106993390D02*
X47488095Y-107374342D01*
X47488095Y-107374342D02*
X47535714Y-107469580D01*
X47535714Y-107469580D02*
X47583333Y-107517200D01*
X47583333Y-107517200D02*
X47678571Y-107564819D01*
X47678571Y-107564819D02*
X47869047Y-107564819D01*
X47869047Y-107564819D02*
X47964285Y-107517200D01*
X47964285Y-107517200D02*
X48011904Y-107469580D01*
X48011904Y-107469580D02*
X48059523Y-107374342D01*
X48059523Y-107374342D02*
X48059523Y-107136247D01*
X48059523Y-107136247D02*
X48011904Y-107041009D01*
X48011904Y-107041009D02*
X47964285Y-106993390D01*
X47964285Y-106993390D02*
X47869047Y-106945771D01*
X47869047Y-106945771D02*
X47678571Y-106945771D01*
X47678571Y-106945771D02*
X47583333Y-106993390D01*
X47583333Y-106993390D02*
X47535714Y-107041009D01*
X47535714Y-107041009D02*
X47488095Y-107136247D01*
X48678571Y-106564819D02*
X48773809Y-106564819D01*
X48773809Y-106564819D02*
X48869047Y-106612438D01*
X48869047Y-106612438D02*
X48916666Y-106660057D01*
X48916666Y-106660057D02*
X48964285Y-106755295D01*
X48964285Y-106755295D02*
X49011904Y-106945771D01*
X49011904Y-106945771D02*
X49011904Y-107183866D01*
X49011904Y-107183866D02*
X48964285Y-107374342D01*
X48964285Y-107374342D02*
X48916666Y-107469580D01*
X48916666Y-107469580D02*
X48869047Y-107517200D01*
X48869047Y-107517200D02*
X48773809Y-107564819D01*
X48773809Y-107564819D02*
X48678571Y-107564819D01*
X48678571Y-107564819D02*
X48583333Y-107517200D01*
X48583333Y-107517200D02*
X48535714Y-107469580D01*
X48535714Y-107469580D02*
X48488095Y-107374342D01*
X48488095Y-107374342D02*
X48440476Y-107183866D01*
X48440476Y-107183866D02*
X48440476Y-106945771D01*
X48440476Y-106945771D02*
X48488095Y-106755295D01*
X48488095Y-106755295D02*
X48535714Y-106660057D01*
X48535714Y-106660057D02*
X48583333Y-106612438D01*
X48583333Y-106612438D02*
X48678571Y-106564819D01*
D11*
X46221428Y-104372371D02*
X45878571Y-104372371D01*
X46050000Y-104372371D02*
X46050000Y-103772371D01*
X46050000Y-103772371D02*
X45992857Y-103858085D01*
X45992857Y-103858085D02*
X45935714Y-103915228D01*
X45935714Y-103915228D02*
X45878571Y-103943800D01*
D10*
X50285714Y-107564819D02*
X50285714Y-106564819D01*
X50285714Y-106564819D02*
X50523809Y-106564819D01*
X50523809Y-106564819D02*
X50666666Y-106612438D01*
X50666666Y-106612438D02*
X50761904Y-106707676D01*
X50761904Y-106707676D02*
X50809523Y-106802914D01*
X50809523Y-106802914D02*
X50857142Y-106993390D01*
X50857142Y-106993390D02*
X50857142Y-107136247D01*
X50857142Y-107136247D02*
X50809523Y-107326723D01*
X50809523Y-107326723D02*
X50761904Y-107421961D01*
X50761904Y-107421961D02*
X50666666Y-107517200D01*
X50666666Y-107517200D02*
X50523809Y-107564819D01*
X50523809Y-107564819D02*
X50285714Y-107564819D01*
X51761904Y-106564819D02*
X51285714Y-106564819D01*
X51285714Y-106564819D02*
X51238095Y-107041009D01*
X51238095Y-107041009D02*
X51285714Y-106993390D01*
X51285714Y-106993390D02*
X51380952Y-106945771D01*
X51380952Y-106945771D02*
X51619047Y-106945771D01*
X51619047Y-106945771D02*
X51714285Y-106993390D01*
X51714285Y-106993390D02*
X51761904Y-107041009D01*
X51761904Y-107041009D02*
X51809523Y-107136247D01*
X51809523Y-107136247D02*
X51809523Y-107374342D01*
X51809523Y-107374342D02*
X51761904Y-107469580D01*
X51761904Y-107469580D02*
X51714285Y-107517200D01*
X51714285Y-107517200D02*
X51619047Y-107564819D01*
X51619047Y-107564819D02*
X51380952Y-107564819D01*
X51380952Y-107564819D02*
X51285714Y-107517200D01*
X51285714Y-107517200D02*
X51238095Y-107469580D01*
X52285714Y-107564819D02*
X52476190Y-107564819D01*
X52476190Y-107564819D02*
X52571428Y-107517200D01*
X52571428Y-107517200D02*
X52619047Y-107469580D01*
X52619047Y-107469580D02*
X52714285Y-107326723D01*
X52714285Y-107326723D02*
X52761904Y-107136247D01*
X52761904Y-107136247D02*
X52761904Y-106755295D01*
X52761904Y-106755295D02*
X52714285Y-106660057D01*
X52714285Y-106660057D02*
X52666666Y-106612438D01*
X52666666Y-106612438D02*
X52571428Y-106564819D01*
X52571428Y-106564819D02*
X52380952Y-106564819D01*
X52380952Y-106564819D02*
X52285714Y-106612438D01*
X52285714Y-106612438D02*
X52238095Y-106660057D01*
X52238095Y-106660057D02*
X52190476Y-106755295D01*
X52190476Y-106755295D02*
X52190476Y-106993390D01*
X52190476Y-106993390D02*
X52238095Y-107088628D01*
X52238095Y-107088628D02*
X52285714Y-107136247D01*
X52285714Y-107136247D02*
X52380952Y-107183866D01*
X52380952Y-107183866D02*
X52571428Y-107183866D01*
X52571428Y-107183866D02*
X52666666Y-107136247D01*
X52666666Y-107136247D02*
X52714285Y-107088628D01*
X52714285Y-107088628D02*
X52761904Y-106993390D01*
D11*
X49971428Y-104372371D02*
X49628571Y-104372371D01*
X49800000Y-104372371D02*
X49800000Y-103772371D01*
X49800000Y-103772371D02*
X49742857Y-103858085D01*
X49742857Y-103858085D02*
X49685714Y-103915228D01*
X49685714Y-103915228D02*
X49628571Y-103943800D01*
D10*
X140108333Y-94704819D02*
X139775000Y-94228628D01*
X139536905Y-94704819D02*
X139536905Y-93704819D01*
X139536905Y-93704819D02*
X139917857Y-93704819D01*
X139917857Y-93704819D02*
X140013095Y-93752438D01*
X140013095Y-93752438D02*
X140060714Y-93800057D01*
X140060714Y-93800057D02*
X140108333Y-93895295D01*
X140108333Y-93895295D02*
X140108333Y-94038152D01*
X140108333Y-94038152D02*
X140060714Y-94133390D01*
X140060714Y-94133390D02*
X140013095Y-94181009D01*
X140013095Y-94181009D02*
X139917857Y-94228628D01*
X139917857Y-94228628D02*
X139536905Y-94228628D01*
X141060714Y-94704819D02*
X140489286Y-94704819D01*
X140775000Y-94704819D02*
X140775000Y-93704819D01*
X140775000Y-93704819D02*
X140679762Y-93847676D01*
X140679762Y-93847676D02*
X140584524Y-93942914D01*
X140584524Y-93942914D02*
X140489286Y-93990533D01*
X149738095Y-94649819D02*
X149738095Y-95459342D01*
X149738095Y-95459342D02*
X149785714Y-95554580D01*
X149785714Y-95554580D02*
X149833333Y-95602200D01*
X149833333Y-95602200D02*
X149928571Y-95649819D01*
X149928571Y-95649819D02*
X150119047Y-95649819D01*
X150119047Y-95649819D02*
X150214285Y-95602200D01*
X150214285Y-95602200D02*
X150261904Y-95554580D01*
X150261904Y-95554580D02*
X150309523Y-95459342D01*
X150309523Y-95459342D02*
X150309523Y-94649819D01*
X150690476Y-94649819D02*
X151309523Y-94649819D01*
X151309523Y-94649819D02*
X150976190Y-95030771D01*
X150976190Y-95030771D02*
X151119047Y-95030771D01*
X151119047Y-95030771D02*
X151214285Y-95078390D01*
X151214285Y-95078390D02*
X151261904Y-95126009D01*
X151261904Y-95126009D02*
X151309523Y-95221247D01*
X151309523Y-95221247D02*
X151309523Y-95459342D01*
X151309523Y-95459342D02*
X151261904Y-95554580D01*
X151261904Y-95554580D02*
X151214285Y-95602200D01*
X151214285Y-95602200D02*
X151119047Y-95649819D01*
X151119047Y-95649819D02*
X150833333Y-95649819D01*
X150833333Y-95649819D02*
X150738095Y-95602200D01*
X150738095Y-95602200D02*
X150690476Y-95554580D01*
X177785714Y-107564819D02*
X177785714Y-106564819D01*
X177785714Y-106564819D02*
X178023809Y-106564819D01*
X178023809Y-106564819D02*
X178166666Y-106612438D01*
X178166666Y-106612438D02*
X178261904Y-106707676D01*
X178261904Y-106707676D02*
X178309523Y-106802914D01*
X178309523Y-106802914D02*
X178357142Y-106993390D01*
X178357142Y-106993390D02*
X178357142Y-107136247D01*
X178357142Y-107136247D02*
X178309523Y-107326723D01*
X178309523Y-107326723D02*
X178261904Y-107421961D01*
X178261904Y-107421961D02*
X178166666Y-107517200D01*
X178166666Y-107517200D02*
X178023809Y-107564819D01*
X178023809Y-107564819D02*
X177785714Y-107564819D01*
X178738095Y-106660057D02*
X178785714Y-106612438D01*
X178785714Y-106612438D02*
X178880952Y-106564819D01*
X178880952Y-106564819D02*
X179119047Y-106564819D01*
X179119047Y-106564819D02*
X179214285Y-106612438D01*
X179214285Y-106612438D02*
X179261904Y-106660057D01*
X179261904Y-106660057D02*
X179309523Y-106755295D01*
X179309523Y-106755295D02*
X179309523Y-106850533D01*
X179309523Y-106850533D02*
X179261904Y-106993390D01*
X179261904Y-106993390D02*
X178690476Y-107564819D01*
X178690476Y-107564819D02*
X179309523Y-107564819D01*
X180214285Y-106564819D02*
X179738095Y-106564819D01*
X179738095Y-106564819D02*
X179690476Y-107041009D01*
X179690476Y-107041009D02*
X179738095Y-106993390D01*
X179738095Y-106993390D02*
X179833333Y-106945771D01*
X179833333Y-106945771D02*
X180071428Y-106945771D01*
X180071428Y-106945771D02*
X180166666Y-106993390D01*
X180166666Y-106993390D02*
X180214285Y-107041009D01*
X180214285Y-107041009D02*
X180261904Y-107136247D01*
X180261904Y-107136247D02*
X180261904Y-107374342D01*
X180261904Y-107374342D02*
X180214285Y-107469580D01*
X180214285Y-107469580D02*
X180166666Y-107517200D01*
X180166666Y-107517200D02*
X180071428Y-107564819D01*
X180071428Y-107564819D02*
X179833333Y-107564819D01*
X179833333Y-107564819D02*
X179738095Y-107517200D01*
X179738095Y-107517200D02*
X179690476Y-107469580D01*
D11*
X177471428Y-104372371D02*
X177128571Y-104372371D01*
X177300000Y-104372371D02*
X177300000Y-103772371D01*
X177300000Y-103772371D02*
X177242857Y-103858085D01*
X177242857Y-103858085D02*
X177185714Y-103915228D01*
X177185714Y-103915228D02*
X177128571Y-103943800D01*
D10*
X140285714Y-107564819D02*
X140285714Y-106564819D01*
X140285714Y-106564819D02*
X140523809Y-106564819D01*
X140523809Y-106564819D02*
X140666666Y-106612438D01*
X140666666Y-106612438D02*
X140761904Y-106707676D01*
X140761904Y-106707676D02*
X140809523Y-106802914D01*
X140809523Y-106802914D02*
X140857142Y-106993390D01*
X140857142Y-106993390D02*
X140857142Y-107136247D01*
X140857142Y-107136247D02*
X140809523Y-107326723D01*
X140809523Y-107326723D02*
X140761904Y-107421961D01*
X140761904Y-107421961D02*
X140666666Y-107517200D01*
X140666666Y-107517200D02*
X140523809Y-107564819D01*
X140523809Y-107564819D02*
X140285714Y-107564819D01*
X141190476Y-106564819D02*
X141809523Y-106564819D01*
X141809523Y-106564819D02*
X141476190Y-106945771D01*
X141476190Y-106945771D02*
X141619047Y-106945771D01*
X141619047Y-106945771D02*
X141714285Y-106993390D01*
X141714285Y-106993390D02*
X141761904Y-107041009D01*
X141761904Y-107041009D02*
X141809523Y-107136247D01*
X141809523Y-107136247D02*
X141809523Y-107374342D01*
X141809523Y-107374342D02*
X141761904Y-107469580D01*
X141761904Y-107469580D02*
X141714285Y-107517200D01*
X141714285Y-107517200D02*
X141619047Y-107564819D01*
X141619047Y-107564819D02*
X141333333Y-107564819D01*
X141333333Y-107564819D02*
X141238095Y-107517200D01*
X141238095Y-107517200D02*
X141190476Y-107469580D01*
X142714285Y-106564819D02*
X142238095Y-106564819D01*
X142238095Y-106564819D02*
X142190476Y-107041009D01*
X142190476Y-107041009D02*
X142238095Y-106993390D01*
X142238095Y-106993390D02*
X142333333Y-106945771D01*
X142333333Y-106945771D02*
X142571428Y-106945771D01*
X142571428Y-106945771D02*
X142666666Y-106993390D01*
X142666666Y-106993390D02*
X142714285Y-107041009D01*
X142714285Y-107041009D02*
X142761904Y-107136247D01*
X142761904Y-107136247D02*
X142761904Y-107374342D01*
X142761904Y-107374342D02*
X142714285Y-107469580D01*
X142714285Y-107469580D02*
X142666666Y-107517200D01*
X142666666Y-107517200D02*
X142571428Y-107564819D01*
X142571428Y-107564819D02*
X142333333Y-107564819D01*
X142333333Y-107564819D02*
X142238095Y-107517200D01*
X142238095Y-107517200D02*
X142190476Y-107469580D01*
D11*
X139971428Y-104372371D02*
X139628571Y-104372371D01*
X139800000Y-104372371D02*
X139800000Y-103772371D01*
X139800000Y-103772371D02*
X139742857Y-103858085D01*
X139742857Y-103858085D02*
X139685714Y-103915228D01*
X139685714Y-103915228D02*
X139628571Y-103943800D01*
D10*
X147785714Y-107564819D02*
X147785714Y-106564819D01*
X147785714Y-106564819D02*
X148023809Y-106564819D01*
X148023809Y-106564819D02*
X148166666Y-106612438D01*
X148166666Y-106612438D02*
X148261904Y-106707676D01*
X148261904Y-106707676D02*
X148309523Y-106802914D01*
X148309523Y-106802914D02*
X148357142Y-106993390D01*
X148357142Y-106993390D02*
X148357142Y-107136247D01*
X148357142Y-107136247D02*
X148309523Y-107326723D01*
X148309523Y-107326723D02*
X148261904Y-107421961D01*
X148261904Y-107421961D02*
X148166666Y-107517200D01*
X148166666Y-107517200D02*
X148023809Y-107564819D01*
X148023809Y-107564819D02*
X147785714Y-107564819D01*
X148690476Y-106564819D02*
X149309523Y-106564819D01*
X149309523Y-106564819D02*
X148976190Y-106945771D01*
X148976190Y-106945771D02*
X149119047Y-106945771D01*
X149119047Y-106945771D02*
X149214285Y-106993390D01*
X149214285Y-106993390D02*
X149261904Y-107041009D01*
X149261904Y-107041009D02*
X149309523Y-107136247D01*
X149309523Y-107136247D02*
X149309523Y-107374342D01*
X149309523Y-107374342D02*
X149261904Y-107469580D01*
X149261904Y-107469580D02*
X149214285Y-107517200D01*
X149214285Y-107517200D02*
X149119047Y-107564819D01*
X149119047Y-107564819D02*
X148833333Y-107564819D01*
X148833333Y-107564819D02*
X148738095Y-107517200D01*
X148738095Y-107517200D02*
X148690476Y-107469580D01*
X149642857Y-106564819D02*
X150261904Y-106564819D01*
X150261904Y-106564819D02*
X149928571Y-106945771D01*
X149928571Y-106945771D02*
X150071428Y-106945771D01*
X150071428Y-106945771D02*
X150166666Y-106993390D01*
X150166666Y-106993390D02*
X150214285Y-107041009D01*
X150214285Y-107041009D02*
X150261904Y-107136247D01*
X150261904Y-107136247D02*
X150261904Y-107374342D01*
X150261904Y-107374342D02*
X150214285Y-107469580D01*
X150214285Y-107469580D02*
X150166666Y-107517200D01*
X150166666Y-107517200D02*
X150071428Y-107564819D01*
X150071428Y-107564819D02*
X149785714Y-107564819D01*
X149785714Y-107564819D02*
X149690476Y-107517200D01*
X149690476Y-107517200D02*
X149642857Y-107469580D01*
D11*
X147471428Y-104372371D02*
X147128571Y-104372371D01*
X147300000Y-104372371D02*
X147300000Y-103772371D01*
X147300000Y-103772371D02*
X147242857Y-103858085D01*
X147242857Y-103858085D02*
X147185714Y-103915228D01*
X147185714Y-103915228D02*
X147128571Y-103943800D01*
D10*
X215285714Y-107564819D02*
X215285714Y-106564819D01*
X215285714Y-106564819D02*
X215523809Y-106564819D01*
X215523809Y-106564819D02*
X215666666Y-106612438D01*
X215666666Y-106612438D02*
X215761904Y-106707676D01*
X215761904Y-106707676D02*
X215809523Y-106802914D01*
X215809523Y-106802914D02*
X215857142Y-106993390D01*
X215857142Y-106993390D02*
X215857142Y-107136247D01*
X215857142Y-107136247D02*
X215809523Y-107326723D01*
X215809523Y-107326723D02*
X215761904Y-107421961D01*
X215761904Y-107421961D02*
X215666666Y-107517200D01*
X215666666Y-107517200D02*
X215523809Y-107564819D01*
X215523809Y-107564819D02*
X215285714Y-107564819D01*
X216809523Y-107564819D02*
X216238095Y-107564819D01*
X216523809Y-107564819D02*
X216523809Y-106564819D01*
X216523809Y-106564819D02*
X216428571Y-106707676D01*
X216428571Y-106707676D02*
X216333333Y-106802914D01*
X216333333Y-106802914D02*
X216238095Y-106850533D01*
X217714285Y-106564819D02*
X217238095Y-106564819D01*
X217238095Y-106564819D02*
X217190476Y-107041009D01*
X217190476Y-107041009D02*
X217238095Y-106993390D01*
X217238095Y-106993390D02*
X217333333Y-106945771D01*
X217333333Y-106945771D02*
X217571428Y-106945771D01*
X217571428Y-106945771D02*
X217666666Y-106993390D01*
X217666666Y-106993390D02*
X217714285Y-107041009D01*
X217714285Y-107041009D02*
X217761904Y-107136247D01*
X217761904Y-107136247D02*
X217761904Y-107374342D01*
X217761904Y-107374342D02*
X217714285Y-107469580D01*
X217714285Y-107469580D02*
X217666666Y-107517200D01*
X217666666Y-107517200D02*
X217571428Y-107564819D01*
X217571428Y-107564819D02*
X217333333Y-107564819D01*
X217333333Y-107564819D02*
X217238095Y-107517200D01*
X217238095Y-107517200D02*
X217190476Y-107469580D01*
D11*
X214971428Y-104372371D02*
X214628571Y-104372371D01*
X214800000Y-104372371D02*
X214800000Y-103772371D01*
X214800000Y-103772371D02*
X214742857Y-103858085D01*
X214742857Y-103858085D02*
X214685714Y-103915228D01*
X214685714Y-103915228D02*
X214628571Y-103943800D01*
D10*
X87785714Y-107564819D02*
X87785714Y-106564819D01*
X87785714Y-106564819D02*
X88023809Y-106564819D01*
X88023809Y-106564819D02*
X88166666Y-106612438D01*
X88166666Y-106612438D02*
X88261904Y-106707676D01*
X88261904Y-106707676D02*
X88309523Y-106802914D01*
X88309523Y-106802914D02*
X88357142Y-106993390D01*
X88357142Y-106993390D02*
X88357142Y-107136247D01*
X88357142Y-107136247D02*
X88309523Y-107326723D01*
X88309523Y-107326723D02*
X88261904Y-107421961D01*
X88261904Y-107421961D02*
X88166666Y-107517200D01*
X88166666Y-107517200D02*
X88023809Y-107564819D01*
X88023809Y-107564819D02*
X87785714Y-107564819D01*
X89214285Y-106898152D02*
X89214285Y-107564819D01*
X88976190Y-106517200D02*
X88738095Y-107231485D01*
X88738095Y-107231485D02*
X89357142Y-107231485D01*
X89785714Y-107564819D02*
X89976190Y-107564819D01*
X89976190Y-107564819D02*
X90071428Y-107517200D01*
X90071428Y-107517200D02*
X90119047Y-107469580D01*
X90119047Y-107469580D02*
X90214285Y-107326723D01*
X90214285Y-107326723D02*
X90261904Y-107136247D01*
X90261904Y-107136247D02*
X90261904Y-106755295D01*
X90261904Y-106755295D02*
X90214285Y-106660057D01*
X90214285Y-106660057D02*
X90166666Y-106612438D01*
X90166666Y-106612438D02*
X90071428Y-106564819D01*
X90071428Y-106564819D02*
X89880952Y-106564819D01*
X89880952Y-106564819D02*
X89785714Y-106612438D01*
X89785714Y-106612438D02*
X89738095Y-106660057D01*
X89738095Y-106660057D02*
X89690476Y-106755295D01*
X89690476Y-106755295D02*
X89690476Y-106993390D01*
X89690476Y-106993390D02*
X89738095Y-107088628D01*
X89738095Y-107088628D02*
X89785714Y-107136247D01*
X89785714Y-107136247D02*
X89880952Y-107183866D01*
X89880952Y-107183866D02*
X90071428Y-107183866D01*
X90071428Y-107183866D02*
X90166666Y-107136247D01*
X90166666Y-107136247D02*
X90214285Y-107088628D01*
X90214285Y-107088628D02*
X90261904Y-106993390D01*
D11*
X87471428Y-104372371D02*
X87128571Y-104372371D01*
X87300000Y-104372371D02*
X87300000Y-103772371D01*
X87300000Y-103772371D02*
X87242857Y-103858085D01*
X87242857Y-103858085D02*
X87185714Y-103915228D01*
X87185714Y-103915228D02*
X87128571Y-103943800D01*
D10*
X65285714Y-107564819D02*
X65285714Y-106564819D01*
X65285714Y-106564819D02*
X65523809Y-106564819D01*
X65523809Y-106564819D02*
X65666666Y-106612438D01*
X65666666Y-106612438D02*
X65761904Y-106707676D01*
X65761904Y-106707676D02*
X65809523Y-106802914D01*
X65809523Y-106802914D02*
X65857142Y-106993390D01*
X65857142Y-106993390D02*
X65857142Y-107136247D01*
X65857142Y-107136247D02*
X65809523Y-107326723D01*
X65809523Y-107326723D02*
X65761904Y-107421961D01*
X65761904Y-107421961D02*
X65666666Y-107517200D01*
X65666666Y-107517200D02*
X65523809Y-107564819D01*
X65523809Y-107564819D02*
X65285714Y-107564819D01*
X66761904Y-106564819D02*
X66285714Y-106564819D01*
X66285714Y-106564819D02*
X66238095Y-107041009D01*
X66238095Y-107041009D02*
X66285714Y-106993390D01*
X66285714Y-106993390D02*
X66380952Y-106945771D01*
X66380952Y-106945771D02*
X66619047Y-106945771D01*
X66619047Y-106945771D02*
X66714285Y-106993390D01*
X66714285Y-106993390D02*
X66761904Y-107041009D01*
X66761904Y-107041009D02*
X66809523Y-107136247D01*
X66809523Y-107136247D02*
X66809523Y-107374342D01*
X66809523Y-107374342D02*
X66761904Y-107469580D01*
X66761904Y-107469580D02*
X66714285Y-107517200D01*
X66714285Y-107517200D02*
X66619047Y-107564819D01*
X66619047Y-107564819D02*
X66380952Y-107564819D01*
X66380952Y-107564819D02*
X66285714Y-107517200D01*
X66285714Y-107517200D02*
X66238095Y-107469580D01*
X67714285Y-106564819D02*
X67238095Y-106564819D01*
X67238095Y-106564819D02*
X67190476Y-107041009D01*
X67190476Y-107041009D02*
X67238095Y-106993390D01*
X67238095Y-106993390D02*
X67333333Y-106945771D01*
X67333333Y-106945771D02*
X67571428Y-106945771D01*
X67571428Y-106945771D02*
X67666666Y-106993390D01*
X67666666Y-106993390D02*
X67714285Y-107041009D01*
X67714285Y-107041009D02*
X67761904Y-107136247D01*
X67761904Y-107136247D02*
X67761904Y-107374342D01*
X67761904Y-107374342D02*
X67714285Y-107469580D01*
X67714285Y-107469580D02*
X67666666Y-107517200D01*
X67666666Y-107517200D02*
X67571428Y-107564819D01*
X67571428Y-107564819D02*
X67333333Y-107564819D01*
X67333333Y-107564819D02*
X67238095Y-107517200D01*
X67238095Y-107517200D02*
X67190476Y-107469580D01*
D11*
X64971428Y-104372371D02*
X64628571Y-104372371D01*
X64800000Y-104372371D02*
X64800000Y-103772371D01*
X64800000Y-103772371D02*
X64742857Y-103858085D01*
X64742857Y-103858085D02*
X64685714Y-103915228D01*
X64685714Y-103915228D02*
X64628571Y-103943800D01*
D10*
X91535714Y-107564819D02*
X91535714Y-106564819D01*
X91535714Y-106564819D02*
X91773809Y-106564819D01*
X91773809Y-106564819D02*
X91916666Y-106612438D01*
X91916666Y-106612438D02*
X92011904Y-106707676D01*
X92011904Y-106707676D02*
X92059523Y-106802914D01*
X92059523Y-106802914D02*
X92107142Y-106993390D01*
X92107142Y-106993390D02*
X92107142Y-107136247D01*
X92107142Y-107136247D02*
X92059523Y-107326723D01*
X92059523Y-107326723D02*
X92011904Y-107421961D01*
X92011904Y-107421961D02*
X91916666Y-107517200D01*
X91916666Y-107517200D02*
X91773809Y-107564819D01*
X91773809Y-107564819D02*
X91535714Y-107564819D01*
X92964285Y-106898152D02*
X92964285Y-107564819D01*
X92726190Y-106517200D02*
X92488095Y-107231485D01*
X92488095Y-107231485D02*
X93107142Y-107231485D01*
X93630952Y-106993390D02*
X93535714Y-106945771D01*
X93535714Y-106945771D02*
X93488095Y-106898152D01*
X93488095Y-106898152D02*
X93440476Y-106802914D01*
X93440476Y-106802914D02*
X93440476Y-106755295D01*
X93440476Y-106755295D02*
X93488095Y-106660057D01*
X93488095Y-106660057D02*
X93535714Y-106612438D01*
X93535714Y-106612438D02*
X93630952Y-106564819D01*
X93630952Y-106564819D02*
X93821428Y-106564819D01*
X93821428Y-106564819D02*
X93916666Y-106612438D01*
X93916666Y-106612438D02*
X93964285Y-106660057D01*
X93964285Y-106660057D02*
X94011904Y-106755295D01*
X94011904Y-106755295D02*
X94011904Y-106802914D01*
X94011904Y-106802914D02*
X93964285Y-106898152D01*
X93964285Y-106898152D02*
X93916666Y-106945771D01*
X93916666Y-106945771D02*
X93821428Y-106993390D01*
X93821428Y-106993390D02*
X93630952Y-106993390D01*
X93630952Y-106993390D02*
X93535714Y-107041009D01*
X93535714Y-107041009D02*
X93488095Y-107088628D01*
X93488095Y-107088628D02*
X93440476Y-107183866D01*
X93440476Y-107183866D02*
X93440476Y-107374342D01*
X93440476Y-107374342D02*
X93488095Y-107469580D01*
X93488095Y-107469580D02*
X93535714Y-107517200D01*
X93535714Y-107517200D02*
X93630952Y-107564819D01*
X93630952Y-107564819D02*
X93821428Y-107564819D01*
X93821428Y-107564819D02*
X93916666Y-107517200D01*
X93916666Y-107517200D02*
X93964285Y-107469580D01*
X93964285Y-107469580D02*
X94011904Y-107374342D01*
X94011904Y-107374342D02*
X94011904Y-107183866D01*
X94011904Y-107183866D02*
X93964285Y-107088628D01*
X93964285Y-107088628D02*
X93916666Y-107041009D01*
X93916666Y-107041009D02*
X93821428Y-106993390D01*
D11*
X91221428Y-104372371D02*
X90878571Y-104372371D01*
X91050000Y-104372371D02*
X91050000Y-103772371D01*
X91050000Y-103772371D02*
X90992857Y-103858085D01*
X90992857Y-103858085D02*
X90935714Y-103915228D01*
X90935714Y-103915228D02*
X90878571Y-103943800D01*
D10*
X249511905Y-107564819D02*
X249511905Y-106564819D01*
X249511905Y-106564819D02*
X249750000Y-106564819D01*
X249750000Y-106564819D02*
X249892857Y-106612438D01*
X249892857Y-106612438D02*
X249988095Y-106707676D01*
X249988095Y-106707676D02*
X250035714Y-106802914D01*
X250035714Y-106802914D02*
X250083333Y-106993390D01*
X250083333Y-106993390D02*
X250083333Y-107136247D01*
X250083333Y-107136247D02*
X250035714Y-107326723D01*
X250035714Y-107326723D02*
X249988095Y-107421961D01*
X249988095Y-107421961D02*
X249892857Y-107517200D01*
X249892857Y-107517200D02*
X249750000Y-107564819D01*
X249750000Y-107564819D02*
X249511905Y-107564819D01*
X250940476Y-106564819D02*
X250750000Y-106564819D01*
X250750000Y-106564819D02*
X250654762Y-106612438D01*
X250654762Y-106612438D02*
X250607143Y-106660057D01*
X250607143Y-106660057D02*
X250511905Y-106802914D01*
X250511905Y-106802914D02*
X250464286Y-106993390D01*
X250464286Y-106993390D02*
X250464286Y-107374342D01*
X250464286Y-107374342D02*
X250511905Y-107469580D01*
X250511905Y-107469580D02*
X250559524Y-107517200D01*
X250559524Y-107517200D02*
X250654762Y-107564819D01*
X250654762Y-107564819D02*
X250845238Y-107564819D01*
X250845238Y-107564819D02*
X250940476Y-107517200D01*
X250940476Y-107517200D02*
X250988095Y-107469580D01*
X250988095Y-107469580D02*
X251035714Y-107374342D01*
X251035714Y-107374342D02*
X251035714Y-107136247D01*
X251035714Y-107136247D02*
X250988095Y-107041009D01*
X250988095Y-107041009D02*
X250940476Y-106993390D01*
X250940476Y-106993390D02*
X250845238Y-106945771D01*
X250845238Y-106945771D02*
X250654762Y-106945771D01*
X250654762Y-106945771D02*
X250559524Y-106993390D01*
X250559524Y-106993390D02*
X250511905Y-107041009D01*
X250511905Y-107041009D02*
X250464286Y-107136247D01*
D11*
X248721428Y-104372371D02*
X248378571Y-104372371D01*
X248550000Y-104372371D02*
X248550000Y-103772371D01*
X248550000Y-103772371D02*
X248492857Y-103858085D01*
X248492857Y-103858085D02*
X248435714Y-103915228D01*
X248435714Y-103915228D02*
X248378571Y-103943800D01*
D10*
X257011905Y-107564819D02*
X257011905Y-106564819D01*
X257011905Y-106564819D02*
X257250000Y-106564819D01*
X257250000Y-106564819D02*
X257392857Y-106612438D01*
X257392857Y-106612438D02*
X257488095Y-106707676D01*
X257488095Y-106707676D02*
X257535714Y-106802914D01*
X257535714Y-106802914D02*
X257583333Y-106993390D01*
X257583333Y-106993390D02*
X257583333Y-107136247D01*
X257583333Y-107136247D02*
X257535714Y-107326723D01*
X257535714Y-107326723D02*
X257488095Y-107421961D01*
X257488095Y-107421961D02*
X257392857Y-107517200D01*
X257392857Y-107517200D02*
X257250000Y-107564819D01*
X257250000Y-107564819D02*
X257011905Y-107564819D01*
X258440476Y-106898152D02*
X258440476Y-107564819D01*
X258202381Y-106517200D02*
X257964286Y-107231485D01*
X257964286Y-107231485D02*
X258583333Y-107231485D01*
D11*
X256221428Y-104372371D02*
X255878571Y-104372371D01*
X256050000Y-104372371D02*
X256050000Y-103772371D01*
X256050000Y-103772371D02*
X255992857Y-103858085D01*
X255992857Y-103858085D02*
X255935714Y-103915228D01*
X255935714Y-103915228D02*
X255878571Y-103943800D01*
D10*
X42785714Y-107564819D02*
X42785714Y-106564819D01*
X42785714Y-106564819D02*
X43023809Y-106564819D01*
X43023809Y-106564819D02*
X43166666Y-106612438D01*
X43166666Y-106612438D02*
X43261904Y-106707676D01*
X43261904Y-106707676D02*
X43309523Y-106802914D01*
X43309523Y-106802914D02*
X43357142Y-106993390D01*
X43357142Y-106993390D02*
X43357142Y-107136247D01*
X43357142Y-107136247D02*
X43309523Y-107326723D01*
X43309523Y-107326723D02*
X43261904Y-107421961D01*
X43261904Y-107421961D02*
X43166666Y-107517200D01*
X43166666Y-107517200D02*
X43023809Y-107564819D01*
X43023809Y-107564819D02*
X42785714Y-107564819D01*
X44214285Y-106564819D02*
X44023809Y-106564819D01*
X44023809Y-106564819D02*
X43928571Y-106612438D01*
X43928571Y-106612438D02*
X43880952Y-106660057D01*
X43880952Y-106660057D02*
X43785714Y-106802914D01*
X43785714Y-106802914D02*
X43738095Y-106993390D01*
X43738095Y-106993390D02*
X43738095Y-107374342D01*
X43738095Y-107374342D02*
X43785714Y-107469580D01*
X43785714Y-107469580D02*
X43833333Y-107517200D01*
X43833333Y-107517200D02*
X43928571Y-107564819D01*
X43928571Y-107564819D02*
X44119047Y-107564819D01*
X44119047Y-107564819D02*
X44214285Y-107517200D01*
X44214285Y-107517200D02*
X44261904Y-107469580D01*
X44261904Y-107469580D02*
X44309523Y-107374342D01*
X44309523Y-107374342D02*
X44309523Y-107136247D01*
X44309523Y-107136247D02*
X44261904Y-107041009D01*
X44261904Y-107041009D02*
X44214285Y-106993390D01*
X44214285Y-106993390D02*
X44119047Y-106945771D01*
X44119047Y-106945771D02*
X43928571Y-106945771D01*
X43928571Y-106945771D02*
X43833333Y-106993390D01*
X43833333Y-106993390D02*
X43785714Y-107041009D01*
X43785714Y-107041009D02*
X43738095Y-107136247D01*
X45261904Y-107564819D02*
X44690476Y-107564819D01*
X44976190Y-107564819D02*
X44976190Y-106564819D01*
X44976190Y-106564819D02*
X44880952Y-106707676D01*
X44880952Y-106707676D02*
X44785714Y-106802914D01*
X44785714Y-106802914D02*
X44690476Y-106850533D01*
D11*
X42471428Y-104372371D02*
X42128571Y-104372371D01*
X42300000Y-104372371D02*
X42300000Y-103772371D01*
X42300000Y-103772371D02*
X42242857Y-103858085D01*
X42242857Y-103858085D02*
X42185714Y-103915228D01*
X42185714Y-103915228D02*
X42128571Y-103943800D01*
D10*
X76535714Y-107564819D02*
X76535714Y-106564819D01*
X76535714Y-106564819D02*
X76773809Y-106564819D01*
X76773809Y-106564819D02*
X76916666Y-106612438D01*
X76916666Y-106612438D02*
X77011904Y-106707676D01*
X77011904Y-106707676D02*
X77059523Y-106802914D01*
X77059523Y-106802914D02*
X77107142Y-106993390D01*
X77107142Y-106993390D02*
X77107142Y-107136247D01*
X77107142Y-107136247D02*
X77059523Y-107326723D01*
X77059523Y-107326723D02*
X77011904Y-107421961D01*
X77011904Y-107421961D02*
X76916666Y-107517200D01*
X76916666Y-107517200D02*
X76773809Y-107564819D01*
X76773809Y-107564819D02*
X76535714Y-107564819D01*
X78011904Y-106564819D02*
X77535714Y-106564819D01*
X77535714Y-106564819D02*
X77488095Y-107041009D01*
X77488095Y-107041009D02*
X77535714Y-106993390D01*
X77535714Y-106993390D02*
X77630952Y-106945771D01*
X77630952Y-106945771D02*
X77869047Y-106945771D01*
X77869047Y-106945771D02*
X77964285Y-106993390D01*
X77964285Y-106993390D02*
X78011904Y-107041009D01*
X78011904Y-107041009D02*
X78059523Y-107136247D01*
X78059523Y-107136247D02*
X78059523Y-107374342D01*
X78059523Y-107374342D02*
X78011904Y-107469580D01*
X78011904Y-107469580D02*
X77964285Y-107517200D01*
X77964285Y-107517200D02*
X77869047Y-107564819D01*
X77869047Y-107564819D02*
X77630952Y-107564819D01*
X77630952Y-107564819D02*
X77535714Y-107517200D01*
X77535714Y-107517200D02*
X77488095Y-107469580D01*
X78440476Y-106660057D02*
X78488095Y-106612438D01*
X78488095Y-106612438D02*
X78583333Y-106564819D01*
X78583333Y-106564819D02*
X78821428Y-106564819D01*
X78821428Y-106564819D02*
X78916666Y-106612438D01*
X78916666Y-106612438D02*
X78964285Y-106660057D01*
X78964285Y-106660057D02*
X79011904Y-106755295D01*
X79011904Y-106755295D02*
X79011904Y-106850533D01*
X79011904Y-106850533D02*
X78964285Y-106993390D01*
X78964285Y-106993390D02*
X78392857Y-107564819D01*
X78392857Y-107564819D02*
X79011904Y-107564819D01*
D11*
X76221428Y-104372371D02*
X75878571Y-104372371D01*
X76050000Y-104372371D02*
X76050000Y-103772371D01*
X76050000Y-103772371D02*
X75992857Y-103858085D01*
X75992857Y-103858085D02*
X75935714Y-103915228D01*
X75935714Y-103915228D02*
X75878571Y-103943800D01*
D10*
X185285714Y-107564819D02*
X185285714Y-106564819D01*
X185285714Y-106564819D02*
X185523809Y-106564819D01*
X185523809Y-106564819D02*
X185666666Y-106612438D01*
X185666666Y-106612438D02*
X185761904Y-106707676D01*
X185761904Y-106707676D02*
X185809523Y-106802914D01*
X185809523Y-106802914D02*
X185857142Y-106993390D01*
X185857142Y-106993390D02*
X185857142Y-107136247D01*
X185857142Y-107136247D02*
X185809523Y-107326723D01*
X185809523Y-107326723D02*
X185761904Y-107421961D01*
X185761904Y-107421961D02*
X185666666Y-107517200D01*
X185666666Y-107517200D02*
X185523809Y-107564819D01*
X185523809Y-107564819D02*
X185285714Y-107564819D01*
X186238095Y-106660057D02*
X186285714Y-106612438D01*
X186285714Y-106612438D02*
X186380952Y-106564819D01*
X186380952Y-106564819D02*
X186619047Y-106564819D01*
X186619047Y-106564819D02*
X186714285Y-106612438D01*
X186714285Y-106612438D02*
X186761904Y-106660057D01*
X186761904Y-106660057D02*
X186809523Y-106755295D01*
X186809523Y-106755295D02*
X186809523Y-106850533D01*
X186809523Y-106850533D02*
X186761904Y-106993390D01*
X186761904Y-106993390D02*
X186190476Y-107564819D01*
X186190476Y-107564819D02*
X186809523Y-107564819D01*
X187142857Y-106564819D02*
X187761904Y-106564819D01*
X187761904Y-106564819D02*
X187428571Y-106945771D01*
X187428571Y-106945771D02*
X187571428Y-106945771D01*
X187571428Y-106945771D02*
X187666666Y-106993390D01*
X187666666Y-106993390D02*
X187714285Y-107041009D01*
X187714285Y-107041009D02*
X187761904Y-107136247D01*
X187761904Y-107136247D02*
X187761904Y-107374342D01*
X187761904Y-107374342D02*
X187714285Y-107469580D01*
X187714285Y-107469580D02*
X187666666Y-107517200D01*
X187666666Y-107517200D02*
X187571428Y-107564819D01*
X187571428Y-107564819D02*
X187285714Y-107564819D01*
X187285714Y-107564819D02*
X187190476Y-107517200D01*
X187190476Y-107517200D02*
X187142857Y-107469580D01*
D11*
X184971428Y-104372371D02*
X184628571Y-104372371D01*
X184800000Y-104372371D02*
X184800000Y-103772371D01*
X184800000Y-103772371D02*
X184742857Y-103858085D01*
X184742857Y-103858085D02*
X184685714Y-103915228D01*
X184685714Y-103915228D02*
X184628571Y-103943800D01*
D10*
X61535714Y-107564819D02*
X61535714Y-106564819D01*
X61535714Y-106564819D02*
X61773809Y-106564819D01*
X61773809Y-106564819D02*
X61916666Y-106612438D01*
X61916666Y-106612438D02*
X62011904Y-106707676D01*
X62011904Y-106707676D02*
X62059523Y-106802914D01*
X62059523Y-106802914D02*
X62107142Y-106993390D01*
X62107142Y-106993390D02*
X62107142Y-107136247D01*
X62107142Y-107136247D02*
X62059523Y-107326723D01*
X62059523Y-107326723D02*
X62011904Y-107421961D01*
X62011904Y-107421961D02*
X61916666Y-107517200D01*
X61916666Y-107517200D02*
X61773809Y-107564819D01*
X61773809Y-107564819D02*
X61535714Y-107564819D01*
X63011904Y-106564819D02*
X62535714Y-106564819D01*
X62535714Y-106564819D02*
X62488095Y-107041009D01*
X62488095Y-107041009D02*
X62535714Y-106993390D01*
X62535714Y-106993390D02*
X62630952Y-106945771D01*
X62630952Y-106945771D02*
X62869047Y-106945771D01*
X62869047Y-106945771D02*
X62964285Y-106993390D01*
X62964285Y-106993390D02*
X63011904Y-107041009D01*
X63011904Y-107041009D02*
X63059523Y-107136247D01*
X63059523Y-107136247D02*
X63059523Y-107374342D01*
X63059523Y-107374342D02*
X63011904Y-107469580D01*
X63011904Y-107469580D02*
X62964285Y-107517200D01*
X62964285Y-107517200D02*
X62869047Y-107564819D01*
X62869047Y-107564819D02*
X62630952Y-107564819D01*
X62630952Y-107564819D02*
X62535714Y-107517200D01*
X62535714Y-107517200D02*
X62488095Y-107469580D01*
X63916666Y-106564819D02*
X63726190Y-106564819D01*
X63726190Y-106564819D02*
X63630952Y-106612438D01*
X63630952Y-106612438D02*
X63583333Y-106660057D01*
X63583333Y-106660057D02*
X63488095Y-106802914D01*
X63488095Y-106802914D02*
X63440476Y-106993390D01*
X63440476Y-106993390D02*
X63440476Y-107374342D01*
X63440476Y-107374342D02*
X63488095Y-107469580D01*
X63488095Y-107469580D02*
X63535714Y-107517200D01*
X63535714Y-107517200D02*
X63630952Y-107564819D01*
X63630952Y-107564819D02*
X63821428Y-107564819D01*
X63821428Y-107564819D02*
X63916666Y-107517200D01*
X63916666Y-107517200D02*
X63964285Y-107469580D01*
X63964285Y-107469580D02*
X64011904Y-107374342D01*
X64011904Y-107374342D02*
X64011904Y-107136247D01*
X64011904Y-107136247D02*
X63964285Y-107041009D01*
X63964285Y-107041009D02*
X63916666Y-106993390D01*
X63916666Y-106993390D02*
X63821428Y-106945771D01*
X63821428Y-106945771D02*
X63630952Y-106945771D01*
X63630952Y-106945771D02*
X63535714Y-106993390D01*
X63535714Y-106993390D02*
X63488095Y-107041009D01*
X63488095Y-107041009D02*
X63440476Y-107136247D01*
D11*
X61221428Y-104372371D02*
X60878571Y-104372371D01*
X61050000Y-104372371D02*
X61050000Y-103772371D01*
X61050000Y-103772371D02*
X60992857Y-103858085D01*
X60992857Y-103858085D02*
X60935714Y-103915228D01*
X60935714Y-103915228D02*
X60878571Y-103943800D01*
D10*
X31535714Y-107564819D02*
X31535714Y-106564819D01*
X31535714Y-106564819D02*
X31773809Y-106564819D01*
X31773809Y-106564819D02*
X31916666Y-106612438D01*
X31916666Y-106612438D02*
X32011904Y-106707676D01*
X32011904Y-106707676D02*
X32059523Y-106802914D01*
X32059523Y-106802914D02*
X32107142Y-106993390D01*
X32107142Y-106993390D02*
X32107142Y-107136247D01*
X32107142Y-107136247D02*
X32059523Y-107326723D01*
X32059523Y-107326723D02*
X32011904Y-107421961D01*
X32011904Y-107421961D02*
X31916666Y-107517200D01*
X31916666Y-107517200D02*
X31773809Y-107564819D01*
X31773809Y-107564819D02*
X31535714Y-107564819D01*
X32964285Y-106564819D02*
X32773809Y-106564819D01*
X32773809Y-106564819D02*
X32678571Y-106612438D01*
X32678571Y-106612438D02*
X32630952Y-106660057D01*
X32630952Y-106660057D02*
X32535714Y-106802914D01*
X32535714Y-106802914D02*
X32488095Y-106993390D01*
X32488095Y-106993390D02*
X32488095Y-107374342D01*
X32488095Y-107374342D02*
X32535714Y-107469580D01*
X32535714Y-107469580D02*
X32583333Y-107517200D01*
X32583333Y-107517200D02*
X32678571Y-107564819D01*
X32678571Y-107564819D02*
X32869047Y-107564819D01*
X32869047Y-107564819D02*
X32964285Y-107517200D01*
X32964285Y-107517200D02*
X33011904Y-107469580D01*
X33011904Y-107469580D02*
X33059523Y-107374342D01*
X33059523Y-107374342D02*
X33059523Y-107136247D01*
X33059523Y-107136247D02*
X33011904Y-107041009D01*
X33011904Y-107041009D02*
X32964285Y-106993390D01*
X32964285Y-106993390D02*
X32869047Y-106945771D01*
X32869047Y-106945771D02*
X32678571Y-106945771D01*
X32678571Y-106945771D02*
X32583333Y-106993390D01*
X32583333Y-106993390D02*
X32535714Y-107041009D01*
X32535714Y-107041009D02*
X32488095Y-107136247D01*
X33916666Y-106898152D02*
X33916666Y-107564819D01*
X33678571Y-106517200D02*
X33440476Y-107231485D01*
X33440476Y-107231485D02*
X34059523Y-107231485D01*
D11*
X31221428Y-104372371D02*
X30878571Y-104372371D01*
X31050000Y-104372371D02*
X31050000Y-103772371D01*
X31050000Y-103772371D02*
X30992857Y-103858085D01*
X30992857Y-103858085D02*
X30935714Y-103915228D01*
X30935714Y-103915228D02*
X30878571Y-103943800D01*
D10*
X125285714Y-107564819D02*
X125285714Y-106564819D01*
X125285714Y-106564819D02*
X125523809Y-106564819D01*
X125523809Y-106564819D02*
X125666666Y-106612438D01*
X125666666Y-106612438D02*
X125761904Y-106707676D01*
X125761904Y-106707676D02*
X125809523Y-106802914D01*
X125809523Y-106802914D02*
X125857142Y-106993390D01*
X125857142Y-106993390D02*
X125857142Y-107136247D01*
X125857142Y-107136247D02*
X125809523Y-107326723D01*
X125809523Y-107326723D02*
X125761904Y-107421961D01*
X125761904Y-107421961D02*
X125666666Y-107517200D01*
X125666666Y-107517200D02*
X125523809Y-107564819D01*
X125523809Y-107564819D02*
X125285714Y-107564819D01*
X126190476Y-106564819D02*
X126809523Y-106564819D01*
X126809523Y-106564819D02*
X126476190Y-106945771D01*
X126476190Y-106945771D02*
X126619047Y-106945771D01*
X126619047Y-106945771D02*
X126714285Y-106993390D01*
X126714285Y-106993390D02*
X126761904Y-107041009D01*
X126761904Y-107041009D02*
X126809523Y-107136247D01*
X126809523Y-107136247D02*
X126809523Y-107374342D01*
X126809523Y-107374342D02*
X126761904Y-107469580D01*
X126761904Y-107469580D02*
X126714285Y-107517200D01*
X126714285Y-107517200D02*
X126619047Y-107564819D01*
X126619047Y-107564819D02*
X126333333Y-107564819D01*
X126333333Y-107564819D02*
X126238095Y-107517200D01*
X126238095Y-107517200D02*
X126190476Y-107469580D01*
X127285714Y-107564819D02*
X127476190Y-107564819D01*
X127476190Y-107564819D02*
X127571428Y-107517200D01*
X127571428Y-107517200D02*
X127619047Y-107469580D01*
X127619047Y-107469580D02*
X127714285Y-107326723D01*
X127714285Y-107326723D02*
X127761904Y-107136247D01*
X127761904Y-107136247D02*
X127761904Y-106755295D01*
X127761904Y-106755295D02*
X127714285Y-106660057D01*
X127714285Y-106660057D02*
X127666666Y-106612438D01*
X127666666Y-106612438D02*
X127571428Y-106564819D01*
X127571428Y-106564819D02*
X127380952Y-106564819D01*
X127380952Y-106564819D02*
X127285714Y-106612438D01*
X127285714Y-106612438D02*
X127238095Y-106660057D01*
X127238095Y-106660057D02*
X127190476Y-106755295D01*
X127190476Y-106755295D02*
X127190476Y-106993390D01*
X127190476Y-106993390D02*
X127238095Y-107088628D01*
X127238095Y-107088628D02*
X127285714Y-107136247D01*
X127285714Y-107136247D02*
X127380952Y-107183866D01*
X127380952Y-107183866D02*
X127571428Y-107183866D01*
X127571428Y-107183866D02*
X127666666Y-107136247D01*
X127666666Y-107136247D02*
X127714285Y-107088628D01*
X127714285Y-107088628D02*
X127761904Y-106993390D01*
D11*
X124971428Y-104372371D02*
X124628571Y-104372371D01*
X124800000Y-104372371D02*
X124800000Y-103772371D01*
X124800000Y-103772371D02*
X124742857Y-103858085D01*
X124742857Y-103858085D02*
X124685714Y-103915228D01*
X124685714Y-103915228D02*
X124628571Y-103943800D01*
D10*
X159035714Y-107564819D02*
X159035714Y-106564819D01*
X159035714Y-106564819D02*
X159273809Y-106564819D01*
X159273809Y-106564819D02*
X159416666Y-106612438D01*
X159416666Y-106612438D02*
X159511904Y-106707676D01*
X159511904Y-106707676D02*
X159559523Y-106802914D01*
X159559523Y-106802914D02*
X159607142Y-106993390D01*
X159607142Y-106993390D02*
X159607142Y-107136247D01*
X159607142Y-107136247D02*
X159559523Y-107326723D01*
X159559523Y-107326723D02*
X159511904Y-107421961D01*
X159511904Y-107421961D02*
X159416666Y-107517200D01*
X159416666Y-107517200D02*
X159273809Y-107564819D01*
X159273809Y-107564819D02*
X159035714Y-107564819D01*
X159940476Y-106564819D02*
X160559523Y-106564819D01*
X160559523Y-106564819D02*
X160226190Y-106945771D01*
X160226190Y-106945771D02*
X160369047Y-106945771D01*
X160369047Y-106945771D02*
X160464285Y-106993390D01*
X160464285Y-106993390D02*
X160511904Y-107041009D01*
X160511904Y-107041009D02*
X160559523Y-107136247D01*
X160559523Y-107136247D02*
X160559523Y-107374342D01*
X160559523Y-107374342D02*
X160511904Y-107469580D01*
X160511904Y-107469580D02*
X160464285Y-107517200D01*
X160464285Y-107517200D02*
X160369047Y-107564819D01*
X160369047Y-107564819D02*
X160083333Y-107564819D01*
X160083333Y-107564819D02*
X159988095Y-107517200D01*
X159988095Y-107517200D02*
X159940476Y-107469580D01*
X161178571Y-106564819D02*
X161273809Y-106564819D01*
X161273809Y-106564819D02*
X161369047Y-106612438D01*
X161369047Y-106612438D02*
X161416666Y-106660057D01*
X161416666Y-106660057D02*
X161464285Y-106755295D01*
X161464285Y-106755295D02*
X161511904Y-106945771D01*
X161511904Y-106945771D02*
X161511904Y-107183866D01*
X161511904Y-107183866D02*
X161464285Y-107374342D01*
X161464285Y-107374342D02*
X161416666Y-107469580D01*
X161416666Y-107469580D02*
X161369047Y-107517200D01*
X161369047Y-107517200D02*
X161273809Y-107564819D01*
X161273809Y-107564819D02*
X161178571Y-107564819D01*
X161178571Y-107564819D02*
X161083333Y-107517200D01*
X161083333Y-107517200D02*
X161035714Y-107469580D01*
X161035714Y-107469580D02*
X160988095Y-107374342D01*
X160988095Y-107374342D02*
X160940476Y-107183866D01*
X160940476Y-107183866D02*
X160940476Y-106945771D01*
X160940476Y-106945771D02*
X160988095Y-106755295D01*
X160988095Y-106755295D02*
X161035714Y-106660057D01*
X161035714Y-106660057D02*
X161083333Y-106612438D01*
X161083333Y-106612438D02*
X161178571Y-106564819D01*
D11*
X158721428Y-104372371D02*
X158378571Y-104372371D01*
X158550000Y-104372371D02*
X158550000Y-103772371D01*
X158550000Y-103772371D02*
X158492857Y-103858085D01*
X158492857Y-103858085D02*
X158435714Y-103915228D01*
X158435714Y-103915228D02*
X158378571Y-103943800D01*
D10*
X204035714Y-107564819D02*
X204035714Y-106564819D01*
X204035714Y-106564819D02*
X204273809Y-106564819D01*
X204273809Y-106564819D02*
X204416666Y-106612438D01*
X204416666Y-106612438D02*
X204511904Y-106707676D01*
X204511904Y-106707676D02*
X204559523Y-106802914D01*
X204559523Y-106802914D02*
X204607142Y-106993390D01*
X204607142Y-106993390D02*
X204607142Y-107136247D01*
X204607142Y-107136247D02*
X204559523Y-107326723D01*
X204559523Y-107326723D02*
X204511904Y-107421961D01*
X204511904Y-107421961D02*
X204416666Y-107517200D01*
X204416666Y-107517200D02*
X204273809Y-107564819D01*
X204273809Y-107564819D02*
X204035714Y-107564819D01*
X205559523Y-107564819D02*
X204988095Y-107564819D01*
X205273809Y-107564819D02*
X205273809Y-106564819D01*
X205273809Y-106564819D02*
X205178571Y-106707676D01*
X205178571Y-106707676D02*
X205083333Y-106802914D01*
X205083333Y-106802914D02*
X204988095Y-106850533D01*
X206130952Y-106993390D02*
X206035714Y-106945771D01*
X206035714Y-106945771D02*
X205988095Y-106898152D01*
X205988095Y-106898152D02*
X205940476Y-106802914D01*
X205940476Y-106802914D02*
X205940476Y-106755295D01*
X205940476Y-106755295D02*
X205988095Y-106660057D01*
X205988095Y-106660057D02*
X206035714Y-106612438D01*
X206035714Y-106612438D02*
X206130952Y-106564819D01*
X206130952Y-106564819D02*
X206321428Y-106564819D01*
X206321428Y-106564819D02*
X206416666Y-106612438D01*
X206416666Y-106612438D02*
X206464285Y-106660057D01*
X206464285Y-106660057D02*
X206511904Y-106755295D01*
X206511904Y-106755295D02*
X206511904Y-106802914D01*
X206511904Y-106802914D02*
X206464285Y-106898152D01*
X206464285Y-106898152D02*
X206416666Y-106945771D01*
X206416666Y-106945771D02*
X206321428Y-106993390D01*
X206321428Y-106993390D02*
X206130952Y-106993390D01*
X206130952Y-106993390D02*
X206035714Y-107041009D01*
X206035714Y-107041009D02*
X205988095Y-107088628D01*
X205988095Y-107088628D02*
X205940476Y-107183866D01*
X205940476Y-107183866D02*
X205940476Y-107374342D01*
X205940476Y-107374342D02*
X205988095Y-107469580D01*
X205988095Y-107469580D02*
X206035714Y-107517200D01*
X206035714Y-107517200D02*
X206130952Y-107564819D01*
X206130952Y-107564819D02*
X206321428Y-107564819D01*
X206321428Y-107564819D02*
X206416666Y-107517200D01*
X206416666Y-107517200D02*
X206464285Y-107469580D01*
X206464285Y-107469580D02*
X206511904Y-107374342D01*
X206511904Y-107374342D02*
X206511904Y-107183866D01*
X206511904Y-107183866D02*
X206464285Y-107088628D01*
X206464285Y-107088628D02*
X206416666Y-107041009D01*
X206416666Y-107041009D02*
X206321428Y-106993390D01*
D11*
X203721428Y-104372371D02*
X203378571Y-104372371D01*
X203550000Y-104372371D02*
X203550000Y-103772371D01*
X203550000Y-103772371D02*
X203492857Y-103858085D01*
X203492857Y-103858085D02*
X203435714Y-103915228D01*
X203435714Y-103915228D02*
X203378571Y-103943800D01*
D10*
X181535714Y-107564819D02*
X181535714Y-106564819D01*
X181535714Y-106564819D02*
X181773809Y-106564819D01*
X181773809Y-106564819D02*
X181916666Y-106612438D01*
X181916666Y-106612438D02*
X182011904Y-106707676D01*
X182011904Y-106707676D02*
X182059523Y-106802914D01*
X182059523Y-106802914D02*
X182107142Y-106993390D01*
X182107142Y-106993390D02*
X182107142Y-107136247D01*
X182107142Y-107136247D02*
X182059523Y-107326723D01*
X182059523Y-107326723D02*
X182011904Y-107421961D01*
X182011904Y-107421961D02*
X181916666Y-107517200D01*
X181916666Y-107517200D02*
X181773809Y-107564819D01*
X181773809Y-107564819D02*
X181535714Y-107564819D01*
X182488095Y-106660057D02*
X182535714Y-106612438D01*
X182535714Y-106612438D02*
X182630952Y-106564819D01*
X182630952Y-106564819D02*
X182869047Y-106564819D01*
X182869047Y-106564819D02*
X182964285Y-106612438D01*
X182964285Y-106612438D02*
X183011904Y-106660057D01*
X183011904Y-106660057D02*
X183059523Y-106755295D01*
X183059523Y-106755295D02*
X183059523Y-106850533D01*
X183059523Y-106850533D02*
X183011904Y-106993390D01*
X183011904Y-106993390D02*
X182440476Y-107564819D01*
X182440476Y-107564819D02*
X183059523Y-107564819D01*
X183916666Y-106898152D02*
X183916666Y-107564819D01*
X183678571Y-106517200D02*
X183440476Y-107231485D01*
X183440476Y-107231485D02*
X184059523Y-107231485D01*
D11*
X181221428Y-104372371D02*
X180878571Y-104372371D01*
X181050000Y-104372371D02*
X181050000Y-103772371D01*
X181050000Y-103772371D02*
X180992857Y-103858085D01*
X180992857Y-103858085D02*
X180935714Y-103915228D01*
X180935714Y-103915228D02*
X180878571Y-103943800D01*
D10*
X151535714Y-107564819D02*
X151535714Y-106564819D01*
X151535714Y-106564819D02*
X151773809Y-106564819D01*
X151773809Y-106564819D02*
X151916666Y-106612438D01*
X151916666Y-106612438D02*
X152011904Y-106707676D01*
X152011904Y-106707676D02*
X152059523Y-106802914D01*
X152059523Y-106802914D02*
X152107142Y-106993390D01*
X152107142Y-106993390D02*
X152107142Y-107136247D01*
X152107142Y-107136247D02*
X152059523Y-107326723D01*
X152059523Y-107326723D02*
X152011904Y-107421961D01*
X152011904Y-107421961D02*
X151916666Y-107517200D01*
X151916666Y-107517200D02*
X151773809Y-107564819D01*
X151773809Y-107564819D02*
X151535714Y-107564819D01*
X152440476Y-106564819D02*
X153059523Y-106564819D01*
X153059523Y-106564819D02*
X152726190Y-106945771D01*
X152726190Y-106945771D02*
X152869047Y-106945771D01*
X152869047Y-106945771D02*
X152964285Y-106993390D01*
X152964285Y-106993390D02*
X153011904Y-107041009D01*
X153011904Y-107041009D02*
X153059523Y-107136247D01*
X153059523Y-107136247D02*
X153059523Y-107374342D01*
X153059523Y-107374342D02*
X153011904Y-107469580D01*
X153011904Y-107469580D02*
X152964285Y-107517200D01*
X152964285Y-107517200D02*
X152869047Y-107564819D01*
X152869047Y-107564819D02*
X152583333Y-107564819D01*
X152583333Y-107564819D02*
X152488095Y-107517200D01*
X152488095Y-107517200D02*
X152440476Y-107469580D01*
X153440476Y-106660057D02*
X153488095Y-106612438D01*
X153488095Y-106612438D02*
X153583333Y-106564819D01*
X153583333Y-106564819D02*
X153821428Y-106564819D01*
X153821428Y-106564819D02*
X153916666Y-106612438D01*
X153916666Y-106612438D02*
X153964285Y-106660057D01*
X153964285Y-106660057D02*
X154011904Y-106755295D01*
X154011904Y-106755295D02*
X154011904Y-106850533D01*
X154011904Y-106850533D02*
X153964285Y-106993390D01*
X153964285Y-106993390D02*
X153392857Y-107564819D01*
X153392857Y-107564819D02*
X154011904Y-107564819D01*
D11*
X151221428Y-104372371D02*
X150878571Y-104372371D01*
X151050000Y-104372371D02*
X151050000Y-103772371D01*
X151050000Y-103772371D02*
X150992857Y-103858085D01*
X150992857Y-103858085D02*
X150935714Y-103915228D01*
X150935714Y-103915228D02*
X150878571Y-103943800D01*
D10*
X211535714Y-107564819D02*
X211535714Y-106564819D01*
X211535714Y-106564819D02*
X211773809Y-106564819D01*
X211773809Y-106564819D02*
X211916666Y-106612438D01*
X211916666Y-106612438D02*
X212011904Y-106707676D01*
X212011904Y-106707676D02*
X212059523Y-106802914D01*
X212059523Y-106802914D02*
X212107142Y-106993390D01*
X212107142Y-106993390D02*
X212107142Y-107136247D01*
X212107142Y-107136247D02*
X212059523Y-107326723D01*
X212059523Y-107326723D02*
X212011904Y-107421961D01*
X212011904Y-107421961D02*
X211916666Y-107517200D01*
X211916666Y-107517200D02*
X211773809Y-107564819D01*
X211773809Y-107564819D02*
X211535714Y-107564819D01*
X213059523Y-107564819D02*
X212488095Y-107564819D01*
X212773809Y-107564819D02*
X212773809Y-106564819D01*
X212773809Y-106564819D02*
X212678571Y-106707676D01*
X212678571Y-106707676D02*
X212583333Y-106802914D01*
X212583333Y-106802914D02*
X212488095Y-106850533D01*
X213916666Y-106564819D02*
X213726190Y-106564819D01*
X213726190Y-106564819D02*
X213630952Y-106612438D01*
X213630952Y-106612438D02*
X213583333Y-106660057D01*
X213583333Y-106660057D02*
X213488095Y-106802914D01*
X213488095Y-106802914D02*
X213440476Y-106993390D01*
X213440476Y-106993390D02*
X213440476Y-107374342D01*
X213440476Y-107374342D02*
X213488095Y-107469580D01*
X213488095Y-107469580D02*
X213535714Y-107517200D01*
X213535714Y-107517200D02*
X213630952Y-107564819D01*
X213630952Y-107564819D02*
X213821428Y-107564819D01*
X213821428Y-107564819D02*
X213916666Y-107517200D01*
X213916666Y-107517200D02*
X213964285Y-107469580D01*
X213964285Y-107469580D02*
X214011904Y-107374342D01*
X214011904Y-107374342D02*
X214011904Y-107136247D01*
X214011904Y-107136247D02*
X213964285Y-107041009D01*
X213964285Y-107041009D02*
X213916666Y-106993390D01*
X213916666Y-106993390D02*
X213821428Y-106945771D01*
X213821428Y-106945771D02*
X213630952Y-106945771D01*
X213630952Y-106945771D02*
X213535714Y-106993390D01*
X213535714Y-106993390D02*
X213488095Y-107041009D01*
X213488095Y-107041009D02*
X213440476Y-107136247D01*
D11*
X211221428Y-104372371D02*
X210878571Y-104372371D01*
X211050000Y-104372371D02*
X211050000Y-103772371D01*
X211050000Y-103772371D02*
X210992857Y-103858085D01*
X210992857Y-103858085D02*
X210935714Y-103915228D01*
X210935714Y-103915228D02*
X210878571Y-103943800D01*
D10*
X121535714Y-107564819D02*
X121535714Y-106564819D01*
X121535714Y-106564819D02*
X121773809Y-106564819D01*
X121773809Y-106564819D02*
X121916666Y-106612438D01*
X121916666Y-106612438D02*
X122011904Y-106707676D01*
X122011904Y-106707676D02*
X122059523Y-106802914D01*
X122059523Y-106802914D02*
X122107142Y-106993390D01*
X122107142Y-106993390D02*
X122107142Y-107136247D01*
X122107142Y-107136247D02*
X122059523Y-107326723D01*
X122059523Y-107326723D02*
X122011904Y-107421961D01*
X122011904Y-107421961D02*
X121916666Y-107517200D01*
X121916666Y-107517200D02*
X121773809Y-107564819D01*
X121773809Y-107564819D02*
X121535714Y-107564819D01*
X122964285Y-106898152D02*
X122964285Y-107564819D01*
X122726190Y-106517200D02*
X122488095Y-107231485D01*
X122488095Y-107231485D02*
X123107142Y-107231485D01*
X123678571Y-106564819D02*
X123773809Y-106564819D01*
X123773809Y-106564819D02*
X123869047Y-106612438D01*
X123869047Y-106612438D02*
X123916666Y-106660057D01*
X123916666Y-106660057D02*
X123964285Y-106755295D01*
X123964285Y-106755295D02*
X124011904Y-106945771D01*
X124011904Y-106945771D02*
X124011904Y-107183866D01*
X124011904Y-107183866D02*
X123964285Y-107374342D01*
X123964285Y-107374342D02*
X123916666Y-107469580D01*
X123916666Y-107469580D02*
X123869047Y-107517200D01*
X123869047Y-107517200D02*
X123773809Y-107564819D01*
X123773809Y-107564819D02*
X123678571Y-107564819D01*
X123678571Y-107564819D02*
X123583333Y-107517200D01*
X123583333Y-107517200D02*
X123535714Y-107469580D01*
X123535714Y-107469580D02*
X123488095Y-107374342D01*
X123488095Y-107374342D02*
X123440476Y-107183866D01*
X123440476Y-107183866D02*
X123440476Y-106945771D01*
X123440476Y-106945771D02*
X123488095Y-106755295D01*
X123488095Y-106755295D02*
X123535714Y-106660057D01*
X123535714Y-106660057D02*
X123583333Y-106612438D01*
X123583333Y-106612438D02*
X123678571Y-106564819D01*
D11*
X121221428Y-104372371D02*
X120878571Y-104372371D01*
X121050000Y-104372371D02*
X121050000Y-103772371D01*
X121050000Y-103772371D02*
X120992857Y-103858085D01*
X120992857Y-103858085D02*
X120935714Y-103915228D01*
X120935714Y-103915228D02*
X120878571Y-103943800D01*
D10*
X132785714Y-107564819D02*
X132785714Y-106564819D01*
X132785714Y-106564819D02*
X133023809Y-106564819D01*
X133023809Y-106564819D02*
X133166666Y-106612438D01*
X133166666Y-106612438D02*
X133261904Y-106707676D01*
X133261904Y-106707676D02*
X133309523Y-106802914D01*
X133309523Y-106802914D02*
X133357142Y-106993390D01*
X133357142Y-106993390D02*
X133357142Y-107136247D01*
X133357142Y-107136247D02*
X133309523Y-107326723D01*
X133309523Y-107326723D02*
X133261904Y-107421961D01*
X133261904Y-107421961D02*
X133166666Y-107517200D01*
X133166666Y-107517200D02*
X133023809Y-107564819D01*
X133023809Y-107564819D02*
X132785714Y-107564819D01*
X133690476Y-106564819D02*
X134309523Y-106564819D01*
X134309523Y-106564819D02*
X133976190Y-106945771D01*
X133976190Y-106945771D02*
X134119047Y-106945771D01*
X134119047Y-106945771D02*
X134214285Y-106993390D01*
X134214285Y-106993390D02*
X134261904Y-107041009D01*
X134261904Y-107041009D02*
X134309523Y-107136247D01*
X134309523Y-107136247D02*
X134309523Y-107374342D01*
X134309523Y-107374342D02*
X134261904Y-107469580D01*
X134261904Y-107469580D02*
X134214285Y-107517200D01*
X134214285Y-107517200D02*
X134119047Y-107564819D01*
X134119047Y-107564819D02*
X133833333Y-107564819D01*
X133833333Y-107564819D02*
X133738095Y-107517200D01*
X133738095Y-107517200D02*
X133690476Y-107469580D01*
X134642857Y-106564819D02*
X135309523Y-106564819D01*
X135309523Y-106564819D02*
X134880952Y-107564819D01*
D11*
X132471428Y-104372371D02*
X132128571Y-104372371D01*
X132300000Y-104372371D02*
X132300000Y-103772371D01*
X132300000Y-103772371D02*
X132242857Y-103858085D01*
X132242857Y-103858085D02*
X132185714Y-103915228D01*
X132185714Y-103915228D02*
X132128571Y-103943800D01*
D10*
X102785714Y-107564819D02*
X102785714Y-106564819D01*
X102785714Y-106564819D02*
X103023809Y-106564819D01*
X103023809Y-106564819D02*
X103166666Y-106612438D01*
X103166666Y-106612438D02*
X103261904Y-106707676D01*
X103261904Y-106707676D02*
X103309523Y-106802914D01*
X103309523Y-106802914D02*
X103357142Y-106993390D01*
X103357142Y-106993390D02*
X103357142Y-107136247D01*
X103357142Y-107136247D02*
X103309523Y-107326723D01*
X103309523Y-107326723D02*
X103261904Y-107421961D01*
X103261904Y-107421961D02*
X103166666Y-107517200D01*
X103166666Y-107517200D02*
X103023809Y-107564819D01*
X103023809Y-107564819D02*
X102785714Y-107564819D01*
X104214285Y-106898152D02*
X104214285Y-107564819D01*
X103976190Y-106517200D02*
X103738095Y-107231485D01*
X103738095Y-107231485D02*
X104357142Y-107231485D01*
X105214285Y-106564819D02*
X104738095Y-106564819D01*
X104738095Y-106564819D02*
X104690476Y-107041009D01*
X104690476Y-107041009D02*
X104738095Y-106993390D01*
X104738095Y-106993390D02*
X104833333Y-106945771D01*
X104833333Y-106945771D02*
X105071428Y-106945771D01*
X105071428Y-106945771D02*
X105166666Y-106993390D01*
X105166666Y-106993390D02*
X105214285Y-107041009D01*
X105214285Y-107041009D02*
X105261904Y-107136247D01*
X105261904Y-107136247D02*
X105261904Y-107374342D01*
X105261904Y-107374342D02*
X105214285Y-107469580D01*
X105214285Y-107469580D02*
X105166666Y-107517200D01*
X105166666Y-107517200D02*
X105071428Y-107564819D01*
X105071428Y-107564819D02*
X104833333Y-107564819D01*
X104833333Y-107564819D02*
X104738095Y-107517200D01*
X104738095Y-107517200D02*
X104690476Y-107469580D01*
D11*
X102471428Y-104372371D02*
X102128571Y-104372371D01*
X102300000Y-104372371D02*
X102300000Y-103772371D01*
X102300000Y-103772371D02*
X102242857Y-103858085D01*
X102242857Y-103858085D02*
X102185714Y-103915228D01*
X102185714Y-103915228D02*
X102128571Y-103943800D01*
D10*
X253261905Y-107564819D02*
X253261905Y-106564819D01*
X253261905Y-106564819D02*
X253500000Y-106564819D01*
X253500000Y-106564819D02*
X253642857Y-106612438D01*
X253642857Y-106612438D02*
X253738095Y-106707676D01*
X253738095Y-106707676D02*
X253785714Y-106802914D01*
X253785714Y-106802914D02*
X253833333Y-106993390D01*
X253833333Y-106993390D02*
X253833333Y-107136247D01*
X253833333Y-107136247D02*
X253785714Y-107326723D01*
X253785714Y-107326723D02*
X253738095Y-107421961D01*
X253738095Y-107421961D02*
X253642857Y-107517200D01*
X253642857Y-107517200D02*
X253500000Y-107564819D01*
X253500000Y-107564819D02*
X253261905Y-107564819D01*
X254738095Y-106564819D02*
X254261905Y-106564819D01*
X254261905Y-106564819D02*
X254214286Y-107041009D01*
X254214286Y-107041009D02*
X254261905Y-106993390D01*
X254261905Y-106993390D02*
X254357143Y-106945771D01*
X254357143Y-106945771D02*
X254595238Y-106945771D01*
X254595238Y-106945771D02*
X254690476Y-106993390D01*
X254690476Y-106993390D02*
X254738095Y-107041009D01*
X254738095Y-107041009D02*
X254785714Y-107136247D01*
X254785714Y-107136247D02*
X254785714Y-107374342D01*
X254785714Y-107374342D02*
X254738095Y-107469580D01*
X254738095Y-107469580D02*
X254690476Y-107517200D01*
X254690476Y-107517200D02*
X254595238Y-107564819D01*
X254595238Y-107564819D02*
X254357143Y-107564819D01*
X254357143Y-107564819D02*
X254261905Y-107517200D01*
X254261905Y-107517200D02*
X254214286Y-107469580D01*
D11*
X252471428Y-104372371D02*
X252128571Y-104372371D01*
X252300000Y-104372371D02*
X252300000Y-103772371D01*
X252300000Y-103772371D02*
X252242857Y-103858085D01*
X252242857Y-103858085D02*
X252185714Y-103915228D01*
X252185714Y-103915228D02*
X252128571Y-103943800D01*
D10*
X106535714Y-107564819D02*
X106535714Y-106564819D01*
X106535714Y-106564819D02*
X106773809Y-106564819D01*
X106773809Y-106564819D02*
X106916666Y-106612438D01*
X106916666Y-106612438D02*
X107011904Y-106707676D01*
X107011904Y-106707676D02*
X107059523Y-106802914D01*
X107059523Y-106802914D02*
X107107142Y-106993390D01*
X107107142Y-106993390D02*
X107107142Y-107136247D01*
X107107142Y-107136247D02*
X107059523Y-107326723D01*
X107059523Y-107326723D02*
X107011904Y-107421961D01*
X107011904Y-107421961D02*
X106916666Y-107517200D01*
X106916666Y-107517200D02*
X106773809Y-107564819D01*
X106773809Y-107564819D02*
X106535714Y-107564819D01*
X107964285Y-106898152D02*
X107964285Y-107564819D01*
X107726190Y-106517200D02*
X107488095Y-107231485D01*
X107488095Y-107231485D02*
X108107142Y-107231485D01*
X108916666Y-106898152D02*
X108916666Y-107564819D01*
X108678571Y-106517200D02*
X108440476Y-107231485D01*
X108440476Y-107231485D02*
X109059523Y-107231485D01*
D11*
X106221428Y-104372371D02*
X105878571Y-104372371D01*
X106050000Y-104372371D02*
X106050000Y-103772371D01*
X106050000Y-103772371D02*
X105992857Y-103858085D01*
X105992857Y-103858085D02*
X105935714Y-103915228D01*
X105935714Y-103915228D02*
X105878571Y-103943800D01*
D10*
X84035714Y-107564819D02*
X84035714Y-106564819D01*
X84035714Y-106564819D02*
X84273809Y-106564819D01*
X84273809Y-106564819D02*
X84416666Y-106612438D01*
X84416666Y-106612438D02*
X84511904Y-106707676D01*
X84511904Y-106707676D02*
X84559523Y-106802914D01*
X84559523Y-106802914D02*
X84607142Y-106993390D01*
X84607142Y-106993390D02*
X84607142Y-107136247D01*
X84607142Y-107136247D02*
X84559523Y-107326723D01*
X84559523Y-107326723D02*
X84511904Y-107421961D01*
X84511904Y-107421961D02*
X84416666Y-107517200D01*
X84416666Y-107517200D02*
X84273809Y-107564819D01*
X84273809Y-107564819D02*
X84035714Y-107564819D01*
X85511904Y-106564819D02*
X85035714Y-106564819D01*
X85035714Y-106564819D02*
X84988095Y-107041009D01*
X84988095Y-107041009D02*
X85035714Y-106993390D01*
X85035714Y-106993390D02*
X85130952Y-106945771D01*
X85130952Y-106945771D02*
X85369047Y-106945771D01*
X85369047Y-106945771D02*
X85464285Y-106993390D01*
X85464285Y-106993390D02*
X85511904Y-107041009D01*
X85511904Y-107041009D02*
X85559523Y-107136247D01*
X85559523Y-107136247D02*
X85559523Y-107374342D01*
X85559523Y-107374342D02*
X85511904Y-107469580D01*
X85511904Y-107469580D02*
X85464285Y-107517200D01*
X85464285Y-107517200D02*
X85369047Y-107564819D01*
X85369047Y-107564819D02*
X85130952Y-107564819D01*
X85130952Y-107564819D02*
X85035714Y-107517200D01*
X85035714Y-107517200D02*
X84988095Y-107469580D01*
X86178571Y-106564819D02*
X86273809Y-106564819D01*
X86273809Y-106564819D02*
X86369047Y-106612438D01*
X86369047Y-106612438D02*
X86416666Y-106660057D01*
X86416666Y-106660057D02*
X86464285Y-106755295D01*
X86464285Y-106755295D02*
X86511904Y-106945771D01*
X86511904Y-106945771D02*
X86511904Y-107183866D01*
X86511904Y-107183866D02*
X86464285Y-107374342D01*
X86464285Y-107374342D02*
X86416666Y-107469580D01*
X86416666Y-107469580D02*
X86369047Y-107517200D01*
X86369047Y-107517200D02*
X86273809Y-107564819D01*
X86273809Y-107564819D02*
X86178571Y-107564819D01*
X86178571Y-107564819D02*
X86083333Y-107517200D01*
X86083333Y-107517200D02*
X86035714Y-107469580D01*
X86035714Y-107469580D02*
X85988095Y-107374342D01*
X85988095Y-107374342D02*
X85940476Y-107183866D01*
X85940476Y-107183866D02*
X85940476Y-106945771D01*
X85940476Y-106945771D02*
X85988095Y-106755295D01*
X85988095Y-106755295D02*
X86035714Y-106660057D01*
X86035714Y-106660057D02*
X86083333Y-106612438D01*
X86083333Y-106612438D02*
X86178571Y-106564819D01*
D11*
X83721428Y-104372371D02*
X83378571Y-104372371D01*
X83550000Y-104372371D02*
X83550000Y-103772371D01*
X83550000Y-103772371D02*
X83492857Y-103858085D01*
X83492857Y-103858085D02*
X83435714Y-103915228D01*
X83435714Y-103915228D02*
X83378571Y-103943800D01*
D10*
X144035714Y-107564819D02*
X144035714Y-106564819D01*
X144035714Y-106564819D02*
X144273809Y-106564819D01*
X144273809Y-106564819D02*
X144416666Y-106612438D01*
X144416666Y-106612438D02*
X144511904Y-106707676D01*
X144511904Y-106707676D02*
X144559523Y-106802914D01*
X144559523Y-106802914D02*
X144607142Y-106993390D01*
X144607142Y-106993390D02*
X144607142Y-107136247D01*
X144607142Y-107136247D02*
X144559523Y-107326723D01*
X144559523Y-107326723D02*
X144511904Y-107421961D01*
X144511904Y-107421961D02*
X144416666Y-107517200D01*
X144416666Y-107517200D02*
X144273809Y-107564819D01*
X144273809Y-107564819D02*
X144035714Y-107564819D01*
X144940476Y-106564819D02*
X145559523Y-106564819D01*
X145559523Y-106564819D02*
X145226190Y-106945771D01*
X145226190Y-106945771D02*
X145369047Y-106945771D01*
X145369047Y-106945771D02*
X145464285Y-106993390D01*
X145464285Y-106993390D02*
X145511904Y-107041009D01*
X145511904Y-107041009D02*
X145559523Y-107136247D01*
X145559523Y-107136247D02*
X145559523Y-107374342D01*
X145559523Y-107374342D02*
X145511904Y-107469580D01*
X145511904Y-107469580D02*
X145464285Y-107517200D01*
X145464285Y-107517200D02*
X145369047Y-107564819D01*
X145369047Y-107564819D02*
X145083333Y-107564819D01*
X145083333Y-107564819D02*
X144988095Y-107517200D01*
X144988095Y-107517200D02*
X144940476Y-107469580D01*
X146416666Y-106898152D02*
X146416666Y-107564819D01*
X146178571Y-106517200D02*
X145940476Y-107231485D01*
X145940476Y-107231485D02*
X146559523Y-107231485D01*
D11*
X143721428Y-104372371D02*
X143378571Y-104372371D01*
X143550000Y-104372371D02*
X143550000Y-103772371D01*
X143550000Y-103772371D02*
X143492857Y-103858085D01*
X143492857Y-103858085D02*
X143435714Y-103915228D01*
X143435714Y-103915228D02*
X143378571Y-103943800D01*
D10*
X219035714Y-107564819D02*
X219035714Y-106564819D01*
X219035714Y-106564819D02*
X219273809Y-106564819D01*
X219273809Y-106564819D02*
X219416666Y-106612438D01*
X219416666Y-106612438D02*
X219511904Y-106707676D01*
X219511904Y-106707676D02*
X219559523Y-106802914D01*
X219559523Y-106802914D02*
X219607142Y-106993390D01*
X219607142Y-106993390D02*
X219607142Y-107136247D01*
X219607142Y-107136247D02*
X219559523Y-107326723D01*
X219559523Y-107326723D02*
X219511904Y-107421961D01*
X219511904Y-107421961D02*
X219416666Y-107517200D01*
X219416666Y-107517200D02*
X219273809Y-107564819D01*
X219273809Y-107564819D02*
X219035714Y-107564819D01*
X220559523Y-107564819D02*
X219988095Y-107564819D01*
X220273809Y-107564819D02*
X220273809Y-106564819D01*
X220273809Y-106564819D02*
X220178571Y-106707676D01*
X220178571Y-106707676D02*
X220083333Y-106802914D01*
X220083333Y-106802914D02*
X219988095Y-106850533D01*
X221416666Y-106898152D02*
X221416666Y-107564819D01*
X221178571Y-106517200D02*
X220940476Y-107231485D01*
X220940476Y-107231485D02*
X221559523Y-107231485D01*
D11*
X218721428Y-104372371D02*
X218378571Y-104372371D01*
X218550000Y-104372371D02*
X218550000Y-103772371D01*
X218550000Y-103772371D02*
X218492857Y-103858085D01*
X218492857Y-103858085D02*
X218435714Y-103915228D01*
X218435714Y-103915228D02*
X218378571Y-103943800D01*
D10*
X110285714Y-107564819D02*
X110285714Y-106564819D01*
X110285714Y-106564819D02*
X110523809Y-106564819D01*
X110523809Y-106564819D02*
X110666666Y-106612438D01*
X110666666Y-106612438D02*
X110761904Y-106707676D01*
X110761904Y-106707676D02*
X110809523Y-106802914D01*
X110809523Y-106802914D02*
X110857142Y-106993390D01*
X110857142Y-106993390D02*
X110857142Y-107136247D01*
X110857142Y-107136247D02*
X110809523Y-107326723D01*
X110809523Y-107326723D02*
X110761904Y-107421961D01*
X110761904Y-107421961D02*
X110666666Y-107517200D01*
X110666666Y-107517200D02*
X110523809Y-107564819D01*
X110523809Y-107564819D02*
X110285714Y-107564819D01*
X111714285Y-106898152D02*
X111714285Y-107564819D01*
X111476190Y-106517200D02*
X111238095Y-107231485D01*
X111238095Y-107231485D02*
X111857142Y-107231485D01*
X112142857Y-106564819D02*
X112761904Y-106564819D01*
X112761904Y-106564819D02*
X112428571Y-106945771D01*
X112428571Y-106945771D02*
X112571428Y-106945771D01*
X112571428Y-106945771D02*
X112666666Y-106993390D01*
X112666666Y-106993390D02*
X112714285Y-107041009D01*
X112714285Y-107041009D02*
X112761904Y-107136247D01*
X112761904Y-107136247D02*
X112761904Y-107374342D01*
X112761904Y-107374342D02*
X112714285Y-107469580D01*
X112714285Y-107469580D02*
X112666666Y-107517200D01*
X112666666Y-107517200D02*
X112571428Y-107564819D01*
X112571428Y-107564819D02*
X112285714Y-107564819D01*
X112285714Y-107564819D02*
X112190476Y-107517200D01*
X112190476Y-107517200D02*
X112142857Y-107469580D01*
D11*
X109971428Y-104372371D02*
X109628571Y-104372371D01*
X109800000Y-104372371D02*
X109800000Y-103772371D01*
X109800000Y-103772371D02*
X109742857Y-103858085D01*
X109742857Y-103858085D02*
X109685714Y-103915228D01*
X109685714Y-103915228D02*
X109628571Y-103943800D01*
D10*
X80285714Y-107564819D02*
X80285714Y-106564819D01*
X80285714Y-106564819D02*
X80523809Y-106564819D01*
X80523809Y-106564819D02*
X80666666Y-106612438D01*
X80666666Y-106612438D02*
X80761904Y-106707676D01*
X80761904Y-106707676D02*
X80809523Y-106802914D01*
X80809523Y-106802914D02*
X80857142Y-106993390D01*
X80857142Y-106993390D02*
X80857142Y-107136247D01*
X80857142Y-107136247D02*
X80809523Y-107326723D01*
X80809523Y-107326723D02*
X80761904Y-107421961D01*
X80761904Y-107421961D02*
X80666666Y-107517200D01*
X80666666Y-107517200D02*
X80523809Y-107564819D01*
X80523809Y-107564819D02*
X80285714Y-107564819D01*
X81761904Y-106564819D02*
X81285714Y-106564819D01*
X81285714Y-106564819D02*
X81238095Y-107041009D01*
X81238095Y-107041009D02*
X81285714Y-106993390D01*
X81285714Y-106993390D02*
X81380952Y-106945771D01*
X81380952Y-106945771D02*
X81619047Y-106945771D01*
X81619047Y-106945771D02*
X81714285Y-106993390D01*
X81714285Y-106993390D02*
X81761904Y-107041009D01*
X81761904Y-107041009D02*
X81809523Y-107136247D01*
X81809523Y-107136247D02*
X81809523Y-107374342D01*
X81809523Y-107374342D02*
X81761904Y-107469580D01*
X81761904Y-107469580D02*
X81714285Y-107517200D01*
X81714285Y-107517200D02*
X81619047Y-107564819D01*
X81619047Y-107564819D02*
X81380952Y-107564819D01*
X81380952Y-107564819D02*
X81285714Y-107517200D01*
X81285714Y-107517200D02*
X81238095Y-107469580D01*
X82761904Y-107564819D02*
X82190476Y-107564819D01*
X82476190Y-107564819D02*
X82476190Y-106564819D01*
X82476190Y-106564819D02*
X82380952Y-106707676D01*
X82380952Y-106707676D02*
X82285714Y-106802914D01*
X82285714Y-106802914D02*
X82190476Y-106850533D01*
D11*
X79971428Y-104372371D02*
X79628571Y-104372371D01*
X79800000Y-104372371D02*
X79800000Y-103772371D01*
X79800000Y-103772371D02*
X79742857Y-103858085D01*
X79742857Y-103858085D02*
X79685714Y-103915228D01*
X79685714Y-103915228D02*
X79628571Y-103943800D01*
D10*
X192785714Y-107564819D02*
X192785714Y-106564819D01*
X192785714Y-106564819D02*
X193023809Y-106564819D01*
X193023809Y-106564819D02*
X193166666Y-106612438D01*
X193166666Y-106612438D02*
X193261904Y-106707676D01*
X193261904Y-106707676D02*
X193309523Y-106802914D01*
X193309523Y-106802914D02*
X193357142Y-106993390D01*
X193357142Y-106993390D02*
X193357142Y-107136247D01*
X193357142Y-107136247D02*
X193309523Y-107326723D01*
X193309523Y-107326723D02*
X193261904Y-107421961D01*
X193261904Y-107421961D02*
X193166666Y-107517200D01*
X193166666Y-107517200D02*
X193023809Y-107564819D01*
X193023809Y-107564819D02*
X192785714Y-107564819D01*
X193738095Y-106660057D02*
X193785714Y-106612438D01*
X193785714Y-106612438D02*
X193880952Y-106564819D01*
X193880952Y-106564819D02*
X194119047Y-106564819D01*
X194119047Y-106564819D02*
X194214285Y-106612438D01*
X194214285Y-106612438D02*
X194261904Y-106660057D01*
X194261904Y-106660057D02*
X194309523Y-106755295D01*
X194309523Y-106755295D02*
X194309523Y-106850533D01*
X194309523Y-106850533D02*
X194261904Y-106993390D01*
X194261904Y-106993390D02*
X193690476Y-107564819D01*
X193690476Y-107564819D02*
X194309523Y-107564819D01*
X195261904Y-107564819D02*
X194690476Y-107564819D01*
X194976190Y-107564819D02*
X194976190Y-106564819D01*
X194976190Y-106564819D02*
X194880952Y-106707676D01*
X194880952Y-106707676D02*
X194785714Y-106802914D01*
X194785714Y-106802914D02*
X194690476Y-106850533D01*
D11*
X192471428Y-104372371D02*
X192128571Y-104372371D01*
X192300000Y-104372371D02*
X192300000Y-103772371D01*
X192300000Y-103772371D02*
X192242857Y-103858085D01*
X192242857Y-103858085D02*
X192185714Y-103915228D01*
X192185714Y-103915228D02*
X192128571Y-103943800D01*
D10*
X264511905Y-107564819D02*
X264511905Y-106564819D01*
X264511905Y-106564819D02*
X264750000Y-106564819D01*
X264750000Y-106564819D02*
X264892857Y-106612438D01*
X264892857Y-106612438D02*
X264988095Y-106707676D01*
X264988095Y-106707676D02*
X265035714Y-106802914D01*
X265035714Y-106802914D02*
X265083333Y-106993390D01*
X265083333Y-106993390D02*
X265083333Y-107136247D01*
X265083333Y-107136247D02*
X265035714Y-107326723D01*
X265035714Y-107326723D02*
X264988095Y-107421961D01*
X264988095Y-107421961D02*
X264892857Y-107517200D01*
X264892857Y-107517200D02*
X264750000Y-107564819D01*
X264750000Y-107564819D02*
X264511905Y-107564819D01*
X265464286Y-106660057D02*
X265511905Y-106612438D01*
X265511905Y-106612438D02*
X265607143Y-106564819D01*
X265607143Y-106564819D02*
X265845238Y-106564819D01*
X265845238Y-106564819D02*
X265940476Y-106612438D01*
X265940476Y-106612438D02*
X265988095Y-106660057D01*
X265988095Y-106660057D02*
X266035714Y-106755295D01*
X266035714Y-106755295D02*
X266035714Y-106850533D01*
X266035714Y-106850533D02*
X265988095Y-106993390D01*
X265988095Y-106993390D02*
X265416667Y-107564819D01*
X265416667Y-107564819D02*
X266035714Y-107564819D01*
D11*
X263721428Y-104372371D02*
X263378571Y-104372371D01*
X263550000Y-104372371D02*
X263550000Y-103772371D01*
X263550000Y-103772371D02*
X263492857Y-103858085D01*
X263492857Y-103858085D02*
X263435714Y-103915228D01*
X263435714Y-103915228D02*
X263378571Y-103943800D01*
D10*
X166535714Y-107564819D02*
X166535714Y-106564819D01*
X166535714Y-106564819D02*
X166773809Y-106564819D01*
X166773809Y-106564819D02*
X166916666Y-106612438D01*
X166916666Y-106612438D02*
X167011904Y-106707676D01*
X167011904Y-106707676D02*
X167059523Y-106802914D01*
X167059523Y-106802914D02*
X167107142Y-106993390D01*
X167107142Y-106993390D02*
X167107142Y-107136247D01*
X167107142Y-107136247D02*
X167059523Y-107326723D01*
X167059523Y-107326723D02*
X167011904Y-107421961D01*
X167011904Y-107421961D02*
X166916666Y-107517200D01*
X166916666Y-107517200D02*
X166773809Y-107564819D01*
X166773809Y-107564819D02*
X166535714Y-107564819D01*
X167488095Y-106660057D02*
X167535714Y-106612438D01*
X167535714Y-106612438D02*
X167630952Y-106564819D01*
X167630952Y-106564819D02*
X167869047Y-106564819D01*
X167869047Y-106564819D02*
X167964285Y-106612438D01*
X167964285Y-106612438D02*
X168011904Y-106660057D01*
X168011904Y-106660057D02*
X168059523Y-106755295D01*
X168059523Y-106755295D02*
X168059523Y-106850533D01*
X168059523Y-106850533D02*
X168011904Y-106993390D01*
X168011904Y-106993390D02*
X167440476Y-107564819D01*
X167440476Y-107564819D02*
X168059523Y-107564819D01*
X168630952Y-106993390D02*
X168535714Y-106945771D01*
X168535714Y-106945771D02*
X168488095Y-106898152D01*
X168488095Y-106898152D02*
X168440476Y-106802914D01*
X168440476Y-106802914D02*
X168440476Y-106755295D01*
X168440476Y-106755295D02*
X168488095Y-106660057D01*
X168488095Y-106660057D02*
X168535714Y-106612438D01*
X168535714Y-106612438D02*
X168630952Y-106564819D01*
X168630952Y-106564819D02*
X168821428Y-106564819D01*
X168821428Y-106564819D02*
X168916666Y-106612438D01*
X168916666Y-106612438D02*
X168964285Y-106660057D01*
X168964285Y-106660057D02*
X169011904Y-106755295D01*
X169011904Y-106755295D02*
X169011904Y-106802914D01*
X169011904Y-106802914D02*
X168964285Y-106898152D01*
X168964285Y-106898152D02*
X168916666Y-106945771D01*
X168916666Y-106945771D02*
X168821428Y-106993390D01*
X168821428Y-106993390D02*
X168630952Y-106993390D01*
X168630952Y-106993390D02*
X168535714Y-107041009D01*
X168535714Y-107041009D02*
X168488095Y-107088628D01*
X168488095Y-107088628D02*
X168440476Y-107183866D01*
X168440476Y-107183866D02*
X168440476Y-107374342D01*
X168440476Y-107374342D02*
X168488095Y-107469580D01*
X168488095Y-107469580D02*
X168535714Y-107517200D01*
X168535714Y-107517200D02*
X168630952Y-107564819D01*
X168630952Y-107564819D02*
X168821428Y-107564819D01*
X168821428Y-107564819D02*
X168916666Y-107517200D01*
X168916666Y-107517200D02*
X168964285Y-107469580D01*
X168964285Y-107469580D02*
X169011904Y-107374342D01*
X169011904Y-107374342D02*
X169011904Y-107183866D01*
X169011904Y-107183866D02*
X168964285Y-107088628D01*
X168964285Y-107088628D02*
X168916666Y-107041009D01*
X168916666Y-107041009D02*
X168821428Y-106993390D01*
D11*
X166221428Y-104372371D02*
X165878571Y-104372371D01*
X166050000Y-104372371D02*
X166050000Y-103772371D01*
X166050000Y-103772371D02*
X165992857Y-103858085D01*
X165992857Y-103858085D02*
X165935714Y-103915228D01*
X165935714Y-103915228D02*
X165878571Y-103943800D01*
D10*
X242011905Y-107564819D02*
X242011905Y-106564819D01*
X242011905Y-106564819D02*
X242250000Y-106564819D01*
X242250000Y-106564819D02*
X242392857Y-106612438D01*
X242392857Y-106612438D02*
X242488095Y-106707676D01*
X242488095Y-106707676D02*
X242535714Y-106802914D01*
X242535714Y-106802914D02*
X242583333Y-106993390D01*
X242583333Y-106993390D02*
X242583333Y-107136247D01*
X242583333Y-107136247D02*
X242535714Y-107326723D01*
X242535714Y-107326723D02*
X242488095Y-107421961D01*
X242488095Y-107421961D02*
X242392857Y-107517200D01*
X242392857Y-107517200D02*
X242250000Y-107564819D01*
X242250000Y-107564819D02*
X242011905Y-107564819D01*
X243154762Y-106993390D02*
X243059524Y-106945771D01*
X243059524Y-106945771D02*
X243011905Y-106898152D01*
X243011905Y-106898152D02*
X242964286Y-106802914D01*
X242964286Y-106802914D02*
X242964286Y-106755295D01*
X242964286Y-106755295D02*
X243011905Y-106660057D01*
X243011905Y-106660057D02*
X243059524Y-106612438D01*
X243059524Y-106612438D02*
X243154762Y-106564819D01*
X243154762Y-106564819D02*
X243345238Y-106564819D01*
X243345238Y-106564819D02*
X243440476Y-106612438D01*
X243440476Y-106612438D02*
X243488095Y-106660057D01*
X243488095Y-106660057D02*
X243535714Y-106755295D01*
X243535714Y-106755295D02*
X243535714Y-106802914D01*
X243535714Y-106802914D02*
X243488095Y-106898152D01*
X243488095Y-106898152D02*
X243440476Y-106945771D01*
X243440476Y-106945771D02*
X243345238Y-106993390D01*
X243345238Y-106993390D02*
X243154762Y-106993390D01*
X243154762Y-106993390D02*
X243059524Y-107041009D01*
X243059524Y-107041009D02*
X243011905Y-107088628D01*
X243011905Y-107088628D02*
X242964286Y-107183866D01*
X242964286Y-107183866D02*
X242964286Y-107374342D01*
X242964286Y-107374342D02*
X243011905Y-107469580D01*
X243011905Y-107469580D02*
X243059524Y-107517200D01*
X243059524Y-107517200D02*
X243154762Y-107564819D01*
X243154762Y-107564819D02*
X243345238Y-107564819D01*
X243345238Y-107564819D02*
X243440476Y-107517200D01*
X243440476Y-107517200D02*
X243488095Y-107469580D01*
X243488095Y-107469580D02*
X243535714Y-107374342D01*
X243535714Y-107374342D02*
X243535714Y-107183866D01*
X243535714Y-107183866D02*
X243488095Y-107088628D01*
X243488095Y-107088628D02*
X243440476Y-107041009D01*
X243440476Y-107041009D02*
X243345238Y-106993390D01*
D11*
X241221428Y-104372371D02*
X240878571Y-104372371D01*
X241050000Y-104372371D02*
X241050000Y-103772371D01*
X241050000Y-103772371D02*
X240992857Y-103858085D01*
X240992857Y-103858085D02*
X240935714Y-103915228D01*
X240935714Y-103915228D02*
X240878571Y-103943800D01*
D10*
X268261905Y-107564819D02*
X268261905Y-106564819D01*
X268261905Y-106564819D02*
X268500000Y-106564819D01*
X268500000Y-106564819D02*
X268642857Y-106612438D01*
X268642857Y-106612438D02*
X268738095Y-106707676D01*
X268738095Y-106707676D02*
X268785714Y-106802914D01*
X268785714Y-106802914D02*
X268833333Y-106993390D01*
X268833333Y-106993390D02*
X268833333Y-107136247D01*
X268833333Y-107136247D02*
X268785714Y-107326723D01*
X268785714Y-107326723D02*
X268738095Y-107421961D01*
X268738095Y-107421961D02*
X268642857Y-107517200D01*
X268642857Y-107517200D02*
X268500000Y-107564819D01*
X268500000Y-107564819D02*
X268261905Y-107564819D01*
X269785714Y-107564819D02*
X269214286Y-107564819D01*
X269500000Y-107564819D02*
X269500000Y-106564819D01*
X269500000Y-106564819D02*
X269404762Y-106707676D01*
X269404762Y-106707676D02*
X269309524Y-106802914D01*
X269309524Y-106802914D02*
X269214286Y-106850533D01*
D11*
X267471428Y-104372371D02*
X267128571Y-104372371D01*
X267300000Y-104372371D02*
X267300000Y-103772371D01*
X267300000Y-103772371D02*
X267242857Y-103858085D01*
X267242857Y-103858085D02*
X267185714Y-103915228D01*
X267185714Y-103915228D02*
X267128571Y-103943800D01*
D10*
X230285714Y-107564819D02*
X230285714Y-106564819D01*
X230285714Y-106564819D02*
X230523809Y-106564819D01*
X230523809Y-106564819D02*
X230666666Y-106612438D01*
X230666666Y-106612438D02*
X230761904Y-106707676D01*
X230761904Y-106707676D02*
X230809523Y-106802914D01*
X230809523Y-106802914D02*
X230857142Y-106993390D01*
X230857142Y-106993390D02*
X230857142Y-107136247D01*
X230857142Y-107136247D02*
X230809523Y-107326723D01*
X230809523Y-107326723D02*
X230761904Y-107421961D01*
X230761904Y-107421961D02*
X230666666Y-107517200D01*
X230666666Y-107517200D02*
X230523809Y-107564819D01*
X230523809Y-107564819D02*
X230285714Y-107564819D01*
X231809523Y-107564819D02*
X231238095Y-107564819D01*
X231523809Y-107564819D02*
X231523809Y-106564819D01*
X231523809Y-106564819D02*
X231428571Y-106707676D01*
X231428571Y-106707676D02*
X231333333Y-106802914D01*
X231333333Y-106802914D02*
X231238095Y-106850533D01*
X232761904Y-107564819D02*
X232190476Y-107564819D01*
X232476190Y-107564819D02*
X232476190Y-106564819D01*
X232476190Y-106564819D02*
X232380952Y-106707676D01*
X232380952Y-106707676D02*
X232285714Y-106802914D01*
X232285714Y-106802914D02*
X232190476Y-106850533D01*
D11*
X229971428Y-104372371D02*
X229628571Y-104372371D01*
X229800000Y-104372371D02*
X229800000Y-103772371D01*
X229800000Y-103772371D02*
X229742857Y-103858085D01*
X229742857Y-103858085D02*
X229685714Y-103915228D01*
X229685714Y-103915228D02*
X229628571Y-103943800D01*
D10*
X174035714Y-107564819D02*
X174035714Y-106564819D01*
X174035714Y-106564819D02*
X174273809Y-106564819D01*
X174273809Y-106564819D02*
X174416666Y-106612438D01*
X174416666Y-106612438D02*
X174511904Y-106707676D01*
X174511904Y-106707676D02*
X174559523Y-106802914D01*
X174559523Y-106802914D02*
X174607142Y-106993390D01*
X174607142Y-106993390D02*
X174607142Y-107136247D01*
X174607142Y-107136247D02*
X174559523Y-107326723D01*
X174559523Y-107326723D02*
X174511904Y-107421961D01*
X174511904Y-107421961D02*
X174416666Y-107517200D01*
X174416666Y-107517200D02*
X174273809Y-107564819D01*
X174273809Y-107564819D02*
X174035714Y-107564819D01*
X174988095Y-106660057D02*
X175035714Y-106612438D01*
X175035714Y-106612438D02*
X175130952Y-106564819D01*
X175130952Y-106564819D02*
X175369047Y-106564819D01*
X175369047Y-106564819D02*
X175464285Y-106612438D01*
X175464285Y-106612438D02*
X175511904Y-106660057D01*
X175511904Y-106660057D02*
X175559523Y-106755295D01*
X175559523Y-106755295D02*
X175559523Y-106850533D01*
X175559523Y-106850533D02*
X175511904Y-106993390D01*
X175511904Y-106993390D02*
X174940476Y-107564819D01*
X174940476Y-107564819D02*
X175559523Y-107564819D01*
X176416666Y-106564819D02*
X176226190Y-106564819D01*
X176226190Y-106564819D02*
X176130952Y-106612438D01*
X176130952Y-106612438D02*
X176083333Y-106660057D01*
X176083333Y-106660057D02*
X175988095Y-106802914D01*
X175988095Y-106802914D02*
X175940476Y-106993390D01*
X175940476Y-106993390D02*
X175940476Y-107374342D01*
X175940476Y-107374342D02*
X175988095Y-107469580D01*
X175988095Y-107469580D02*
X176035714Y-107517200D01*
X176035714Y-107517200D02*
X176130952Y-107564819D01*
X176130952Y-107564819D02*
X176321428Y-107564819D01*
X176321428Y-107564819D02*
X176416666Y-107517200D01*
X176416666Y-107517200D02*
X176464285Y-107469580D01*
X176464285Y-107469580D02*
X176511904Y-107374342D01*
X176511904Y-107374342D02*
X176511904Y-107136247D01*
X176511904Y-107136247D02*
X176464285Y-107041009D01*
X176464285Y-107041009D02*
X176416666Y-106993390D01*
X176416666Y-106993390D02*
X176321428Y-106945771D01*
X176321428Y-106945771D02*
X176130952Y-106945771D01*
X176130952Y-106945771D02*
X176035714Y-106993390D01*
X176035714Y-106993390D02*
X175988095Y-107041009D01*
X175988095Y-107041009D02*
X175940476Y-107136247D01*
D11*
X173721428Y-104372371D02*
X173378571Y-104372371D01*
X173550000Y-104372371D02*
X173550000Y-103772371D01*
X173550000Y-103772371D02*
X173492857Y-103858085D01*
X173492857Y-103858085D02*
X173435714Y-103915228D01*
X173435714Y-103915228D02*
X173378571Y-103943800D01*
D10*
X153083333Y-113109580D02*
X153035714Y-113157200D01*
X153035714Y-113157200D02*
X152892857Y-113204819D01*
X152892857Y-113204819D02*
X152797619Y-113204819D01*
X152797619Y-113204819D02*
X152654762Y-113157200D01*
X152654762Y-113157200D02*
X152559524Y-113061961D01*
X152559524Y-113061961D02*
X152511905Y-112966723D01*
X152511905Y-112966723D02*
X152464286Y-112776247D01*
X152464286Y-112776247D02*
X152464286Y-112633390D01*
X152464286Y-112633390D02*
X152511905Y-112442914D01*
X152511905Y-112442914D02*
X152559524Y-112347676D01*
X152559524Y-112347676D02*
X152654762Y-112252438D01*
X152654762Y-112252438D02*
X152797619Y-112204819D01*
X152797619Y-112204819D02*
X152892857Y-112204819D01*
X152892857Y-112204819D02*
X153035714Y-112252438D01*
X153035714Y-112252438D02*
X153083333Y-112300057D01*
X153464286Y-112300057D02*
X153511905Y-112252438D01*
X153511905Y-112252438D02*
X153607143Y-112204819D01*
X153607143Y-112204819D02*
X153845238Y-112204819D01*
X153845238Y-112204819D02*
X153940476Y-112252438D01*
X153940476Y-112252438D02*
X153988095Y-112300057D01*
X153988095Y-112300057D02*
X154035714Y-112395295D01*
X154035714Y-112395295D02*
X154035714Y-112490533D01*
X154035714Y-112490533D02*
X153988095Y-112633390D01*
X153988095Y-112633390D02*
X153416667Y-113204819D01*
X153416667Y-113204819D02*
X154035714Y-113204819D01*
X35285714Y-107564819D02*
X35285714Y-106564819D01*
X35285714Y-106564819D02*
X35523809Y-106564819D01*
X35523809Y-106564819D02*
X35666666Y-106612438D01*
X35666666Y-106612438D02*
X35761904Y-106707676D01*
X35761904Y-106707676D02*
X35809523Y-106802914D01*
X35809523Y-106802914D02*
X35857142Y-106993390D01*
X35857142Y-106993390D02*
X35857142Y-107136247D01*
X35857142Y-107136247D02*
X35809523Y-107326723D01*
X35809523Y-107326723D02*
X35761904Y-107421961D01*
X35761904Y-107421961D02*
X35666666Y-107517200D01*
X35666666Y-107517200D02*
X35523809Y-107564819D01*
X35523809Y-107564819D02*
X35285714Y-107564819D01*
X36714285Y-106564819D02*
X36523809Y-106564819D01*
X36523809Y-106564819D02*
X36428571Y-106612438D01*
X36428571Y-106612438D02*
X36380952Y-106660057D01*
X36380952Y-106660057D02*
X36285714Y-106802914D01*
X36285714Y-106802914D02*
X36238095Y-106993390D01*
X36238095Y-106993390D02*
X36238095Y-107374342D01*
X36238095Y-107374342D02*
X36285714Y-107469580D01*
X36285714Y-107469580D02*
X36333333Y-107517200D01*
X36333333Y-107517200D02*
X36428571Y-107564819D01*
X36428571Y-107564819D02*
X36619047Y-107564819D01*
X36619047Y-107564819D02*
X36714285Y-107517200D01*
X36714285Y-107517200D02*
X36761904Y-107469580D01*
X36761904Y-107469580D02*
X36809523Y-107374342D01*
X36809523Y-107374342D02*
X36809523Y-107136247D01*
X36809523Y-107136247D02*
X36761904Y-107041009D01*
X36761904Y-107041009D02*
X36714285Y-106993390D01*
X36714285Y-106993390D02*
X36619047Y-106945771D01*
X36619047Y-106945771D02*
X36428571Y-106945771D01*
X36428571Y-106945771D02*
X36333333Y-106993390D01*
X36333333Y-106993390D02*
X36285714Y-107041009D01*
X36285714Y-107041009D02*
X36238095Y-107136247D01*
X37142857Y-106564819D02*
X37761904Y-106564819D01*
X37761904Y-106564819D02*
X37428571Y-106945771D01*
X37428571Y-106945771D02*
X37571428Y-106945771D01*
X37571428Y-106945771D02*
X37666666Y-106993390D01*
X37666666Y-106993390D02*
X37714285Y-107041009D01*
X37714285Y-107041009D02*
X37761904Y-107136247D01*
X37761904Y-107136247D02*
X37761904Y-107374342D01*
X37761904Y-107374342D02*
X37714285Y-107469580D01*
X37714285Y-107469580D02*
X37666666Y-107517200D01*
X37666666Y-107517200D02*
X37571428Y-107564819D01*
X37571428Y-107564819D02*
X37285714Y-107564819D01*
X37285714Y-107564819D02*
X37190476Y-107517200D01*
X37190476Y-107517200D02*
X37142857Y-107469580D01*
D11*
X34971428Y-104372371D02*
X34628571Y-104372371D01*
X34800000Y-104372371D02*
X34800000Y-103772371D01*
X34800000Y-103772371D02*
X34742857Y-103858085D01*
X34742857Y-103858085D02*
X34685714Y-103915228D01*
X34685714Y-103915228D02*
X34628571Y-103943800D01*
D10*
X136535714Y-107564819D02*
X136535714Y-106564819D01*
X136535714Y-106564819D02*
X136773809Y-106564819D01*
X136773809Y-106564819D02*
X136916666Y-106612438D01*
X136916666Y-106612438D02*
X137011904Y-106707676D01*
X137011904Y-106707676D02*
X137059523Y-106802914D01*
X137059523Y-106802914D02*
X137107142Y-106993390D01*
X137107142Y-106993390D02*
X137107142Y-107136247D01*
X137107142Y-107136247D02*
X137059523Y-107326723D01*
X137059523Y-107326723D02*
X137011904Y-107421961D01*
X137011904Y-107421961D02*
X136916666Y-107517200D01*
X136916666Y-107517200D02*
X136773809Y-107564819D01*
X136773809Y-107564819D02*
X136535714Y-107564819D01*
X137440476Y-106564819D02*
X138059523Y-106564819D01*
X138059523Y-106564819D02*
X137726190Y-106945771D01*
X137726190Y-106945771D02*
X137869047Y-106945771D01*
X137869047Y-106945771D02*
X137964285Y-106993390D01*
X137964285Y-106993390D02*
X138011904Y-107041009D01*
X138011904Y-107041009D02*
X138059523Y-107136247D01*
X138059523Y-107136247D02*
X138059523Y-107374342D01*
X138059523Y-107374342D02*
X138011904Y-107469580D01*
X138011904Y-107469580D02*
X137964285Y-107517200D01*
X137964285Y-107517200D02*
X137869047Y-107564819D01*
X137869047Y-107564819D02*
X137583333Y-107564819D01*
X137583333Y-107564819D02*
X137488095Y-107517200D01*
X137488095Y-107517200D02*
X137440476Y-107469580D01*
X138916666Y-106564819D02*
X138726190Y-106564819D01*
X138726190Y-106564819D02*
X138630952Y-106612438D01*
X138630952Y-106612438D02*
X138583333Y-106660057D01*
X138583333Y-106660057D02*
X138488095Y-106802914D01*
X138488095Y-106802914D02*
X138440476Y-106993390D01*
X138440476Y-106993390D02*
X138440476Y-107374342D01*
X138440476Y-107374342D02*
X138488095Y-107469580D01*
X138488095Y-107469580D02*
X138535714Y-107517200D01*
X138535714Y-107517200D02*
X138630952Y-107564819D01*
X138630952Y-107564819D02*
X138821428Y-107564819D01*
X138821428Y-107564819D02*
X138916666Y-107517200D01*
X138916666Y-107517200D02*
X138964285Y-107469580D01*
X138964285Y-107469580D02*
X139011904Y-107374342D01*
X139011904Y-107374342D02*
X139011904Y-107136247D01*
X139011904Y-107136247D02*
X138964285Y-107041009D01*
X138964285Y-107041009D02*
X138916666Y-106993390D01*
X138916666Y-106993390D02*
X138821428Y-106945771D01*
X138821428Y-106945771D02*
X138630952Y-106945771D01*
X138630952Y-106945771D02*
X138535714Y-106993390D01*
X138535714Y-106993390D02*
X138488095Y-107041009D01*
X138488095Y-107041009D02*
X138440476Y-107136247D01*
D11*
X136221428Y-104372371D02*
X135878571Y-104372371D01*
X136050000Y-104372371D02*
X136050000Y-103772371D01*
X136050000Y-103772371D02*
X135992857Y-103858085D01*
X135992857Y-103858085D02*
X135935714Y-103915228D01*
X135935714Y-103915228D02*
X135878571Y-103943800D01*
D10*
X200285714Y-107564819D02*
X200285714Y-106564819D01*
X200285714Y-106564819D02*
X200523809Y-106564819D01*
X200523809Y-106564819D02*
X200666666Y-106612438D01*
X200666666Y-106612438D02*
X200761904Y-106707676D01*
X200761904Y-106707676D02*
X200809523Y-106802914D01*
X200809523Y-106802914D02*
X200857142Y-106993390D01*
X200857142Y-106993390D02*
X200857142Y-107136247D01*
X200857142Y-107136247D02*
X200809523Y-107326723D01*
X200809523Y-107326723D02*
X200761904Y-107421961D01*
X200761904Y-107421961D02*
X200666666Y-107517200D01*
X200666666Y-107517200D02*
X200523809Y-107564819D01*
X200523809Y-107564819D02*
X200285714Y-107564819D01*
X201809523Y-107564819D02*
X201238095Y-107564819D01*
X201523809Y-107564819D02*
X201523809Y-106564819D01*
X201523809Y-106564819D02*
X201428571Y-106707676D01*
X201428571Y-106707676D02*
X201333333Y-106802914D01*
X201333333Y-106802914D02*
X201238095Y-106850533D01*
X202285714Y-107564819D02*
X202476190Y-107564819D01*
X202476190Y-107564819D02*
X202571428Y-107517200D01*
X202571428Y-107517200D02*
X202619047Y-107469580D01*
X202619047Y-107469580D02*
X202714285Y-107326723D01*
X202714285Y-107326723D02*
X202761904Y-107136247D01*
X202761904Y-107136247D02*
X202761904Y-106755295D01*
X202761904Y-106755295D02*
X202714285Y-106660057D01*
X202714285Y-106660057D02*
X202666666Y-106612438D01*
X202666666Y-106612438D02*
X202571428Y-106564819D01*
X202571428Y-106564819D02*
X202380952Y-106564819D01*
X202380952Y-106564819D02*
X202285714Y-106612438D01*
X202285714Y-106612438D02*
X202238095Y-106660057D01*
X202238095Y-106660057D02*
X202190476Y-106755295D01*
X202190476Y-106755295D02*
X202190476Y-106993390D01*
X202190476Y-106993390D02*
X202238095Y-107088628D01*
X202238095Y-107088628D02*
X202285714Y-107136247D01*
X202285714Y-107136247D02*
X202380952Y-107183866D01*
X202380952Y-107183866D02*
X202571428Y-107183866D01*
X202571428Y-107183866D02*
X202666666Y-107136247D01*
X202666666Y-107136247D02*
X202714285Y-107088628D01*
X202714285Y-107088628D02*
X202761904Y-106993390D01*
D11*
X199971428Y-104372371D02*
X199628571Y-104372371D01*
X199800000Y-104372371D02*
X199800000Y-103772371D01*
X199800000Y-103772371D02*
X199742857Y-103858085D01*
X199742857Y-103858085D02*
X199685714Y-103915228D01*
X199685714Y-103915228D02*
X199628571Y-103943800D01*
D10*
X170285714Y-107564819D02*
X170285714Y-106564819D01*
X170285714Y-106564819D02*
X170523809Y-106564819D01*
X170523809Y-106564819D02*
X170666666Y-106612438D01*
X170666666Y-106612438D02*
X170761904Y-106707676D01*
X170761904Y-106707676D02*
X170809523Y-106802914D01*
X170809523Y-106802914D02*
X170857142Y-106993390D01*
X170857142Y-106993390D02*
X170857142Y-107136247D01*
X170857142Y-107136247D02*
X170809523Y-107326723D01*
X170809523Y-107326723D02*
X170761904Y-107421961D01*
X170761904Y-107421961D02*
X170666666Y-107517200D01*
X170666666Y-107517200D02*
X170523809Y-107564819D01*
X170523809Y-107564819D02*
X170285714Y-107564819D01*
X171238095Y-106660057D02*
X171285714Y-106612438D01*
X171285714Y-106612438D02*
X171380952Y-106564819D01*
X171380952Y-106564819D02*
X171619047Y-106564819D01*
X171619047Y-106564819D02*
X171714285Y-106612438D01*
X171714285Y-106612438D02*
X171761904Y-106660057D01*
X171761904Y-106660057D02*
X171809523Y-106755295D01*
X171809523Y-106755295D02*
X171809523Y-106850533D01*
X171809523Y-106850533D02*
X171761904Y-106993390D01*
X171761904Y-106993390D02*
X171190476Y-107564819D01*
X171190476Y-107564819D02*
X171809523Y-107564819D01*
X172142857Y-106564819D02*
X172809523Y-106564819D01*
X172809523Y-106564819D02*
X172380952Y-107564819D01*
D11*
X169971428Y-104372371D02*
X169628571Y-104372371D01*
X169800000Y-104372371D02*
X169800000Y-103772371D01*
X169800000Y-103772371D02*
X169742857Y-103858085D01*
X169742857Y-103858085D02*
X169685714Y-103915228D01*
X169685714Y-103915228D02*
X169628571Y-103943800D01*
D10*
X72785714Y-107564819D02*
X72785714Y-106564819D01*
X72785714Y-106564819D02*
X73023809Y-106564819D01*
X73023809Y-106564819D02*
X73166666Y-106612438D01*
X73166666Y-106612438D02*
X73261904Y-106707676D01*
X73261904Y-106707676D02*
X73309523Y-106802914D01*
X73309523Y-106802914D02*
X73357142Y-106993390D01*
X73357142Y-106993390D02*
X73357142Y-107136247D01*
X73357142Y-107136247D02*
X73309523Y-107326723D01*
X73309523Y-107326723D02*
X73261904Y-107421961D01*
X73261904Y-107421961D02*
X73166666Y-107517200D01*
X73166666Y-107517200D02*
X73023809Y-107564819D01*
X73023809Y-107564819D02*
X72785714Y-107564819D01*
X74261904Y-106564819D02*
X73785714Y-106564819D01*
X73785714Y-106564819D02*
X73738095Y-107041009D01*
X73738095Y-107041009D02*
X73785714Y-106993390D01*
X73785714Y-106993390D02*
X73880952Y-106945771D01*
X73880952Y-106945771D02*
X74119047Y-106945771D01*
X74119047Y-106945771D02*
X74214285Y-106993390D01*
X74214285Y-106993390D02*
X74261904Y-107041009D01*
X74261904Y-107041009D02*
X74309523Y-107136247D01*
X74309523Y-107136247D02*
X74309523Y-107374342D01*
X74309523Y-107374342D02*
X74261904Y-107469580D01*
X74261904Y-107469580D02*
X74214285Y-107517200D01*
X74214285Y-107517200D02*
X74119047Y-107564819D01*
X74119047Y-107564819D02*
X73880952Y-107564819D01*
X73880952Y-107564819D02*
X73785714Y-107517200D01*
X73785714Y-107517200D02*
X73738095Y-107469580D01*
X74642857Y-106564819D02*
X75261904Y-106564819D01*
X75261904Y-106564819D02*
X74928571Y-106945771D01*
X74928571Y-106945771D02*
X75071428Y-106945771D01*
X75071428Y-106945771D02*
X75166666Y-106993390D01*
X75166666Y-106993390D02*
X75214285Y-107041009D01*
X75214285Y-107041009D02*
X75261904Y-107136247D01*
X75261904Y-107136247D02*
X75261904Y-107374342D01*
X75261904Y-107374342D02*
X75214285Y-107469580D01*
X75214285Y-107469580D02*
X75166666Y-107517200D01*
X75166666Y-107517200D02*
X75071428Y-107564819D01*
X75071428Y-107564819D02*
X74785714Y-107564819D01*
X74785714Y-107564819D02*
X74690476Y-107517200D01*
X74690476Y-107517200D02*
X74642857Y-107469580D01*
D11*
X72471428Y-104372371D02*
X72128571Y-104372371D01*
X72300000Y-104372371D02*
X72300000Y-103772371D01*
X72300000Y-103772371D02*
X72242857Y-103858085D01*
X72242857Y-103858085D02*
X72185714Y-103915228D01*
X72185714Y-103915228D02*
X72128571Y-103943800D01*
D10*
X129035714Y-107564819D02*
X129035714Y-106564819D01*
X129035714Y-106564819D02*
X129273809Y-106564819D01*
X129273809Y-106564819D02*
X129416666Y-106612438D01*
X129416666Y-106612438D02*
X129511904Y-106707676D01*
X129511904Y-106707676D02*
X129559523Y-106802914D01*
X129559523Y-106802914D02*
X129607142Y-106993390D01*
X129607142Y-106993390D02*
X129607142Y-107136247D01*
X129607142Y-107136247D02*
X129559523Y-107326723D01*
X129559523Y-107326723D02*
X129511904Y-107421961D01*
X129511904Y-107421961D02*
X129416666Y-107517200D01*
X129416666Y-107517200D02*
X129273809Y-107564819D01*
X129273809Y-107564819D02*
X129035714Y-107564819D01*
X129940476Y-106564819D02*
X130559523Y-106564819D01*
X130559523Y-106564819D02*
X130226190Y-106945771D01*
X130226190Y-106945771D02*
X130369047Y-106945771D01*
X130369047Y-106945771D02*
X130464285Y-106993390D01*
X130464285Y-106993390D02*
X130511904Y-107041009D01*
X130511904Y-107041009D02*
X130559523Y-107136247D01*
X130559523Y-107136247D02*
X130559523Y-107374342D01*
X130559523Y-107374342D02*
X130511904Y-107469580D01*
X130511904Y-107469580D02*
X130464285Y-107517200D01*
X130464285Y-107517200D02*
X130369047Y-107564819D01*
X130369047Y-107564819D02*
X130083333Y-107564819D01*
X130083333Y-107564819D02*
X129988095Y-107517200D01*
X129988095Y-107517200D02*
X129940476Y-107469580D01*
X131130952Y-106993390D02*
X131035714Y-106945771D01*
X131035714Y-106945771D02*
X130988095Y-106898152D01*
X130988095Y-106898152D02*
X130940476Y-106802914D01*
X130940476Y-106802914D02*
X130940476Y-106755295D01*
X130940476Y-106755295D02*
X130988095Y-106660057D01*
X130988095Y-106660057D02*
X131035714Y-106612438D01*
X131035714Y-106612438D02*
X131130952Y-106564819D01*
X131130952Y-106564819D02*
X131321428Y-106564819D01*
X131321428Y-106564819D02*
X131416666Y-106612438D01*
X131416666Y-106612438D02*
X131464285Y-106660057D01*
X131464285Y-106660057D02*
X131511904Y-106755295D01*
X131511904Y-106755295D02*
X131511904Y-106802914D01*
X131511904Y-106802914D02*
X131464285Y-106898152D01*
X131464285Y-106898152D02*
X131416666Y-106945771D01*
X131416666Y-106945771D02*
X131321428Y-106993390D01*
X131321428Y-106993390D02*
X131130952Y-106993390D01*
X131130952Y-106993390D02*
X131035714Y-107041009D01*
X131035714Y-107041009D02*
X130988095Y-107088628D01*
X130988095Y-107088628D02*
X130940476Y-107183866D01*
X130940476Y-107183866D02*
X130940476Y-107374342D01*
X130940476Y-107374342D02*
X130988095Y-107469580D01*
X130988095Y-107469580D02*
X131035714Y-107517200D01*
X131035714Y-107517200D02*
X131130952Y-107564819D01*
X131130952Y-107564819D02*
X131321428Y-107564819D01*
X131321428Y-107564819D02*
X131416666Y-107517200D01*
X131416666Y-107517200D02*
X131464285Y-107469580D01*
X131464285Y-107469580D02*
X131511904Y-107374342D01*
X131511904Y-107374342D02*
X131511904Y-107183866D01*
X131511904Y-107183866D02*
X131464285Y-107088628D01*
X131464285Y-107088628D02*
X131416666Y-107041009D01*
X131416666Y-107041009D02*
X131321428Y-106993390D01*
D11*
X128721428Y-104372371D02*
X128378571Y-104372371D01*
X128550000Y-104372371D02*
X128550000Y-103772371D01*
X128550000Y-103772371D02*
X128492857Y-103858085D01*
X128492857Y-103858085D02*
X128435714Y-103915228D01*
X128435714Y-103915228D02*
X128378571Y-103943800D01*
D10*
X140195833Y-100609580D02*
X140148214Y-100657200D01*
X140148214Y-100657200D02*
X140005357Y-100704819D01*
X140005357Y-100704819D02*
X139910119Y-100704819D01*
X139910119Y-100704819D02*
X139767262Y-100657200D01*
X139767262Y-100657200D02*
X139672024Y-100561961D01*
X139672024Y-100561961D02*
X139624405Y-100466723D01*
X139624405Y-100466723D02*
X139576786Y-100276247D01*
X139576786Y-100276247D02*
X139576786Y-100133390D01*
X139576786Y-100133390D02*
X139624405Y-99942914D01*
X139624405Y-99942914D02*
X139672024Y-99847676D01*
X139672024Y-99847676D02*
X139767262Y-99752438D01*
X139767262Y-99752438D02*
X139910119Y-99704819D01*
X139910119Y-99704819D02*
X140005357Y-99704819D01*
X140005357Y-99704819D02*
X140148214Y-99752438D01*
X140148214Y-99752438D02*
X140195833Y-99800057D01*
X141052976Y-99704819D02*
X140862500Y-99704819D01*
X140862500Y-99704819D02*
X140767262Y-99752438D01*
X140767262Y-99752438D02*
X140719643Y-99800057D01*
X140719643Y-99800057D02*
X140624405Y-99942914D01*
X140624405Y-99942914D02*
X140576786Y-100133390D01*
X140576786Y-100133390D02*
X140576786Y-100514342D01*
X140576786Y-100514342D02*
X140624405Y-100609580D01*
X140624405Y-100609580D02*
X140672024Y-100657200D01*
X140672024Y-100657200D02*
X140767262Y-100704819D01*
X140767262Y-100704819D02*
X140957738Y-100704819D01*
X140957738Y-100704819D02*
X141052976Y-100657200D01*
X141052976Y-100657200D02*
X141100595Y-100609580D01*
X141100595Y-100609580D02*
X141148214Y-100514342D01*
X141148214Y-100514342D02*
X141148214Y-100276247D01*
X141148214Y-100276247D02*
X141100595Y-100181009D01*
X141100595Y-100181009D02*
X141052976Y-100133390D01*
X141052976Y-100133390D02*
X140957738Y-100085771D01*
X140957738Y-100085771D02*
X140767262Y-100085771D01*
X140767262Y-100085771D02*
X140672024Y-100133390D01*
X140672024Y-100133390D02*
X140624405Y-100181009D01*
X140624405Y-100181009D02*
X140576786Y-100276247D01*
X140195833Y-99204819D02*
X139862500Y-98728628D01*
X139624405Y-99204819D02*
X139624405Y-98204819D01*
X139624405Y-98204819D02*
X140005357Y-98204819D01*
X140005357Y-98204819D02*
X140100595Y-98252438D01*
X140100595Y-98252438D02*
X140148214Y-98300057D01*
X140148214Y-98300057D02*
X140195833Y-98395295D01*
X140195833Y-98395295D02*
X140195833Y-98538152D01*
X140195833Y-98538152D02*
X140148214Y-98633390D01*
X140148214Y-98633390D02*
X140100595Y-98681009D01*
X140100595Y-98681009D02*
X140005357Y-98728628D01*
X140005357Y-98728628D02*
X139624405Y-98728628D01*
X141052976Y-98538152D02*
X141052976Y-99204819D01*
X140814881Y-98157200D02*
X140576786Y-98871485D01*
X140576786Y-98871485D02*
X141195833Y-98871485D01*
X39035714Y-107564819D02*
X39035714Y-106564819D01*
X39035714Y-106564819D02*
X39273809Y-106564819D01*
X39273809Y-106564819D02*
X39416666Y-106612438D01*
X39416666Y-106612438D02*
X39511904Y-106707676D01*
X39511904Y-106707676D02*
X39559523Y-106802914D01*
X39559523Y-106802914D02*
X39607142Y-106993390D01*
X39607142Y-106993390D02*
X39607142Y-107136247D01*
X39607142Y-107136247D02*
X39559523Y-107326723D01*
X39559523Y-107326723D02*
X39511904Y-107421961D01*
X39511904Y-107421961D02*
X39416666Y-107517200D01*
X39416666Y-107517200D02*
X39273809Y-107564819D01*
X39273809Y-107564819D02*
X39035714Y-107564819D01*
X40464285Y-106564819D02*
X40273809Y-106564819D01*
X40273809Y-106564819D02*
X40178571Y-106612438D01*
X40178571Y-106612438D02*
X40130952Y-106660057D01*
X40130952Y-106660057D02*
X40035714Y-106802914D01*
X40035714Y-106802914D02*
X39988095Y-106993390D01*
X39988095Y-106993390D02*
X39988095Y-107374342D01*
X39988095Y-107374342D02*
X40035714Y-107469580D01*
X40035714Y-107469580D02*
X40083333Y-107517200D01*
X40083333Y-107517200D02*
X40178571Y-107564819D01*
X40178571Y-107564819D02*
X40369047Y-107564819D01*
X40369047Y-107564819D02*
X40464285Y-107517200D01*
X40464285Y-107517200D02*
X40511904Y-107469580D01*
X40511904Y-107469580D02*
X40559523Y-107374342D01*
X40559523Y-107374342D02*
X40559523Y-107136247D01*
X40559523Y-107136247D02*
X40511904Y-107041009D01*
X40511904Y-107041009D02*
X40464285Y-106993390D01*
X40464285Y-106993390D02*
X40369047Y-106945771D01*
X40369047Y-106945771D02*
X40178571Y-106945771D01*
X40178571Y-106945771D02*
X40083333Y-106993390D01*
X40083333Y-106993390D02*
X40035714Y-107041009D01*
X40035714Y-107041009D02*
X39988095Y-107136247D01*
X40940476Y-106660057D02*
X40988095Y-106612438D01*
X40988095Y-106612438D02*
X41083333Y-106564819D01*
X41083333Y-106564819D02*
X41321428Y-106564819D01*
X41321428Y-106564819D02*
X41416666Y-106612438D01*
X41416666Y-106612438D02*
X41464285Y-106660057D01*
X41464285Y-106660057D02*
X41511904Y-106755295D01*
X41511904Y-106755295D02*
X41511904Y-106850533D01*
X41511904Y-106850533D02*
X41464285Y-106993390D01*
X41464285Y-106993390D02*
X40892857Y-107564819D01*
X40892857Y-107564819D02*
X41511904Y-107564819D01*
D11*
X38721428Y-104372371D02*
X38378571Y-104372371D01*
X38550000Y-104372371D02*
X38550000Y-103772371D01*
X38550000Y-103772371D02*
X38492857Y-103858085D01*
X38492857Y-103858085D02*
X38435714Y-103915228D01*
X38435714Y-103915228D02*
X38378571Y-103943800D01*
D10*
X226535714Y-107564819D02*
X226535714Y-106564819D01*
X226535714Y-106564819D02*
X226773809Y-106564819D01*
X226773809Y-106564819D02*
X226916666Y-106612438D01*
X226916666Y-106612438D02*
X227011904Y-106707676D01*
X227011904Y-106707676D02*
X227059523Y-106802914D01*
X227059523Y-106802914D02*
X227107142Y-106993390D01*
X227107142Y-106993390D02*
X227107142Y-107136247D01*
X227107142Y-107136247D02*
X227059523Y-107326723D01*
X227059523Y-107326723D02*
X227011904Y-107421961D01*
X227011904Y-107421961D02*
X226916666Y-107517200D01*
X226916666Y-107517200D02*
X226773809Y-107564819D01*
X226773809Y-107564819D02*
X226535714Y-107564819D01*
X228059523Y-107564819D02*
X227488095Y-107564819D01*
X227773809Y-107564819D02*
X227773809Y-106564819D01*
X227773809Y-106564819D02*
X227678571Y-106707676D01*
X227678571Y-106707676D02*
X227583333Y-106802914D01*
X227583333Y-106802914D02*
X227488095Y-106850533D01*
X228440476Y-106660057D02*
X228488095Y-106612438D01*
X228488095Y-106612438D02*
X228583333Y-106564819D01*
X228583333Y-106564819D02*
X228821428Y-106564819D01*
X228821428Y-106564819D02*
X228916666Y-106612438D01*
X228916666Y-106612438D02*
X228964285Y-106660057D01*
X228964285Y-106660057D02*
X229011904Y-106755295D01*
X229011904Y-106755295D02*
X229011904Y-106850533D01*
X229011904Y-106850533D02*
X228964285Y-106993390D01*
X228964285Y-106993390D02*
X228392857Y-107564819D01*
X228392857Y-107564819D02*
X229011904Y-107564819D01*
D11*
X226221428Y-104372371D02*
X225878571Y-104372371D01*
X226050000Y-104372371D02*
X226050000Y-103772371D01*
X226050000Y-103772371D02*
X225992857Y-103858085D01*
X225992857Y-103858085D02*
X225935714Y-103915228D01*
X225935714Y-103915228D02*
X225878571Y-103943800D01*
D10*
X144833333Y-111859580D02*
X144785714Y-111907200D01*
X144785714Y-111907200D02*
X144642857Y-111954819D01*
X144642857Y-111954819D02*
X144547619Y-111954819D01*
X144547619Y-111954819D02*
X144404762Y-111907200D01*
X144404762Y-111907200D02*
X144309524Y-111811961D01*
X144309524Y-111811961D02*
X144261905Y-111716723D01*
X144261905Y-111716723D02*
X144214286Y-111526247D01*
X144214286Y-111526247D02*
X144214286Y-111383390D01*
X144214286Y-111383390D02*
X144261905Y-111192914D01*
X144261905Y-111192914D02*
X144309524Y-111097676D01*
X144309524Y-111097676D02*
X144404762Y-111002438D01*
X144404762Y-111002438D02*
X144547619Y-110954819D01*
X144547619Y-110954819D02*
X144642857Y-110954819D01*
X144642857Y-110954819D02*
X144785714Y-111002438D01*
X144785714Y-111002438D02*
X144833333Y-111050057D01*
X145166667Y-110954819D02*
X145785714Y-110954819D01*
X145785714Y-110954819D02*
X145452381Y-111335771D01*
X145452381Y-111335771D02*
X145595238Y-111335771D01*
X145595238Y-111335771D02*
X145690476Y-111383390D01*
X145690476Y-111383390D02*
X145738095Y-111431009D01*
X145738095Y-111431009D02*
X145785714Y-111526247D01*
X145785714Y-111526247D02*
X145785714Y-111764342D01*
X145785714Y-111764342D02*
X145738095Y-111859580D01*
X145738095Y-111859580D02*
X145690476Y-111907200D01*
X145690476Y-111907200D02*
X145595238Y-111954819D01*
X145595238Y-111954819D02*
X145309524Y-111954819D01*
X145309524Y-111954819D02*
X145214286Y-111907200D01*
X145214286Y-111907200D02*
X145166667Y-111859580D01*
X189035714Y-107564819D02*
X189035714Y-106564819D01*
X189035714Y-106564819D02*
X189273809Y-106564819D01*
X189273809Y-106564819D02*
X189416666Y-106612438D01*
X189416666Y-106612438D02*
X189511904Y-106707676D01*
X189511904Y-106707676D02*
X189559523Y-106802914D01*
X189559523Y-106802914D02*
X189607142Y-106993390D01*
X189607142Y-106993390D02*
X189607142Y-107136247D01*
X189607142Y-107136247D02*
X189559523Y-107326723D01*
X189559523Y-107326723D02*
X189511904Y-107421961D01*
X189511904Y-107421961D02*
X189416666Y-107517200D01*
X189416666Y-107517200D02*
X189273809Y-107564819D01*
X189273809Y-107564819D02*
X189035714Y-107564819D01*
X189988095Y-106660057D02*
X190035714Y-106612438D01*
X190035714Y-106612438D02*
X190130952Y-106564819D01*
X190130952Y-106564819D02*
X190369047Y-106564819D01*
X190369047Y-106564819D02*
X190464285Y-106612438D01*
X190464285Y-106612438D02*
X190511904Y-106660057D01*
X190511904Y-106660057D02*
X190559523Y-106755295D01*
X190559523Y-106755295D02*
X190559523Y-106850533D01*
X190559523Y-106850533D02*
X190511904Y-106993390D01*
X190511904Y-106993390D02*
X189940476Y-107564819D01*
X189940476Y-107564819D02*
X190559523Y-107564819D01*
X190940476Y-106660057D02*
X190988095Y-106612438D01*
X190988095Y-106612438D02*
X191083333Y-106564819D01*
X191083333Y-106564819D02*
X191321428Y-106564819D01*
X191321428Y-106564819D02*
X191416666Y-106612438D01*
X191416666Y-106612438D02*
X191464285Y-106660057D01*
X191464285Y-106660057D02*
X191511904Y-106755295D01*
X191511904Y-106755295D02*
X191511904Y-106850533D01*
X191511904Y-106850533D02*
X191464285Y-106993390D01*
X191464285Y-106993390D02*
X190892857Y-107564819D01*
X190892857Y-107564819D02*
X191511904Y-107564819D01*
D11*
X188721428Y-104372371D02*
X188378571Y-104372371D01*
X188550000Y-104372371D02*
X188550000Y-103772371D01*
X188550000Y-103772371D02*
X188492857Y-103858085D01*
X188492857Y-103858085D02*
X188435714Y-103915228D01*
X188435714Y-103915228D02*
X188378571Y-103943800D01*
D10*
X114035714Y-107564819D02*
X114035714Y-106564819D01*
X114035714Y-106564819D02*
X114273809Y-106564819D01*
X114273809Y-106564819D02*
X114416666Y-106612438D01*
X114416666Y-106612438D02*
X114511904Y-106707676D01*
X114511904Y-106707676D02*
X114559523Y-106802914D01*
X114559523Y-106802914D02*
X114607142Y-106993390D01*
X114607142Y-106993390D02*
X114607142Y-107136247D01*
X114607142Y-107136247D02*
X114559523Y-107326723D01*
X114559523Y-107326723D02*
X114511904Y-107421961D01*
X114511904Y-107421961D02*
X114416666Y-107517200D01*
X114416666Y-107517200D02*
X114273809Y-107564819D01*
X114273809Y-107564819D02*
X114035714Y-107564819D01*
X115464285Y-106898152D02*
X115464285Y-107564819D01*
X115226190Y-106517200D02*
X114988095Y-107231485D01*
X114988095Y-107231485D02*
X115607142Y-107231485D01*
X115940476Y-106660057D02*
X115988095Y-106612438D01*
X115988095Y-106612438D02*
X116083333Y-106564819D01*
X116083333Y-106564819D02*
X116321428Y-106564819D01*
X116321428Y-106564819D02*
X116416666Y-106612438D01*
X116416666Y-106612438D02*
X116464285Y-106660057D01*
X116464285Y-106660057D02*
X116511904Y-106755295D01*
X116511904Y-106755295D02*
X116511904Y-106850533D01*
X116511904Y-106850533D02*
X116464285Y-106993390D01*
X116464285Y-106993390D02*
X115892857Y-107564819D01*
X115892857Y-107564819D02*
X116511904Y-107564819D01*
D11*
X113721428Y-104372371D02*
X113378571Y-104372371D01*
X113550000Y-104372371D02*
X113550000Y-103772371D01*
X113550000Y-103772371D02*
X113492857Y-103858085D01*
X113492857Y-103858085D02*
X113435714Y-103915228D01*
X113435714Y-103915228D02*
X113378571Y-103943800D01*
D10*
X95285714Y-107564819D02*
X95285714Y-106564819D01*
X95285714Y-106564819D02*
X95523809Y-106564819D01*
X95523809Y-106564819D02*
X95666666Y-106612438D01*
X95666666Y-106612438D02*
X95761904Y-106707676D01*
X95761904Y-106707676D02*
X95809523Y-106802914D01*
X95809523Y-106802914D02*
X95857142Y-106993390D01*
X95857142Y-106993390D02*
X95857142Y-107136247D01*
X95857142Y-107136247D02*
X95809523Y-107326723D01*
X95809523Y-107326723D02*
X95761904Y-107421961D01*
X95761904Y-107421961D02*
X95666666Y-107517200D01*
X95666666Y-107517200D02*
X95523809Y-107564819D01*
X95523809Y-107564819D02*
X95285714Y-107564819D01*
X96714285Y-106898152D02*
X96714285Y-107564819D01*
X96476190Y-106517200D02*
X96238095Y-107231485D01*
X96238095Y-107231485D02*
X96857142Y-107231485D01*
X97142857Y-106564819D02*
X97809523Y-106564819D01*
X97809523Y-106564819D02*
X97380952Y-107564819D01*
D11*
X94971428Y-104372371D02*
X94628571Y-104372371D01*
X94800000Y-104372371D02*
X94800000Y-103772371D01*
X94800000Y-103772371D02*
X94742857Y-103858085D01*
X94742857Y-103858085D02*
X94685714Y-103915228D01*
X94685714Y-103915228D02*
X94628571Y-103943800D01*
D10*
X155285714Y-107564819D02*
X155285714Y-106564819D01*
X155285714Y-106564819D02*
X155523809Y-106564819D01*
X155523809Y-106564819D02*
X155666666Y-106612438D01*
X155666666Y-106612438D02*
X155761904Y-106707676D01*
X155761904Y-106707676D02*
X155809523Y-106802914D01*
X155809523Y-106802914D02*
X155857142Y-106993390D01*
X155857142Y-106993390D02*
X155857142Y-107136247D01*
X155857142Y-107136247D02*
X155809523Y-107326723D01*
X155809523Y-107326723D02*
X155761904Y-107421961D01*
X155761904Y-107421961D02*
X155666666Y-107517200D01*
X155666666Y-107517200D02*
X155523809Y-107564819D01*
X155523809Y-107564819D02*
X155285714Y-107564819D01*
X156190476Y-106564819D02*
X156809523Y-106564819D01*
X156809523Y-106564819D02*
X156476190Y-106945771D01*
X156476190Y-106945771D02*
X156619047Y-106945771D01*
X156619047Y-106945771D02*
X156714285Y-106993390D01*
X156714285Y-106993390D02*
X156761904Y-107041009D01*
X156761904Y-107041009D02*
X156809523Y-107136247D01*
X156809523Y-107136247D02*
X156809523Y-107374342D01*
X156809523Y-107374342D02*
X156761904Y-107469580D01*
X156761904Y-107469580D02*
X156714285Y-107517200D01*
X156714285Y-107517200D02*
X156619047Y-107564819D01*
X156619047Y-107564819D02*
X156333333Y-107564819D01*
X156333333Y-107564819D02*
X156238095Y-107517200D01*
X156238095Y-107517200D02*
X156190476Y-107469580D01*
X157761904Y-107564819D02*
X157190476Y-107564819D01*
X157476190Y-107564819D02*
X157476190Y-106564819D01*
X157476190Y-106564819D02*
X157380952Y-106707676D01*
X157380952Y-106707676D02*
X157285714Y-106802914D01*
X157285714Y-106802914D02*
X157190476Y-106850533D01*
D11*
X154971428Y-104372371D02*
X154628571Y-104372371D01*
X154800000Y-104372371D02*
X154800000Y-103772371D01*
X154800000Y-103772371D02*
X154742857Y-103858085D01*
X154742857Y-103858085D02*
X154685714Y-103915228D01*
X154685714Y-103915228D02*
X154628571Y-103943800D01*
D10*
X207785714Y-107564819D02*
X207785714Y-106564819D01*
X207785714Y-106564819D02*
X208023809Y-106564819D01*
X208023809Y-106564819D02*
X208166666Y-106612438D01*
X208166666Y-106612438D02*
X208261904Y-106707676D01*
X208261904Y-106707676D02*
X208309523Y-106802914D01*
X208309523Y-106802914D02*
X208357142Y-106993390D01*
X208357142Y-106993390D02*
X208357142Y-107136247D01*
X208357142Y-107136247D02*
X208309523Y-107326723D01*
X208309523Y-107326723D02*
X208261904Y-107421961D01*
X208261904Y-107421961D02*
X208166666Y-107517200D01*
X208166666Y-107517200D02*
X208023809Y-107564819D01*
X208023809Y-107564819D02*
X207785714Y-107564819D01*
X209309523Y-107564819D02*
X208738095Y-107564819D01*
X209023809Y-107564819D02*
X209023809Y-106564819D01*
X209023809Y-106564819D02*
X208928571Y-106707676D01*
X208928571Y-106707676D02*
X208833333Y-106802914D01*
X208833333Y-106802914D02*
X208738095Y-106850533D01*
X209642857Y-106564819D02*
X210309523Y-106564819D01*
X210309523Y-106564819D02*
X209880952Y-107564819D01*
D11*
X207471428Y-104372371D02*
X207128571Y-104372371D01*
X207300000Y-104372371D02*
X207300000Y-103772371D01*
X207300000Y-103772371D02*
X207242857Y-103858085D01*
X207242857Y-103858085D02*
X207185714Y-103915228D01*
X207185714Y-103915228D02*
X207128571Y-103943800D01*
D10*
X147583333Y-115704819D02*
X147107143Y-115704819D01*
X147107143Y-115704819D02*
X147107143Y-114704819D01*
X148440476Y-115704819D02*
X147869048Y-115704819D01*
X148154762Y-115704819D02*
X148154762Y-114704819D01*
X148154762Y-114704819D02*
X148059524Y-114847676D01*
X148059524Y-114847676D02*
X147964286Y-114942914D01*
X147964286Y-114942914D02*
X147869048Y-114990533D01*
X54035714Y-107564819D02*
X54035714Y-106564819D01*
X54035714Y-106564819D02*
X54273809Y-106564819D01*
X54273809Y-106564819D02*
X54416666Y-106612438D01*
X54416666Y-106612438D02*
X54511904Y-106707676D01*
X54511904Y-106707676D02*
X54559523Y-106802914D01*
X54559523Y-106802914D02*
X54607142Y-106993390D01*
X54607142Y-106993390D02*
X54607142Y-107136247D01*
X54607142Y-107136247D02*
X54559523Y-107326723D01*
X54559523Y-107326723D02*
X54511904Y-107421961D01*
X54511904Y-107421961D02*
X54416666Y-107517200D01*
X54416666Y-107517200D02*
X54273809Y-107564819D01*
X54273809Y-107564819D02*
X54035714Y-107564819D01*
X55511904Y-106564819D02*
X55035714Y-106564819D01*
X55035714Y-106564819D02*
X54988095Y-107041009D01*
X54988095Y-107041009D02*
X55035714Y-106993390D01*
X55035714Y-106993390D02*
X55130952Y-106945771D01*
X55130952Y-106945771D02*
X55369047Y-106945771D01*
X55369047Y-106945771D02*
X55464285Y-106993390D01*
X55464285Y-106993390D02*
X55511904Y-107041009D01*
X55511904Y-107041009D02*
X55559523Y-107136247D01*
X55559523Y-107136247D02*
X55559523Y-107374342D01*
X55559523Y-107374342D02*
X55511904Y-107469580D01*
X55511904Y-107469580D02*
X55464285Y-107517200D01*
X55464285Y-107517200D02*
X55369047Y-107564819D01*
X55369047Y-107564819D02*
X55130952Y-107564819D01*
X55130952Y-107564819D02*
X55035714Y-107517200D01*
X55035714Y-107517200D02*
X54988095Y-107469580D01*
X56130952Y-106993390D02*
X56035714Y-106945771D01*
X56035714Y-106945771D02*
X55988095Y-106898152D01*
X55988095Y-106898152D02*
X55940476Y-106802914D01*
X55940476Y-106802914D02*
X55940476Y-106755295D01*
X55940476Y-106755295D02*
X55988095Y-106660057D01*
X55988095Y-106660057D02*
X56035714Y-106612438D01*
X56035714Y-106612438D02*
X56130952Y-106564819D01*
X56130952Y-106564819D02*
X56321428Y-106564819D01*
X56321428Y-106564819D02*
X56416666Y-106612438D01*
X56416666Y-106612438D02*
X56464285Y-106660057D01*
X56464285Y-106660057D02*
X56511904Y-106755295D01*
X56511904Y-106755295D02*
X56511904Y-106802914D01*
X56511904Y-106802914D02*
X56464285Y-106898152D01*
X56464285Y-106898152D02*
X56416666Y-106945771D01*
X56416666Y-106945771D02*
X56321428Y-106993390D01*
X56321428Y-106993390D02*
X56130952Y-106993390D01*
X56130952Y-106993390D02*
X56035714Y-107041009D01*
X56035714Y-107041009D02*
X55988095Y-107088628D01*
X55988095Y-107088628D02*
X55940476Y-107183866D01*
X55940476Y-107183866D02*
X55940476Y-107374342D01*
X55940476Y-107374342D02*
X55988095Y-107469580D01*
X55988095Y-107469580D02*
X56035714Y-107517200D01*
X56035714Y-107517200D02*
X56130952Y-107564819D01*
X56130952Y-107564819D02*
X56321428Y-107564819D01*
X56321428Y-107564819D02*
X56416666Y-107517200D01*
X56416666Y-107517200D02*
X56464285Y-107469580D01*
X56464285Y-107469580D02*
X56511904Y-107374342D01*
X56511904Y-107374342D02*
X56511904Y-107183866D01*
X56511904Y-107183866D02*
X56464285Y-107088628D01*
X56464285Y-107088628D02*
X56416666Y-107041009D01*
X56416666Y-107041009D02*
X56321428Y-106993390D01*
D11*
X53721428Y-104372371D02*
X53378571Y-104372371D01*
X53550000Y-104372371D02*
X53550000Y-103772371D01*
X53550000Y-103772371D02*
X53492857Y-103858085D01*
X53492857Y-103858085D02*
X53435714Y-103915228D01*
X53435714Y-103915228D02*
X53378571Y-103943800D01*
D10*
X162785714Y-107564819D02*
X162785714Y-106564819D01*
X162785714Y-106564819D02*
X163023809Y-106564819D01*
X163023809Y-106564819D02*
X163166666Y-106612438D01*
X163166666Y-106612438D02*
X163261904Y-106707676D01*
X163261904Y-106707676D02*
X163309523Y-106802914D01*
X163309523Y-106802914D02*
X163357142Y-106993390D01*
X163357142Y-106993390D02*
X163357142Y-107136247D01*
X163357142Y-107136247D02*
X163309523Y-107326723D01*
X163309523Y-107326723D02*
X163261904Y-107421961D01*
X163261904Y-107421961D02*
X163166666Y-107517200D01*
X163166666Y-107517200D02*
X163023809Y-107564819D01*
X163023809Y-107564819D02*
X162785714Y-107564819D01*
X163738095Y-106660057D02*
X163785714Y-106612438D01*
X163785714Y-106612438D02*
X163880952Y-106564819D01*
X163880952Y-106564819D02*
X164119047Y-106564819D01*
X164119047Y-106564819D02*
X164214285Y-106612438D01*
X164214285Y-106612438D02*
X164261904Y-106660057D01*
X164261904Y-106660057D02*
X164309523Y-106755295D01*
X164309523Y-106755295D02*
X164309523Y-106850533D01*
X164309523Y-106850533D02*
X164261904Y-106993390D01*
X164261904Y-106993390D02*
X163690476Y-107564819D01*
X163690476Y-107564819D02*
X164309523Y-107564819D01*
X164785714Y-107564819D02*
X164976190Y-107564819D01*
X164976190Y-107564819D02*
X165071428Y-107517200D01*
X165071428Y-107517200D02*
X165119047Y-107469580D01*
X165119047Y-107469580D02*
X165214285Y-107326723D01*
X165214285Y-107326723D02*
X165261904Y-107136247D01*
X165261904Y-107136247D02*
X165261904Y-106755295D01*
X165261904Y-106755295D02*
X165214285Y-106660057D01*
X165214285Y-106660057D02*
X165166666Y-106612438D01*
X165166666Y-106612438D02*
X165071428Y-106564819D01*
X165071428Y-106564819D02*
X164880952Y-106564819D01*
X164880952Y-106564819D02*
X164785714Y-106612438D01*
X164785714Y-106612438D02*
X164738095Y-106660057D01*
X164738095Y-106660057D02*
X164690476Y-106755295D01*
X164690476Y-106755295D02*
X164690476Y-106993390D01*
X164690476Y-106993390D02*
X164738095Y-107088628D01*
X164738095Y-107088628D02*
X164785714Y-107136247D01*
X164785714Y-107136247D02*
X164880952Y-107183866D01*
X164880952Y-107183866D02*
X165071428Y-107183866D01*
X165071428Y-107183866D02*
X165166666Y-107136247D01*
X165166666Y-107136247D02*
X165214285Y-107088628D01*
X165214285Y-107088628D02*
X165261904Y-106993390D01*
D11*
X162471428Y-104372371D02*
X162128571Y-104372371D01*
X162300000Y-104372371D02*
X162300000Y-103772371D01*
X162300000Y-103772371D02*
X162242857Y-103858085D01*
X162242857Y-103858085D02*
X162185714Y-103915228D01*
X162185714Y-103915228D02*
X162128571Y-103943800D01*
D12*
%TO.C,J1*%
X133130000Y-101080000D02*
X133130000Y-99750000D01*
X134460000Y-101080000D02*
X133130000Y-101080000D01*
X135730000Y-101080000D02*
X138330000Y-101080000D01*
X135730000Y-101080000D02*
X135730000Y-98420000D01*
X138330000Y-101080000D02*
X138330000Y-98420000D01*
X135730000Y-98420000D02*
X138330000Y-98420000D01*
%TO.C,D13*%
X222800000Y-106400000D02*
X223500000Y-106400000D01*
%TO.C,D10*%
X234050000Y-106400000D02*
X234750000Y-106400000D01*
%TO.C,D46*%
X99050000Y-106400000D02*
X99750000Y-106400000D01*
%TO.C,C4*%
X143896267Y-114260000D02*
X143603733Y-114260000D01*
X143896267Y-113240000D02*
X143603733Y-113240000D01*
%TO.C,D20*%
X196550000Y-106400000D02*
X197250000Y-106400000D01*
%TO.C,D7*%
X245300000Y-106400000D02*
X246000000Y-106400000D01*
%TO.C,D54*%
X69050000Y-106400000D02*
X69750000Y-106400000D01*
%TO.C,R2*%
X143367224Y-96272500D02*
X142857776Y-96272500D01*
X143367224Y-95227500D02*
X142857776Y-95227500D01*
%TO.C,D9*%
X237800000Y-106400000D02*
X238500000Y-106400000D01*
%TO.C,D3*%
X260300000Y-106400000D02*
X261000000Y-106400000D01*
%TO.C,JP1*%
X161450000Y-97850000D02*
X162050000Y-97850000D01*
X162750000Y-98550000D02*
X162750000Y-99950000D01*
X160750000Y-99950000D02*
X160750000Y-98550000D01*
X162050000Y-100650000D02*
X161450000Y-100650000D01*
X162750000Y-98550000D02*
G75*
G03*
X162050000Y-97850000I-699999J1D01*
G01*
X161450000Y-97850000D02*
G75*
G03*
X160750000Y-98550000I-1J-699999D01*
G01*
X162050000Y-100650000D02*
G75*
G03*
X162750000Y-99950000I0J700000D01*
G01*
X160750000Y-99950000D02*
G75*
G03*
X161450000Y-100650000I700000J0D01*
G01*
%TO.C,D57*%
X57800000Y-106400000D02*
X58500000Y-106400000D01*
%TO.C,D41*%
X117800000Y-106400000D02*
X118500000Y-106400000D01*
%TO.C,R3*%
X143367224Y-97772500D02*
X142857776Y-97772500D01*
X143367224Y-96727500D02*
X142857776Y-96727500D01*
%TO.C,D60*%
X46550000Y-106400000D02*
X47250000Y-106400000D01*
%TO.C,D59*%
X50300000Y-106400000D02*
X51000000Y-106400000D01*
%TO.C,R1*%
X142857776Y-93727500D02*
X143367224Y-93727500D01*
X142857776Y-94772500D02*
X143367224Y-94772500D01*
%TO.C,U3*%
X150500000Y-96035000D02*
X147050000Y-96035000D01*
X150500000Y-96035000D02*
X152450000Y-96035000D01*
X150500000Y-101155000D02*
X148550000Y-101155000D01*
X150500000Y-101155000D02*
X152450000Y-101155000D01*
%TO.C,D25*%
X177800000Y-106400000D02*
X178500000Y-106400000D01*
%TO.C,D35*%
X140300000Y-106400000D02*
X141000000Y-106400000D01*
%TO.C,D33*%
X147800000Y-106400000D02*
X148500000Y-106400000D01*
%TO.C,D15*%
X215300000Y-106400000D02*
X216000000Y-106400000D01*
%TO.C,D49*%
X87800000Y-106400000D02*
X88500000Y-106400000D01*
%TO.C,D55*%
X65300000Y-106400000D02*
X66000000Y-106400000D01*
%TO.C,D48*%
X91550000Y-106400000D02*
X92250000Y-106400000D01*
%TO.C,D6*%
X249050000Y-106400000D02*
X249750000Y-106400000D01*
%TO.C,D4*%
X256550000Y-106400000D02*
X257250000Y-106400000D01*
%TO.C,D61*%
X42800000Y-106400000D02*
X43500000Y-106400000D01*
%TO.C,D52*%
X76550000Y-106400000D02*
X77250000Y-106400000D01*
%TO.C,D23*%
X185300000Y-106400000D02*
X186000000Y-106400000D01*
%TO.C,D56*%
X61550000Y-106400000D02*
X62250000Y-106400000D01*
%TO.C,D64*%
X31550000Y-106400000D02*
X32250000Y-106400000D01*
%TO.C,D39*%
X125300000Y-106400000D02*
X126000000Y-106400000D01*
%TO.C,D30*%
X159050000Y-106400000D02*
X159750000Y-106400000D01*
%TO.C,D18*%
X204050000Y-106400000D02*
X204750000Y-106400000D01*
%TO.C,D24*%
X181550000Y-106400000D02*
X182250000Y-106400000D01*
%TO.C,D32*%
X151550000Y-106400000D02*
X152250000Y-106400000D01*
%TO.C,D16*%
X211550000Y-106400000D02*
X212250000Y-106400000D01*
%TO.C,D40*%
X121550000Y-106400000D02*
X122250000Y-106400000D01*
%TO.C,D37*%
X132800000Y-106400000D02*
X133500000Y-106400000D01*
%TO.C,D45*%
X102800000Y-106400000D02*
X103500000Y-106400000D01*
%TO.C,D5*%
X252800000Y-106400000D02*
X253500000Y-106400000D01*
%TO.C,D44*%
X106550000Y-106400000D02*
X107250000Y-106400000D01*
%TO.C,D50*%
X84050000Y-106400000D02*
X84750000Y-106400000D01*
%TO.C,D34*%
X144050000Y-106400000D02*
X144750000Y-106400000D01*
%TO.C,D14*%
X219050000Y-106400000D02*
X219750000Y-106400000D01*
%TO.C,D43*%
X110300000Y-106400000D02*
X111000000Y-106400000D01*
%TO.C,D51*%
X80300000Y-106400000D02*
X81000000Y-106400000D01*
%TO.C,D21*%
X192800000Y-106400000D02*
X193500000Y-106400000D01*
%TO.C,D2*%
X264050000Y-106400000D02*
X264750000Y-106400000D01*
%TO.C,D28*%
X166550000Y-106400000D02*
X167250000Y-106400000D01*
%TO.C,D8*%
X241550000Y-106400000D02*
X242250000Y-106400000D01*
%TO.C,D1*%
X267800000Y-106400000D02*
X268500000Y-106400000D01*
%TO.C,D11*%
X230300000Y-106400000D02*
X231000000Y-106400000D01*
%TO.C,D26*%
X174050000Y-106400000D02*
X174750000Y-106400000D01*
%TO.C,C2*%
X152740000Y-115146267D02*
X152740000Y-114853733D01*
X153760000Y-115146267D02*
X153760000Y-114853733D01*
%TO.C,D63*%
X35300000Y-106400000D02*
X36000000Y-106400000D01*
%TO.C,D36*%
X136550000Y-106400000D02*
X137250000Y-106400000D01*
%TO.C,D19*%
X200300000Y-106400000D02*
X201000000Y-106400000D01*
%TO.C,D27*%
X170300000Y-106400000D02*
X171000000Y-106400000D01*
%TO.C,D53*%
X72800000Y-106400000D02*
X73500000Y-106400000D01*
%TO.C,D38*%
X129050000Y-106400000D02*
X129750000Y-106400000D01*
%TO.C,C6*%
X143258767Y-100760000D02*
X142966233Y-100760000D01*
X143258767Y-99740000D02*
X142966233Y-99740000D01*
%TO.C,R4*%
X143367224Y-99272500D02*
X142857776Y-99272500D01*
X143367224Y-98227500D02*
X142857776Y-98227500D01*
%TO.C,D62*%
X39050000Y-106400000D02*
X39750000Y-106400000D01*
%TO.C,D12*%
X226550000Y-106400000D02*
X227250000Y-106400000D01*
%TO.C,C3*%
X147603733Y-110990000D02*
X147896267Y-110990000D01*
X147603733Y-112010000D02*
X147896267Y-112010000D01*
%TO.C,D22*%
X189050000Y-106400000D02*
X189750000Y-106400000D01*
%TO.C,D42*%
X114050000Y-106400000D02*
X114750000Y-106400000D01*
%TO.C,D47*%
X95300000Y-106400000D02*
X96000000Y-106400000D01*
%TO.C,D31*%
X155300000Y-106400000D02*
X156000000Y-106400000D01*
%TO.C,D17*%
X207800000Y-106400000D02*
X208500000Y-106400000D01*
%TO.C,L1*%
X147921267Y-116240000D02*
X147578733Y-116240000D01*
X147921267Y-117260000D02*
X147578733Y-117260000D01*
%TO.C,D58*%
X54050000Y-106400000D02*
X54750000Y-106400000D01*
%TO.C,D29*%
X162800000Y-106400000D02*
X163500000Y-106400000D01*
%TD*%
M02*
