%TF.GenerationSoftware,KiCad,Pcbnew,7.0.9-7.0.9~ubuntu22.04.1*%
%TF.CreationDate,2023-12-22T18:09:01-07:00*%
%TF.ProjectId,tiny_pov_arm,74696e79-5f70-46f7-965f-61726d2e6b69,rev?*%
%TF.SameCoordinates,Original*%
%TF.FileFunction,Legend,Bot*%
%TF.FilePolarity,Positive*%
%FSLAX46Y46*%
G04 Gerber Fmt 4.6, Leading zero omitted, Abs format (unit mm)*
G04 Created by KiCad (PCBNEW 7.0.9-7.0.9~ubuntu22.04.1) date 2023-12-22 18:09:01*
%MOMM*%
%LPD*%
G01*
G04 APERTURE LIST*
%ADD10C,0.300000*%
%ADD11C,0.150000*%
%ADD12C,0.120000*%
%ADD13C,0.152400*%
G04 APERTURE END LIST*
D10*
X271554510Y-105407971D02*
X271625939Y-105479400D01*
X271625939Y-105479400D02*
X271554510Y-105550828D01*
X271554510Y-105550828D02*
X271483082Y-105479400D01*
X271483082Y-105479400D02*
X271554510Y-105407971D01*
X271554510Y-105407971D02*
X271554510Y-105550828D01*
X271554510Y-104622257D02*
X271625939Y-104693685D01*
X271625939Y-104693685D02*
X271554510Y-104765114D01*
X271554510Y-104765114D02*
X271483082Y-104693685D01*
X271483082Y-104693685D02*
X271554510Y-104622257D01*
X271554510Y-104622257D02*
X271554510Y-104765114D01*
X272125939Y-106122257D02*
X272197368Y-106050828D01*
X272197368Y-106050828D02*
X272340225Y-105836542D01*
X272340225Y-105836542D02*
X272411654Y-105693685D01*
X272411654Y-105693685D02*
X272483082Y-105479400D01*
X272483082Y-105479400D02*
X272554511Y-105122257D01*
X272554511Y-105122257D02*
X272554511Y-104836542D01*
X272554511Y-104836542D02*
X272483082Y-104479400D01*
X272483082Y-104479400D02*
X272411654Y-104265114D01*
X272411654Y-104265114D02*
X272340225Y-104122257D01*
X272340225Y-104122257D02*
X272197368Y-103907971D01*
X272197368Y-103907971D02*
X272125939Y-103836542D01*
X63225489Y-105740828D02*
X63225489Y-104740828D01*
X63225489Y-104883685D02*
X63154060Y-104812257D01*
X63154060Y-104812257D02*
X63011203Y-104740828D01*
X63011203Y-104740828D02*
X62796917Y-104740828D01*
X62796917Y-104740828D02*
X62654060Y-104812257D01*
X62654060Y-104812257D02*
X62582632Y-104955114D01*
X62582632Y-104955114D02*
X62582632Y-105740828D01*
X62582632Y-104955114D02*
X62511203Y-104812257D01*
X62511203Y-104812257D02*
X62368346Y-104740828D01*
X62368346Y-104740828D02*
X62154060Y-104740828D01*
X62154060Y-104740828D02*
X62011203Y-104812257D01*
X62011203Y-104812257D02*
X61939774Y-104955114D01*
X61939774Y-104955114D02*
X61939774Y-105740828D01*
X61225489Y-105740828D02*
X61225489Y-104740828D01*
X61225489Y-104240828D02*
X61296917Y-104312257D01*
X61296917Y-104312257D02*
X61225489Y-104383685D01*
X61225489Y-104383685D02*
X61154060Y-104312257D01*
X61154060Y-104312257D02*
X61225489Y-104240828D01*
X61225489Y-104240828D02*
X61225489Y-104383685D01*
X59868346Y-105669400D02*
X60011203Y-105740828D01*
X60011203Y-105740828D02*
X60296917Y-105740828D01*
X60296917Y-105740828D02*
X60439774Y-105669400D01*
X60439774Y-105669400D02*
X60511203Y-105597971D01*
X60511203Y-105597971D02*
X60582631Y-105455114D01*
X60582631Y-105455114D02*
X60582631Y-105026542D01*
X60582631Y-105026542D02*
X60511203Y-104883685D01*
X60511203Y-104883685D02*
X60439774Y-104812257D01*
X60439774Y-104812257D02*
X60296917Y-104740828D01*
X60296917Y-104740828D02*
X60011203Y-104740828D01*
X60011203Y-104740828D02*
X59868346Y-104812257D01*
X59225489Y-105740828D02*
X59225489Y-104240828D01*
X58582632Y-105740828D02*
X58582632Y-104955114D01*
X58582632Y-104955114D02*
X58654060Y-104812257D01*
X58654060Y-104812257D02*
X58796917Y-104740828D01*
X58796917Y-104740828D02*
X59011203Y-104740828D01*
X59011203Y-104740828D02*
X59154060Y-104812257D01*
X59154060Y-104812257D02*
X59225489Y-104883685D01*
X57225489Y-105740828D02*
X57225489Y-104955114D01*
X57225489Y-104955114D02*
X57296917Y-104812257D01*
X57296917Y-104812257D02*
X57439774Y-104740828D01*
X57439774Y-104740828D02*
X57725489Y-104740828D01*
X57725489Y-104740828D02*
X57868346Y-104812257D01*
X57225489Y-105669400D02*
X57368346Y-105740828D01*
X57368346Y-105740828D02*
X57725489Y-105740828D01*
X57725489Y-105740828D02*
X57868346Y-105669400D01*
X57868346Y-105669400D02*
X57939774Y-105526542D01*
X57939774Y-105526542D02*
X57939774Y-105383685D01*
X57939774Y-105383685D02*
X57868346Y-105240828D01*
X57868346Y-105240828D02*
X57725489Y-105169400D01*
X57725489Y-105169400D02*
X57368346Y-105169400D01*
X57368346Y-105169400D02*
X57225489Y-105097971D01*
X55939774Y-105669400D02*
X56082631Y-105740828D01*
X56082631Y-105740828D02*
X56368346Y-105740828D01*
X56368346Y-105740828D02*
X56511203Y-105669400D01*
X56511203Y-105669400D02*
X56582631Y-105526542D01*
X56582631Y-105526542D02*
X56582631Y-104955114D01*
X56582631Y-104955114D02*
X56511203Y-104812257D01*
X56511203Y-104812257D02*
X56368346Y-104740828D01*
X56368346Y-104740828D02*
X56082631Y-104740828D01*
X56082631Y-104740828D02*
X55939774Y-104812257D01*
X55939774Y-104812257D02*
X55868346Y-104955114D01*
X55868346Y-104955114D02*
X55868346Y-105097971D01*
X55868346Y-105097971D02*
X56582631Y-105240828D01*
X55011203Y-105740828D02*
X55154060Y-105669400D01*
X55154060Y-105669400D02*
X55225489Y-105526542D01*
X55225489Y-105526542D02*
X55225489Y-104240828D01*
X54439775Y-105169400D02*
X53296918Y-105169400D01*
X51939775Y-105669400D02*
X52082632Y-105740828D01*
X52082632Y-105740828D02*
X52368346Y-105740828D01*
X52368346Y-105740828D02*
X52511203Y-105669400D01*
X52511203Y-105669400D02*
X52582632Y-105597971D01*
X52582632Y-105597971D02*
X52654060Y-105455114D01*
X52654060Y-105455114D02*
X52654060Y-105026542D01*
X52654060Y-105026542D02*
X52582632Y-104883685D01*
X52582632Y-104883685D02*
X52511203Y-104812257D01*
X52511203Y-104812257D02*
X52368346Y-104740828D01*
X52368346Y-104740828D02*
X52082632Y-104740828D01*
X52082632Y-104740828D02*
X51939775Y-104812257D01*
X51296918Y-105740828D02*
X51296918Y-104740828D01*
X51296918Y-105026542D02*
X51225489Y-104883685D01*
X51225489Y-104883685D02*
X51154061Y-104812257D01*
X51154061Y-104812257D02*
X51011203Y-104740828D01*
X51011203Y-104740828D02*
X50868346Y-104740828D01*
X49725490Y-104740828D02*
X49725490Y-105740828D01*
X50368347Y-104740828D02*
X50368347Y-105526542D01*
X50368347Y-105526542D02*
X50296918Y-105669400D01*
X50296918Y-105669400D02*
X50154061Y-105740828D01*
X50154061Y-105740828D02*
X49939775Y-105740828D01*
X49939775Y-105740828D02*
X49796918Y-105669400D01*
X49796918Y-105669400D02*
X49725490Y-105597971D01*
X49011204Y-105740828D02*
X49011204Y-104740828D01*
X49011204Y-104883685D02*
X48939775Y-104812257D01*
X48939775Y-104812257D02*
X48796918Y-104740828D01*
X48796918Y-104740828D02*
X48582632Y-104740828D01*
X48582632Y-104740828D02*
X48439775Y-104812257D01*
X48439775Y-104812257D02*
X48368347Y-104955114D01*
X48368347Y-104955114D02*
X48368347Y-105740828D01*
X48368347Y-104955114D02*
X48296918Y-104812257D01*
X48296918Y-104812257D02*
X48154061Y-104740828D01*
X48154061Y-104740828D02*
X47939775Y-104740828D01*
X47939775Y-104740828D02*
X47796918Y-104812257D01*
X47796918Y-104812257D02*
X47725489Y-104955114D01*
X47725489Y-104955114D02*
X47725489Y-105740828D01*
X47011204Y-105597971D02*
X46939775Y-105669400D01*
X46939775Y-105669400D02*
X47011204Y-105740828D01*
X47011204Y-105740828D02*
X47082632Y-105669400D01*
X47082632Y-105669400D02*
X47011204Y-105597971D01*
X47011204Y-105597971D02*
X47011204Y-105740828D01*
X45654061Y-105669400D02*
X45796918Y-105740828D01*
X45796918Y-105740828D02*
X46082632Y-105740828D01*
X46082632Y-105740828D02*
X46225489Y-105669400D01*
X46225489Y-105669400D02*
X46296918Y-105597971D01*
X46296918Y-105597971D02*
X46368346Y-105455114D01*
X46368346Y-105455114D02*
X46368346Y-105026542D01*
X46368346Y-105026542D02*
X46296918Y-104883685D01*
X46296918Y-104883685D02*
X46225489Y-104812257D01*
X46225489Y-104812257D02*
X46082632Y-104740828D01*
X46082632Y-104740828D02*
X45796918Y-104740828D01*
X45796918Y-104740828D02*
X45654061Y-104812257D01*
X44796918Y-105740828D02*
X44939775Y-105669400D01*
X44939775Y-105669400D02*
X45011204Y-105597971D01*
X45011204Y-105597971D02*
X45082632Y-105455114D01*
X45082632Y-105455114D02*
X45082632Y-105026542D01*
X45082632Y-105026542D02*
X45011204Y-104883685D01*
X45011204Y-104883685D02*
X44939775Y-104812257D01*
X44939775Y-104812257D02*
X44796918Y-104740828D01*
X44796918Y-104740828D02*
X44582632Y-104740828D01*
X44582632Y-104740828D02*
X44439775Y-104812257D01*
X44439775Y-104812257D02*
X44368347Y-104883685D01*
X44368347Y-104883685D02*
X44296918Y-105026542D01*
X44296918Y-105026542D02*
X44296918Y-105455114D01*
X44296918Y-105455114D02*
X44368347Y-105597971D01*
X44368347Y-105597971D02*
X44439775Y-105669400D01*
X44439775Y-105669400D02*
X44582632Y-105740828D01*
X44582632Y-105740828D02*
X44796918Y-105740828D01*
X43654061Y-105740828D02*
X43654061Y-104740828D01*
X43654061Y-104883685D02*
X43582632Y-104812257D01*
X43582632Y-104812257D02*
X43439775Y-104740828D01*
X43439775Y-104740828D02*
X43225489Y-104740828D01*
X43225489Y-104740828D02*
X43082632Y-104812257D01*
X43082632Y-104812257D02*
X43011204Y-104955114D01*
X43011204Y-104955114D02*
X43011204Y-105740828D01*
X43011204Y-104955114D02*
X42939775Y-104812257D01*
X42939775Y-104812257D02*
X42796918Y-104740828D01*
X42796918Y-104740828D02*
X42582632Y-104740828D01*
X42582632Y-104740828D02*
X42439775Y-104812257D01*
X42439775Y-104812257D02*
X42368346Y-104955114D01*
X42368346Y-104955114D02*
X42368346Y-105740828D01*
X40582632Y-104169400D02*
X41868346Y-106097971D01*
X40296917Y-104740828D02*
X39725489Y-104740828D01*
X40082632Y-104240828D02*
X40082632Y-105526542D01*
X40082632Y-105526542D02*
X40011203Y-105669400D01*
X40011203Y-105669400D02*
X39868346Y-105740828D01*
X39868346Y-105740828D02*
X39725489Y-105740828D01*
X39225489Y-105740828D02*
X39225489Y-104740828D01*
X39225489Y-104240828D02*
X39296917Y-104312257D01*
X39296917Y-104312257D02*
X39225489Y-104383685D01*
X39225489Y-104383685D02*
X39154060Y-104312257D01*
X39154060Y-104312257D02*
X39225489Y-104240828D01*
X39225489Y-104240828D02*
X39225489Y-104383685D01*
X38511203Y-104740828D02*
X38511203Y-105740828D01*
X38511203Y-104883685D02*
X38439774Y-104812257D01*
X38439774Y-104812257D02*
X38296917Y-104740828D01*
X38296917Y-104740828D02*
X38082631Y-104740828D01*
X38082631Y-104740828D02*
X37939774Y-104812257D01*
X37939774Y-104812257D02*
X37868346Y-104955114D01*
X37868346Y-104955114D02*
X37868346Y-105740828D01*
X37296917Y-104740828D02*
X36939774Y-105740828D01*
X36582631Y-104740828D02*
X36939774Y-105740828D01*
X36939774Y-105740828D02*
X37082631Y-106097971D01*
X37082631Y-106097971D02*
X37154060Y-106169400D01*
X37154060Y-106169400D02*
X37296917Y-106240828D01*
X36011203Y-105169400D02*
X34868346Y-105169400D01*
X34154060Y-104740828D02*
X34154060Y-106240828D01*
X34154060Y-104812257D02*
X34011203Y-104740828D01*
X34011203Y-104740828D02*
X33725488Y-104740828D01*
X33725488Y-104740828D02*
X33582631Y-104812257D01*
X33582631Y-104812257D02*
X33511203Y-104883685D01*
X33511203Y-104883685D02*
X33439774Y-105026542D01*
X33439774Y-105026542D02*
X33439774Y-105455114D01*
X33439774Y-105455114D02*
X33511203Y-105597971D01*
X33511203Y-105597971D02*
X33582631Y-105669400D01*
X33582631Y-105669400D02*
X33725488Y-105740828D01*
X33725488Y-105740828D02*
X34011203Y-105740828D01*
X34011203Y-105740828D02*
X34154060Y-105669400D01*
X32582631Y-105740828D02*
X32725488Y-105669400D01*
X32725488Y-105669400D02*
X32796917Y-105597971D01*
X32796917Y-105597971D02*
X32868345Y-105455114D01*
X32868345Y-105455114D02*
X32868345Y-105026542D01*
X32868345Y-105026542D02*
X32796917Y-104883685D01*
X32796917Y-104883685D02*
X32725488Y-104812257D01*
X32725488Y-104812257D02*
X32582631Y-104740828D01*
X32582631Y-104740828D02*
X32368345Y-104740828D01*
X32368345Y-104740828D02*
X32225488Y-104812257D01*
X32225488Y-104812257D02*
X32154060Y-104883685D01*
X32154060Y-104883685D02*
X32082631Y-105026542D01*
X32082631Y-105026542D02*
X32082631Y-105455114D01*
X32082631Y-105455114D02*
X32154060Y-105597971D01*
X32154060Y-105597971D02*
X32225488Y-105669400D01*
X32225488Y-105669400D02*
X32368345Y-105740828D01*
X32368345Y-105740828D02*
X32582631Y-105740828D01*
X31582631Y-104740828D02*
X31225488Y-105740828D01*
X31225488Y-105740828D02*
X30868345Y-104740828D01*
G36*
X81282683Y-105835000D02*
G01*
X81586765Y-105835000D01*
X81586765Y-104545397D01*
X81977309Y-104545397D01*
X81977309Y-104287477D01*
X80892138Y-104287477D01*
X80892138Y-104545397D01*
X81282683Y-104545397D01*
X81282683Y-105835000D01*
G37*
G36*
X80578897Y-104686081D02*
G01*
X79981357Y-104686081D01*
X79981357Y-105600526D01*
X79606200Y-105600526D01*
X79606200Y-105835000D01*
X80659497Y-105835000D01*
X80659497Y-105600526D01*
X80283241Y-105600526D01*
X80283241Y-104920554D01*
X80578897Y-104920554D01*
X80578897Y-104686081D01*
G37*
G36*
X80283241Y-104123346D02*
G01*
X79981357Y-104123346D01*
X79981357Y-104475055D01*
X80283241Y-104475055D01*
X80283241Y-104123346D01*
G37*
G36*
X78440062Y-105085052D02*
G01*
X78440062Y-105835000D01*
X78739748Y-105835000D01*
X78739748Y-105131214D01*
X78739887Y-105115785D01*
X78740304Y-105100914D01*
X78741449Y-105079655D01*
X78743219Y-105059651D01*
X78745613Y-105040903D01*
X78748633Y-105023411D01*
X78752277Y-105007175D01*
X78756545Y-104992194D01*
X78763208Y-104974174D01*
X78770982Y-104958386D01*
X78775286Y-104951329D01*
X78784874Y-104938621D01*
X78795871Y-104927607D01*
X78808276Y-104918287D01*
X78822089Y-104910662D01*
X78837310Y-104904732D01*
X78853939Y-104900496D01*
X78871977Y-104897954D01*
X78891423Y-104897107D01*
X78906370Y-104897751D01*
X78925358Y-104900613D01*
X78943270Y-104905765D01*
X78960106Y-104913207D01*
X78975865Y-104922939D01*
X78990548Y-104934960D01*
X79000854Y-104945478D01*
X79010555Y-104957285D01*
X79019651Y-104970380D01*
X79028031Y-104984618D01*
X79035587Y-104999854D01*
X79042319Y-105016088D01*
X79048227Y-105033320D01*
X79053310Y-105051551D01*
X79057569Y-105070779D01*
X79061004Y-105091006D01*
X79063614Y-105112231D01*
X79064897Y-105126936D01*
X79065812Y-105142084D01*
X79066362Y-105157676D01*
X79066545Y-105173712D01*
X79066545Y-105835000D01*
X79366231Y-105835000D01*
X79366231Y-104686081D01*
X79066545Y-104686081D01*
X79066545Y-104854242D01*
X79060170Y-104837498D01*
X79052995Y-104821476D01*
X79045023Y-104806174D01*
X79036251Y-104791594D01*
X79026682Y-104777735D01*
X79016313Y-104764598D01*
X79005146Y-104752181D01*
X78993181Y-104740486D01*
X78980417Y-104729512D01*
X78966854Y-104719260D01*
X78957369Y-104712826D01*
X78942594Y-104703856D01*
X78927260Y-104695768D01*
X78911365Y-104688563D01*
X78894909Y-104682240D01*
X78877894Y-104676799D01*
X78860318Y-104672241D01*
X78842182Y-104668565D01*
X78823485Y-104665771D01*
X78804229Y-104663859D01*
X78784412Y-104662830D01*
X78770889Y-104662634D01*
X78750732Y-104663049D01*
X78731202Y-104664294D01*
X78712298Y-104666369D01*
X78694021Y-104669274D01*
X78676372Y-104673009D01*
X78659348Y-104677575D01*
X78642952Y-104682970D01*
X78627183Y-104689195D01*
X78612040Y-104696251D01*
X78597525Y-104704136D01*
X78583636Y-104712851D01*
X78570373Y-104722397D01*
X78557738Y-104732773D01*
X78545730Y-104743978D01*
X78534348Y-104756014D01*
X78523593Y-104768879D01*
X78513478Y-104782522D01*
X78504016Y-104796981D01*
X78495206Y-104812255D01*
X78487049Y-104828345D01*
X78479544Y-104845251D01*
X78472692Y-104862972D01*
X78466492Y-104881509D01*
X78460945Y-104900862D01*
X78456051Y-104921031D01*
X78451809Y-104942015D01*
X78448220Y-104963815D01*
X78445283Y-104986431D01*
X78442999Y-105009863D01*
X78441367Y-105034110D01*
X78440389Y-105059173D01*
X78440062Y-105085052D01*
G37*
G36*
X77547599Y-105963593D02*
G01*
X77555295Y-105983898D01*
X77563181Y-106003504D01*
X77571255Y-106022412D01*
X77579518Y-106040621D01*
X77587971Y-106058133D01*
X77596612Y-106074945D01*
X77605442Y-106091060D01*
X77614460Y-106106475D01*
X77623668Y-106121193D01*
X77633065Y-106135212D01*
X77642650Y-106148533D01*
X77652425Y-106161155D01*
X77662388Y-106173079D01*
X77672541Y-106184305D01*
X77682882Y-106194832D01*
X77693412Y-106204661D01*
X77709671Y-106218214D01*
X77726574Y-106230434D01*
X77744120Y-106241321D01*
X77762311Y-106250874D01*
X77781146Y-106259095D01*
X77800625Y-106265983D01*
X77820748Y-106271537D01*
X77841515Y-106275759D01*
X77862926Y-106278647D01*
X77877557Y-106279832D01*
X77892475Y-106280424D01*
X77900041Y-106280498D01*
X78149535Y-106280498D01*
X78149535Y-106046025D01*
X78026803Y-106046025D01*
X78009859Y-106045742D01*
X77993783Y-106044892D01*
X77978577Y-106043475D01*
X77959655Y-106040704D01*
X77942279Y-106036926D01*
X77926448Y-106032141D01*
X77912163Y-106026348D01*
X77896479Y-106017689D01*
X77890882Y-106013785D01*
X77877346Y-106001759D01*
X77866478Y-105989162D01*
X77855576Y-105973921D01*
X77847377Y-105960754D01*
X77839158Y-105946100D01*
X77830920Y-105929958D01*
X77822663Y-105912328D01*
X77814387Y-105893211D01*
X77806091Y-105872607D01*
X77803321Y-105865408D01*
X77780607Y-105803859D01*
X78219511Y-104686081D01*
X77902240Y-104686081D01*
X77638457Y-105431999D01*
X77386032Y-104686081D01*
X77068394Y-104686081D01*
X77547599Y-105963593D01*
G37*
G36*
X76850041Y-105835000D02*
G01*
X76546325Y-105835000D01*
X76546325Y-105248817D01*
X76432752Y-105248817D01*
X76413029Y-105248706D01*
X76393655Y-105248374D01*
X76374629Y-105247822D01*
X76355953Y-105247048D01*
X76337627Y-105246053D01*
X76319649Y-105244837D01*
X76302021Y-105243400D01*
X76284741Y-105241741D01*
X76267811Y-105239862D01*
X76251230Y-105237761D01*
X76234999Y-105235440D01*
X76219116Y-105232897D01*
X76203583Y-105230133D01*
X76188399Y-105227148D01*
X76173564Y-105223942D01*
X76159078Y-105220515D01*
X76131155Y-105212997D01*
X76104627Y-105204595D01*
X76079497Y-105195309D01*
X76055764Y-105185138D01*
X76033427Y-105174083D01*
X76012487Y-105162143D01*
X75992944Y-105149319D01*
X75974797Y-105135610D01*
X75966209Y-105128397D01*
X75949852Y-105113144D01*
X75934585Y-105096789D01*
X75920408Y-105079333D01*
X75907322Y-105060774D01*
X75895326Y-105041114D01*
X75884421Y-105020351D01*
X75874607Y-104998486D01*
X75865883Y-104975520D01*
X75858249Y-104951452D01*
X75851706Y-104926281D01*
X75846254Y-104900009D01*
X75841892Y-104872635D01*
X75838620Y-104844158D01*
X75837393Y-104829507D01*
X75836439Y-104814580D01*
X75835758Y-104799378D01*
X75835349Y-104783900D01*
X75835212Y-104768147D01*
X76151385Y-104768147D01*
X76151621Y-104783248D01*
X76152861Y-104804826D01*
X76155163Y-104825116D01*
X76158528Y-104844119D01*
X76162955Y-104861833D01*
X76168445Y-104878259D01*
X76174998Y-104893398D01*
X76182613Y-104907248D01*
X76191291Y-104919810D01*
X76201032Y-104931084D01*
X76211835Y-104941071D01*
X76219694Y-104947104D01*
X76232793Y-104955425D01*
X76247464Y-104962869D01*
X76263705Y-104969438D01*
X76281518Y-104975131D01*
X76300903Y-104979948D01*
X76321859Y-104983890D01*
X76336702Y-104986030D01*
X76352244Y-104987782D01*
X76368484Y-104989145D01*
X76385423Y-104990118D01*
X76403060Y-104990702D01*
X76421395Y-104990896D01*
X76546325Y-104990896D01*
X76546325Y-104545397D01*
X76421395Y-104545397D01*
X76412140Y-104545446D01*
X76394154Y-104545835D01*
X76376866Y-104546614D01*
X76360277Y-104547781D01*
X76344386Y-104549339D01*
X76329193Y-104551285D01*
X76307713Y-104554934D01*
X76287805Y-104559459D01*
X76269468Y-104564860D01*
X76252703Y-104571137D01*
X76237509Y-104578290D01*
X76223886Y-104586318D01*
X76211835Y-104595223D01*
X76201032Y-104605209D01*
X76191291Y-104616483D01*
X76182613Y-104629046D01*
X76174998Y-104642896D01*
X76168445Y-104658034D01*
X76162955Y-104674461D01*
X76158528Y-104692175D01*
X76155163Y-104711177D01*
X76152861Y-104731467D01*
X76151621Y-104753046D01*
X76151385Y-104768147D01*
X75835212Y-104768147D01*
X75835349Y-104752393D01*
X75835758Y-104736916D01*
X75836439Y-104721713D01*
X75837393Y-104706786D01*
X75840120Y-104677759D01*
X75843936Y-104649834D01*
X75848844Y-104623011D01*
X75854841Y-104597289D01*
X75861930Y-104572670D01*
X75870109Y-104549153D01*
X75879378Y-104526737D01*
X75889738Y-104505423D01*
X75901188Y-104485212D01*
X75913729Y-104466102D01*
X75927360Y-104448095D01*
X75942082Y-104431189D01*
X75957894Y-104415385D01*
X75974797Y-104400683D01*
X75992944Y-104386975D01*
X76012487Y-104374151D01*
X76033427Y-104362211D01*
X76055764Y-104351156D01*
X76079497Y-104340985D01*
X76104627Y-104331698D01*
X76131155Y-104323296D01*
X76159078Y-104315778D01*
X76173564Y-104312351D01*
X76188399Y-104309145D01*
X76203583Y-104306160D01*
X76219116Y-104303396D01*
X76234999Y-104300854D01*
X76251230Y-104298532D01*
X76267811Y-104296432D01*
X76284741Y-104294552D01*
X76302021Y-104292894D01*
X76319649Y-104291457D01*
X76337627Y-104290241D01*
X76355953Y-104289246D01*
X76374629Y-104288472D01*
X76393655Y-104287919D01*
X76413029Y-104287587D01*
X76432752Y-104287477D01*
X76850041Y-104287477D01*
X76850041Y-105835000D01*
G37*
G36*
X75135535Y-104264227D02*
G01*
X75151846Y-104264818D01*
X75167901Y-104265804D01*
X75183702Y-104267184D01*
X75199248Y-104268958D01*
X75214540Y-104271126D01*
X75229576Y-104273689D01*
X75244358Y-104276646D01*
X75258886Y-104279997D01*
X75273158Y-104283743D01*
X75300939Y-104292417D01*
X75327701Y-104302668D01*
X75353443Y-104314496D01*
X75378167Y-104327901D01*
X75401872Y-104342884D01*
X75424558Y-104359443D01*
X75446225Y-104377580D01*
X75466873Y-104397293D01*
X75486502Y-104418584D01*
X75495935Y-104429820D01*
X75505112Y-104441451D01*
X75514035Y-104453477D01*
X75522704Y-104465896D01*
X75531088Y-104478678D01*
X75539207Y-104491837D01*
X75547060Y-104505371D01*
X75554646Y-104519282D01*
X75561966Y-104533570D01*
X75569020Y-104548234D01*
X75575808Y-104563274D01*
X75582329Y-104578691D01*
X75588585Y-104594484D01*
X75594574Y-104610653D01*
X75600297Y-104627199D01*
X75605754Y-104644121D01*
X75610944Y-104661420D01*
X75615869Y-104679094D01*
X75620527Y-104697146D01*
X75624919Y-104715573D01*
X75629045Y-104734378D01*
X75632905Y-104753558D01*
X75636498Y-104773115D01*
X75639826Y-104793048D01*
X75642887Y-104813358D01*
X75645682Y-104834044D01*
X75648211Y-104855106D01*
X75650473Y-104876545D01*
X75652470Y-104898360D01*
X75654200Y-104920551D01*
X75655664Y-104943119D01*
X75656862Y-104966064D01*
X75657793Y-104989384D01*
X75658459Y-105013081D01*
X75658858Y-105037155D01*
X75658991Y-105061605D01*
X75658858Y-105086010D01*
X75658459Y-105110040D01*
X75657793Y-105133697D01*
X75656862Y-105156979D01*
X75655664Y-105179888D01*
X75654200Y-105202421D01*
X75652470Y-105224581D01*
X75650473Y-105246367D01*
X75648211Y-105267778D01*
X75645682Y-105288815D01*
X75642887Y-105309478D01*
X75639826Y-105329766D01*
X75636498Y-105349680D01*
X75632905Y-105369220D01*
X75629045Y-105388386D01*
X75624919Y-105407178D01*
X75620527Y-105425595D01*
X75615869Y-105443638D01*
X75610944Y-105461307D01*
X75605754Y-105478601D01*
X75600297Y-105495522D01*
X75594574Y-105512068D01*
X75588585Y-105528240D01*
X75582329Y-105544038D01*
X75575808Y-105559461D01*
X75569020Y-105574510D01*
X75561966Y-105589185D01*
X75554646Y-105603486D01*
X75547060Y-105617412D01*
X75539207Y-105630965D01*
X75531088Y-105644143D01*
X75522704Y-105656946D01*
X75514035Y-105669343D01*
X75505112Y-105681347D01*
X75495935Y-105692957D01*
X75486502Y-105704173D01*
X75466873Y-105725425D01*
X75446225Y-105745103D01*
X75424558Y-105763206D01*
X75401872Y-105779736D01*
X75378167Y-105794691D01*
X75353443Y-105808072D01*
X75327701Y-105819878D01*
X75300939Y-105830111D01*
X75273158Y-105838769D01*
X75258886Y-105842508D01*
X75244358Y-105845853D01*
X75229576Y-105848805D01*
X75214540Y-105851363D01*
X75199248Y-105853527D01*
X75183702Y-105855298D01*
X75167901Y-105856676D01*
X75151846Y-105857660D01*
X75135535Y-105858250D01*
X75118970Y-105858447D01*
X75102360Y-105858250D01*
X75086007Y-105857660D01*
X75069911Y-105856676D01*
X75054072Y-105855298D01*
X75038490Y-105853527D01*
X75023165Y-105851363D01*
X75008096Y-105848805D01*
X74993284Y-105845853D01*
X74978730Y-105842508D01*
X74950391Y-105834637D01*
X74923079Y-105825191D01*
X74896796Y-105814172D01*
X74871539Y-105801578D01*
X74847311Y-105787410D01*
X74824110Y-105771668D01*
X74801936Y-105754351D01*
X74780790Y-105735461D01*
X74760671Y-105714996D01*
X74741580Y-105692957D01*
X74732420Y-105681347D01*
X74723517Y-105669343D01*
X74714870Y-105656946D01*
X74706463Y-105644143D01*
X74698322Y-105630965D01*
X74690449Y-105617412D01*
X74682842Y-105603486D01*
X74675502Y-105589185D01*
X74668429Y-105574510D01*
X74661623Y-105559461D01*
X74655084Y-105544038D01*
X74648812Y-105528240D01*
X74642807Y-105512068D01*
X74637068Y-105495522D01*
X74631597Y-105478601D01*
X74626392Y-105461307D01*
X74621455Y-105443638D01*
X74616784Y-105425595D01*
X74612380Y-105407178D01*
X74608243Y-105388386D01*
X74604373Y-105369220D01*
X74600770Y-105349680D01*
X74597433Y-105329766D01*
X74594364Y-105309478D01*
X74591562Y-105288815D01*
X74589026Y-105267778D01*
X74586757Y-105246367D01*
X74584756Y-105224581D01*
X74583021Y-105202421D01*
X74581553Y-105179888D01*
X74580352Y-105156979D01*
X74579418Y-105133697D01*
X74578750Y-105110040D01*
X74578350Y-105086010D01*
X74578217Y-105061605D01*
X74894389Y-105061605D01*
X74894441Y-105079198D01*
X74894599Y-105096485D01*
X74894862Y-105113467D01*
X74895230Y-105130143D01*
X74895704Y-105146514D01*
X74896282Y-105162579D01*
X74896966Y-105178339D01*
X74897755Y-105193793D01*
X74898649Y-105208942D01*
X74899648Y-105223785D01*
X74901962Y-105252555D01*
X74904697Y-105280102D01*
X74907853Y-105306427D01*
X74911429Y-105331531D01*
X74915426Y-105355411D01*
X74919844Y-105378070D01*
X74924683Y-105399507D01*
X74929942Y-105419721D01*
X74935622Y-105438714D01*
X74941723Y-105456484D01*
X74948244Y-105473032D01*
X74955180Y-105488470D01*
X74962613Y-105502913D01*
X74970544Y-105516360D01*
X74978973Y-105528811D01*
X74992551Y-105545619D01*
X75007249Y-105560186D01*
X75023068Y-105572512D01*
X75040007Y-105582597D01*
X75058067Y-105590441D01*
X75077248Y-105596044D01*
X75097549Y-105599406D01*
X75118970Y-105600526D01*
X75140264Y-105599406D01*
X75160457Y-105596044D01*
X75179548Y-105590441D01*
X75197538Y-105582597D01*
X75214427Y-105572512D01*
X75230215Y-105560186D01*
X75244901Y-105545619D01*
X75258486Y-105528811D01*
X75266931Y-105516360D01*
X75274887Y-105502913D01*
X75282353Y-105488470D01*
X75289330Y-105473032D01*
X75295807Y-105456484D01*
X75301866Y-105438714D01*
X75307508Y-105419721D01*
X75312731Y-105399507D01*
X75317537Y-105378070D01*
X75321925Y-105355411D01*
X75325894Y-105331531D01*
X75329446Y-105306427D01*
X75332581Y-105280102D01*
X75335297Y-105252555D01*
X75337595Y-105223785D01*
X75338588Y-105208942D01*
X75339476Y-105193793D01*
X75340259Y-105178339D01*
X75340938Y-105162579D01*
X75341513Y-105146514D01*
X75341983Y-105130143D01*
X75342349Y-105113467D01*
X75342610Y-105096485D01*
X75342767Y-105079198D01*
X75342819Y-105061605D01*
X75342767Y-105043966D01*
X75342610Y-105026635D01*
X75342349Y-105009611D01*
X75341983Y-104992894D01*
X75341513Y-104976484D01*
X75340938Y-104960381D01*
X75340259Y-104944584D01*
X75339476Y-104929095D01*
X75338588Y-104913913D01*
X75337595Y-104899038D01*
X75335297Y-104870208D01*
X75332581Y-104842606D01*
X75329446Y-104816232D01*
X75325894Y-104791086D01*
X75321925Y-104767168D01*
X75317537Y-104744478D01*
X75312731Y-104723015D01*
X75307508Y-104702781D01*
X75301866Y-104683774D01*
X75295807Y-104665996D01*
X75289330Y-104649445D01*
X75282353Y-104634006D01*
X75274887Y-104619563D01*
X75266931Y-104606116D01*
X75258486Y-104593666D01*
X75244901Y-104576857D01*
X75230215Y-104562290D01*
X75214427Y-104549964D01*
X75197538Y-104539879D01*
X75179548Y-104532035D01*
X75160457Y-104526432D01*
X75140264Y-104523071D01*
X75118970Y-104521950D01*
X75097549Y-104523071D01*
X75077248Y-104526432D01*
X75058067Y-104532035D01*
X75040007Y-104539879D01*
X75023068Y-104549964D01*
X75007249Y-104562290D01*
X74992551Y-104576857D01*
X74978973Y-104593666D01*
X74970544Y-104606116D01*
X74962613Y-104619563D01*
X74955180Y-104634006D01*
X74948244Y-104649445D01*
X74941723Y-104665996D01*
X74935622Y-104683774D01*
X74929942Y-104702781D01*
X74924683Y-104723015D01*
X74919844Y-104744478D01*
X74915426Y-104767168D01*
X74911429Y-104791086D01*
X74907853Y-104816232D01*
X74904697Y-104842606D01*
X74901962Y-104870208D01*
X74899648Y-104899038D01*
X74898649Y-104913913D01*
X74897755Y-104929095D01*
X74896966Y-104944584D01*
X74896282Y-104960381D01*
X74895704Y-104976484D01*
X74895230Y-104992894D01*
X74894862Y-105009611D01*
X74894599Y-105026635D01*
X74894441Y-105043966D01*
X74894389Y-105061605D01*
X74578217Y-105061605D01*
X74578350Y-105037155D01*
X74578750Y-105013081D01*
X74579418Y-104989384D01*
X74580352Y-104966064D01*
X74581553Y-104943119D01*
X74583021Y-104920551D01*
X74584756Y-104898360D01*
X74586757Y-104876545D01*
X74589026Y-104855106D01*
X74591562Y-104834044D01*
X74594364Y-104813358D01*
X74597433Y-104793048D01*
X74600770Y-104773115D01*
X74604373Y-104753558D01*
X74608243Y-104734378D01*
X74612380Y-104715573D01*
X74616784Y-104697146D01*
X74621455Y-104679094D01*
X74626392Y-104661420D01*
X74631597Y-104644121D01*
X74637068Y-104627199D01*
X74642807Y-104610653D01*
X74648812Y-104594484D01*
X74655084Y-104578691D01*
X74661623Y-104563274D01*
X74668429Y-104548234D01*
X74675502Y-104533570D01*
X74682842Y-104519282D01*
X74690449Y-104505371D01*
X74698322Y-104491837D01*
X74706463Y-104478678D01*
X74714870Y-104465896D01*
X74723517Y-104453477D01*
X74732420Y-104441451D01*
X74741580Y-104429820D01*
X74750997Y-104418584D01*
X74770602Y-104397293D01*
X74791234Y-104377580D01*
X74812894Y-104359443D01*
X74835582Y-104342884D01*
X74859297Y-104327901D01*
X74884039Y-104314496D01*
X74909809Y-104302668D01*
X74936607Y-104292417D01*
X74964432Y-104283743D01*
X74978730Y-104279997D01*
X74993284Y-104276646D01*
X75008096Y-104273689D01*
X75023165Y-104271126D01*
X75038490Y-104268958D01*
X75054072Y-104267184D01*
X75069911Y-104265804D01*
X75086007Y-104264818D01*
X75102360Y-104264227D01*
X75118970Y-104264030D01*
X75135535Y-104264227D01*
G37*
G36*
X73855746Y-105580010D02*
G01*
X73585003Y-104287477D01*
X73278722Y-104287477D01*
X73644720Y-105835000D01*
X74066039Y-105835000D01*
X74432037Y-104287477D01*
X74125757Y-104287477D01*
X73855746Y-105580010D01*
G37*
G36*
X70776088Y-104686081D02*
G01*
X71142819Y-105835000D01*
X71515045Y-105835000D01*
X71881775Y-104686081D01*
X71575861Y-104686081D01*
X71329298Y-105582575D01*
X71082002Y-104686081D01*
X70776088Y-104686081D01*
G37*
G36*
X70507177Y-105577079D02*
G01*
X70167191Y-105577079D01*
X70167191Y-104545397D01*
X70483729Y-104615739D01*
X70483729Y-104357819D01*
X70165359Y-104287477D01*
X69871535Y-104287477D01*
X69871535Y-105577079D01*
X69531549Y-105577079D01*
X69531549Y-105835000D01*
X70507177Y-105835000D01*
X70507177Y-105577079D01*
G37*
G36*
X68975041Y-105459842D02*
G01*
X68632124Y-105459842D01*
X68632124Y-105835000D01*
X68975041Y-105835000D01*
X68975041Y-105459842D01*
G37*
G36*
X67546292Y-104920700D02*
G01*
X67562382Y-104922342D01*
X67577648Y-104925809D01*
X67592091Y-104931101D01*
X67605712Y-104938217D01*
X67618510Y-104947158D01*
X67630484Y-104957923D01*
X67634965Y-104962662D01*
X67644903Y-104975096D01*
X67653033Y-104988372D01*
X67659357Y-105002488D01*
X67663874Y-105017445D01*
X67666584Y-105033242D01*
X67667487Y-105049881D01*
X67667343Y-105056680D01*
X67665717Y-105073064D01*
X67662284Y-105088572D01*
X67657044Y-105103204D01*
X67649998Y-105116958D01*
X67641144Y-105129837D01*
X67630484Y-105141838D01*
X67625793Y-105146275D01*
X67613489Y-105156114D01*
X67600362Y-105164164D01*
X67586413Y-105170425D01*
X67571640Y-105174897D01*
X67556045Y-105177580D01*
X67539626Y-105178475D01*
X67532871Y-105178329D01*
X67516585Y-105176687D01*
X67501158Y-105173220D01*
X67486589Y-105167928D01*
X67472879Y-105160812D01*
X67460028Y-105151871D01*
X67448035Y-105141106D01*
X67443554Y-105136370D01*
X67433617Y-105123968D01*
X67425487Y-105110760D01*
X67419163Y-105096748D01*
X67414646Y-105081931D01*
X67411936Y-105066308D01*
X67411032Y-105049881D01*
X67411177Y-105043125D01*
X67412803Y-105026822D01*
X67416236Y-105011361D01*
X67421475Y-104996741D01*
X67428522Y-104982961D01*
X67437375Y-104970022D01*
X67448035Y-104957923D01*
X67452729Y-104953398D01*
X67465065Y-104943363D01*
X67478260Y-104935152D01*
X67492314Y-104928765D01*
X67507226Y-104924204D01*
X67522997Y-104921467D01*
X67539626Y-104920554D01*
X67546292Y-104920700D01*
G37*
G36*
X67555415Y-104264224D02*
G01*
X67570955Y-104264808D01*
X67586244Y-104265781D01*
X67601284Y-104267144D01*
X67616074Y-104268895D01*
X67644905Y-104273566D01*
X67672738Y-104279795D01*
X67699571Y-104287580D01*
X67725405Y-104296922D01*
X67750241Y-104307821D01*
X67774077Y-104320278D01*
X67796915Y-104334291D01*
X67818754Y-104349862D01*
X67839594Y-104366989D01*
X67859435Y-104385674D01*
X67878277Y-104405916D01*
X67896120Y-104427714D01*
X67912964Y-104451070D01*
X67921011Y-104463332D01*
X67928810Y-104475961D01*
X67936361Y-104488981D01*
X67943665Y-104502393D01*
X67950721Y-104516197D01*
X67957530Y-104530392D01*
X67964091Y-104544978D01*
X67970404Y-104559956D01*
X67976470Y-104575325D01*
X67982288Y-104591085D01*
X67987859Y-104607237D01*
X67993182Y-104623780D01*
X67998257Y-104640715D01*
X68003085Y-104658041D01*
X68007665Y-104675759D01*
X68011998Y-104693867D01*
X68016083Y-104712368D01*
X68019920Y-104731260D01*
X68023510Y-104750543D01*
X68026853Y-104770217D01*
X68029947Y-104790283D01*
X68032795Y-104810741D01*
X68035394Y-104831589D01*
X68037746Y-104852829D01*
X68039851Y-104874461D01*
X68041708Y-104896484D01*
X68043317Y-104918898D01*
X68044679Y-104941704D01*
X68045793Y-104964902D01*
X68046659Y-104988490D01*
X68047278Y-105012470D01*
X68047650Y-105036842D01*
X68047773Y-105061605D01*
X68047650Y-105086323D01*
X68047278Y-105110652D01*
X68046659Y-105134591D01*
X68045793Y-105158142D01*
X68044679Y-105181303D01*
X68043317Y-105204074D01*
X68041708Y-105226457D01*
X68039851Y-105248450D01*
X68037746Y-105270054D01*
X68035394Y-105291269D01*
X68032795Y-105312095D01*
X68029947Y-105332531D01*
X68026853Y-105352578D01*
X68023510Y-105372236D01*
X68019920Y-105391504D01*
X68016083Y-105410383D01*
X68011998Y-105428873D01*
X68007665Y-105446974D01*
X68003085Y-105464685D01*
X67998257Y-105482008D01*
X67993182Y-105498940D01*
X67987859Y-105515484D01*
X67982288Y-105531638D01*
X67976470Y-105547404D01*
X67970404Y-105562779D01*
X67964091Y-105577766D01*
X67957530Y-105592363D01*
X67950721Y-105606571D01*
X67943665Y-105620390D01*
X67936361Y-105633820D01*
X67928810Y-105646860D01*
X67921011Y-105659511D01*
X67904667Y-105683601D01*
X67887323Y-105706137D01*
X67868980Y-105727118D01*
X67849639Y-105746545D01*
X67829299Y-105764419D01*
X67807959Y-105780738D01*
X67785621Y-105795502D01*
X67762284Y-105808713D01*
X67737948Y-105820369D01*
X67712613Y-105830471D01*
X67686279Y-105839019D01*
X67658946Y-105846013D01*
X67630615Y-105851453D01*
X67616074Y-105853590D01*
X67601284Y-105855338D01*
X67586244Y-105856698D01*
X67570955Y-105857670D01*
X67555415Y-105858253D01*
X67539626Y-105858447D01*
X67523792Y-105858253D01*
X67508209Y-105857671D01*
X67492877Y-105856702D01*
X67477796Y-105855344D01*
X67462967Y-105853599D01*
X67448389Y-105851466D01*
X67419985Y-105846036D01*
X67392587Y-105839055D01*
X67366193Y-105830523D01*
X67340803Y-105820439D01*
X67316419Y-105808804D01*
X67293039Y-105795618D01*
X67270663Y-105780881D01*
X67249292Y-105764592D01*
X67228926Y-105746752D01*
X67209565Y-105727360D01*
X67191208Y-105706417D01*
X67173856Y-105683923D01*
X67157508Y-105659877D01*
X67149709Y-105647270D01*
X67142158Y-105634271D01*
X67134854Y-105620878D01*
X67127798Y-105607092D01*
X67120990Y-105592914D01*
X67114429Y-105578343D01*
X67108116Y-105563379D01*
X67102050Y-105548022D01*
X67096232Y-105532272D01*
X67090661Y-105516129D01*
X67085338Y-105499594D01*
X67080263Y-105482666D01*
X67075435Y-105465345D01*
X67070854Y-105447631D01*
X67066522Y-105429524D01*
X67062437Y-105411024D01*
X67058599Y-105392132D01*
X67055009Y-105372847D01*
X67051667Y-105353169D01*
X67048572Y-105333098D01*
X67045725Y-105312634D01*
X67043125Y-105291777D01*
X67040773Y-105270528D01*
X67038669Y-105248885D01*
X67036812Y-105226850D01*
X67035203Y-105204422D01*
X67033841Y-105181601D01*
X67032727Y-105158388D01*
X67031860Y-105134781D01*
X67031241Y-105110782D01*
X67030870Y-105086390D01*
X67030746Y-105061605D01*
X67336660Y-105061605D01*
X67336708Y-105079063D01*
X67336851Y-105096223D01*
X67337089Y-105113084D01*
X67337422Y-105129645D01*
X67337850Y-105145908D01*
X67338373Y-105161871D01*
X67338992Y-105177535D01*
X67339706Y-105192900D01*
X67340515Y-105207966D01*
X67341419Y-105222733D01*
X67343513Y-105251370D01*
X67345987Y-105278810D01*
X67348842Y-105305054D01*
X67352078Y-105330101D01*
X67355694Y-105353952D01*
X67359691Y-105376606D01*
X67364069Y-105398064D01*
X67368827Y-105418326D01*
X67373967Y-105437391D01*
X67379486Y-105455260D01*
X67385387Y-105471933D01*
X67391656Y-105487504D01*
X67398376Y-105502072D01*
X67405544Y-105515634D01*
X67413162Y-105528192D01*
X67425431Y-105545146D01*
X67438711Y-105559838D01*
X67453003Y-105572271D01*
X67468305Y-105582443D01*
X67484619Y-105590354D01*
X67501944Y-105596005D01*
X67520279Y-105599396D01*
X67539626Y-105600526D01*
X67558845Y-105599396D01*
X67577073Y-105596005D01*
X67594308Y-105590354D01*
X67610552Y-105582443D01*
X67625804Y-105572271D01*
X67640064Y-105559838D01*
X67653333Y-105545146D01*
X67665610Y-105528192D01*
X67673243Y-105515634D01*
X67680436Y-105502072D01*
X67687188Y-105487504D01*
X67693499Y-105471933D01*
X67699355Y-105455260D01*
X67704834Y-105437391D01*
X67709934Y-105418326D01*
X67714657Y-105398064D01*
X67719002Y-105376606D01*
X67722969Y-105353952D01*
X67726558Y-105330101D01*
X67729769Y-105305054D01*
X67732603Y-105278810D01*
X67735059Y-105251370D01*
X67737137Y-105222733D01*
X67738034Y-105207966D01*
X67738837Y-105192900D01*
X67739545Y-105177535D01*
X67740159Y-105161871D01*
X67740679Y-105145908D01*
X67741104Y-105129645D01*
X67741434Y-105113084D01*
X67741670Y-105096223D01*
X67741812Y-105079063D01*
X67741859Y-105061605D01*
X67741812Y-105044101D01*
X67741670Y-105026897D01*
X67741434Y-105009994D01*
X67741104Y-104993392D01*
X67740679Y-104977090D01*
X67740159Y-104961089D01*
X67739545Y-104945388D01*
X67738837Y-104929988D01*
X67738034Y-104914889D01*
X67737137Y-104900089D01*
X67735059Y-104871393D01*
X67732603Y-104843898D01*
X67729769Y-104817606D01*
X67726558Y-104792516D01*
X67722969Y-104768628D01*
X67719002Y-104745942D01*
X67714657Y-104724458D01*
X67709934Y-104704176D01*
X67704834Y-104685097D01*
X67699355Y-104667219D01*
X67693499Y-104650544D01*
X67687188Y-104634972D01*
X67680436Y-104620405D01*
X67673243Y-104606842D01*
X67665610Y-104594284D01*
X67653333Y-104577331D01*
X67640064Y-104562638D01*
X67625804Y-104550205D01*
X67610552Y-104540033D01*
X67594308Y-104532122D01*
X67577073Y-104526471D01*
X67558845Y-104523080D01*
X67539626Y-104521950D01*
X67520279Y-104523080D01*
X67501944Y-104526471D01*
X67484619Y-104532122D01*
X67468305Y-104540033D01*
X67453003Y-104550205D01*
X67438711Y-104562638D01*
X67425431Y-104577331D01*
X67413162Y-104594284D01*
X67405544Y-104606842D01*
X67398376Y-104620405D01*
X67391656Y-104634972D01*
X67385387Y-104650544D01*
X67379486Y-104667219D01*
X67373967Y-104685097D01*
X67368827Y-104704176D01*
X67364069Y-104724458D01*
X67359691Y-104745942D01*
X67355694Y-104768628D01*
X67352078Y-104792516D01*
X67348842Y-104817606D01*
X67345987Y-104843898D01*
X67343513Y-104871393D01*
X67341419Y-104900089D01*
X67340515Y-104914889D01*
X67339706Y-104929988D01*
X67338992Y-104945388D01*
X67338373Y-104961089D01*
X67337850Y-104977090D01*
X67337422Y-104993392D01*
X67337089Y-105009994D01*
X67336851Y-105026897D01*
X67336708Y-105044101D01*
X67336660Y-105061605D01*
X67030746Y-105061605D01*
X67030870Y-105036774D01*
X67031241Y-105012339D01*
X67031860Y-104988297D01*
X67032727Y-104964650D01*
X67033841Y-104941397D01*
X67035203Y-104918538D01*
X67036812Y-104896073D01*
X67038669Y-104874003D01*
X67040773Y-104852327D01*
X67043125Y-104831045D01*
X67045725Y-104810158D01*
X67048572Y-104789665D01*
X67051667Y-104769566D01*
X67055009Y-104749861D01*
X67058599Y-104730551D01*
X67062437Y-104711635D01*
X67066522Y-104693113D01*
X67070854Y-104674986D01*
X67075435Y-104657253D01*
X67080263Y-104639914D01*
X67085338Y-104622969D01*
X67090661Y-104606418D01*
X67096232Y-104590262D01*
X67102050Y-104574500D01*
X67108116Y-104559133D01*
X67114429Y-104544159D01*
X67120990Y-104529580D01*
X67127798Y-104515395D01*
X67134854Y-104501605D01*
X67142158Y-104488209D01*
X67149709Y-104475207D01*
X67157508Y-104462599D01*
X67173856Y-104438553D01*
X67191208Y-104416059D01*
X67209565Y-104395116D01*
X67228926Y-104375725D01*
X67249292Y-104357885D01*
X67270663Y-104341596D01*
X67293039Y-104326858D01*
X67316419Y-104313672D01*
X67340803Y-104302037D01*
X67366193Y-104291953D01*
X67392587Y-104283421D01*
X67419985Y-104276440D01*
X67448389Y-104271010D01*
X67462967Y-104268877D01*
X67477796Y-104267132D01*
X67492877Y-104265775D01*
X67508209Y-104264805D01*
X67523792Y-104264223D01*
X67539626Y-104264030D01*
X67555415Y-104264224D01*
G37*
D11*
X187761904Y-105706819D02*
X187190476Y-105706819D01*
X187476190Y-106706819D02*
X187476190Y-105706819D01*
X186857142Y-106706819D02*
X186857142Y-105706819D01*
X186857142Y-105706819D02*
X186476190Y-105706819D01*
X186476190Y-105706819D02*
X186380952Y-105754438D01*
X186380952Y-105754438D02*
X186333333Y-105802057D01*
X186333333Y-105802057D02*
X186285714Y-105897295D01*
X186285714Y-105897295D02*
X186285714Y-106040152D01*
X186285714Y-106040152D02*
X186333333Y-106135390D01*
X186333333Y-106135390D02*
X186380952Y-106183009D01*
X186380952Y-106183009D02*
X186476190Y-106230628D01*
X186476190Y-106230628D02*
X186857142Y-106230628D01*
X185333333Y-106706819D02*
X185904761Y-106706819D01*
X185619047Y-106706819D02*
X185619047Y-105706819D01*
X185619047Y-105706819D02*
X185714285Y-105849676D01*
X185714285Y-105849676D02*
X185809523Y-105944914D01*
X185809523Y-105944914D02*
X185904761Y-105992533D01*
X184761904Y-105706819D02*
X184190476Y-105706819D01*
X184476190Y-106706819D02*
X184476190Y-105706819D01*
X183857142Y-106706819D02*
X183857142Y-105706819D01*
X183857142Y-105706819D02*
X183476190Y-105706819D01*
X183476190Y-105706819D02*
X183380952Y-105754438D01*
X183380952Y-105754438D02*
X183333333Y-105802057D01*
X183333333Y-105802057D02*
X183285714Y-105897295D01*
X183285714Y-105897295D02*
X183285714Y-106040152D01*
X183285714Y-106040152D02*
X183333333Y-106135390D01*
X183333333Y-106135390D02*
X183380952Y-106183009D01*
X183380952Y-106183009D02*
X183476190Y-106230628D01*
X183476190Y-106230628D02*
X183857142Y-106230628D01*
X182904761Y-105802057D02*
X182857142Y-105754438D01*
X182857142Y-105754438D02*
X182761904Y-105706819D01*
X182761904Y-105706819D02*
X182523809Y-105706819D01*
X182523809Y-105706819D02*
X182428571Y-105754438D01*
X182428571Y-105754438D02*
X182380952Y-105802057D01*
X182380952Y-105802057D02*
X182333333Y-105897295D01*
X182333333Y-105897295D02*
X182333333Y-105992533D01*
X182333333Y-105992533D02*
X182380952Y-106135390D01*
X182380952Y-106135390D02*
X182952380Y-106706819D01*
X182952380Y-106706819D02*
X182333333Y-106706819D01*
X181761904Y-105706819D02*
X181190476Y-105706819D01*
X181476190Y-106706819D02*
X181476190Y-105706819D01*
X180857142Y-106706819D02*
X180857142Y-105706819D01*
X180857142Y-105706819D02*
X180476190Y-105706819D01*
X180476190Y-105706819D02*
X180380952Y-105754438D01*
X180380952Y-105754438D02*
X180333333Y-105802057D01*
X180333333Y-105802057D02*
X180285714Y-105897295D01*
X180285714Y-105897295D02*
X180285714Y-106040152D01*
X180285714Y-106040152D02*
X180333333Y-106135390D01*
X180333333Y-106135390D02*
X180380952Y-106183009D01*
X180380952Y-106183009D02*
X180476190Y-106230628D01*
X180476190Y-106230628D02*
X180857142Y-106230628D01*
X179952380Y-105706819D02*
X179333333Y-105706819D01*
X179333333Y-105706819D02*
X179666666Y-106087771D01*
X179666666Y-106087771D02*
X179523809Y-106087771D01*
X179523809Y-106087771D02*
X179428571Y-106135390D01*
X179428571Y-106135390D02*
X179380952Y-106183009D01*
X179380952Y-106183009D02*
X179333333Y-106278247D01*
X179333333Y-106278247D02*
X179333333Y-106516342D01*
X179333333Y-106516342D02*
X179380952Y-106611580D01*
X179380952Y-106611580D02*
X179428571Y-106659200D01*
X179428571Y-106659200D02*
X179523809Y-106706819D01*
X179523809Y-106706819D02*
X179809523Y-106706819D01*
X179809523Y-106706819D02*
X179904761Y-106659200D01*
X179904761Y-106659200D02*
X179952380Y-106611580D01*
X178761904Y-105706819D02*
X178190476Y-105706819D01*
X178476190Y-106706819D02*
X178476190Y-105706819D01*
X177857142Y-106706819D02*
X177857142Y-105706819D01*
X177857142Y-105706819D02*
X177476190Y-105706819D01*
X177476190Y-105706819D02*
X177380952Y-105754438D01*
X177380952Y-105754438D02*
X177333333Y-105802057D01*
X177333333Y-105802057D02*
X177285714Y-105897295D01*
X177285714Y-105897295D02*
X177285714Y-106040152D01*
X177285714Y-106040152D02*
X177333333Y-106135390D01*
X177333333Y-106135390D02*
X177380952Y-106183009D01*
X177380952Y-106183009D02*
X177476190Y-106230628D01*
X177476190Y-106230628D02*
X177857142Y-106230628D01*
X176428571Y-106040152D02*
X176428571Y-106706819D01*
X176666666Y-105659200D02*
X176904761Y-106373485D01*
X176904761Y-106373485D02*
X176285714Y-106373485D01*
X175761904Y-105706819D02*
X175190476Y-105706819D01*
X175476190Y-106706819D02*
X175476190Y-105706819D01*
X174857142Y-106706819D02*
X174857142Y-105706819D01*
X174857142Y-105706819D02*
X174476190Y-105706819D01*
X174476190Y-105706819D02*
X174380952Y-105754438D01*
X174380952Y-105754438D02*
X174333333Y-105802057D01*
X174333333Y-105802057D02*
X174285714Y-105897295D01*
X174285714Y-105897295D02*
X174285714Y-106040152D01*
X174285714Y-106040152D02*
X174333333Y-106135390D01*
X174333333Y-106135390D02*
X174380952Y-106183009D01*
X174380952Y-106183009D02*
X174476190Y-106230628D01*
X174476190Y-106230628D02*
X174857142Y-106230628D01*
X173380952Y-105706819D02*
X173857142Y-105706819D01*
X173857142Y-105706819D02*
X173904761Y-106183009D01*
X173904761Y-106183009D02*
X173857142Y-106135390D01*
X173857142Y-106135390D02*
X173761904Y-106087771D01*
X173761904Y-106087771D02*
X173523809Y-106087771D01*
X173523809Y-106087771D02*
X173428571Y-106135390D01*
X173428571Y-106135390D02*
X173380952Y-106183009D01*
X173380952Y-106183009D02*
X173333333Y-106278247D01*
X173333333Y-106278247D02*
X173333333Y-106516342D01*
X173333333Y-106516342D02*
X173380952Y-106611580D01*
X173380952Y-106611580D02*
X173428571Y-106659200D01*
X173428571Y-106659200D02*
X173523809Y-106706819D01*
X173523809Y-106706819D02*
X173761904Y-106706819D01*
X173761904Y-106706819D02*
X173857142Y-106659200D01*
X173857142Y-106659200D02*
X173904761Y-106611580D01*
X138068990Y-107654761D02*
X138021371Y-107511904D01*
X138021371Y-107511904D02*
X137973752Y-107464285D01*
X137973752Y-107464285D02*
X137878514Y-107416666D01*
X137878514Y-107416666D02*
X137735657Y-107416666D01*
X137735657Y-107416666D02*
X137640419Y-107464285D01*
X137640419Y-107464285D02*
X137592800Y-107511904D01*
X137592800Y-107511904D02*
X137545180Y-107607142D01*
X137545180Y-107607142D02*
X137545180Y-107988094D01*
X137545180Y-107988094D02*
X138545180Y-107988094D01*
X138545180Y-107988094D02*
X138545180Y-107654761D01*
X138545180Y-107654761D02*
X138497561Y-107559523D01*
X138497561Y-107559523D02*
X138449942Y-107511904D01*
X138449942Y-107511904D02*
X138354704Y-107464285D01*
X138354704Y-107464285D02*
X138259466Y-107464285D01*
X138259466Y-107464285D02*
X138164228Y-107511904D01*
X138164228Y-107511904D02*
X138116609Y-107559523D01*
X138116609Y-107559523D02*
X138068990Y-107654761D01*
X138068990Y-107654761D02*
X138068990Y-107988094D01*
X137545180Y-106416666D02*
X138021371Y-106749999D01*
X137545180Y-106988094D02*
X138545180Y-106988094D01*
X138545180Y-106988094D02*
X138545180Y-106607142D01*
X138545180Y-106607142D02*
X138497561Y-106511904D01*
X138497561Y-106511904D02*
X138449942Y-106464285D01*
X138449942Y-106464285D02*
X138354704Y-106416666D01*
X138354704Y-106416666D02*
X138211847Y-106416666D01*
X138211847Y-106416666D02*
X138116609Y-106464285D01*
X138116609Y-106464285D02*
X138068990Y-106511904D01*
X138068990Y-106511904D02*
X138021371Y-106607142D01*
X138021371Y-106607142D02*
X138021371Y-106988094D01*
X137545180Y-105464285D02*
X137545180Y-106035713D01*
X137545180Y-105749999D02*
X138545180Y-105749999D01*
X138545180Y-105749999D02*
X138402323Y-105845237D01*
X138402323Y-105845237D02*
X138307085Y-105940475D01*
X138307085Y-105940475D02*
X138259466Y-106035713D01*
X152461554Y-113609580D02*
X152509173Y-113657200D01*
X152509173Y-113657200D02*
X152652030Y-113704819D01*
X152652030Y-113704819D02*
X152747268Y-113704819D01*
X152747268Y-113704819D02*
X152890125Y-113657200D01*
X152890125Y-113657200D02*
X152985363Y-113561961D01*
X152985363Y-113561961D02*
X153032982Y-113466723D01*
X153032982Y-113466723D02*
X153080601Y-113276247D01*
X153080601Y-113276247D02*
X153080601Y-113133390D01*
X153080601Y-113133390D02*
X153032982Y-112942914D01*
X153032982Y-112942914D02*
X152985363Y-112847676D01*
X152985363Y-112847676D02*
X152890125Y-112752438D01*
X152890125Y-112752438D02*
X152747268Y-112704819D01*
X152747268Y-112704819D02*
X152652030Y-112704819D01*
X152652030Y-112704819D02*
X152509173Y-112752438D01*
X152509173Y-112752438D02*
X152461554Y-112800057D01*
X151509173Y-113704819D02*
X152080601Y-113704819D01*
X151794887Y-113704819D02*
X151794887Y-112704819D01*
X151794887Y-112704819D02*
X151890125Y-112847676D01*
X151890125Y-112847676D02*
X151985363Y-112942914D01*
X151985363Y-112942914D02*
X152080601Y-112990533D01*
X142833333Y-92954819D02*
X142833333Y-93669104D01*
X142833333Y-93669104D02*
X142880952Y-93811961D01*
X142880952Y-93811961D02*
X142976190Y-93907200D01*
X142976190Y-93907200D02*
X143119047Y-93954819D01*
X143119047Y-93954819D02*
X143214285Y-93954819D01*
X142404761Y-93050057D02*
X142357142Y-93002438D01*
X142357142Y-93002438D02*
X142261904Y-92954819D01*
X142261904Y-92954819D02*
X142023809Y-92954819D01*
X142023809Y-92954819D02*
X141928571Y-93002438D01*
X141928571Y-93002438D02*
X141880952Y-93050057D01*
X141880952Y-93050057D02*
X141833333Y-93145295D01*
X141833333Y-93145295D02*
X141833333Y-93240533D01*
X141833333Y-93240533D02*
X141880952Y-93383390D01*
X141880952Y-93383390D02*
X142452380Y-93954819D01*
X142452380Y-93954819D02*
X141833333Y-93954819D01*
X149761904Y-115904819D02*
X149761904Y-116714342D01*
X149761904Y-116714342D02*
X149714285Y-116809580D01*
X149714285Y-116809580D02*
X149666666Y-116857200D01*
X149666666Y-116857200D02*
X149571428Y-116904819D01*
X149571428Y-116904819D02*
X149380952Y-116904819D01*
X149380952Y-116904819D02*
X149285714Y-116857200D01*
X149285714Y-116857200D02*
X149238095Y-116809580D01*
X149238095Y-116809580D02*
X149190476Y-116714342D01*
X149190476Y-116714342D02*
X149190476Y-115904819D01*
X148190476Y-116904819D02*
X148761904Y-116904819D01*
X148476190Y-116904819D02*
X148476190Y-115904819D01*
X148476190Y-115904819D02*
X148571428Y-116047676D01*
X148571428Y-116047676D02*
X148666666Y-116142914D01*
X148666666Y-116142914D02*
X148761904Y-116190533D01*
X162761904Y-101204819D02*
X162761904Y-102014342D01*
X162761904Y-102014342D02*
X162714285Y-102109580D01*
X162714285Y-102109580D02*
X162666666Y-102157200D01*
X162666666Y-102157200D02*
X162571428Y-102204819D01*
X162571428Y-102204819D02*
X162380952Y-102204819D01*
X162380952Y-102204819D02*
X162285714Y-102157200D01*
X162285714Y-102157200D02*
X162238095Y-102109580D01*
X162238095Y-102109580D02*
X162190476Y-102014342D01*
X162190476Y-102014342D02*
X162190476Y-101204819D01*
X161761904Y-101300057D02*
X161714285Y-101252438D01*
X161714285Y-101252438D02*
X161619047Y-101204819D01*
X161619047Y-101204819D02*
X161380952Y-101204819D01*
X161380952Y-101204819D02*
X161285714Y-101252438D01*
X161285714Y-101252438D02*
X161238095Y-101300057D01*
X161238095Y-101300057D02*
X161190476Y-101395295D01*
X161190476Y-101395295D02*
X161190476Y-101490533D01*
X161190476Y-101490533D02*
X161238095Y-101633390D01*
X161238095Y-101633390D02*
X161809523Y-102204819D01*
X161809523Y-102204819D02*
X161190476Y-102204819D01*
X161859580Y-110583333D02*
X161907200Y-110535714D01*
X161907200Y-110535714D02*
X161954819Y-110392857D01*
X161954819Y-110392857D02*
X161954819Y-110297619D01*
X161954819Y-110297619D02*
X161907200Y-110154762D01*
X161907200Y-110154762D02*
X161811961Y-110059524D01*
X161811961Y-110059524D02*
X161716723Y-110011905D01*
X161716723Y-110011905D02*
X161526247Y-109964286D01*
X161526247Y-109964286D02*
X161383390Y-109964286D01*
X161383390Y-109964286D02*
X161192914Y-110011905D01*
X161192914Y-110011905D02*
X161097676Y-110059524D01*
X161097676Y-110059524D02*
X161002438Y-110154762D01*
X161002438Y-110154762D02*
X160954819Y-110297619D01*
X160954819Y-110297619D02*
X160954819Y-110392857D01*
X160954819Y-110392857D02*
X161002438Y-110535714D01*
X161002438Y-110535714D02*
X161050057Y-110583333D01*
X160954819Y-111488095D02*
X160954819Y-111011905D01*
X160954819Y-111011905D02*
X161431009Y-110964286D01*
X161431009Y-110964286D02*
X161383390Y-111011905D01*
X161383390Y-111011905D02*
X161335771Y-111107143D01*
X161335771Y-111107143D02*
X161335771Y-111345238D01*
X161335771Y-111345238D02*
X161383390Y-111440476D01*
X161383390Y-111440476D02*
X161431009Y-111488095D01*
X161431009Y-111488095D02*
X161526247Y-111535714D01*
X161526247Y-111535714D02*
X161764342Y-111535714D01*
X161764342Y-111535714D02*
X161859580Y-111488095D01*
X161859580Y-111488095D02*
X161907200Y-111440476D01*
X161907200Y-111440476D02*
X161954819Y-111345238D01*
X161954819Y-111345238D02*
X161954819Y-111107143D01*
X161954819Y-111107143D02*
X161907200Y-111011905D01*
X161907200Y-111011905D02*
X161859580Y-110964286D01*
D12*
%TO.C,TP1*%
X185300000Y-109450000D02*
X187700000Y-109450000D01*
X185300000Y-107050000D02*
X185300000Y-109450000D01*
X187700000Y-109450000D02*
X187700000Y-107050000D01*
X187700000Y-107050000D02*
X185300000Y-107050000D01*
%TO.C,TP2*%
X182300000Y-109450000D02*
X184700000Y-109450000D01*
X182300000Y-107050000D02*
X182300000Y-109450000D01*
X184700000Y-109450000D02*
X184700000Y-107050000D01*
X184700000Y-107050000D02*
X182300000Y-107050000D01*
%TO.C,TP3*%
X179300000Y-109450000D02*
X181700000Y-109450000D01*
X179300000Y-107050000D02*
X179300000Y-109450000D01*
X181700000Y-109450000D02*
X181700000Y-107050000D01*
X181700000Y-107050000D02*
X179300000Y-107050000D01*
%TO.C,TP4*%
X176300000Y-109450000D02*
X178700000Y-109450000D01*
X176300000Y-107050000D02*
X176300000Y-109450000D01*
X178700000Y-109450000D02*
X178700000Y-107050000D01*
X178700000Y-107050000D02*
X176300000Y-107050000D01*
%TO.C,TP5*%
X173300000Y-109450000D02*
X175700000Y-109450000D01*
X173300000Y-107050000D02*
X173300000Y-109450000D01*
X175700000Y-109450000D02*
X175700000Y-107050000D01*
X175700000Y-107050000D02*
X173300000Y-107050000D01*
D13*
%TO.C,BR1*%
X139595760Y-110979100D02*
X136404240Y-110979100D01*
X134444000Y-110979100D02*
X134444000Y-102520900D01*
X141556000Y-102520900D02*
X141556000Y-110979100D01*
X136404240Y-102520900D02*
X139595760Y-102520900D01*
X142101600Y-111750000D02*
G75*
G03*
X142101600Y-111750000I-101600J0D01*
G01*
D12*
%TO.C,C1*%
X149490113Y-110975000D02*
X149990113Y-110975000D01*
X149740113Y-111225000D02*
X149740113Y-110725000D01*
X152294888Y-112080000D02*
X152294888Y-110540000D01*
X152294888Y-108460000D02*
X152294888Y-106920000D01*
X152334888Y-112080000D02*
X152334888Y-110540000D01*
X152334888Y-108460000D02*
X152334888Y-106920000D01*
X152374888Y-112079000D02*
X152374888Y-110540000D01*
X152374888Y-108460000D02*
X152374888Y-106921000D01*
X152414888Y-112078000D02*
X152414888Y-110540000D01*
X152414888Y-108460000D02*
X152414888Y-106922000D01*
X152454888Y-112076000D02*
X152454888Y-110540000D01*
X152454888Y-108460000D02*
X152454888Y-106924000D01*
X152494888Y-112073000D02*
X152494888Y-110540000D01*
X152494888Y-108460000D02*
X152494888Y-106927000D01*
X152534888Y-112069000D02*
X152534888Y-110540000D01*
X152534888Y-108460000D02*
X152534888Y-106931000D01*
X152574888Y-112065000D02*
X152574888Y-110540000D01*
X152574888Y-108460000D02*
X152574888Y-106935000D01*
X152614888Y-112061000D02*
X152614888Y-110540000D01*
X152614888Y-108460000D02*
X152614888Y-106939000D01*
X152654888Y-112056000D02*
X152654888Y-110540000D01*
X152654888Y-108460000D02*
X152654888Y-106944000D01*
X152694888Y-112050000D02*
X152694888Y-110540000D01*
X152694888Y-108460000D02*
X152694888Y-106950000D01*
X152734888Y-112043000D02*
X152734888Y-110540000D01*
X152734888Y-108460000D02*
X152734888Y-106957000D01*
X152774888Y-112036000D02*
X152774888Y-110540000D01*
X152774888Y-108460000D02*
X152774888Y-106964000D01*
X152814888Y-112028000D02*
X152814888Y-110540000D01*
X152814888Y-108460000D02*
X152814888Y-106972000D01*
X152854888Y-112020000D02*
X152854888Y-110540000D01*
X152854888Y-108460000D02*
X152854888Y-106980000D01*
X152894888Y-112011000D02*
X152894888Y-110540000D01*
X152894888Y-108460000D02*
X152894888Y-106989000D01*
X152934888Y-112001000D02*
X152934888Y-110540000D01*
X152934888Y-108460000D02*
X152934888Y-106999000D01*
X152974888Y-111991000D02*
X152974888Y-110540000D01*
X152974888Y-108460000D02*
X152974888Y-107009000D01*
X153015888Y-111980000D02*
X153015888Y-110540000D01*
X153015888Y-108460000D02*
X153015888Y-107020000D01*
X153055888Y-111968000D02*
X153055888Y-110540000D01*
X153055888Y-108460000D02*
X153055888Y-107032000D01*
X153095888Y-111955000D02*
X153095888Y-110540000D01*
X153095888Y-108460000D02*
X153095888Y-107045000D01*
X153135888Y-111942000D02*
X153135888Y-110540000D01*
X153135888Y-108460000D02*
X153135888Y-107058000D01*
X153175888Y-111928000D02*
X153175888Y-110540000D01*
X153175888Y-108460000D02*
X153175888Y-107072000D01*
X153215888Y-111914000D02*
X153215888Y-110540000D01*
X153215888Y-108460000D02*
X153215888Y-107086000D01*
X153255888Y-111898000D02*
X153255888Y-110540000D01*
X153255888Y-108460000D02*
X153255888Y-107102000D01*
X153295888Y-111882000D02*
X153295888Y-110540000D01*
X153295888Y-108460000D02*
X153295888Y-107118000D01*
X153335888Y-111865000D02*
X153335888Y-110540000D01*
X153335888Y-108460000D02*
X153335888Y-107135000D01*
X153375888Y-111848000D02*
X153375888Y-110540000D01*
X153375888Y-108460000D02*
X153375888Y-107152000D01*
X153415888Y-111829000D02*
X153415888Y-110540000D01*
X153415888Y-108460000D02*
X153415888Y-107171000D01*
X153455888Y-111810000D02*
X153455888Y-110540000D01*
X153455888Y-108460000D02*
X153455888Y-107190000D01*
X153495888Y-111790000D02*
X153495888Y-110540000D01*
X153495888Y-108460000D02*
X153495888Y-107210000D01*
X153535888Y-111768000D02*
X153535888Y-110540000D01*
X153535888Y-108460000D02*
X153535888Y-107232000D01*
X153575888Y-111747000D02*
X153575888Y-110540000D01*
X153575888Y-108460000D02*
X153575888Y-107253000D01*
X153615888Y-111724000D02*
X153615888Y-110540000D01*
X153615888Y-108460000D02*
X153615888Y-107276000D01*
X153655888Y-111700000D02*
X153655888Y-110540000D01*
X153655888Y-108460000D02*
X153655888Y-107300000D01*
X153695888Y-111675000D02*
X153695888Y-110540000D01*
X153695888Y-108460000D02*
X153695888Y-107325000D01*
X153735888Y-111649000D02*
X153735888Y-110540000D01*
X153735888Y-108460000D02*
X153735888Y-107351000D01*
X153775888Y-111622000D02*
X153775888Y-110540000D01*
X153775888Y-108460000D02*
X153775888Y-107378000D01*
X153815888Y-111595000D02*
X153815888Y-110540000D01*
X153815888Y-108460000D02*
X153815888Y-107405000D01*
X153855888Y-111565000D02*
X153855888Y-110540000D01*
X153855888Y-108460000D02*
X153855888Y-107435000D01*
X153895888Y-111535000D02*
X153895888Y-110540000D01*
X153895888Y-108460000D02*
X153895888Y-107465000D01*
X153935888Y-111504000D02*
X153935888Y-110540000D01*
X153935888Y-108460000D02*
X153935888Y-107496000D01*
X153975888Y-111471000D02*
X153975888Y-110540000D01*
X153975888Y-108460000D02*
X153975888Y-107529000D01*
X154015888Y-111437000D02*
X154015888Y-110540000D01*
X154015888Y-108460000D02*
X154015888Y-107563000D01*
X154055888Y-111401000D02*
X154055888Y-110540000D01*
X154055888Y-108460000D02*
X154055888Y-107599000D01*
X154095888Y-111364000D02*
X154095888Y-110540000D01*
X154095888Y-108460000D02*
X154095888Y-107636000D01*
X154135888Y-111326000D02*
X154135888Y-110540000D01*
X154135888Y-108460000D02*
X154135888Y-107674000D01*
X154175888Y-111285000D02*
X154175888Y-110540000D01*
X154175888Y-108460000D02*
X154175888Y-107715000D01*
X154215888Y-111243000D02*
X154215888Y-110540000D01*
X154215888Y-108460000D02*
X154215888Y-107757000D01*
X154255888Y-111199000D02*
X154255888Y-110540000D01*
X154255888Y-108460000D02*
X154255888Y-107801000D01*
X154295888Y-111153000D02*
X154295888Y-110540000D01*
X154295888Y-108460000D02*
X154295888Y-107847000D01*
X154335888Y-111105000D02*
X154335888Y-107895000D01*
X154375888Y-111054000D02*
X154375888Y-107946000D01*
X154415888Y-111000000D02*
X154415888Y-108000000D01*
X154455888Y-110943000D02*
X154455888Y-108057000D01*
X154495888Y-110883000D02*
X154495888Y-108117000D01*
X154535888Y-110819000D02*
X154535888Y-108181000D01*
X154575888Y-110751000D02*
X154575888Y-108249000D01*
X154615888Y-110678000D02*
X154615888Y-108322000D01*
X154655888Y-110598000D02*
X154655888Y-108402000D01*
X154695888Y-110511000D02*
X154695888Y-108489000D01*
X154735888Y-110415000D02*
X154735888Y-108585000D01*
X154775888Y-110305000D02*
X154775888Y-108695000D01*
X154815888Y-110177000D02*
X154815888Y-108823000D01*
X154855888Y-110018000D02*
X154855888Y-108982000D01*
X154895888Y-109784000D02*
X154895888Y-109216000D01*
X154914888Y-109500000D02*
G75*
G03*
X154914888Y-109500000I-2620000J0D01*
G01*
%TO.C,J2*%
X156425000Y-94387500D02*
X156425000Y-98837500D01*
X156425000Y-100237500D02*
X156425000Y-102537500D01*
X156425000Y-103937500D02*
X156425000Y-104657500D01*
X156425000Y-104657500D02*
X153745000Y-104657500D01*
X154945000Y-93017500D02*
X154085000Y-93017500D01*
X151445000Y-104657500D02*
X147775000Y-104657500D01*
X145475000Y-104657500D02*
X144245000Y-104657500D01*
X144245000Y-104657500D02*
X144245000Y-94837500D01*
%TO.C,U1*%
X148120000Y-112440000D02*
X149880000Y-112440000D01*
X149880000Y-115510000D02*
X147450000Y-115510000D01*
%TO.C,U2*%
X160550000Y-100900000D02*
X162950000Y-100900000D01*
X161150000Y-97600000D02*
X162950000Y-97600000D01*
X162950000Y-100900000D02*
X162950000Y-99850000D01*
X162950000Y-97600000D02*
X162950000Y-98650000D01*
%TO.C,C5*%
X160370000Y-110750000D02*
G75*
G03*
X160370000Y-110750000I-2620000J0D01*
G01*
X158034000Y-108149000D02*
X157466000Y-108149000D01*
X158268000Y-108189000D02*
X157232000Y-108189000D01*
X158427000Y-108229000D02*
X157073000Y-108229000D01*
X158555000Y-108269000D02*
X156945000Y-108269000D01*
X158665000Y-108309000D02*
X156835000Y-108309000D01*
X158761000Y-108349000D02*
X156739000Y-108349000D01*
X158848000Y-108389000D02*
X156652000Y-108389000D01*
X158928000Y-108429000D02*
X156572000Y-108429000D01*
X159001000Y-108469000D02*
X156499000Y-108469000D01*
X159069000Y-108509000D02*
X156431000Y-108509000D01*
X159133000Y-108549000D02*
X156367000Y-108549000D01*
X159193000Y-108589000D02*
X156307000Y-108589000D01*
X159250000Y-108629000D02*
X156250000Y-108629000D01*
X159304000Y-108669000D02*
X156196000Y-108669000D01*
X159355000Y-108709000D02*
X156145000Y-108709000D01*
X156710000Y-108749000D02*
X156097000Y-108749000D01*
X159403000Y-108749000D02*
X158790000Y-108749000D01*
X156710000Y-108789000D02*
X156051000Y-108789000D01*
X159449000Y-108789000D02*
X158790000Y-108789000D01*
X156710000Y-108829000D02*
X156007000Y-108829000D01*
X159493000Y-108829000D02*
X158790000Y-108829000D01*
X156710000Y-108869000D02*
X155965000Y-108869000D01*
X159535000Y-108869000D02*
X158790000Y-108869000D01*
X156710000Y-108909000D02*
X155924000Y-108909000D01*
X159576000Y-108909000D02*
X158790000Y-108909000D01*
X156710000Y-108949000D02*
X155886000Y-108949000D01*
X159614000Y-108949000D02*
X158790000Y-108949000D01*
X156710000Y-108989000D02*
X155849000Y-108989000D01*
X159651000Y-108989000D02*
X158790000Y-108989000D01*
X156710000Y-109029000D02*
X155813000Y-109029000D01*
X159687000Y-109029000D02*
X158790000Y-109029000D01*
X156710000Y-109069000D02*
X155779000Y-109069000D01*
X159721000Y-109069000D02*
X158790000Y-109069000D01*
X156710000Y-109109000D02*
X155746000Y-109109000D01*
X159754000Y-109109000D02*
X158790000Y-109109000D01*
X156710000Y-109149000D02*
X155715000Y-109149000D01*
X159785000Y-109149000D02*
X158790000Y-109149000D01*
X156710000Y-109189000D02*
X155685000Y-109189000D01*
X159815000Y-109189000D02*
X158790000Y-109189000D01*
X156710000Y-109229000D02*
X155655000Y-109229000D01*
X159845000Y-109229000D02*
X158790000Y-109229000D01*
X156710000Y-109269000D02*
X155628000Y-109269000D01*
X159872000Y-109269000D02*
X158790000Y-109269000D01*
X156710000Y-109309000D02*
X155601000Y-109309000D01*
X159899000Y-109309000D02*
X158790000Y-109309000D01*
X156710000Y-109349000D02*
X155575000Y-109349000D01*
X159925000Y-109349000D02*
X158790000Y-109349000D01*
X156710000Y-109389000D02*
X155550000Y-109389000D01*
X159950000Y-109389000D02*
X158790000Y-109389000D01*
X156710000Y-109429000D02*
X155526000Y-109429000D01*
X159974000Y-109429000D02*
X158790000Y-109429000D01*
X156710000Y-109469000D02*
X155503000Y-109469000D01*
X159997000Y-109469000D02*
X158790000Y-109469000D01*
X156710000Y-109509000D02*
X155482000Y-109509000D01*
X160018000Y-109509000D02*
X158790000Y-109509000D01*
X156710000Y-109549000D02*
X155460000Y-109549000D01*
X160040000Y-109549000D02*
X158790000Y-109549000D01*
X156710000Y-109589000D02*
X155440000Y-109589000D01*
X160060000Y-109589000D02*
X158790000Y-109589000D01*
X156710000Y-109629000D02*
X155421000Y-109629000D01*
X160079000Y-109629000D02*
X158790000Y-109629000D01*
X156710000Y-109669000D02*
X155402000Y-109669000D01*
X160098000Y-109669000D02*
X158790000Y-109669000D01*
X156710000Y-109709000D02*
X155385000Y-109709000D01*
X160115000Y-109709000D02*
X158790000Y-109709000D01*
X156710000Y-109749000D02*
X155368000Y-109749000D01*
X160132000Y-109749000D02*
X158790000Y-109749000D01*
X156710000Y-109789000D02*
X155352000Y-109789000D01*
X160148000Y-109789000D02*
X158790000Y-109789000D01*
X156710000Y-109829000D02*
X155336000Y-109829000D01*
X160164000Y-109829000D02*
X158790000Y-109829000D01*
X156710000Y-109869000D02*
X155322000Y-109869000D01*
X160178000Y-109869000D02*
X158790000Y-109869000D01*
X156710000Y-109909000D02*
X155308000Y-109909000D01*
X160192000Y-109909000D02*
X158790000Y-109909000D01*
X156710000Y-109949000D02*
X155295000Y-109949000D01*
X160205000Y-109949000D02*
X158790000Y-109949000D01*
X156710000Y-109989000D02*
X155282000Y-109989000D01*
X160218000Y-109989000D02*
X158790000Y-109989000D01*
X156710000Y-110029000D02*
X155270000Y-110029000D01*
X160230000Y-110029000D02*
X158790000Y-110029000D01*
X156710000Y-110070000D02*
X155259000Y-110070000D01*
X160241000Y-110070000D02*
X158790000Y-110070000D01*
X156710000Y-110110000D02*
X155249000Y-110110000D01*
X160251000Y-110110000D02*
X158790000Y-110110000D01*
X156710000Y-110150000D02*
X155239000Y-110150000D01*
X160261000Y-110150000D02*
X158790000Y-110150000D01*
X156710000Y-110190000D02*
X155230000Y-110190000D01*
X160270000Y-110190000D02*
X158790000Y-110190000D01*
X156710000Y-110230000D02*
X155222000Y-110230000D01*
X160278000Y-110230000D02*
X158790000Y-110230000D01*
X156710000Y-110270000D02*
X155214000Y-110270000D01*
X160286000Y-110270000D02*
X158790000Y-110270000D01*
X156710000Y-110310000D02*
X155207000Y-110310000D01*
X160293000Y-110310000D02*
X158790000Y-110310000D01*
X156710000Y-110350000D02*
X155200000Y-110350000D01*
X160300000Y-110350000D02*
X158790000Y-110350000D01*
X156710000Y-110390000D02*
X155194000Y-110390000D01*
X160306000Y-110390000D02*
X158790000Y-110390000D01*
X156710000Y-110430000D02*
X155189000Y-110430000D01*
X160311000Y-110430000D02*
X158790000Y-110430000D01*
X156710000Y-110470000D02*
X155185000Y-110470000D01*
X160315000Y-110470000D02*
X158790000Y-110470000D01*
X156710000Y-110510000D02*
X155181000Y-110510000D01*
X160319000Y-110510000D02*
X158790000Y-110510000D01*
X156710000Y-110550000D02*
X155177000Y-110550000D01*
X160323000Y-110550000D02*
X158790000Y-110550000D01*
X156710000Y-110590000D02*
X155174000Y-110590000D01*
X160326000Y-110590000D02*
X158790000Y-110590000D01*
X156710000Y-110630000D02*
X155172000Y-110630000D01*
X160328000Y-110630000D02*
X158790000Y-110630000D01*
X156710000Y-110670000D02*
X155171000Y-110670000D01*
X160329000Y-110670000D02*
X158790000Y-110670000D01*
X156710000Y-110710000D02*
X155170000Y-110710000D01*
X160330000Y-110710000D02*
X158790000Y-110710000D01*
X156710000Y-110750000D02*
X155170000Y-110750000D01*
X160330000Y-110750000D02*
X158790000Y-110750000D01*
X159475000Y-113304775D02*
X158975000Y-113304775D01*
X159225000Y-113554775D02*
X159225000Y-113054775D01*
%TD*%
M02*
