%TF.GenerationSoftware,KiCad,Pcbnew,7.0.10-7.0.10~ubuntu22.04.1*%
%TF.CreationDate,2024-01-14T15:54:16-07:00*%
%TF.ProjectId,tiny_pov_arm,74696e79-5f70-46f7-965f-61726d2e6b69,rev?*%
%TF.SameCoordinates,Original*%
%TF.FileFunction,Legend,Top*%
%TF.FilePolarity,Positive*%
%FSLAX46Y46*%
G04 Gerber Fmt 4.6, Leading zero omitted, Abs format (unit mm)*
G04 Created by KiCad (PCBNEW 7.0.10-7.0.10~ubuntu22.04.1) date 2024-01-14 15:54:16*
%MOMM*%
%LPD*%
G01*
G04 APERTURE LIST*
%ADD10C,0.150000*%
%ADD11C,0.127000*%
%ADD12C,0.200000*%
%ADD13C,0.120000*%
G04 APERTURE END LIST*
D10*
X253559618Y-98381876D02*
X253559618Y-97741876D01*
X253559618Y-97741876D02*
X253711999Y-97741876D01*
X253711999Y-97741876D02*
X253803428Y-97772352D01*
X253803428Y-97772352D02*
X253864380Y-97833304D01*
X253864380Y-97833304D02*
X253894857Y-97894257D01*
X253894857Y-97894257D02*
X253925333Y-98016161D01*
X253925333Y-98016161D02*
X253925333Y-98107590D01*
X253925333Y-98107590D02*
X253894857Y-98229495D01*
X253894857Y-98229495D02*
X253864380Y-98290447D01*
X253864380Y-98290447D02*
X253803428Y-98351400D01*
X253803428Y-98351400D02*
X253711999Y-98381876D01*
X253711999Y-98381876D02*
X253559618Y-98381876D01*
X254504380Y-97741876D02*
X254199618Y-97741876D01*
X254199618Y-97741876D02*
X254169142Y-98046638D01*
X254169142Y-98046638D02*
X254199618Y-98016161D01*
X254199618Y-98016161D02*
X254260571Y-97985685D01*
X254260571Y-97985685D02*
X254412952Y-97985685D01*
X254412952Y-97985685D02*
X254473904Y-98016161D01*
X254473904Y-98016161D02*
X254504380Y-98046638D01*
X254504380Y-98046638D02*
X254534857Y-98107590D01*
X254534857Y-98107590D02*
X254534857Y-98259971D01*
X254534857Y-98259971D02*
X254504380Y-98320923D01*
X254504380Y-98320923D02*
X254473904Y-98351400D01*
X254473904Y-98351400D02*
X254412952Y-98381876D01*
X254412952Y-98381876D02*
X254260571Y-98381876D01*
X254260571Y-98381876D02*
X254199618Y-98351400D01*
X254199618Y-98351400D02*
X254169142Y-98320923D01*
X47004856Y-98381876D02*
X47004856Y-97741876D01*
X47004856Y-97741876D02*
X47157237Y-97741876D01*
X47157237Y-97741876D02*
X47248666Y-97772352D01*
X47248666Y-97772352D02*
X47309618Y-97833304D01*
X47309618Y-97833304D02*
X47340095Y-97894257D01*
X47340095Y-97894257D02*
X47370571Y-98016161D01*
X47370571Y-98016161D02*
X47370571Y-98107590D01*
X47370571Y-98107590D02*
X47340095Y-98229495D01*
X47340095Y-98229495D02*
X47309618Y-98290447D01*
X47309618Y-98290447D02*
X47248666Y-98351400D01*
X47248666Y-98351400D02*
X47157237Y-98381876D01*
X47157237Y-98381876D02*
X47004856Y-98381876D01*
X47919142Y-97741876D02*
X47797237Y-97741876D01*
X47797237Y-97741876D02*
X47736285Y-97772352D01*
X47736285Y-97772352D02*
X47705809Y-97802828D01*
X47705809Y-97802828D02*
X47644856Y-97894257D01*
X47644856Y-97894257D02*
X47614380Y-98016161D01*
X47614380Y-98016161D02*
X47614380Y-98259971D01*
X47614380Y-98259971D02*
X47644856Y-98320923D01*
X47644856Y-98320923D02*
X47675333Y-98351400D01*
X47675333Y-98351400D02*
X47736285Y-98381876D01*
X47736285Y-98381876D02*
X47858190Y-98381876D01*
X47858190Y-98381876D02*
X47919142Y-98351400D01*
X47919142Y-98351400D02*
X47949618Y-98320923D01*
X47949618Y-98320923D02*
X47980095Y-98259971D01*
X47980095Y-98259971D02*
X47980095Y-98107590D01*
X47980095Y-98107590D02*
X47949618Y-98046638D01*
X47949618Y-98046638D02*
X47919142Y-98016161D01*
X47919142Y-98016161D02*
X47858190Y-97985685D01*
X47858190Y-97985685D02*
X47736285Y-97985685D01*
X47736285Y-97985685D02*
X47675333Y-98016161D01*
X47675333Y-98016161D02*
X47644856Y-98046638D01*
X47644856Y-98046638D02*
X47614380Y-98107590D01*
X48376285Y-97741876D02*
X48437238Y-97741876D01*
X48437238Y-97741876D02*
X48498190Y-97772352D01*
X48498190Y-97772352D02*
X48528666Y-97802828D01*
X48528666Y-97802828D02*
X48559142Y-97863780D01*
X48559142Y-97863780D02*
X48589619Y-97985685D01*
X48589619Y-97985685D02*
X48589619Y-98138066D01*
X48589619Y-98138066D02*
X48559142Y-98259971D01*
X48559142Y-98259971D02*
X48528666Y-98320923D01*
X48528666Y-98320923D02*
X48498190Y-98351400D01*
X48498190Y-98351400D02*
X48437238Y-98381876D01*
X48437238Y-98381876D02*
X48376285Y-98381876D01*
X48376285Y-98381876D02*
X48315333Y-98351400D01*
X48315333Y-98351400D02*
X48284857Y-98320923D01*
X48284857Y-98320923D02*
X48254380Y-98259971D01*
X48254380Y-98259971D02*
X48223904Y-98138066D01*
X48223904Y-98138066D02*
X48223904Y-97985685D01*
X48223904Y-97985685D02*
X48254380Y-97863780D01*
X48254380Y-97863780D02*
X48284857Y-97802828D01*
X48284857Y-97802828D02*
X48315333Y-97772352D01*
X48315333Y-97772352D02*
X48376285Y-97741876D01*
X129504856Y-98381876D02*
X129504856Y-97741876D01*
X129504856Y-97741876D02*
X129657237Y-97741876D01*
X129657237Y-97741876D02*
X129748666Y-97772352D01*
X129748666Y-97772352D02*
X129809618Y-97833304D01*
X129809618Y-97833304D02*
X129840095Y-97894257D01*
X129840095Y-97894257D02*
X129870571Y-98016161D01*
X129870571Y-98016161D02*
X129870571Y-98107590D01*
X129870571Y-98107590D02*
X129840095Y-98229495D01*
X129840095Y-98229495D02*
X129809618Y-98290447D01*
X129809618Y-98290447D02*
X129748666Y-98351400D01*
X129748666Y-98351400D02*
X129657237Y-98381876D01*
X129657237Y-98381876D02*
X129504856Y-98381876D01*
X130083904Y-97741876D02*
X130480095Y-97741876D01*
X130480095Y-97741876D02*
X130266761Y-97985685D01*
X130266761Y-97985685D02*
X130358190Y-97985685D01*
X130358190Y-97985685D02*
X130419142Y-98016161D01*
X130419142Y-98016161D02*
X130449618Y-98046638D01*
X130449618Y-98046638D02*
X130480095Y-98107590D01*
X130480095Y-98107590D02*
X130480095Y-98259971D01*
X130480095Y-98259971D02*
X130449618Y-98320923D01*
X130449618Y-98320923D02*
X130419142Y-98351400D01*
X130419142Y-98351400D02*
X130358190Y-98381876D01*
X130358190Y-98381876D02*
X130175333Y-98381876D01*
X130175333Y-98381876D02*
X130114380Y-98351400D01*
X130114380Y-98351400D02*
X130083904Y-98320923D01*
X130845809Y-98016161D02*
X130784857Y-97985685D01*
X130784857Y-97985685D02*
X130754380Y-97955209D01*
X130754380Y-97955209D02*
X130723904Y-97894257D01*
X130723904Y-97894257D02*
X130723904Y-97863780D01*
X130723904Y-97863780D02*
X130754380Y-97802828D01*
X130754380Y-97802828D02*
X130784857Y-97772352D01*
X130784857Y-97772352D02*
X130845809Y-97741876D01*
X130845809Y-97741876D02*
X130967714Y-97741876D01*
X130967714Y-97741876D02*
X131028666Y-97772352D01*
X131028666Y-97772352D02*
X131059142Y-97802828D01*
X131059142Y-97802828D02*
X131089619Y-97863780D01*
X131089619Y-97863780D02*
X131089619Y-97894257D01*
X131089619Y-97894257D02*
X131059142Y-97955209D01*
X131059142Y-97955209D02*
X131028666Y-97985685D01*
X131028666Y-97985685D02*
X130967714Y-98016161D01*
X130967714Y-98016161D02*
X130845809Y-98016161D01*
X130845809Y-98016161D02*
X130784857Y-98046638D01*
X130784857Y-98046638D02*
X130754380Y-98077114D01*
X130754380Y-98077114D02*
X130723904Y-98138066D01*
X130723904Y-98138066D02*
X130723904Y-98259971D01*
X130723904Y-98259971D02*
X130754380Y-98320923D01*
X130754380Y-98320923D02*
X130784857Y-98351400D01*
X130784857Y-98351400D02*
X130845809Y-98381876D01*
X130845809Y-98381876D02*
X130967714Y-98381876D01*
X130967714Y-98381876D02*
X131028666Y-98351400D01*
X131028666Y-98351400D02*
X131059142Y-98320923D01*
X131059142Y-98320923D02*
X131089619Y-98259971D01*
X131089619Y-98259971D02*
X131089619Y-98138066D01*
X131089619Y-98138066D02*
X131059142Y-98077114D01*
X131059142Y-98077114D02*
X131028666Y-98046638D01*
X131028666Y-98046638D02*
X130967714Y-98016161D01*
X227004856Y-98381876D02*
X227004856Y-97741876D01*
X227004856Y-97741876D02*
X227157237Y-97741876D01*
X227157237Y-97741876D02*
X227248666Y-97772352D01*
X227248666Y-97772352D02*
X227309618Y-97833304D01*
X227309618Y-97833304D02*
X227340095Y-97894257D01*
X227340095Y-97894257D02*
X227370571Y-98016161D01*
X227370571Y-98016161D02*
X227370571Y-98107590D01*
X227370571Y-98107590D02*
X227340095Y-98229495D01*
X227340095Y-98229495D02*
X227309618Y-98290447D01*
X227309618Y-98290447D02*
X227248666Y-98351400D01*
X227248666Y-98351400D02*
X227157237Y-98381876D01*
X227157237Y-98381876D02*
X227004856Y-98381876D01*
X227980095Y-98381876D02*
X227614380Y-98381876D01*
X227797237Y-98381876D02*
X227797237Y-97741876D01*
X227797237Y-97741876D02*
X227736285Y-97833304D01*
X227736285Y-97833304D02*
X227675333Y-97894257D01*
X227675333Y-97894257D02*
X227614380Y-97924733D01*
X228223904Y-97802828D02*
X228254380Y-97772352D01*
X228254380Y-97772352D02*
X228315333Y-97741876D01*
X228315333Y-97741876D02*
X228467714Y-97741876D01*
X228467714Y-97741876D02*
X228528666Y-97772352D01*
X228528666Y-97772352D02*
X228559142Y-97802828D01*
X228559142Y-97802828D02*
X228589619Y-97863780D01*
X228589619Y-97863780D02*
X228589619Y-97924733D01*
X228589619Y-97924733D02*
X228559142Y-98016161D01*
X228559142Y-98016161D02*
X228193428Y-98381876D01*
X228193428Y-98381876D02*
X228589619Y-98381876D01*
X73254856Y-98381876D02*
X73254856Y-97741876D01*
X73254856Y-97741876D02*
X73407237Y-97741876D01*
X73407237Y-97741876D02*
X73498666Y-97772352D01*
X73498666Y-97772352D02*
X73559618Y-97833304D01*
X73559618Y-97833304D02*
X73590095Y-97894257D01*
X73590095Y-97894257D02*
X73620571Y-98016161D01*
X73620571Y-98016161D02*
X73620571Y-98107590D01*
X73620571Y-98107590D02*
X73590095Y-98229495D01*
X73590095Y-98229495D02*
X73559618Y-98290447D01*
X73559618Y-98290447D02*
X73498666Y-98351400D01*
X73498666Y-98351400D02*
X73407237Y-98381876D01*
X73407237Y-98381876D02*
X73254856Y-98381876D01*
X74199618Y-97741876D02*
X73894856Y-97741876D01*
X73894856Y-97741876D02*
X73864380Y-98046638D01*
X73864380Y-98046638D02*
X73894856Y-98016161D01*
X73894856Y-98016161D02*
X73955809Y-97985685D01*
X73955809Y-97985685D02*
X74108190Y-97985685D01*
X74108190Y-97985685D02*
X74169142Y-98016161D01*
X74169142Y-98016161D02*
X74199618Y-98046638D01*
X74199618Y-98046638D02*
X74230095Y-98107590D01*
X74230095Y-98107590D02*
X74230095Y-98259971D01*
X74230095Y-98259971D02*
X74199618Y-98320923D01*
X74199618Y-98320923D02*
X74169142Y-98351400D01*
X74169142Y-98351400D02*
X74108190Y-98381876D01*
X74108190Y-98381876D02*
X73955809Y-98381876D01*
X73955809Y-98381876D02*
X73894856Y-98351400D01*
X73894856Y-98351400D02*
X73864380Y-98320923D01*
X74443428Y-97741876D02*
X74839619Y-97741876D01*
X74839619Y-97741876D02*
X74626285Y-97985685D01*
X74626285Y-97985685D02*
X74717714Y-97985685D01*
X74717714Y-97985685D02*
X74778666Y-98016161D01*
X74778666Y-98016161D02*
X74809142Y-98046638D01*
X74809142Y-98046638D02*
X74839619Y-98107590D01*
X74839619Y-98107590D02*
X74839619Y-98259971D01*
X74839619Y-98259971D02*
X74809142Y-98320923D01*
X74809142Y-98320923D02*
X74778666Y-98351400D01*
X74778666Y-98351400D02*
X74717714Y-98381876D01*
X74717714Y-98381876D02*
X74534857Y-98381876D01*
X74534857Y-98381876D02*
X74473904Y-98351400D01*
X74473904Y-98351400D02*
X74443428Y-98320923D01*
X163254856Y-98381876D02*
X163254856Y-97741876D01*
X163254856Y-97741876D02*
X163407237Y-97741876D01*
X163407237Y-97741876D02*
X163498666Y-97772352D01*
X163498666Y-97772352D02*
X163559618Y-97833304D01*
X163559618Y-97833304D02*
X163590095Y-97894257D01*
X163590095Y-97894257D02*
X163620571Y-98016161D01*
X163620571Y-98016161D02*
X163620571Y-98107590D01*
X163620571Y-98107590D02*
X163590095Y-98229495D01*
X163590095Y-98229495D02*
X163559618Y-98290447D01*
X163559618Y-98290447D02*
X163498666Y-98351400D01*
X163498666Y-98351400D02*
X163407237Y-98381876D01*
X163407237Y-98381876D02*
X163254856Y-98381876D01*
X163864380Y-97802828D02*
X163894856Y-97772352D01*
X163894856Y-97772352D02*
X163955809Y-97741876D01*
X163955809Y-97741876D02*
X164108190Y-97741876D01*
X164108190Y-97741876D02*
X164169142Y-97772352D01*
X164169142Y-97772352D02*
X164199618Y-97802828D01*
X164199618Y-97802828D02*
X164230095Y-97863780D01*
X164230095Y-97863780D02*
X164230095Y-97924733D01*
X164230095Y-97924733D02*
X164199618Y-98016161D01*
X164199618Y-98016161D02*
X163833904Y-98381876D01*
X163833904Y-98381876D02*
X164230095Y-98381876D01*
X164534857Y-98381876D02*
X164656761Y-98381876D01*
X164656761Y-98381876D02*
X164717714Y-98351400D01*
X164717714Y-98351400D02*
X164748190Y-98320923D01*
X164748190Y-98320923D02*
X164809142Y-98229495D01*
X164809142Y-98229495D02*
X164839619Y-98107590D01*
X164839619Y-98107590D02*
X164839619Y-97863780D01*
X164839619Y-97863780D02*
X164809142Y-97802828D01*
X164809142Y-97802828D02*
X164778666Y-97772352D01*
X164778666Y-97772352D02*
X164717714Y-97741876D01*
X164717714Y-97741876D02*
X164595809Y-97741876D01*
X164595809Y-97741876D02*
X164534857Y-97772352D01*
X164534857Y-97772352D02*
X164504380Y-97802828D01*
X164504380Y-97802828D02*
X164473904Y-97863780D01*
X164473904Y-97863780D02*
X164473904Y-98016161D01*
X164473904Y-98016161D02*
X164504380Y-98077114D01*
X164504380Y-98077114D02*
X164534857Y-98107590D01*
X164534857Y-98107590D02*
X164595809Y-98138066D01*
X164595809Y-98138066D02*
X164717714Y-98138066D01*
X164717714Y-98138066D02*
X164778666Y-98107590D01*
X164778666Y-98107590D02*
X164809142Y-98077114D01*
X164809142Y-98077114D02*
X164839619Y-98016161D01*
X238559618Y-98381876D02*
X238559618Y-97741876D01*
X238559618Y-97741876D02*
X238711999Y-97741876D01*
X238711999Y-97741876D02*
X238803428Y-97772352D01*
X238803428Y-97772352D02*
X238864380Y-97833304D01*
X238864380Y-97833304D02*
X238894857Y-97894257D01*
X238894857Y-97894257D02*
X238925333Y-98016161D01*
X238925333Y-98016161D02*
X238925333Y-98107590D01*
X238925333Y-98107590D02*
X238894857Y-98229495D01*
X238894857Y-98229495D02*
X238864380Y-98290447D01*
X238864380Y-98290447D02*
X238803428Y-98351400D01*
X238803428Y-98351400D02*
X238711999Y-98381876D01*
X238711999Y-98381876D02*
X238559618Y-98381876D01*
X239230095Y-98381876D02*
X239351999Y-98381876D01*
X239351999Y-98381876D02*
X239412952Y-98351400D01*
X239412952Y-98351400D02*
X239443428Y-98320923D01*
X239443428Y-98320923D02*
X239504380Y-98229495D01*
X239504380Y-98229495D02*
X239534857Y-98107590D01*
X239534857Y-98107590D02*
X239534857Y-97863780D01*
X239534857Y-97863780D02*
X239504380Y-97802828D01*
X239504380Y-97802828D02*
X239473904Y-97772352D01*
X239473904Y-97772352D02*
X239412952Y-97741876D01*
X239412952Y-97741876D02*
X239291047Y-97741876D01*
X239291047Y-97741876D02*
X239230095Y-97772352D01*
X239230095Y-97772352D02*
X239199618Y-97802828D01*
X239199618Y-97802828D02*
X239169142Y-97863780D01*
X239169142Y-97863780D02*
X239169142Y-98016161D01*
X239169142Y-98016161D02*
X239199618Y-98077114D01*
X239199618Y-98077114D02*
X239230095Y-98107590D01*
X239230095Y-98107590D02*
X239291047Y-98138066D01*
X239291047Y-98138066D02*
X239412952Y-98138066D01*
X239412952Y-98138066D02*
X239473904Y-98107590D01*
X239473904Y-98107590D02*
X239504380Y-98077114D01*
X239504380Y-98077114D02*
X239534857Y-98016161D01*
X246059618Y-98381876D02*
X246059618Y-97741876D01*
X246059618Y-97741876D02*
X246211999Y-97741876D01*
X246211999Y-97741876D02*
X246303428Y-97772352D01*
X246303428Y-97772352D02*
X246364380Y-97833304D01*
X246364380Y-97833304D02*
X246394857Y-97894257D01*
X246394857Y-97894257D02*
X246425333Y-98016161D01*
X246425333Y-98016161D02*
X246425333Y-98107590D01*
X246425333Y-98107590D02*
X246394857Y-98229495D01*
X246394857Y-98229495D02*
X246364380Y-98290447D01*
X246364380Y-98290447D02*
X246303428Y-98351400D01*
X246303428Y-98351400D02*
X246211999Y-98381876D01*
X246211999Y-98381876D02*
X246059618Y-98381876D01*
X246638666Y-97741876D02*
X247065333Y-97741876D01*
X247065333Y-97741876D02*
X246791047Y-98381876D01*
X35754856Y-98381876D02*
X35754856Y-97741876D01*
X35754856Y-97741876D02*
X35907237Y-97741876D01*
X35907237Y-97741876D02*
X35998666Y-97772352D01*
X35998666Y-97772352D02*
X36059618Y-97833304D01*
X36059618Y-97833304D02*
X36090095Y-97894257D01*
X36090095Y-97894257D02*
X36120571Y-98016161D01*
X36120571Y-98016161D02*
X36120571Y-98107590D01*
X36120571Y-98107590D02*
X36090095Y-98229495D01*
X36090095Y-98229495D02*
X36059618Y-98290447D01*
X36059618Y-98290447D02*
X35998666Y-98351400D01*
X35998666Y-98351400D02*
X35907237Y-98381876D01*
X35907237Y-98381876D02*
X35754856Y-98381876D01*
X36669142Y-97741876D02*
X36547237Y-97741876D01*
X36547237Y-97741876D02*
X36486285Y-97772352D01*
X36486285Y-97772352D02*
X36455809Y-97802828D01*
X36455809Y-97802828D02*
X36394856Y-97894257D01*
X36394856Y-97894257D02*
X36364380Y-98016161D01*
X36364380Y-98016161D02*
X36364380Y-98259971D01*
X36364380Y-98259971D02*
X36394856Y-98320923D01*
X36394856Y-98320923D02*
X36425333Y-98351400D01*
X36425333Y-98351400D02*
X36486285Y-98381876D01*
X36486285Y-98381876D02*
X36608190Y-98381876D01*
X36608190Y-98381876D02*
X36669142Y-98351400D01*
X36669142Y-98351400D02*
X36699618Y-98320923D01*
X36699618Y-98320923D02*
X36730095Y-98259971D01*
X36730095Y-98259971D02*
X36730095Y-98107590D01*
X36730095Y-98107590D02*
X36699618Y-98046638D01*
X36699618Y-98046638D02*
X36669142Y-98016161D01*
X36669142Y-98016161D02*
X36608190Y-97985685D01*
X36608190Y-97985685D02*
X36486285Y-97985685D01*
X36486285Y-97985685D02*
X36425333Y-98016161D01*
X36425333Y-98016161D02*
X36394856Y-98046638D01*
X36394856Y-98046638D02*
X36364380Y-98107590D01*
X36943428Y-97741876D02*
X37339619Y-97741876D01*
X37339619Y-97741876D02*
X37126285Y-97985685D01*
X37126285Y-97985685D02*
X37217714Y-97985685D01*
X37217714Y-97985685D02*
X37278666Y-98016161D01*
X37278666Y-98016161D02*
X37309142Y-98046638D01*
X37309142Y-98046638D02*
X37339619Y-98107590D01*
X37339619Y-98107590D02*
X37339619Y-98259971D01*
X37339619Y-98259971D02*
X37309142Y-98320923D01*
X37309142Y-98320923D02*
X37278666Y-98351400D01*
X37278666Y-98351400D02*
X37217714Y-98381876D01*
X37217714Y-98381876D02*
X37034857Y-98381876D01*
X37034857Y-98381876D02*
X36973904Y-98351400D01*
X36973904Y-98351400D02*
X36943428Y-98320923D01*
X110754856Y-98381876D02*
X110754856Y-97741876D01*
X110754856Y-97741876D02*
X110907237Y-97741876D01*
X110907237Y-97741876D02*
X110998666Y-97772352D01*
X110998666Y-97772352D02*
X111059618Y-97833304D01*
X111059618Y-97833304D02*
X111090095Y-97894257D01*
X111090095Y-97894257D02*
X111120571Y-98016161D01*
X111120571Y-98016161D02*
X111120571Y-98107590D01*
X111120571Y-98107590D02*
X111090095Y-98229495D01*
X111090095Y-98229495D02*
X111059618Y-98290447D01*
X111059618Y-98290447D02*
X110998666Y-98351400D01*
X110998666Y-98351400D02*
X110907237Y-98381876D01*
X110907237Y-98381876D02*
X110754856Y-98381876D01*
X111669142Y-97955209D02*
X111669142Y-98381876D01*
X111516761Y-97711400D02*
X111364380Y-98168542D01*
X111364380Y-98168542D02*
X111760571Y-98168542D01*
X111943428Y-97741876D02*
X112339619Y-97741876D01*
X112339619Y-97741876D02*
X112126285Y-97985685D01*
X112126285Y-97985685D02*
X112217714Y-97985685D01*
X112217714Y-97985685D02*
X112278666Y-98016161D01*
X112278666Y-98016161D02*
X112309142Y-98046638D01*
X112309142Y-98046638D02*
X112339619Y-98107590D01*
X112339619Y-98107590D02*
X112339619Y-98259971D01*
X112339619Y-98259971D02*
X112309142Y-98320923D01*
X112309142Y-98320923D02*
X112278666Y-98351400D01*
X112278666Y-98351400D02*
X112217714Y-98381876D01*
X112217714Y-98381876D02*
X112034857Y-98381876D01*
X112034857Y-98381876D02*
X111973904Y-98351400D01*
X111973904Y-98351400D02*
X111943428Y-98320923D01*
X134316666Y-104329819D02*
X134316666Y-105044104D01*
X134316666Y-105044104D02*
X134269047Y-105186961D01*
X134269047Y-105186961D02*
X134173809Y-105282200D01*
X134173809Y-105282200D02*
X134030952Y-105329819D01*
X134030952Y-105329819D02*
X133935714Y-105329819D01*
X135316666Y-105329819D02*
X134745238Y-105329819D01*
X135030952Y-105329819D02*
X135030952Y-104329819D01*
X135030952Y-104329819D02*
X134935714Y-104472676D01*
X134935714Y-104472676D02*
X134840476Y-104567914D01*
X134840476Y-104567914D02*
X134745238Y-104615533D01*
X212004856Y-98381876D02*
X212004856Y-97741876D01*
X212004856Y-97741876D02*
X212157237Y-97741876D01*
X212157237Y-97741876D02*
X212248666Y-97772352D01*
X212248666Y-97772352D02*
X212309618Y-97833304D01*
X212309618Y-97833304D02*
X212340095Y-97894257D01*
X212340095Y-97894257D02*
X212370571Y-98016161D01*
X212370571Y-98016161D02*
X212370571Y-98107590D01*
X212370571Y-98107590D02*
X212340095Y-98229495D01*
X212340095Y-98229495D02*
X212309618Y-98290447D01*
X212309618Y-98290447D02*
X212248666Y-98351400D01*
X212248666Y-98351400D02*
X212157237Y-98381876D01*
X212157237Y-98381876D02*
X212004856Y-98381876D01*
X212980095Y-98381876D02*
X212614380Y-98381876D01*
X212797237Y-98381876D02*
X212797237Y-97741876D01*
X212797237Y-97741876D02*
X212736285Y-97833304D01*
X212736285Y-97833304D02*
X212675333Y-97894257D01*
X212675333Y-97894257D02*
X212614380Y-97924733D01*
X213528666Y-97741876D02*
X213406761Y-97741876D01*
X213406761Y-97741876D02*
X213345809Y-97772352D01*
X213345809Y-97772352D02*
X213315333Y-97802828D01*
X213315333Y-97802828D02*
X213254380Y-97894257D01*
X213254380Y-97894257D02*
X213223904Y-98016161D01*
X213223904Y-98016161D02*
X213223904Y-98259971D01*
X213223904Y-98259971D02*
X213254380Y-98320923D01*
X213254380Y-98320923D02*
X213284857Y-98351400D01*
X213284857Y-98351400D02*
X213345809Y-98381876D01*
X213345809Y-98381876D02*
X213467714Y-98381876D01*
X213467714Y-98381876D02*
X213528666Y-98351400D01*
X213528666Y-98351400D02*
X213559142Y-98320923D01*
X213559142Y-98320923D02*
X213589619Y-98259971D01*
X213589619Y-98259971D02*
X213589619Y-98107590D01*
X213589619Y-98107590D02*
X213559142Y-98046638D01*
X213559142Y-98046638D02*
X213528666Y-98016161D01*
X213528666Y-98016161D02*
X213467714Y-97985685D01*
X213467714Y-97985685D02*
X213345809Y-97985685D01*
X213345809Y-97985685D02*
X213284857Y-98016161D01*
X213284857Y-98016161D02*
X213254380Y-98046638D01*
X213254380Y-98046638D02*
X213223904Y-98107590D01*
X178254856Y-98381876D02*
X178254856Y-97741876D01*
X178254856Y-97741876D02*
X178407237Y-97741876D01*
X178407237Y-97741876D02*
X178498666Y-97772352D01*
X178498666Y-97772352D02*
X178559618Y-97833304D01*
X178559618Y-97833304D02*
X178590095Y-97894257D01*
X178590095Y-97894257D02*
X178620571Y-98016161D01*
X178620571Y-98016161D02*
X178620571Y-98107590D01*
X178620571Y-98107590D02*
X178590095Y-98229495D01*
X178590095Y-98229495D02*
X178559618Y-98290447D01*
X178559618Y-98290447D02*
X178498666Y-98351400D01*
X178498666Y-98351400D02*
X178407237Y-98381876D01*
X178407237Y-98381876D02*
X178254856Y-98381876D01*
X178864380Y-97802828D02*
X178894856Y-97772352D01*
X178894856Y-97772352D02*
X178955809Y-97741876D01*
X178955809Y-97741876D02*
X179108190Y-97741876D01*
X179108190Y-97741876D02*
X179169142Y-97772352D01*
X179169142Y-97772352D02*
X179199618Y-97802828D01*
X179199618Y-97802828D02*
X179230095Y-97863780D01*
X179230095Y-97863780D02*
X179230095Y-97924733D01*
X179230095Y-97924733D02*
X179199618Y-98016161D01*
X179199618Y-98016161D02*
X178833904Y-98381876D01*
X178833904Y-98381876D02*
X179230095Y-98381876D01*
X179809142Y-97741876D02*
X179504380Y-97741876D01*
X179504380Y-97741876D02*
X179473904Y-98046638D01*
X179473904Y-98046638D02*
X179504380Y-98016161D01*
X179504380Y-98016161D02*
X179565333Y-97985685D01*
X179565333Y-97985685D02*
X179717714Y-97985685D01*
X179717714Y-97985685D02*
X179778666Y-98016161D01*
X179778666Y-98016161D02*
X179809142Y-98046638D01*
X179809142Y-98046638D02*
X179839619Y-98107590D01*
X179839619Y-98107590D02*
X179839619Y-98259971D01*
X179839619Y-98259971D02*
X179809142Y-98320923D01*
X179809142Y-98320923D02*
X179778666Y-98351400D01*
X179778666Y-98351400D02*
X179717714Y-98381876D01*
X179717714Y-98381876D02*
X179565333Y-98381876D01*
X179565333Y-98381876D02*
X179504380Y-98351400D01*
X179504380Y-98351400D02*
X179473904Y-98320923D01*
X107004856Y-98381876D02*
X107004856Y-97741876D01*
X107004856Y-97741876D02*
X107157237Y-97741876D01*
X107157237Y-97741876D02*
X107248666Y-97772352D01*
X107248666Y-97772352D02*
X107309618Y-97833304D01*
X107309618Y-97833304D02*
X107340095Y-97894257D01*
X107340095Y-97894257D02*
X107370571Y-98016161D01*
X107370571Y-98016161D02*
X107370571Y-98107590D01*
X107370571Y-98107590D02*
X107340095Y-98229495D01*
X107340095Y-98229495D02*
X107309618Y-98290447D01*
X107309618Y-98290447D02*
X107248666Y-98351400D01*
X107248666Y-98351400D02*
X107157237Y-98381876D01*
X107157237Y-98381876D02*
X107004856Y-98381876D01*
X107919142Y-97955209D02*
X107919142Y-98381876D01*
X107766761Y-97711400D02*
X107614380Y-98168542D01*
X107614380Y-98168542D02*
X108010571Y-98168542D01*
X108528666Y-97955209D02*
X108528666Y-98381876D01*
X108376285Y-97711400D02*
X108223904Y-98168542D01*
X108223904Y-98168542D02*
X108620095Y-98168542D01*
X189504856Y-98381876D02*
X189504856Y-97741876D01*
X189504856Y-97741876D02*
X189657237Y-97741876D01*
X189657237Y-97741876D02*
X189748666Y-97772352D01*
X189748666Y-97772352D02*
X189809618Y-97833304D01*
X189809618Y-97833304D02*
X189840095Y-97894257D01*
X189840095Y-97894257D02*
X189870571Y-98016161D01*
X189870571Y-98016161D02*
X189870571Y-98107590D01*
X189870571Y-98107590D02*
X189840095Y-98229495D01*
X189840095Y-98229495D02*
X189809618Y-98290447D01*
X189809618Y-98290447D02*
X189748666Y-98351400D01*
X189748666Y-98351400D02*
X189657237Y-98381876D01*
X189657237Y-98381876D02*
X189504856Y-98381876D01*
X190114380Y-97802828D02*
X190144856Y-97772352D01*
X190144856Y-97772352D02*
X190205809Y-97741876D01*
X190205809Y-97741876D02*
X190358190Y-97741876D01*
X190358190Y-97741876D02*
X190419142Y-97772352D01*
X190419142Y-97772352D02*
X190449618Y-97802828D01*
X190449618Y-97802828D02*
X190480095Y-97863780D01*
X190480095Y-97863780D02*
X190480095Y-97924733D01*
X190480095Y-97924733D02*
X190449618Y-98016161D01*
X190449618Y-98016161D02*
X190083904Y-98381876D01*
X190083904Y-98381876D02*
X190480095Y-98381876D01*
X190723904Y-97802828D02*
X190754380Y-97772352D01*
X190754380Y-97772352D02*
X190815333Y-97741876D01*
X190815333Y-97741876D02*
X190967714Y-97741876D01*
X190967714Y-97741876D02*
X191028666Y-97772352D01*
X191028666Y-97772352D02*
X191059142Y-97802828D01*
X191059142Y-97802828D02*
X191089619Y-97863780D01*
X191089619Y-97863780D02*
X191089619Y-97924733D01*
X191089619Y-97924733D02*
X191059142Y-98016161D01*
X191059142Y-98016161D02*
X190693428Y-98381876D01*
X190693428Y-98381876D02*
X191089619Y-98381876D01*
X208254856Y-98381876D02*
X208254856Y-97741876D01*
X208254856Y-97741876D02*
X208407237Y-97741876D01*
X208407237Y-97741876D02*
X208498666Y-97772352D01*
X208498666Y-97772352D02*
X208559618Y-97833304D01*
X208559618Y-97833304D02*
X208590095Y-97894257D01*
X208590095Y-97894257D02*
X208620571Y-98016161D01*
X208620571Y-98016161D02*
X208620571Y-98107590D01*
X208620571Y-98107590D02*
X208590095Y-98229495D01*
X208590095Y-98229495D02*
X208559618Y-98290447D01*
X208559618Y-98290447D02*
X208498666Y-98351400D01*
X208498666Y-98351400D02*
X208407237Y-98381876D01*
X208407237Y-98381876D02*
X208254856Y-98381876D01*
X209230095Y-98381876D02*
X208864380Y-98381876D01*
X209047237Y-98381876D02*
X209047237Y-97741876D01*
X209047237Y-97741876D02*
X208986285Y-97833304D01*
X208986285Y-97833304D02*
X208925333Y-97894257D01*
X208925333Y-97894257D02*
X208864380Y-97924733D01*
X209443428Y-97741876D02*
X209870095Y-97741876D01*
X209870095Y-97741876D02*
X209595809Y-98381876D01*
X65754856Y-98381876D02*
X65754856Y-97741876D01*
X65754856Y-97741876D02*
X65907237Y-97741876D01*
X65907237Y-97741876D02*
X65998666Y-97772352D01*
X65998666Y-97772352D02*
X66059618Y-97833304D01*
X66059618Y-97833304D02*
X66090095Y-97894257D01*
X66090095Y-97894257D02*
X66120571Y-98016161D01*
X66120571Y-98016161D02*
X66120571Y-98107590D01*
X66120571Y-98107590D02*
X66090095Y-98229495D01*
X66090095Y-98229495D02*
X66059618Y-98290447D01*
X66059618Y-98290447D02*
X65998666Y-98351400D01*
X65998666Y-98351400D02*
X65907237Y-98381876D01*
X65907237Y-98381876D02*
X65754856Y-98381876D01*
X66699618Y-97741876D02*
X66394856Y-97741876D01*
X66394856Y-97741876D02*
X66364380Y-98046638D01*
X66364380Y-98046638D02*
X66394856Y-98016161D01*
X66394856Y-98016161D02*
X66455809Y-97985685D01*
X66455809Y-97985685D02*
X66608190Y-97985685D01*
X66608190Y-97985685D02*
X66669142Y-98016161D01*
X66669142Y-98016161D02*
X66699618Y-98046638D01*
X66699618Y-98046638D02*
X66730095Y-98107590D01*
X66730095Y-98107590D02*
X66730095Y-98259971D01*
X66730095Y-98259971D02*
X66699618Y-98320923D01*
X66699618Y-98320923D02*
X66669142Y-98351400D01*
X66669142Y-98351400D02*
X66608190Y-98381876D01*
X66608190Y-98381876D02*
X66455809Y-98381876D01*
X66455809Y-98381876D02*
X66394856Y-98351400D01*
X66394856Y-98351400D02*
X66364380Y-98320923D01*
X67309142Y-97741876D02*
X67004380Y-97741876D01*
X67004380Y-97741876D02*
X66973904Y-98046638D01*
X66973904Y-98046638D02*
X67004380Y-98016161D01*
X67004380Y-98016161D02*
X67065333Y-97985685D01*
X67065333Y-97985685D02*
X67217714Y-97985685D01*
X67217714Y-97985685D02*
X67278666Y-98016161D01*
X67278666Y-98016161D02*
X67309142Y-98046638D01*
X67309142Y-98046638D02*
X67339619Y-98107590D01*
X67339619Y-98107590D02*
X67339619Y-98259971D01*
X67339619Y-98259971D02*
X67309142Y-98320923D01*
X67309142Y-98320923D02*
X67278666Y-98351400D01*
X67278666Y-98351400D02*
X67217714Y-98381876D01*
X67217714Y-98381876D02*
X67065333Y-98381876D01*
X67065333Y-98381876D02*
X67004380Y-98351400D01*
X67004380Y-98351400D02*
X66973904Y-98320923D01*
X162883333Y-107154819D02*
X162407143Y-107154819D01*
X162407143Y-107154819D02*
X162407143Y-106154819D01*
X163740476Y-107154819D02*
X163169048Y-107154819D01*
X163454762Y-107154819D02*
X163454762Y-106154819D01*
X163454762Y-106154819D02*
X163359524Y-106297676D01*
X163359524Y-106297676D02*
X163264286Y-106392914D01*
X163264286Y-106392914D02*
X163169048Y-106440533D01*
X50754856Y-98381876D02*
X50754856Y-97741876D01*
X50754856Y-97741876D02*
X50907237Y-97741876D01*
X50907237Y-97741876D02*
X50998666Y-97772352D01*
X50998666Y-97772352D02*
X51059618Y-97833304D01*
X51059618Y-97833304D02*
X51090095Y-97894257D01*
X51090095Y-97894257D02*
X51120571Y-98016161D01*
X51120571Y-98016161D02*
X51120571Y-98107590D01*
X51120571Y-98107590D02*
X51090095Y-98229495D01*
X51090095Y-98229495D02*
X51059618Y-98290447D01*
X51059618Y-98290447D02*
X50998666Y-98351400D01*
X50998666Y-98351400D02*
X50907237Y-98381876D01*
X50907237Y-98381876D02*
X50754856Y-98381876D01*
X51699618Y-97741876D02*
X51394856Y-97741876D01*
X51394856Y-97741876D02*
X51364380Y-98046638D01*
X51364380Y-98046638D02*
X51394856Y-98016161D01*
X51394856Y-98016161D02*
X51455809Y-97985685D01*
X51455809Y-97985685D02*
X51608190Y-97985685D01*
X51608190Y-97985685D02*
X51669142Y-98016161D01*
X51669142Y-98016161D02*
X51699618Y-98046638D01*
X51699618Y-98046638D02*
X51730095Y-98107590D01*
X51730095Y-98107590D02*
X51730095Y-98259971D01*
X51730095Y-98259971D02*
X51699618Y-98320923D01*
X51699618Y-98320923D02*
X51669142Y-98351400D01*
X51669142Y-98351400D02*
X51608190Y-98381876D01*
X51608190Y-98381876D02*
X51455809Y-98381876D01*
X51455809Y-98381876D02*
X51394856Y-98351400D01*
X51394856Y-98351400D02*
X51364380Y-98320923D01*
X52034857Y-98381876D02*
X52156761Y-98381876D01*
X52156761Y-98381876D02*
X52217714Y-98351400D01*
X52217714Y-98351400D02*
X52248190Y-98320923D01*
X52248190Y-98320923D02*
X52309142Y-98229495D01*
X52309142Y-98229495D02*
X52339619Y-98107590D01*
X52339619Y-98107590D02*
X52339619Y-97863780D01*
X52339619Y-97863780D02*
X52309142Y-97802828D01*
X52309142Y-97802828D02*
X52278666Y-97772352D01*
X52278666Y-97772352D02*
X52217714Y-97741876D01*
X52217714Y-97741876D02*
X52095809Y-97741876D01*
X52095809Y-97741876D02*
X52034857Y-97772352D01*
X52034857Y-97772352D02*
X52004380Y-97802828D01*
X52004380Y-97802828D02*
X51973904Y-97863780D01*
X51973904Y-97863780D02*
X51973904Y-98016161D01*
X51973904Y-98016161D02*
X52004380Y-98077114D01*
X52004380Y-98077114D02*
X52034857Y-98107590D01*
X52034857Y-98107590D02*
X52095809Y-98138066D01*
X52095809Y-98138066D02*
X52217714Y-98138066D01*
X52217714Y-98138066D02*
X52278666Y-98107590D01*
X52278666Y-98107590D02*
X52309142Y-98077114D01*
X52309142Y-98077114D02*
X52339619Y-98016161D01*
X242309618Y-98381876D02*
X242309618Y-97741876D01*
X242309618Y-97741876D02*
X242461999Y-97741876D01*
X242461999Y-97741876D02*
X242553428Y-97772352D01*
X242553428Y-97772352D02*
X242614380Y-97833304D01*
X242614380Y-97833304D02*
X242644857Y-97894257D01*
X242644857Y-97894257D02*
X242675333Y-98016161D01*
X242675333Y-98016161D02*
X242675333Y-98107590D01*
X242675333Y-98107590D02*
X242644857Y-98229495D01*
X242644857Y-98229495D02*
X242614380Y-98290447D01*
X242614380Y-98290447D02*
X242553428Y-98351400D01*
X242553428Y-98351400D02*
X242461999Y-98381876D01*
X242461999Y-98381876D02*
X242309618Y-98381876D01*
X243041047Y-98016161D02*
X242980095Y-97985685D01*
X242980095Y-97985685D02*
X242949618Y-97955209D01*
X242949618Y-97955209D02*
X242919142Y-97894257D01*
X242919142Y-97894257D02*
X242919142Y-97863780D01*
X242919142Y-97863780D02*
X242949618Y-97802828D01*
X242949618Y-97802828D02*
X242980095Y-97772352D01*
X242980095Y-97772352D02*
X243041047Y-97741876D01*
X243041047Y-97741876D02*
X243162952Y-97741876D01*
X243162952Y-97741876D02*
X243223904Y-97772352D01*
X243223904Y-97772352D02*
X243254380Y-97802828D01*
X243254380Y-97802828D02*
X243284857Y-97863780D01*
X243284857Y-97863780D02*
X243284857Y-97894257D01*
X243284857Y-97894257D02*
X243254380Y-97955209D01*
X243254380Y-97955209D02*
X243223904Y-97985685D01*
X243223904Y-97985685D02*
X243162952Y-98016161D01*
X243162952Y-98016161D02*
X243041047Y-98016161D01*
X243041047Y-98016161D02*
X242980095Y-98046638D01*
X242980095Y-98046638D02*
X242949618Y-98077114D01*
X242949618Y-98077114D02*
X242919142Y-98138066D01*
X242919142Y-98138066D02*
X242919142Y-98259971D01*
X242919142Y-98259971D02*
X242949618Y-98320923D01*
X242949618Y-98320923D02*
X242980095Y-98351400D01*
X242980095Y-98351400D02*
X243041047Y-98381876D01*
X243041047Y-98381876D02*
X243162952Y-98381876D01*
X243162952Y-98381876D02*
X243223904Y-98351400D01*
X243223904Y-98351400D02*
X243254380Y-98320923D01*
X243254380Y-98320923D02*
X243284857Y-98259971D01*
X243284857Y-98259971D02*
X243284857Y-98138066D01*
X243284857Y-98138066D02*
X243254380Y-98077114D01*
X243254380Y-98077114D02*
X243223904Y-98046638D01*
X243223904Y-98046638D02*
X243162952Y-98016161D01*
X103254856Y-98381876D02*
X103254856Y-97741876D01*
X103254856Y-97741876D02*
X103407237Y-97741876D01*
X103407237Y-97741876D02*
X103498666Y-97772352D01*
X103498666Y-97772352D02*
X103559618Y-97833304D01*
X103559618Y-97833304D02*
X103590095Y-97894257D01*
X103590095Y-97894257D02*
X103620571Y-98016161D01*
X103620571Y-98016161D02*
X103620571Y-98107590D01*
X103620571Y-98107590D02*
X103590095Y-98229495D01*
X103590095Y-98229495D02*
X103559618Y-98290447D01*
X103559618Y-98290447D02*
X103498666Y-98351400D01*
X103498666Y-98351400D02*
X103407237Y-98381876D01*
X103407237Y-98381876D02*
X103254856Y-98381876D01*
X104169142Y-97955209D02*
X104169142Y-98381876D01*
X104016761Y-97711400D02*
X103864380Y-98168542D01*
X103864380Y-98168542D02*
X104260571Y-98168542D01*
X104809142Y-97741876D02*
X104504380Y-97741876D01*
X104504380Y-97741876D02*
X104473904Y-98046638D01*
X104473904Y-98046638D02*
X104504380Y-98016161D01*
X104504380Y-98016161D02*
X104565333Y-97985685D01*
X104565333Y-97985685D02*
X104717714Y-97985685D01*
X104717714Y-97985685D02*
X104778666Y-98016161D01*
X104778666Y-98016161D02*
X104809142Y-98046638D01*
X104809142Y-98046638D02*
X104839619Y-98107590D01*
X104839619Y-98107590D02*
X104839619Y-98259971D01*
X104839619Y-98259971D02*
X104809142Y-98320923D01*
X104809142Y-98320923D02*
X104778666Y-98351400D01*
X104778666Y-98351400D02*
X104717714Y-98381876D01*
X104717714Y-98381876D02*
X104565333Y-98381876D01*
X104565333Y-98381876D02*
X104504380Y-98351400D01*
X104504380Y-98351400D02*
X104473904Y-98320923D01*
X185754856Y-98381876D02*
X185754856Y-97741876D01*
X185754856Y-97741876D02*
X185907237Y-97741876D01*
X185907237Y-97741876D02*
X185998666Y-97772352D01*
X185998666Y-97772352D02*
X186059618Y-97833304D01*
X186059618Y-97833304D02*
X186090095Y-97894257D01*
X186090095Y-97894257D02*
X186120571Y-98016161D01*
X186120571Y-98016161D02*
X186120571Y-98107590D01*
X186120571Y-98107590D02*
X186090095Y-98229495D01*
X186090095Y-98229495D02*
X186059618Y-98290447D01*
X186059618Y-98290447D02*
X185998666Y-98351400D01*
X185998666Y-98351400D02*
X185907237Y-98381876D01*
X185907237Y-98381876D02*
X185754856Y-98381876D01*
X186364380Y-97802828D02*
X186394856Y-97772352D01*
X186394856Y-97772352D02*
X186455809Y-97741876D01*
X186455809Y-97741876D02*
X186608190Y-97741876D01*
X186608190Y-97741876D02*
X186669142Y-97772352D01*
X186669142Y-97772352D02*
X186699618Y-97802828D01*
X186699618Y-97802828D02*
X186730095Y-97863780D01*
X186730095Y-97863780D02*
X186730095Y-97924733D01*
X186730095Y-97924733D02*
X186699618Y-98016161D01*
X186699618Y-98016161D02*
X186333904Y-98381876D01*
X186333904Y-98381876D02*
X186730095Y-98381876D01*
X186943428Y-97741876D02*
X187339619Y-97741876D01*
X187339619Y-97741876D02*
X187126285Y-97985685D01*
X187126285Y-97985685D02*
X187217714Y-97985685D01*
X187217714Y-97985685D02*
X187278666Y-98016161D01*
X187278666Y-98016161D02*
X187309142Y-98046638D01*
X187309142Y-98046638D02*
X187339619Y-98107590D01*
X187339619Y-98107590D02*
X187339619Y-98259971D01*
X187339619Y-98259971D02*
X187309142Y-98320923D01*
X187309142Y-98320923D02*
X187278666Y-98351400D01*
X187278666Y-98351400D02*
X187217714Y-98381876D01*
X187217714Y-98381876D02*
X187034857Y-98381876D01*
X187034857Y-98381876D02*
X186973904Y-98351400D01*
X186973904Y-98351400D02*
X186943428Y-98320923D01*
X144504856Y-98381876D02*
X144504856Y-97741876D01*
X144504856Y-97741876D02*
X144657237Y-97741876D01*
X144657237Y-97741876D02*
X144748666Y-97772352D01*
X144748666Y-97772352D02*
X144809618Y-97833304D01*
X144809618Y-97833304D02*
X144840095Y-97894257D01*
X144840095Y-97894257D02*
X144870571Y-98016161D01*
X144870571Y-98016161D02*
X144870571Y-98107590D01*
X144870571Y-98107590D02*
X144840095Y-98229495D01*
X144840095Y-98229495D02*
X144809618Y-98290447D01*
X144809618Y-98290447D02*
X144748666Y-98351400D01*
X144748666Y-98351400D02*
X144657237Y-98381876D01*
X144657237Y-98381876D02*
X144504856Y-98381876D01*
X145083904Y-97741876D02*
X145480095Y-97741876D01*
X145480095Y-97741876D02*
X145266761Y-97985685D01*
X145266761Y-97985685D02*
X145358190Y-97985685D01*
X145358190Y-97985685D02*
X145419142Y-98016161D01*
X145419142Y-98016161D02*
X145449618Y-98046638D01*
X145449618Y-98046638D02*
X145480095Y-98107590D01*
X145480095Y-98107590D02*
X145480095Y-98259971D01*
X145480095Y-98259971D02*
X145449618Y-98320923D01*
X145449618Y-98320923D02*
X145419142Y-98351400D01*
X145419142Y-98351400D02*
X145358190Y-98381876D01*
X145358190Y-98381876D02*
X145175333Y-98381876D01*
X145175333Y-98381876D02*
X145114380Y-98351400D01*
X145114380Y-98351400D02*
X145083904Y-98320923D01*
X146028666Y-97955209D02*
X146028666Y-98381876D01*
X145876285Y-97711400D02*
X145723904Y-98168542D01*
X145723904Y-98168542D02*
X146120095Y-98168542D01*
X155754856Y-98381876D02*
X155754856Y-97741876D01*
X155754856Y-97741876D02*
X155907237Y-97741876D01*
X155907237Y-97741876D02*
X155998666Y-97772352D01*
X155998666Y-97772352D02*
X156059618Y-97833304D01*
X156059618Y-97833304D02*
X156090095Y-97894257D01*
X156090095Y-97894257D02*
X156120571Y-98016161D01*
X156120571Y-98016161D02*
X156120571Y-98107590D01*
X156120571Y-98107590D02*
X156090095Y-98229495D01*
X156090095Y-98229495D02*
X156059618Y-98290447D01*
X156059618Y-98290447D02*
X155998666Y-98351400D01*
X155998666Y-98351400D02*
X155907237Y-98381876D01*
X155907237Y-98381876D02*
X155754856Y-98381876D01*
X156333904Y-97741876D02*
X156730095Y-97741876D01*
X156730095Y-97741876D02*
X156516761Y-97985685D01*
X156516761Y-97985685D02*
X156608190Y-97985685D01*
X156608190Y-97985685D02*
X156669142Y-98016161D01*
X156669142Y-98016161D02*
X156699618Y-98046638D01*
X156699618Y-98046638D02*
X156730095Y-98107590D01*
X156730095Y-98107590D02*
X156730095Y-98259971D01*
X156730095Y-98259971D02*
X156699618Y-98320923D01*
X156699618Y-98320923D02*
X156669142Y-98351400D01*
X156669142Y-98351400D02*
X156608190Y-98381876D01*
X156608190Y-98381876D02*
X156425333Y-98381876D01*
X156425333Y-98381876D02*
X156364380Y-98351400D01*
X156364380Y-98351400D02*
X156333904Y-98320923D01*
X157339619Y-98381876D02*
X156973904Y-98381876D01*
X157156761Y-98381876D02*
X157156761Y-97741876D01*
X157156761Y-97741876D02*
X157095809Y-97833304D01*
X157095809Y-97833304D02*
X157034857Y-97894257D01*
X157034857Y-97894257D02*
X156973904Y-97924733D01*
X215754856Y-98381876D02*
X215754856Y-97741876D01*
X215754856Y-97741876D02*
X215907237Y-97741876D01*
X215907237Y-97741876D02*
X215998666Y-97772352D01*
X215998666Y-97772352D02*
X216059618Y-97833304D01*
X216059618Y-97833304D02*
X216090095Y-97894257D01*
X216090095Y-97894257D02*
X216120571Y-98016161D01*
X216120571Y-98016161D02*
X216120571Y-98107590D01*
X216120571Y-98107590D02*
X216090095Y-98229495D01*
X216090095Y-98229495D02*
X216059618Y-98290447D01*
X216059618Y-98290447D02*
X215998666Y-98351400D01*
X215998666Y-98351400D02*
X215907237Y-98381876D01*
X215907237Y-98381876D02*
X215754856Y-98381876D01*
X216730095Y-98381876D02*
X216364380Y-98381876D01*
X216547237Y-98381876D02*
X216547237Y-97741876D01*
X216547237Y-97741876D02*
X216486285Y-97833304D01*
X216486285Y-97833304D02*
X216425333Y-97894257D01*
X216425333Y-97894257D02*
X216364380Y-97924733D01*
X217309142Y-97741876D02*
X217004380Y-97741876D01*
X217004380Y-97741876D02*
X216973904Y-98046638D01*
X216973904Y-98046638D02*
X217004380Y-98016161D01*
X217004380Y-98016161D02*
X217065333Y-97985685D01*
X217065333Y-97985685D02*
X217217714Y-97985685D01*
X217217714Y-97985685D02*
X217278666Y-98016161D01*
X217278666Y-98016161D02*
X217309142Y-98046638D01*
X217309142Y-98046638D02*
X217339619Y-98107590D01*
X217339619Y-98107590D02*
X217339619Y-98259971D01*
X217339619Y-98259971D02*
X217309142Y-98320923D01*
X217309142Y-98320923D02*
X217278666Y-98351400D01*
X217278666Y-98351400D02*
X217217714Y-98381876D01*
X217217714Y-98381876D02*
X217065333Y-98381876D01*
X217065333Y-98381876D02*
X217004380Y-98351400D01*
X217004380Y-98351400D02*
X216973904Y-98320923D01*
X264809618Y-98381876D02*
X264809618Y-97741876D01*
X264809618Y-97741876D02*
X264961999Y-97741876D01*
X264961999Y-97741876D02*
X265053428Y-97772352D01*
X265053428Y-97772352D02*
X265114380Y-97833304D01*
X265114380Y-97833304D02*
X265144857Y-97894257D01*
X265144857Y-97894257D02*
X265175333Y-98016161D01*
X265175333Y-98016161D02*
X265175333Y-98107590D01*
X265175333Y-98107590D02*
X265144857Y-98229495D01*
X265144857Y-98229495D02*
X265114380Y-98290447D01*
X265114380Y-98290447D02*
X265053428Y-98351400D01*
X265053428Y-98351400D02*
X264961999Y-98381876D01*
X264961999Y-98381876D02*
X264809618Y-98381876D01*
X265419142Y-97802828D02*
X265449618Y-97772352D01*
X265449618Y-97772352D02*
X265510571Y-97741876D01*
X265510571Y-97741876D02*
X265662952Y-97741876D01*
X265662952Y-97741876D02*
X265723904Y-97772352D01*
X265723904Y-97772352D02*
X265754380Y-97802828D01*
X265754380Y-97802828D02*
X265784857Y-97863780D01*
X265784857Y-97863780D02*
X265784857Y-97924733D01*
X265784857Y-97924733D02*
X265754380Y-98016161D01*
X265754380Y-98016161D02*
X265388666Y-98381876D01*
X265388666Y-98381876D02*
X265784857Y-98381876D01*
X80754856Y-98381876D02*
X80754856Y-97741876D01*
X80754856Y-97741876D02*
X80907237Y-97741876D01*
X80907237Y-97741876D02*
X80998666Y-97772352D01*
X80998666Y-97772352D02*
X81059618Y-97833304D01*
X81059618Y-97833304D02*
X81090095Y-97894257D01*
X81090095Y-97894257D02*
X81120571Y-98016161D01*
X81120571Y-98016161D02*
X81120571Y-98107590D01*
X81120571Y-98107590D02*
X81090095Y-98229495D01*
X81090095Y-98229495D02*
X81059618Y-98290447D01*
X81059618Y-98290447D02*
X80998666Y-98351400D01*
X80998666Y-98351400D02*
X80907237Y-98381876D01*
X80907237Y-98381876D02*
X80754856Y-98381876D01*
X81699618Y-97741876D02*
X81394856Y-97741876D01*
X81394856Y-97741876D02*
X81364380Y-98046638D01*
X81364380Y-98046638D02*
X81394856Y-98016161D01*
X81394856Y-98016161D02*
X81455809Y-97985685D01*
X81455809Y-97985685D02*
X81608190Y-97985685D01*
X81608190Y-97985685D02*
X81669142Y-98016161D01*
X81669142Y-98016161D02*
X81699618Y-98046638D01*
X81699618Y-98046638D02*
X81730095Y-98107590D01*
X81730095Y-98107590D02*
X81730095Y-98259971D01*
X81730095Y-98259971D02*
X81699618Y-98320923D01*
X81699618Y-98320923D02*
X81669142Y-98351400D01*
X81669142Y-98351400D02*
X81608190Y-98381876D01*
X81608190Y-98381876D02*
X81455809Y-98381876D01*
X81455809Y-98381876D02*
X81394856Y-98351400D01*
X81394856Y-98351400D02*
X81364380Y-98320923D01*
X82339619Y-98381876D02*
X81973904Y-98381876D01*
X82156761Y-98381876D02*
X82156761Y-97741876D01*
X82156761Y-97741876D02*
X82095809Y-97833304D01*
X82095809Y-97833304D02*
X82034857Y-97894257D01*
X82034857Y-97894257D02*
X81973904Y-97924733D01*
X88254856Y-98381876D02*
X88254856Y-97741876D01*
X88254856Y-97741876D02*
X88407237Y-97741876D01*
X88407237Y-97741876D02*
X88498666Y-97772352D01*
X88498666Y-97772352D02*
X88559618Y-97833304D01*
X88559618Y-97833304D02*
X88590095Y-97894257D01*
X88590095Y-97894257D02*
X88620571Y-98016161D01*
X88620571Y-98016161D02*
X88620571Y-98107590D01*
X88620571Y-98107590D02*
X88590095Y-98229495D01*
X88590095Y-98229495D02*
X88559618Y-98290447D01*
X88559618Y-98290447D02*
X88498666Y-98351400D01*
X88498666Y-98351400D02*
X88407237Y-98381876D01*
X88407237Y-98381876D02*
X88254856Y-98381876D01*
X89169142Y-97955209D02*
X89169142Y-98381876D01*
X89016761Y-97711400D02*
X88864380Y-98168542D01*
X88864380Y-98168542D02*
X89260571Y-98168542D01*
X89534857Y-98381876D02*
X89656761Y-98381876D01*
X89656761Y-98381876D02*
X89717714Y-98351400D01*
X89717714Y-98351400D02*
X89748190Y-98320923D01*
X89748190Y-98320923D02*
X89809142Y-98229495D01*
X89809142Y-98229495D02*
X89839619Y-98107590D01*
X89839619Y-98107590D02*
X89839619Y-97863780D01*
X89839619Y-97863780D02*
X89809142Y-97802828D01*
X89809142Y-97802828D02*
X89778666Y-97772352D01*
X89778666Y-97772352D02*
X89717714Y-97741876D01*
X89717714Y-97741876D02*
X89595809Y-97741876D01*
X89595809Y-97741876D02*
X89534857Y-97772352D01*
X89534857Y-97772352D02*
X89504380Y-97802828D01*
X89504380Y-97802828D02*
X89473904Y-97863780D01*
X89473904Y-97863780D02*
X89473904Y-98016161D01*
X89473904Y-98016161D02*
X89504380Y-98077114D01*
X89504380Y-98077114D02*
X89534857Y-98107590D01*
X89534857Y-98107590D02*
X89595809Y-98138066D01*
X89595809Y-98138066D02*
X89717714Y-98138066D01*
X89717714Y-98138066D02*
X89778666Y-98107590D01*
X89778666Y-98107590D02*
X89809142Y-98077114D01*
X89809142Y-98077114D02*
X89839619Y-98016161D01*
X144204819Y-89866666D02*
X143728628Y-90199999D01*
X144204819Y-90438094D02*
X143204819Y-90438094D01*
X143204819Y-90438094D02*
X143204819Y-90057142D01*
X143204819Y-90057142D02*
X143252438Y-89961904D01*
X143252438Y-89961904D02*
X143300057Y-89914285D01*
X143300057Y-89914285D02*
X143395295Y-89866666D01*
X143395295Y-89866666D02*
X143538152Y-89866666D01*
X143538152Y-89866666D02*
X143633390Y-89914285D01*
X143633390Y-89914285D02*
X143681009Y-89961904D01*
X143681009Y-89961904D02*
X143728628Y-90057142D01*
X143728628Y-90057142D02*
X143728628Y-90438094D01*
X143538152Y-89009523D02*
X144204819Y-89009523D01*
X143157200Y-89247618D02*
X143871485Y-89485713D01*
X143871485Y-89485713D02*
X143871485Y-88866666D01*
X92004856Y-98381876D02*
X92004856Y-97741876D01*
X92004856Y-97741876D02*
X92157237Y-97741876D01*
X92157237Y-97741876D02*
X92248666Y-97772352D01*
X92248666Y-97772352D02*
X92309618Y-97833304D01*
X92309618Y-97833304D02*
X92340095Y-97894257D01*
X92340095Y-97894257D02*
X92370571Y-98016161D01*
X92370571Y-98016161D02*
X92370571Y-98107590D01*
X92370571Y-98107590D02*
X92340095Y-98229495D01*
X92340095Y-98229495D02*
X92309618Y-98290447D01*
X92309618Y-98290447D02*
X92248666Y-98351400D01*
X92248666Y-98351400D02*
X92157237Y-98381876D01*
X92157237Y-98381876D02*
X92004856Y-98381876D01*
X92919142Y-97955209D02*
X92919142Y-98381876D01*
X92766761Y-97711400D02*
X92614380Y-98168542D01*
X92614380Y-98168542D02*
X93010571Y-98168542D01*
X93345809Y-98016161D02*
X93284857Y-97985685D01*
X93284857Y-97985685D02*
X93254380Y-97955209D01*
X93254380Y-97955209D02*
X93223904Y-97894257D01*
X93223904Y-97894257D02*
X93223904Y-97863780D01*
X93223904Y-97863780D02*
X93254380Y-97802828D01*
X93254380Y-97802828D02*
X93284857Y-97772352D01*
X93284857Y-97772352D02*
X93345809Y-97741876D01*
X93345809Y-97741876D02*
X93467714Y-97741876D01*
X93467714Y-97741876D02*
X93528666Y-97772352D01*
X93528666Y-97772352D02*
X93559142Y-97802828D01*
X93559142Y-97802828D02*
X93589619Y-97863780D01*
X93589619Y-97863780D02*
X93589619Y-97894257D01*
X93589619Y-97894257D02*
X93559142Y-97955209D01*
X93559142Y-97955209D02*
X93528666Y-97985685D01*
X93528666Y-97985685D02*
X93467714Y-98016161D01*
X93467714Y-98016161D02*
X93345809Y-98016161D01*
X93345809Y-98016161D02*
X93284857Y-98046638D01*
X93284857Y-98046638D02*
X93254380Y-98077114D01*
X93254380Y-98077114D02*
X93223904Y-98138066D01*
X93223904Y-98138066D02*
X93223904Y-98259971D01*
X93223904Y-98259971D02*
X93254380Y-98320923D01*
X93254380Y-98320923D02*
X93284857Y-98351400D01*
X93284857Y-98351400D02*
X93345809Y-98381876D01*
X93345809Y-98381876D02*
X93467714Y-98381876D01*
X93467714Y-98381876D02*
X93528666Y-98351400D01*
X93528666Y-98351400D02*
X93559142Y-98320923D01*
X93559142Y-98320923D02*
X93589619Y-98259971D01*
X93589619Y-98259971D02*
X93589619Y-98138066D01*
X93589619Y-98138066D02*
X93559142Y-98077114D01*
X93559142Y-98077114D02*
X93528666Y-98046638D01*
X93528666Y-98046638D02*
X93467714Y-98016161D01*
X200754856Y-98381876D02*
X200754856Y-97741876D01*
X200754856Y-97741876D02*
X200907237Y-97741876D01*
X200907237Y-97741876D02*
X200998666Y-97772352D01*
X200998666Y-97772352D02*
X201059618Y-97833304D01*
X201059618Y-97833304D02*
X201090095Y-97894257D01*
X201090095Y-97894257D02*
X201120571Y-98016161D01*
X201120571Y-98016161D02*
X201120571Y-98107590D01*
X201120571Y-98107590D02*
X201090095Y-98229495D01*
X201090095Y-98229495D02*
X201059618Y-98290447D01*
X201059618Y-98290447D02*
X200998666Y-98351400D01*
X200998666Y-98351400D02*
X200907237Y-98381876D01*
X200907237Y-98381876D02*
X200754856Y-98381876D01*
X201730095Y-98381876D02*
X201364380Y-98381876D01*
X201547237Y-98381876D02*
X201547237Y-97741876D01*
X201547237Y-97741876D02*
X201486285Y-97833304D01*
X201486285Y-97833304D02*
X201425333Y-97894257D01*
X201425333Y-97894257D02*
X201364380Y-97924733D01*
X202034857Y-98381876D02*
X202156761Y-98381876D01*
X202156761Y-98381876D02*
X202217714Y-98351400D01*
X202217714Y-98351400D02*
X202248190Y-98320923D01*
X202248190Y-98320923D02*
X202309142Y-98229495D01*
X202309142Y-98229495D02*
X202339619Y-98107590D01*
X202339619Y-98107590D02*
X202339619Y-97863780D01*
X202339619Y-97863780D02*
X202309142Y-97802828D01*
X202309142Y-97802828D02*
X202278666Y-97772352D01*
X202278666Y-97772352D02*
X202217714Y-97741876D01*
X202217714Y-97741876D02*
X202095809Y-97741876D01*
X202095809Y-97741876D02*
X202034857Y-97772352D01*
X202034857Y-97772352D02*
X202004380Y-97802828D01*
X202004380Y-97802828D02*
X201973904Y-97863780D01*
X201973904Y-97863780D02*
X201973904Y-98016161D01*
X201973904Y-98016161D02*
X202004380Y-98077114D01*
X202004380Y-98077114D02*
X202034857Y-98107590D01*
X202034857Y-98107590D02*
X202095809Y-98138066D01*
X202095809Y-98138066D02*
X202217714Y-98138066D01*
X202217714Y-98138066D02*
X202278666Y-98107590D01*
X202278666Y-98107590D02*
X202309142Y-98077114D01*
X202309142Y-98077114D02*
X202339619Y-98016161D01*
X152004856Y-98381876D02*
X152004856Y-97741876D01*
X152004856Y-97741876D02*
X152157237Y-97741876D01*
X152157237Y-97741876D02*
X152248666Y-97772352D01*
X152248666Y-97772352D02*
X152309618Y-97833304D01*
X152309618Y-97833304D02*
X152340095Y-97894257D01*
X152340095Y-97894257D02*
X152370571Y-98016161D01*
X152370571Y-98016161D02*
X152370571Y-98107590D01*
X152370571Y-98107590D02*
X152340095Y-98229495D01*
X152340095Y-98229495D02*
X152309618Y-98290447D01*
X152309618Y-98290447D02*
X152248666Y-98351400D01*
X152248666Y-98351400D02*
X152157237Y-98381876D01*
X152157237Y-98381876D02*
X152004856Y-98381876D01*
X152583904Y-97741876D02*
X152980095Y-97741876D01*
X152980095Y-97741876D02*
X152766761Y-97985685D01*
X152766761Y-97985685D02*
X152858190Y-97985685D01*
X152858190Y-97985685D02*
X152919142Y-98016161D01*
X152919142Y-98016161D02*
X152949618Y-98046638D01*
X152949618Y-98046638D02*
X152980095Y-98107590D01*
X152980095Y-98107590D02*
X152980095Y-98259971D01*
X152980095Y-98259971D02*
X152949618Y-98320923D01*
X152949618Y-98320923D02*
X152919142Y-98351400D01*
X152919142Y-98351400D02*
X152858190Y-98381876D01*
X152858190Y-98381876D02*
X152675333Y-98381876D01*
X152675333Y-98381876D02*
X152614380Y-98351400D01*
X152614380Y-98351400D02*
X152583904Y-98320923D01*
X153223904Y-97802828D02*
X153254380Y-97772352D01*
X153254380Y-97772352D02*
X153315333Y-97741876D01*
X153315333Y-97741876D02*
X153467714Y-97741876D01*
X153467714Y-97741876D02*
X153528666Y-97772352D01*
X153528666Y-97772352D02*
X153559142Y-97802828D01*
X153559142Y-97802828D02*
X153589619Y-97863780D01*
X153589619Y-97863780D02*
X153589619Y-97924733D01*
X153589619Y-97924733D02*
X153559142Y-98016161D01*
X153559142Y-98016161D02*
X153193428Y-98381876D01*
X153193428Y-98381876D02*
X153589619Y-98381876D01*
X257309618Y-98381876D02*
X257309618Y-97741876D01*
X257309618Y-97741876D02*
X257461999Y-97741876D01*
X257461999Y-97741876D02*
X257553428Y-97772352D01*
X257553428Y-97772352D02*
X257614380Y-97833304D01*
X257614380Y-97833304D02*
X257644857Y-97894257D01*
X257644857Y-97894257D02*
X257675333Y-98016161D01*
X257675333Y-98016161D02*
X257675333Y-98107590D01*
X257675333Y-98107590D02*
X257644857Y-98229495D01*
X257644857Y-98229495D02*
X257614380Y-98290447D01*
X257614380Y-98290447D02*
X257553428Y-98351400D01*
X257553428Y-98351400D02*
X257461999Y-98381876D01*
X257461999Y-98381876D02*
X257309618Y-98381876D01*
X258223904Y-97955209D02*
X258223904Y-98381876D01*
X258071523Y-97711400D02*
X257919142Y-98168542D01*
X257919142Y-98168542D02*
X258315333Y-98168542D01*
X140754856Y-98381876D02*
X140754856Y-97741876D01*
X140754856Y-97741876D02*
X140907237Y-97741876D01*
X140907237Y-97741876D02*
X140998666Y-97772352D01*
X140998666Y-97772352D02*
X141059618Y-97833304D01*
X141059618Y-97833304D02*
X141090095Y-97894257D01*
X141090095Y-97894257D02*
X141120571Y-98016161D01*
X141120571Y-98016161D02*
X141120571Y-98107590D01*
X141120571Y-98107590D02*
X141090095Y-98229495D01*
X141090095Y-98229495D02*
X141059618Y-98290447D01*
X141059618Y-98290447D02*
X140998666Y-98351400D01*
X140998666Y-98351400D02*
X140907237Y-98381876D01*
X140907237Y-98381876D02*
X140754856Y-98381876D01*
X141333904Y-97741876D02*
X141730095Y-97741876D01*
X141730095Y-97741876D02*
X141516761Y-97985685D01*
X141516761Y-97985685D02*
X141608190Y-97985685D01*
X141608190Y-97985685D02*
X141669142Y-98016161D01*
X141669142Y-98016161D02*
X141699618Y-98046638D01*
X141699618Y-98046638D02*
X141730095Y-98107590D01*
X141730095Y-98107590D02*
X141730095Y-98259971D01*
X141730095Y-98259971D02*
X141699618Y-98320923D01*
X141699618Y-98320923D02*
X141669142Y-98351400D01*
X141669142Y-98351400D02*
X141608190Y-98381876D01*
X141608190Y-98381876D02*
X141425333Y-98381876D01*
X141425333Y-98381876D02*
X141364380Y-98351400D01*
X141364380Y-98351400D02*
X141333904Y-98320923D01*
X142309142Y-97741876D02*
X142004380Y-97741876D01*
X142004380Y-97741876D02*
X141973904Y-98046638D01*
X141973904Y-98046638D02*
X142004380Y-98016161D01*
X142004380Y-98016161D02*
X142065333Y-97985685D01*
X142065333Y-97985685D02*
X142217714Y-97985685D01*
X142217714Y-97985685D02*
X142278666Y-98016161D01*
X142278666Y-98016161D02*
X142309142Y-98046638D01*
X142309142Y-98046638D02*
X142339619Y-98107590D01*
X142339619Y-98107590D02*
X142339619Y-98259971D01*
X142339619Y-98259971D02*
X142309142Y-98320923D01*
X142309142Y-98320923D02*
X142278666Y-98351400D01*
X142278666Y-98351400D02*
X142217714Y-98381876D01*
X142217714Y-98381876D02*
X142065333Y-98381876D01*
X142065333Y-98381876D02*
X142004380Y-98351400D01*
X142004380Y-98351400D02*
X141973904Y-98320923D01*
X234504856Y-98381876D02*
X234504856Y-97741876D01*
X234504856Y-97741876D02*
X234657237Y-97741876D01*
X234657237Y-97741876D02*
X234748666Y-97772352D01*
X234748666Y-97772352D02*
X234809618Y-97833304D01*
X234809618Y-97833304D02*
X234840095Y-97894257D01*
X234840095Y-97894257D02*
X234870571Y-98016161D01*
X234870571Y-98016161D02*
X234870571Y-98107590D01*
X234870571Y-98107590D02*
X234840095Y-98229495D01*
X234840095Y-98229495D02*
X234809618Y-98290447D01*
X234809618Y-98290447D02*
X234748666Y-98351400D01*
X234748666Y-98351400D02*
X234657237Y-98381876D01*
X234657237Y-98381876D02*
X234504856Y-98381876D01*
X235480095Y-98381876D02*
X235114380Y-98381876D01*
X235297237Y-98381876D02*
X235297237Y-97741876D01*
X235297237Y-97741876D02*
X235236285Y-97833304D01*
X235236285Y-97833304D02*
X235175333Y-97894257D01*
X235175333Y-97894257D02*
X235114380Y-97924733D01*
X235876285Y-97741876D02*
X235937238Y-97741876D01*
X235937238Y-97741876D02*
X235998190Y-97772352D01*
X235998190Y-97772352D02*
X236028666Y-97802828D01*
X236028666Y-97802828D02*
X236059142Y-97863780D01*
X236059142Y-97863780D02*
X236089619Y-97985685D01*
X236089619Y-97985685D02*
X236089619Y-98138066D01*
X236089619Y-98138066D02*
X236059142Y-98259971D01*
X236059142Y-98259971D02*
X236028666Y-98320923D01*
X236028666Y-98320923D02*
X235998190Y-98351400D01*
X235998190Y-98351400D02*
X235937238Y-98381876D01*
X235937238Y-98381876D02*
X235876285Y-98381876D01*
X235876285Y-98381876D02*
X235815333Y-98351400D01*
X235815333Y-98351400D02*
X235784857Y-98320923D01*
X235784857Y-98320923D02*
X235754380Y-98259971D01*
X235754380Y-98259971D02*
X235723904Y-98138066D01*
X235723904Y-98138066D02*
X235723904Y-97985685D01*
X235723904Y-97985685D02*
X235754380Y-97863780D01*
X235754380Y-97863780D02*
X235784857Y-97802828D01*
X235784857Y-97802828D02*
X235815333Y-97772352D01*
X235815333Y-97772352D02*
X235876285Y-97741876D01*
X155904819Y-89766666D02*
X155428628Y-90099999D01*
X155904819Y-90338094D02*
X154904819Y-90338094D01*
X154904819Y-90338094D02*
X154904819Y-89957142D01*
X154904819Y-89957142D02*
X154952438Y-89861904D01*
X154952438Y-89861904D02*
X155000057Y-89814285D01*
X155000057Y-89814285D02*
X155095295Y-89766666D01*
X155095295Y-89766666D02*
X155238152Y-89766666D01*
X155238152Y-89766666D02*
X155333390Y-89814285D01*
X155333390Y-89814285D02*
X155381009Y-89861904D01*
X155381009Y-89861904D02*
X155428628Y-89957142D01*
X155428628Y-89957142D02*
X155428628Y-90338094D01*
X155904819Y-88814285D02*
X155904819Y-89385713D01*
X155904819Y-89099999D02*
X154904819Y-89099999D01*
X154904819Y-89099999D02*
X155047676Y-89195237D01*
X155047676Y-89195237D02*
X155142914Y-89290475D01*
X155142914Y-89290475D02*
X155190533Y-89385713D01*
X32004856Y-98381876D02*
X32004856Y-97741876D01*
X32004856Y-97741876D02*
X32157237Y-97741876D01*
X32157237Y-97741876D02*
X32248666Y-97772352D01*
X32248666Y-97772352D02*
X32309618Y-97833304D01*
X32309618Y-97833304D02*
X32340095Y-97894257D01*
X32340095Y-97894257D02*
X32370571Y-98016161D01*
X32370571Y-98016161D02*
X32370571Y-98107590D01*
X32370571Y-98107590D02*
X32340095Y-98229495D01*
X32340095Y-98229495D02*
X32309618Y-98290447D01*
X32309618Y-98290447D02*
X32248666Y-98351400D01*
X32248666Y-98351400D02*
X32157237Y-98381876D01*
X32157237Y-98381876D02*
X32004856Y-98381876D01*
X32919142Y-97741876D02*
X32797237Y-97741876D01*
X32797237Y-97741876D02*
X32736285Y-97772352D01*
X32736285Y-97772352D02*
X32705809Y-97802828D01*
X32705809Y-97802828D02*
X32644856Y-97894257D01*
X32644856Y-97894257D02*
X32614380Y-98016161D01*
X32614380Y-98016161D02*
X32614380Y-98259971D01*
X32614380Y-98259971D02*
X32644856Y-98320923D01*
X32644856Y-98320923D02*
X32675333Y-98351400D01*
X32675333Y-98351400D02*
X32736285Y-98381876D01*
X32736285Y-98381876D02*
X32858190Y-98381876D01*
X32858190Y-98381876D02*
X32919142Y-98351400D01*
X32919142Y-98351400D02*
X32949618Y-98320923D01*
X32949618Y-98320923D02*
X32980095Y-98259971D01*
X32980095Y-98259971D02*
X32980095Y-98107590D01*
X32980095Y-98107590D02*
X32949618Y-98046638D01*
X32949618Y-98046638D02*
X32919142Y-98016161D01*
X32919142Y-98016161D02*
X32858190Y-97985685D01*
X32858190Y-97985685D02*
X32736285Y-97985685D01*
X32736285Y-97985685D02*
X32675333Y-98016161D01*
X32675333Y-98016161D02*
X32644856Y-98046638D01*
X32644856Y-98046638D02*
X32614380Y-98107590D01*
X33528666Y-97955209D02*
X33528666Y-98381876D01*
X33376285Y-97711400D02*
X33223904Y-98168542D01*
X33223904Y-98168542D02*
X33620095Y-98168542D01*
X154404819Y-89766666D02*
X153928628Y-90099999D01*
X154404819Y-90338094D02*
X153404819Y-90338094D01*
X153404819Y-90338094D02*
X153404819Y-89957142D01*
X153404819Y-89957142D02*
X153452438Y-89861904D01*
X153452438Y-89861904D02*
X153500057Y-89814285D01*
X153500057Y-89814285D02*
X153595295Y-89766666D01*
X153595295Y-89766666D02*
X153738152Y-89766666D01*
X153738152Y-89766666D02*
X153833390Y-89814285D01*
X153833390Y-89814285D02*
X153881009Y-89861904D01*
X153881009Y-89861904D02*
X153928628Y-89957142D01*
X153928628Y-89957142D02*
X153928628Y-90338094D01*
X153404819Y-89433332D02*
X153404819Y-88814285D01*
X153404819Y-88814285D02*
X153785771Y-89147618D01*
X153785771Y-89147618D02*
X153785771Y-89004761D01*
X153785771Y-89004761D02*
X153833390Y-88909523D01*
X153833390Y-88909523D02*
X153881009Y-88861904D01*
X153881009Y-88861904D02*
X153976247Y-88814285D01*
X153976247Y-88814285D02*
X154214342Y-88814285D01*
X154214342Y-88814285D02*
X154309580Y-88861904D01*
X154309580Y-88861904D02*
X154357200Y-88909523D01*
X154357200Y-88909523D02*
X154404819Y-89004761D01*
X154404819Y-89004761D02*
X154404819Y-89290475D01*
X154404819Y-89290475D02*
X154357200Y-89385713D01*
X154357200Y-89385713D02*
X154309580Y-89433332D01*
X122004856Y-98381876D02*
X122004856Y-97741876D01*
X122004856Y-97741876D02*
X122157237Y-97741876D01*
X122157237Y-97741876D02*
X122248666Y-97772352D01*
X122248666Y-97772352D02*
X122309618Y-97833304D01*
X122309618Y-97833304D02*
X122340095Y-97894257D01*
X122340095Y-97894257D02*
X122370571Y-98016161D01*
X122370571Y-98016161D02*
X122370571Y-98107590D01*
X122370571Y-98107590D02*
X122340095Y-98229495D01*
X122340095Y-98229495D02*
X122309618Y-98290447D01*
X122309618Y-98290447D02*
X122248666Y-98351400D01*
X122248666Y-98351400D02*
X122157237Y-98381876D01*
X122157237Y-98381876D02*
X122004856Y-98381876D01*
X122919142Y-97955209D02*
X122919142Y-98381876D01*
X122766761Y-97711400D02*
X122614380Y-98168542D01*
X122614380Y-98168542D02*
X123010571Y-98168542D01*
X123376285Y-97741876D02*
X123437238Y-97741876D01*
X123437238Y-97741876D02*
X123498190Y-97772352D01*
X123498190Y-97772352D02*
X123528666Y-97802828D01*
X123528666Y-97802828D02*
X123559142Y-97863780D01*
X123559142Y-97863780D02*
X123589619Y-97985685D01*
X123589619Y-97985685D02*
X123589619Y-98138066D01*
X123589619Y-98138066D02*
X123559142Y-98259971D01*
X123559142Y-98259971D02*
X123528666Y-98320923D01*
X123528666Y-98320923D02*
X123498190Y-98351400D01*
X123498190Y-98351400D02*
X123437238Y-98381876D01*
X123437238Y-98381876D02*
X123376285Y-98381876D01*
X123376285Y-98381876D02*
X123315333Y-98351400D01*
X123315333Y-98351400D02*
X123284857Y-98320923D01*
X123284857Y-98320923D02*
X123254380Y-98259971D01*
X123254380Y-98259971D02*
X123223904Y-98138066D01*
X123223904Y-98138066D02*
X123223904Y-97985685D01*
X123223904Y-97985685D02*
X123254380Y-97863780D01*
X123254380Y-97863780D02*
X123284857Y-97802828D01*
X123284857Y-97802828D02*
X123315333Y-97772352D01*
X123315333Y-97772352D02*
X123376285Y-97741876D01*
X95754856Y-98381876D02*
X95754856Y-97741876D01*
X95754856Y-97741876D02*
X95907237Y-97741876D01*
X95907237Y-97741876D02*
X95998666Y-97772352D01*
X95998666Y-97772352D02*
X96059618Y-97833304D01*
X96059618Y-97833304D02*
X96090095Y-97894257D01*
X96090095Y-97894257D02*
X96120571Y-98016161D01*
X96120571Y-98016161D02*
X96120571Y-98107590D01*
X96120571Y-98107590D02*
X96090095Y-98229495D01*
X96090095Y-98229495D02*
X96059618Y-98290447D01*
X96059618Y-98290447D02*
X95998666Y-98351400D01*
X95998666Y-98351400D02*
X95907237Y-98381876D01*
X95907237Y-98381876D02*
X95754856Y-98381876D01*
X96669142Y-97955209D02*
X96669142Y-98381876D01*
X96516761Y-97711400D02*
X96364380Y-98168542D01*
X96364380Y-98168542D02*
X96760571Y-98168542D01*
X96943428Y-97741876D02*
X97370095Y-97741876D01*
X97370095Y-97741876D02*
X97095809Y-98381876D01*
X77004856Y-98381876D02*
X77004856Y-97741876D01*
X77004856Y-97741876D02*
X77157237Y-97741876D01*
X77157237Y-97741876D02*
X77248666Y-97772352D01*
X77248666Y-97772352D02*
X77309618Y-97833304D01*
X77309618Y-97833304D02*
X77340095Y-97894257D01*
X77340095Y-97894257D02*
X77370571Y-98016161D01*
X77370571Y-98016161D02*
X77370571Y-98107590D01*
X77370571Y-98107590D02*
X77340095Y-98229495D01*
X77340095Y-98229495D02*
X77309618Y-98290447D01*
X77309618Y-98290447D02*
X77248666Y-98351400D01*
X77248666Y-98351400D02*
X77157237Y-98381876D01*
X77157237Y-98381876D02*
X77004856Y-98381876D01*
X77949618Y-97741876D02*
X77644856Y-97741876D01*
X77644856Y-97741876D02*
X77614380Y-98046638D01*
X77614380Y-98046638D02*
X77644856Y-98016161D01*
X77644856Y-98016161D02*
X77705809Y-97985685D01*
X77705809Y-97985685D02*
X77858190Y-97985685D01*
X77858190Y-97985685D02*
X77919142Y-98016161D01*
X77919142Y-98016161D02*
X77949618Y-98046638D01*
X77949618Y-98046638D02*
X77980095Y-98107590D01*
X77980095Y-98107590D02*
X77980095Y-98259971D01*
X77980095Y-98259971D02*
X77949618Y-98320923D01*
X77949618Y-98320923D02*
X77919142Y-98351400D01*
X77919142Y-98351400D02*
X77858190Y-98381876D01*
X77858190Y-98381876D02*
X77705809Y-98381876D01*
X77705809Y-98381876D02*
X77644856Y-98351400D01*
X77644856Y-98351400D02*
X77614380Y-98320923D01*
X78223904Y-97802828D02*
X78254380Y-97772352D01*
X78254380Y-97772352D02*
X78315333Y-97741876D01*
X78315333Y-97741876D02*
X78467714Y-97741876D01*
X78467714Y-97741876D02*
X78528666Y-97772352D01*
X78528666Y-97772352D02*
X78559142Y-97802828D01*
X78559142Y-97802828D02*
X78589619Y-97863780D01*
X78589619Y-97863780D02*
X78589619Y-97924733D01*
X78589619Y-97924733D02*
X78559142Y-98016161D01*
X78559142Y-98016161D02*
X78193428Y-98381876D01*
X78193428Y-98381876D02*
X78589619Y-98381876D01*
X154938095Y-104004819D02*
X154938095Y-104814342D01*
X154938095Y-104814342D02*
X154985714Y-104909580D01*
X154985714Y-104909580D02*
X155033333Y-104957200D01*
X155033333Y-104957200D02*
X155128571Y-105004819D01*
X155128571Y-105004819D02*
X155319047Y-105004819D01*
X155319047Y-105004819D02*
X155414285Y-104957200D01*
X155414285Y-104957200D02*
X155461904Y-104909580D01*
X155461904Y-104909580D02*
X155509523Y-104814342D01*
X155509523Y-104814342D02*
X155509523Y-104004819D01*
X156509523Y-105004819D02*
X155938095Y-105004819D01*
X156223809Y-105004819D02*
X156223809Y-104004819D01*
X156223809Y-104004819D02*
X156128571Y-104147676D01*
X156128571Y-104147676D02*
X156033333Y-104242914D01*
X156033333Y-104242914D02*
X155938095Y-104290533D01*
X223254856Y-98381876D02*
X223254856Y-97741876D01*
X223254856Y-97741876D02*
X223407237Y-97741876D01*
X223407237Y-97741876D02*
X223498666Y-97772352D01*
X223498666Y-97772352D02*
X223559618Y-97833304D01*
X223559618Y-97833304D02*
X223590095Y-97894257D01*
X223590095Y-97894257D02*
X223620571Y-98016161D01*
X223620571Y-98016161D02*
X223620571Y-98107590D01*
X223620571Y-98107590D02*
X223590095Y-98229495D01*
X223590095Y-98229495D02*
X223559618Y-98290447D01*
X223559618Y-98290447D02*
X223498666Y-98351400D01*
X223498666Y-98351400D02*
X223407237Y-98381876D01*
X223407237Y-98381876D02*
X223254856Y-98381876D01*
X224230095Y-98381876D02*
X223864380Y-98381876D01*
X224047237Y-98381876D02*
X224047237Y-97741876D01*
X224047237Y-97741876D02*
X223986285Y-97833304D01*
X223986285Y-97833304D02*
X223925333Y-97894257D01*
X223925333Y-97894257D02*
X223864380Y-97924733D01*
X224443428Y-97741876D02*
X224839619Y-97741876D01*
X224839619Y-97741876D02*
X224626285Y-97985685D01*
X224626285Y-97985685D02*
X224717714Y-97985685D01*
X224717714Y-97985685D02*
X224778666Y-98016161D01*
X224778666Y-98016161D02*
X224809142Y-98046638D01*
X224809142Y-98046638D02*
X224839619Y-98107590D01*
X224839619Y-98107590D02*
X224839619Y-98259971D01*
X224839619Y-98259971D02*
X224809142Y-98320923D01*
X224809142Y-98320923D02*
X224778666Y-98351400D01*
X224778666Y-98351400D02*
X224717714Y-98381876D01*
X224717714Y-98381876D02*
X224534857Y-98381876D01*
X224534857Y-98381876D02*
X224473904Y-98351400D01*
X224473904Y-98351400D02*
X224443428Y-98320923D01*
X230754856Y-98381876D02*
X230754856Y-97741876D01*
X230754856Y-97741876D02*
X230907237Y-97741876D01*
X230907237Y-97741876D02*
X230998666Y-97772352D01*
X230998666Y-97772352D02*
X231059618Y-97833304D01*
X231059618Y-97833304D02*
X231090095Y-97894257D01*
X231090095Y-97894257D02*
X231120571Y-98016161D01*
X231120571Y-98016161D02*
X231120571Y-98107590D01*
X231120571Y-98107590D02*
X231090095Y-98229495D01*
X231090095Y-98229495D02*
X231059618Y-98290447D01*
X231059618Y-98290447D02*
X230998666Y-98351400D01*
X230998666Y-98351400D02*
X230907237Y-98381876D01*
X230907237Y-98381876D02*
X230754856Y-98381876D01*
X231730095Y-98381876D02*
X231364380Y-98381876D01*
X231547237Y-98381876D02*
X231547237Y-97741876D01*
X231547237Y-97741876D02*
X231486285Y-97833304D01*
X231486285Y-97833304D02*
X231425333Y-97894257D01*
X231425333Y-97894257D02*
X231364380Y-97924733D01*
X232339619Y-98381876D02*
X231973904Y-98381876D01*
X232156761Y-98381876D02*
X232156761Y-97741876D01*
X232156761Y-97741876D02*
X232095809Y-97833304D01*
X232095809Y-97833304D02*
X232034857Y-97894257D01*
X232034857Y-97894257D02*
X231973904Y-97924733D01*
X268559618Y-98381876D02*
X268559618Y-97741876D01*
X268559618Y-97741876D02*
X268711999Y-97741876D01*
X268711999Y-97741876D02*
X268803428Y-97772352D01*
X268803428Y-97772352D02*
X268864380Y-97833304D01*
X268864380Y-97833304D02*
X268894857Y-97894257D01*
X268894857Y-97894257D02*
X268925333Y-98016161D01*
X268925333Y-98016161D02*
X268925333Y-98107590D01*
X268925333Y-98107590D02*
X268894857Y-98229495D01*
X268894857Y-98229495D02*
X268864380Y-98290447D01*
X268864380Y-98290447D02*
X268803428Y-98351400D01*
X268803428Y-98351400D02*
X268711999Y-98381876D01*
X268711999Y-98381876D02*
X268559618Y-98381876D01*
X269534857Y-98381876D02*
X269169142Y-98381876D01*
X269351999Y-98381876D02*
X269351999Y-97741876D01*
X269351999Y-97741876D02*
X269291047Y-97833304D01*
X269291047Y-97833304D02*
X269230095Y-97894257D01*
X269230095Y-97894257D02*
X269169142Y-97924733D01*
X84504856Y-98381876D02*
X84504856Y-97741876D01*
X84504856Y-97741876D02*
X84657237Y-97741876D01*
X84657237Y-97741876D02*
X84748666Y-97772352D01*
X84748666Y-97772352D02*
X84809618Y-97833304D01*
X84809618Y-97833304D02*
X84840095Y-97894257D01*
X84840095Y-97894257D02*
X84870571Y-98016161D01*
X84870571Y-98016161D02*
X84870571Y-98107590D01*
X84870571Y-98107590D02*
X84840095Y-98229495D01*
X84840095Y-98229495D02*
X84809618Y-98290447D01*
X84809618Y-98290447D02*
X84748666Y-98351400D01*
X84748666Y-98351400D02*
X84657237Y-98381876D01*
X84657237Y-98381876D02*
X84504856Y-98381876D01*
X85449618Y-97741876D02*
X85144856Y-97741876D01*
X85144856Y-97741876D02*
X85114380Y-98046638D01*
X85114380Y-98046638D02*
X85144856Y-98016161D01*
X85144856Y-98016161D02*
X85205809Y-97985685D01*
X85205809Y-97985685D02*
X85358190Y-97985685D01*
X85358190Y-97985685D02*
X85419142Y-98016161D01*
X85419142Y-98016161D02*
X85449618Y-98046638D01*
X85449618Y-98046638D02*
X85480095Y-98107590D01*
X85480095Y-98107590D02*
X85480095Y-98259971D01*
X85480095Y-98259971D02*
X85449618Y-98320923D01*
X85449618Y-98320923D02*
X85419142Y-98351400D01*
X85419142Y-98351400D02*
X85358190Y-98381876D01*
X85358190Y-98381876D02*
X85205809Y-98381876D01*
X85205809Y-98381876D02*
X85144856Y-98351400D01*
X85144856Y-98351400D02*
X85114380Y-98320923D01*
X85876285Y-97741876D02*
X85937238Y-97741876D01*
X85937238Y-97741876D02*
X85998190Y-97772352D01*
X85998190Y-97772352D02*
X86028666Y-97802828D01*
X86028666Y-97802828D02*
X86059142Y-97863780D01*
X86059142Y-97863780D02*
X86089619Y-97985685D01*
X86089619Y-97985685D02*
X86089619Y-98138066D01*
X86089619Y-98138066D02*
X86059142Y-98259971D01*
X86059142Y-98259971D02*
X86028666Y-98320923D01*
X86028666Y-98320923D02*
X85998190Y-98351400D01*
X85998190Y-98351400D02*
X85937238Y-98381876D01*
X85937238Y-98381876D02*
X85876285Y-98381876D01*
X85876285Y-98381876D02*
X85815333Y-98351400D01*
X85815333Y-98351400D02*
X85784857Y-98320923D01*
X85784857Y-98320923D02*
X85754380Y-98259971D01*
X85754380Y-98259971D02*
X85723904Y-98138066D01*
X85723904Y-98138066D02*
X85723904Y-97985685D01*
X85723904Y-97985685D02*
X85754380Y-97863780D01*
X85754380Y-97863780D02*
X85784857Y-97802828D01*
X85784857Y-97802828D02*
X85815333Y-97772352D01*
X85815333Y-97772352D02*
X85876285Y-97741876D01*
X125754856Y-98381876D02*
X125754856Y-97741876D01*
X125754856Y-97741876D02*
X125907237Y-97741876D01*
X125907237Y-97741876D02*
X125998666Y-97772352D01*
X125998666Y-97772352D02*
X126059618Y-97833304D01*
X126059618Y-97833304D02*
X126090095Y-97894257D01*
X126090095Y-97894257D02*
X126120571Y-98016161D01*
X126120571Y-98016161D02*
X126120571Y-98107590D01*
X126120571Y-98107590D02*
X126090095Y-98229495D01*
X126090095Y-98229495D02*
X126059618Y-98290447D01*
X126059618Y-98290447D02*
X125998666Y-98351400D01*
X125998666Y-98351400D02*
X125907237Y-98381876D01*
X125907237Y-98381876D02*
X125754856Y-98381876D01*
X126333904Y-97741876D02*
X126730095Y-97741876D01*
X126730095Y-97741876D02*
X126516761Y-97985685D01*
X126516761Y-97985685D02*
X126608190Y-97985685D01*
X126608190Y-97985685D02*
X126669142Y-98016161D01*
X126669142Y-98016161D02*
X126699618Y-98046638D01*
X126699618Y-98046638D02*
X126730095Y-98107590D01*
X126730095Y-98107590D02*
X126730095Y-98259971D01*
X126730095Y-98259971D02*
X126699618Y-98320923D01*
X126699618Y-98320923D02*
X126669142Y-98351400D01*
X126669142Y-98351400D02*
X126608190Y-98381876D01*
X126608190Y-98381876D02*
X126425333Y-98381876D01*
X126425333Y-98381876D02*
X126364380Y-98351400D01*
X126364380Y-98351400D02*
X126333904Y-98320923D01*
X127034857Y-98381876D02*
X127156761Y-98381876D01*
X127156761Y-98381876D02*
X127217714Y-98351400D01*
X127217714Y-98351400D02*
X127248190Y-98320923D01*
X127248190Y-98320923D02*
X127309142Y-98229495D01*
X127309142Y-98229495D02*
X127339619Y-98107590D01*
X127339619Y-98107590D02*
X127339619Y-97863780D01*
X127339619Y-97863780D02*
X127309142Y-97802828D01*
X127309142Y-97802828D02*
X127278666Y-97772352D01*
X127278666Y-97772352D02*
X127217714Y-97741876D01*
X127217714Y-97741876D02*
X127095809Y-97741876D01*
X127095809Y-97741876D02*
X127034857Y-97772352D01*
X127034857Y-97772352D02*
X127004380Y-97802828D01*
X127004380Y-97802828D02*
X126973904Y-97863780D01*
X126973904Y-97863780D02*
X126973904Y-98016161D01*
X126973904Y-98016161D02*
X127004380Y-98077114D01*
X127004380Y-98077114D02*
X127034857Y-98107590D01*
X127034857Y-98107590D02*
X127095809Y-98138066D01*
X127095809Y-98138066D02*
X127217714Y-98138066D01*
X127217714Y-98138066D02*
X127278666Y-98107590D01*
X127278666Y-98107590D02*
X127309142Y-98077114D01*
X127309142Y-98077114D02*
X127339619Y-98016161D01*
X62004856Y-98381876D02*
X62004856Y-97741876D01*
X62004856Y-97741876D02*
X62157237Y-97741876D01*
X62157237Y-97741876D02*
X62248666Y-97772352D01*
X62248666Y-97772352D02*
X62309618Y-97833304D01*
X62309618Y-97833304D02*
X62340095Y-97894257D01*
X62340095Y-97894257D02*
X62370571Y-98016161D01*
X62370571Y-98016161D02*
X62370571Y-98107590D01*
X62370571Y-98107590D02*
X62340095Y-98229495D01*
X62340095Y-98229495D02*
X62309618Y-98290447D01*
X62309618Y-98290447D02*
X62248666Y-98351400D01*
X62248666Y-98351400D02*
X62157237Y-98381876D01*
X62157237Y-98381876D02*
X62004856Y-98381876D01*
X62949618Y-97741876D02*
X62644856Y-97741876D01*
X62644856Y-97741876D02*
X62614380Y-98046638D01*
X62614380Y-98046638D02*
X62644856Y-98016161D01*
X62644856Y-98016161D02*
X62705809Y-97985685D01*
X62705809Y-97985685D02*
X62858190Y-97985685D01*
X62858190Y-97985685D02*
X62919142Y-98016161D01*
X62919142Y-98016161D02*
X62949618Y-98046638D01*
X62949618Y-98046638D02*
X62980095Y-98107590D01*
X62980095Y-98107590D02*
X62980095Y-98259971D01*
X62980095Y-98259971D02*
X62949618Y-98320923D01*
X62949618Y-98320923D02*
X62919142Y-98351400D01*
X62919142Y-98351400D02*
X62858190Y-98381876D01*
X62858190Y-98381876D02*
X62705809Y-98381876D01*
X62705809Y-98381876D02*
X62644856Y-98351400D01*
X62644856Y-98351400D02*
X62614380Y-98320923D01*
X63528666Y-97741876D02*
X63406761Y-97741876D01*
X63406761Y-97741876D02*
X63345809Y-97772352D01*
X63345809Y-97772352D02*
X63315333Y-97802828D01*
X63315333Y-97802828D02*
X63254380Y-97894257D01*
X63254380Y-97894257D02*
X63223904Y-98016161D01*
X63223904Y-98016161D02*
X63223904Y-98259971D01*
X63223904Y-98259971D02*
X63254380Y-98320923D01*
X63254380Y-98320923D02*
X63284857Y-98351400D01*
X63284857Y-98351400D02*
X63345809Y-98381876D01*
X63345809Y-98381876D02*
X63467714Y-98381876D01*
X63467714Y-98381876D02*
X63528666Y-98351400D01*
X63528666Y-98351400D02*
X63559142Y-98320923D01*
X63559142Y-98320923D02*
X63589619Y-98259971D01*
X63589619Y-98259971D02*
X63589619Y-98107590D01*
X63589619Y-98107590D02*
X63559142Y-98046638D01*
X63559142Y-98046638D02*
X63528666Y-98016161D01*
X63528666Y-98016161D02*
X63467714Y-97985685D01*
X63467714Y-97985685D02*
X63345809Y-97985685D01*
X63345809Y-97985685D02*
X63284857Y-98016161D01*
X63284857Y-98016161D02*
X63254380Y-98046638D01*
X63254380Y-98046638D02*
X63223904Y-98107590D01*
X204504856Y-98381876D02*
X204504856Y-97741876D01*
X204504856Y-97741876D02*
X204657237Y-97741876D01*
X204657237Y-97741876D02*
X204748666Y-97772352D01*
X204748666Y-97772352D02*
X204809618Y-97833304D01*
X204809618Y-97833304D02*
X204840095Y-97894257D01*
X204840095Y-97894257D02*
X204870571Y-98016161D01*
X204870571Y-98016161D02*
X204870571Y-98107590D01*
X204870571Y-98107590D02*
X204840095Y-98229495D01*
X204840095Y-98229495D02*
X204809618Y-98290447D01*
X204809618Y-98290447D02*
X204748666Y-98351400D01*
X204748666Y-98351400D02*
X204657237Y-98381876D01*
X204657237Y-98381876D02*
X204504856Y-98381876D01*
X205480095Y-98381876D02*
X205114380Y-98381876D01*
X205297237Y-98381876D02*
X205297237Y-97741876D01*
X205297237Y-97741876D02*
X205236285Y-97833304D01*
X205236285Y-97833304D02*
X205175333Y-97894257D01*
X205175333Y-97894257D02*
X205114380Y-97924733D01*
X205845809Y-98016161D02*
X205784857Y-97985685D01*
X205784857Y-97985685D02*
X205754380Y-97955209D01*
X205754380Y-97955209D02*
X205723904Y-97894257D01*
X205723904Y-97894257D02*
X205723904Y-97863780D01*
X205723904Y-97863780D02*
X205754380Y-97802828D01*
X205754380Y-97802828D02*
X205784857Y-97772352D01*
X205784857Y-97772352D02*
X205845809Y-97741876D01*
X205845809Y-97741876D02*
X205967714Y-97741876D01*
X205967714Y-97741876D02*
X206028666Y-97772352D01*
X206028666Y-97772352D02*
X206059142Y-97802828D01*
X206059142Y-97802828D02*
X206089619Y-97863780D01*
X206089619Y-97863780D02*
X206089619Y-97894257D01*
X206089619Y-97894257D02*
X206059142Y-97955209D01*
X206059142Y-97955209D02*
X206028666Y-97985685D01*
X206028666Y-97985685D02*
X205967714Y-98016161D01*
X205967714Y-98016161D02*
X205845809Y-98016161D01*
X205845809Y-98016161D02*
X205784857Y-98046638D01*
X205784857Y-98046638D02*
X205754380Y-98077114D01*
X205754380Y-98077114D02*
X205723904Y-98138066D01*
X205723904Y-98138066D02*
X205723904Y-98259971D01*
X205723904Y-98259971D02*
X205754380Y-98320923D01*
X205754380Y-98320923D02*
X205784857Y-98351400D01*
X205784857Y-98351400D02*
X205845809Y-98381876D01*
X205845809Y-98381876D02*
X205967714Y-98381876D01*
X205967714Y-98381876D02*
X206028666Y-98351400D01*
X206028666Y-98351400D02*
X206059142Y-98320923D01*
X206059142Y-98320923D02*
X206089619Y-98259971D01*
X206089619Y-98259971D02*
X206089619Y-98138066D01*
X206089619Y-98138066D02*
X206059142Y-98077114D01*
X206059142Y-98077114D02*
X206028666Y-98046638D01*
X206028666Y-98046638D02*
X205967714Y-98016161D01*
X182004856Y-98381876D02*
X182004856Y-97741876D01*
X182004856Y-97741876D02*
X182157237Y-97741876D01*
X182157237Y-97741876D02*
X182248666Y-97772352D01*
X182248666Y-97772352D02*
X182309618Y-97833304D01*
X182309618Y-97833304D02*
X182340095Y-97894257D01*
X182340095Y-97894257D02*
X182370571Y-98016161D01*
X182370571Y-98016161D02*
X182370571Y-98107590D01*
X182370571Y-98107590D02*
X182340095Y-98229495D01*
X182340095Y-98229495D02*
X182309618Y-98290447D01*
X182309618Y-98290447D02*
X182248666Y-98351400D01*
X182248666Y-98351400D02*
X182157237Y-98381876D01*
X182157237Y-98381876D02*
X182004856Y-98381876D01*
X182614380Y-97802828D02*
X182644856Y-97772352D01*
X182644856Y-97772352D02*
X182705809Y-97741876D01*
X182705809Y-97741876D02*
X182858190Y-97741876D01*
X182858190Y-97741876D02*
X182919142Y-97772352D01*
X182919142Y-97772352D02*
X182949618Y-97802828D01*
X182949618Y-97802828D02*
X182980095Y-97863780D01*
X182980095Y-97863780D02*
X182980095Y-97924733D01*
X182980095Y-97924733D02*
X182949618Y-98016161D01*
X182949618Y-98016161D02*
X182583904Y-98381876D01*
X182583904Y-98381876D02*
X182980095Y-98381876D01*
X183528666Y-97955209D02*
X183528666Y-98381876D01*
X183376285Y-97711400D02*
X183223904Y-98168542D01*
X183223904Y-98168542D02*
X183620095Y-98168542D01*
X145504819Y-89866666D02*
X145028628Y-90199999D01*
X145504819Y-90438094D02*
X144504819Y-90438094D01*
X144504819Y-90438094D02*
X144504819Y-90057142D01*
X144504819Y-90057142D02*
X144552438Y-89961904D01*
X144552438Y-89961904D02*
X144600057Y-89914285D01*
X144600057Y-89914285D02*
X144695295Y-89866666D01*
X144695295Y-89866666D02*
X144838152Y-89866666D01*
X144838152Y-89866666D02*
X144933390Y-89914285D01*
X144933390Y-89914285D02*
X144981009Y-89961904D01*
X144981009Y-89961904D02*
X145028628Y-90057142D01*
X145028628Y-90057142D02*
X145028628Y-90438094D01*
X144600057Y-89485713D02*
X144552438Y-89438094D01*
X144552438Y-89438094D02*
X144504819Y-89342856D01*
X144504819Y-89342856D02*
X144504819Y-89104761D01*
X144504819Y-89104761D02*
X144552438Y-89009523D01*
X144552438Y-89009523D02*
X144600057Y-88961904D01*
X144600057Y-88961904D02*
X144695295Y-88914285D01*
X144695295Y-88914285D02*
X144790533Y-88914285D01*
X144790533Y-88914285D02*
X144933390Y-88961904D01*
X144933390Y-88961904D02*
X145504819Y-89533332D01*
X145504819Y-89533332D02*
X145504819Y-88914285D01*
X148254856Y-98381876D02*
X148254856Y-97741876D01*
X148254856Y-97741876D02*
X148407237Y-97741876D01*
X148407237Y-97741876D02*
X148498666Y-97772352D01*
X148498666Y-97772352D02*
X148559618Y-97833304D01*
X148559618Y-97833304D02*
X148590095Y-97894257D01*
X148590095Y-97894257D02*
X148620571Y-98016161D01*
X148620571Y-98016161D02*
X148620571Y-98107590D01*
X148620571Y-98107590D02*
X148590095Y-98229495D01*
X148590095Y-98229495D02*
X148559618Y-98290447D01*
X148559618Y-98290447D02*
X148498666Y-98351400D01*
X148498666Y-98351400D02*
X148407237Y-98381876D01*
X148407237Y-98381876D02*
X148254856Y-98381876D01*
X148833904Y-97741876D02*
X149230095Y-97741876D01*
X149230095Y-97741876D02*
X149016761Y-97985685D01*
X149016761Y-97985685D02*
X149108190Y-97985685D01*
X149108190Y-97985685D02*
X149169142Y-98016161D01*
X149169142Y-98016161D02*
X149199618Y-98046638D01*
X149199618Y-98046638D02*
X149230095Y-98107590D01*
X149230095Y-98107590D02*
X149230095Y-98259971D01*
X149230095Y-98259971D02*
X149199618Y-98320923D01*
X149199618Y-98320923D02*
X149169142Y-98351400D01*
X149169142Y-98351400D02*
X149108190Y-98381876D01*
X149108190Y-98381876D02*
X148925333Y-98381876D01*
X148925333Y-98381876D02*
X148864380Y-98351400D01*
X148864380Y-98351400D02*
X148833904Y-98320923D01*
X149443428Y-97741876D02*
X149839619Y-97741876D01*
X149839619Y-97741876D02*
X149626285Y-97985685D01*
X149626285Y-97985685D02*
X149717714Y-97985685D01*
X149717714Y-97985685D02*
X149778666Y-98016161D01*
X149778666Y-98016161D02*
X149809142Y-98046638D01*
X149809142Y-98046638D02*
X149839619Y-98107590D01*
X149839619Y-98107590D02*
X149839619Y-98259971D01*
X149839619Y-98259971D02*
X149809142Y-98320923D01*
X149809142Y-98320923D02*
X149778666Y-98351400D01*
X149778666Y-98351400D02*
X149717714Y-98381876D01*
X149717714Y-98381876D02*
X149534857Y-98381876D01*
X149534857Y-98381876D02*
X149473904Y-98351400D01*
X149473904Y-98351400D02*
X149443428Y-98320923D01*
X197004856Y-98381876D02*
X197004856Y-97741876D01*
X197004856Y-97741876D02*
X197157237Y-97741876D01*
X197157237Y-97741876D02*
X197248666Y-97772352D01*
X197248666Y-97772352D02*
X197309618Y-97833304D01*
X197309618Y-97833304D02*
X197340095Y-97894257D01*
X197340095Y-97894257D02*
X197370571Y-98016161D01*
X197370571Y-98016161D02*
X197370571Y-98107590D01*
X197370571Y-98107590D02*
X197340095Y-98229495D01*
X197340095Y-98229495D02*
X197309618Y-98290447D01*
X197309618Y-98290447D02*
X197248666Y-98351400D01*
X197248666Y-98351400D02*
X197157237Y-98381876D01*
X197157237Y-98381876D02*
X197004856Y-98381876D01*
X197614380Y-97802828D02*
X197644856Y-97772352D01*
X197644856Y-97772352D02*
X197705809Y-97741876D01*
X197705809Y-97741876D02*
X197858190Y-97741876D01*
X197858190Y-97741876D02*
X197919142Y-97772352D01*
X197919142Y-97772352D02*
X197949618Y-97802828D01*
X197949618Y-97802828D02*
X197980095Y-97863780D01*
X197980095Y-97863780D02*
X197980095Y-97924733D01*
X197980095Y-97924733D02*
X197949618Y-98016161D01*
X197949618Y-98016161D02*
X197583904Y-98381876D01*
X197583904Y-98381876D02*
X197980095Y-98381876D01*
X198376285Y-97741876D02*
X198437238Y-97741876D01*
X198437238Y-97741876D02*
X198498190Y-97772352D01*
X198498190Y-97772352D02*
X198528666Y-97802828D01*
X198528666Y-97802828D02*
X198559142Y-97863780D01*
X198559142Y-97863780D02*
X198589619Y-97985685D01*
X198589619Y-97985685D02*
X198589619Y-98138066D01*
X198589619Y-98138066D02*
X198559142Y-98259971D01*
X198559142Y-98259971D02*
X198528666Y-98320923D01*
X198528666Y-98320923D02*
X198498190Y-98351400D01*
X198498190Y-98351400D02*
X198437238Y-98381876D01*
X198437238Y-98381876D02*
X198376285Y-98381876D01*
X198376285Y-98381876D02*
X198315333Y-98351400D01*
X198315333Y-98351400D02*
X198284857Y-98320923D01*
X198284857Y-98320923D02*
X198254380Y-98259971D01*
X198254380Y-98259971D02*
X198223904Y-98138066D01*
X198223904Y-98138066D02*
X198223904Y-97985685D01*
X198223904Y-97985685D02*
X198254380Y-97863780D01*
X198254380Y-97863780D02*
X198284857Y-97802828D01*
X198284857Y-97802828D02*
X198315333Y-97772352D01*
X198315333Y-97772352D02*
X198376285Y-97741876D01*
X193254856Y-98381876D02*
X193254856Y-97741876D01*
X193254856Y-97741876D02*
X193407237Y-97741876D01*
X193407237Y-97741876D02*
X193498666Y-97772352D01*
X193498666Y-97772352D02*
X193559618Y-97833304D01*
X193559618Y-97833304D02*
X193590095Y-97894257D01*
X193590095Y-97894257D02*
X193620571Y-98016161D01*
X193620571Y-98016161D02*
X193620571Y-98107590D01*
X193620571Y-98107590D02*
X193590095Y-98229495D01*
X193590095Y-98229495D02*
X193559618Y-98290447D01*
X193559618Y-98290447D02*
X193498666Y-98351400D01*
X193498666Y-98351400D02*
X193407237Y-98381876D01*
X193407237Y-98381876D02*
X193254856Y-98381876D01*
X193864380Y-97802828D02*
X193894856Y-97772352D01*
X193894856Y-97772352D02*
X193955809Y-97741876D01*
X193955809Y-97741876D02*
X194108190Y-97741876D01*
X194108190Y-97741876D02*
X194169142Y-97772352D01*
X194169142Y-97772352D02*
X194199618Y-97802828D01*
X194199618Y-97802828D02*
X194230095Y-97863780D01*
X194230095Y-97863780D02*
X194230095Y-97924733D01*
X194230095Y-97924733D02*
X194199618Y-98016161D01*
X194199618Y-98016161D02*
X193833904Y-98381876D01*
X193833904Y-98381876D02*
X194230095Y-98381876D01*
X194839619Y-98381876D02*
X194473904Y-98381876D01*
X194656761Y-98381876D02*
X194656761Y-97741876D01*
X194656761Y-97741876D02*
X194595809Y-97833304D01*
X194595809Y-97833304D02*
X194534857Y-97894257D01*
X194534857Y-97894257D02*
X194473904Y-97924733D01*
X249809618Y-98381876D02*
X249809618Y-97741876D01*
X249809618Y-97741876D02*
X249961999Y-97741876D01*
X249961999Y-97741876D02*
X250053428Y-97772352D01*
X250053428Y-97772352D02*
X250114380Y-97833304D01*
X250114380Y-97833304D02*
X250144857Y-97894257D01*
X250144857Y-97894257D02*
X250175333Y-98016161D01*
X250175333Y-98016161D02*
X250175333Y-98107590D01*
X250175333Y-98107590D02*
X250144857Y-98229495D01*
X250144857Y-98229495D02*
X250114380Y-98290447D01*
X250114380Y-98290447D02*
X250053428Y-98351400D01*
X250053428Y-98351400D02*
X249961999Y-98381876D01*
X249961999Y-98381876D02*
X249809618Y-98381876D01*
X250723904Y-97741876D02*
X250601999Y-97741876D01*
X250601999Y-97741876D02*
X250541047Y-97772352D01*
X250541047Y-97772352D02*
X250510571Y-97802828D01*
X250510571Y-97802828D02*
X250449618Y-97894257D01*
X250449618Y-97894257D02*
X250419142Y-98016161D01*
X250419142Y-98016161D02*
X250419142Y-98259971D01*
X250419142Y-98259971D02*
X250449618Y-98320923D01*
X250449618Y-98320923D02*
X250480095Y-98351400D01*
X250480095Y-98351400D02*
X250541047Y-98381876D01*
X250541047Y-98381876D02*
X250662952Y-98381876D01*
X250662952Y-98381876D02*
X250723904Y-98351400D01*
X250723904Y-98351400D02*
X250754380Y-98320923D01*
X250754380Y-98320923D02*
X250784857Y-98259971D01*
X250784857Y-98259971D02*
X250784857Y-98107590D01*
X250784857Y-98107590D02*
X250754380Y-98046638D01*
X250754380Y-98046638D02*
X250723904Y-98016161D01*
X250723904Y-98016161D02*
X250662952Y-97985685D01*
X250662952Y-97985685D02*
X250541047Y-97985685D01*
X250541047Y-97985685D02*
X250480095Y-98016161D01*
X250480095Y-98016161D02*
X250449618Y-98046638D01*
X250449618Y-98046638D02*
X250419142Y-98107590D01*
X174504856Y-98381876D02*
X174504856Y-97741876D01*
X174504856Y-97741876D02*
X174657237Y-97741876D01*
X174657237Y-97741876D02*
X174748666Y-97772352D01*
X174748666Y-97772352D02*
X174809618Y-97833304D01*
X174809618Y-97833304D02*
X174840095Y-97894257D01*
X174840095Y-97894257D02*
X174870571Y-98016161D01*
X174870571Y-98016161D02*
X174870571Y-98107590D01*
X174870571Y-98107590D02*
X174840095Y-98229495D01*
X174840095Y-98229495D02*
X174809618Y-98290447D01*
X174809618Y-98290447D02*
X174748666Y-98351400D01*
X174748666Y-98351400D02*
X174657237Y-98381876D01*
X174657237Y-98381876D02*
X174504856Y-98381876D01*
X175114380Y-97802828D02*
X175144856Y-97772352D01*
X175144856Y-97772352D02*
X175205809Y-97741876D01*
X175205809Y-97741876D02*
X175358190Y-97741876D01*
X175358190Y-97741876D02*
X175419142Y-97772352D01*
X175419142Y-97772352D02*
X175449618Y-97802828D01*
X175449618Y-97802828D02*
X175480095Y-97863780D01*
X175480095Y-97863780D02*
X175480095Y-97924733D01*
X175480095Y-97924733D02*
X175449618Y-98016161D01*
X175449618Y-98016161D02*
X175083904Y-98381876D01*
X175083904Y-98381876D02*
X175480095Y-98381876D01*
X176028666Y-97741876D02*
X175906761Y-97741876D01*
X175906761Y-97741876D02*
X175845809Y-97772352D01*
X175845809Y-97772352D02*
X175815333Y-97802828D01*
X175815333Y-97802828D02*
X175754380Y-97894257D01*
X175754380Y-97894257D02*
X175723904Y-98016161D01*
X175723904Y-98016161D02*
X175723904Y-98259971D01*
X175723904Y-98259971D02*
X175754380Y-98320923D01*
X175754380Y-98320923D02*
X175784857Y-98351400D01*
X175784857Y-98351400D02*
X175845809Y-98381876D01*
X175845809Y-98381876D02*
X175967714Y-98381876D01*
X175967714Y-98381876D02*
X176028666Y-98351400D01*
X176028666Y-98351400D02*
X176059142Y-98320923D01*
X176059142Y-98320923D02*
X176089619Y-98259971D01*
X176089619Y-98259971D02*
X176089619Y-98107590D01*
X176089619Y-98107590D02*
X176059142Y-98046638D01*
X176059142Y-98046638D02*
X176028666Y-98016161D01*
X176028666Y-98016161D02*
X175967714Y-97985685D01*
X175967714Y-97985685D02*
X175845809Y-97985685D01*
X175845809Y-97985685D02*
X175784857Y-98016161D01*
X175784857Y-98016161D02*
X175754380Y-98046638D01*
X175754380Y-98046638D02*
X175723904Y-98107590D01*
X158333333Y-103479580D02*
X158285714Y-103527200D01*
X158285714Y-103527200D02*
X158142857Y-103574819D01*
X158142857Y-103574819D02*
X158047619Y-103574819D01*
X158047619Y-103574819D02*
X157904762Y-103527200D01*
X157904762Y-103527200D02*
X157809524Y-103431961D01*
X157809524Y-103431961D02*
X157761905Y-103336723D01*
X157761905Y-103336723D02*
X157714286Y-103146247D01*
X157714286Y-103146247D02*
X157714286Y-103003390D01*
X157714286Y-103003390D02*
X157761905Y-102812914D01*
X157761905Y-102812914D02*
X157809524Y-102717676D01*
X157809524Y-102717676D02*
X157904762Y-102622438D01*
X157904762Y-102622438D02*
X158047619Y-102574819D01*
X158047619Y-102574819D02*
X158142857Y-102574819D01*
X158142857Y-102574819D02*
X158285714Y-102622438D01*
X158285714Y-102622438D02*
X158333333Y-102670057D01*
X159190476Y-102574819D02*
X159000000Y-102574819D01*
X159000000Y-102574819D02*
X158904762Y-102622438D01*
X158904762Y-102622438D02*
X158857143Y-102670057D01*
X158857143Y-102670057D02*
X158761905Y-102812914D01*
X158761905Y-102812914D02*
X158714286Y-103003390D01*
X158714286Y-103003390D02*
X158714286Y-103384342D01*
X158714286Y-103384342D02*
X158761905Y-103479580D01*
X158761905Y-103479580D02*
X158809524Y-103527200D01*
X158809524Y-103527200D02*
X158904762Y-103574819D01*
X158904762Y-103574819D02*
X159095238Y-103574819D01*
X159095238Y-103574819D02*
X159190476Y-103527200D01*
X159190476Y-103527200D02*
X159238095Y-103479580D01*
X159238095Y-103479580D02*
X159285714Y-103384342D01*
X159285714Y-103384342D02*
X159285714Y-103146247D01*
X159285714Y-103146247D02*
X159238095Y-103051009D01*
X159238095Y-103051009D02*
X159190476Y-103003390D01*
X159190476Y-103003390D02*
X159095238Y-102955771D01*
X159095238Y-102955771D02*
X158904762Y-102955771D01*
X158904762Y-102955771D02*
X158809524Y-103003390D01*
X158809524Y-103003390D02*
X158761905Y-103051009D01*
X158761905Y-103051009D02*
X158714286Y-103146247D01*
X43254856Y-98381876D02*
X43254856Y-97741876D01*
X43254856Y-97741876D02*
X43407237Y-97741876D01*
X43407237Y-97741876D02*
X43498666Y-97772352D01*
X43498666Y-97772352D02*
X43559618Y-97833304D01*
X43559618Y-97833304D02*
X43590095Y-97894257D01*
X43590095Y-97894257D02*
X43620571Y-98016161D01*
X43620571Y-98016161D02*
X43620571Y-98107590D01*
X43620571Y-98107590D02*
X43590095Y-98229495D01*
X43590095Y-98229495D02*
X43559618Y-98290447D01*
X43559618Y-98290447D02*
X43498666Y-98351400D01*
X43498666Y-98351400D02*
X43407237Y-98381876D01*
X43407237Y-98381876D02*
X43254856Y-98381876D01*
X44169142Y-97741876D02*
X44047237Y-97741876D01*
X44047237Y-97741876D02*
X43986285Y-97772352D01*
X43986285Y-97772352D02*
X43955809Y-97802828D01*
X43955809Y-97802828D02*
X43894856Y-97894257D01*
X43894856Y-97894257D02*
X43864380Y-98016161D01*
X43864380Y-98016161D02*
X43864380Y-98259971D01*
X43864380Y-98259971D02*
X43894856Y-98320923D01*
X43894856Y-98320923D02*
X43925333Y-98351400D01*
X43925333Y-98351400D02*
X43986285Y-98381876D01*
X43986285Y-98381876D02*
X44108190Y-98381876D01*
X44108190Y-98381876D02*
X44169142Y-98351400D01*
X44169142Y-98351400D02*
X44199618Y-98320923D01*
X44199618Y-98320923D02*
X44230095Y-98259971D01*
X44230095Y-98259971D02*
X44230095Y-98107590D01*
X44230095Y-98107590D02*
X44199618Y-98046638D01*
X44199618Y-98046638D02*
X44169142Y-98016161D01*
X44169142Y-98016161D02*
X44108190Y-97985685D01*
X44108190Y-97985685D02*
X43986285Y-97985685D01*
X43986285Y-97985685D02*
X43925333Y-98016161D01*
X43925333Y-98016161D02*
X43894856Y-98046638D01*
X43894856Y-98046638D02*
X43864380Y-98107590D01*
X44839619Y-98381876D02*
X44473904Y-98381876D01*
X44656761Y-98381876D02*
X44656761Y-97741876D01*
X44656761Y-97741876D02*
X44595809Y-97833304D01*
X44595809Y-97833304D02*
X44534857Y-97894257D01*
X44534857Y-97894257D02*
X44473904Y-97924733D01*
X159504856Y-98381876D02*
X159504856Y-97741876D01*
X159504856Y-97741876D02*
X159657237Y-97741876D01*
X159657237Y-97741876D02*
X159748666Y-97772352D01*
X159748666Y-97772352D02*
X159809618Y-97833304D01*
X159809618Y-97833304D02*
X159840095Y-97894257D01*
X159840095Y-97894257D02*
X159870571Y-98016161D01*
X159870571Y-98016161D02*
X159870571Y-98107590D01*
X159870571Y-98107590D02*
X159840095Y-98229495D01*
X159840095Y-98229495D02*
X159809618Y-98290447D01*
X159809618Y-98290447D02*
X159748666Y-98351400D01*
X159748666Y-98351400D02*
X159657237Y-98381876D01*
X159657237Y-98381876D02*
X159504856Y-98381876D01*
X160083904Y-97741876D02*
X160480095Y-97741876D01*
X160480095Y-97741876D02*
X160266761Y-97985685D01*
X160266761Y-97985685D02*
X160358190Y-97985685D01*
X160358190Y-97985685D02*
X160419142Y-98016161D01*
X160419142Y-98016161D02*
X160449618Y-98046638D01*
X160449618Y-98046638D02*
X160480095Y-98107590D01*
X160480095Y-98107590D02*
X160480095Y-98259971D01*
X160480095Y-98259971D02*
X160449618Y-98320923D01*
X160449618Y-98320923D02*
X160419142Y-98351400D01*
X160419142Y-98351400D02*
X160358190Y-98381876D01*
X160358190Y-98381876D02*
X160175333Y-98381876D01*
X160175333Y-98381876D02*
X160114380Y-98351400D01*
X160114380Y-98351400D02*
X160083904Y-98320923D01*
X160876285Y-97741876D02*
X160937238Y-97741876D01*
X160937238Y-97741876D02*
X160998190Y-97772352D01*
X160998190Y-97772352D02*
X161028666Y-97802828D01*
X161028666Y-97802828D02*
X161059142Y-97863780D01*
X161059142Y-97863780D02*
X161089619Y-97985685D01*
X161089619Y-97985685D02*
X161089619Y-98138066D01*
X161089619Y-98138066D02*
X161059142Y-98259971D01*
X161059142Y-98259971D02*
X161028666Y-98320923D01*
X161028666Y-98320923D02*
X160998190Y-98351400D01*
X160998190Y-98351400D02*
X160937238Y-98381876D01*
X160937238Y-98381876D02*
X160876285Y-98381876D01*
X160876285Y-98381876D02*
X160815333Y-98351400D01*
X160815333Y-98351400D02*
X160784857Y-98320923D01*
X160784857Y-98320923D02*
X160754380Y-98259971D01*
X160754380Y-98259971D02*
X160723904Y-98138066D01*
X160723904Y-98138066D02*
X160723904Y-97985685D01*
X160723904Y-97985685D02*
X160754380Y-97863780D01*
X160754380Y-97863780D02*
X160784857Y-97802828D01*
X160784857Y-97802828D02*
X160815333Y-97772352D01*
X160815333Y-97772352D02*
X160876285Y-97741876D01*
X137004856Y-98381876D02*
X137004856Y-97741876D01*
X137004856Y-97741876D02*
X137157237Y-97741876D01*
X137157237Y-97741876D02*
X137248666Y-97772352D01*
X137248666Y-97772352D02*
X137309618Y-97833304D01*
X137309618Y-97833304D02*
X137340095Y-97894257D01*
X137340095Y-97894257D02*
X137370571Y-98016161D01*
X137370571Y-98016161D02*
X137370571Y-98107590D01*
X137370571Y-98107590D02*
X137340095Y-98229495D01*
X137340095Y-98229495D02*
X137309618Y-98290447D01*
X137309618Y-98290447D02*
X137248666Y-98351400D01*
X137248666Y-98351400D02*
X137157237Y-98381876D01*
X137157237Y-98381876D02*
X137004856Y-98381876D01*
X137583904Y-97741876D02*
X137980095Y-97741876D01*
X137980095Y-97741876D02*
X137766761Y-97985685D01*
X137766761Y-97985685D02*
X137858190Y-97985685D01*
X137858190Y-97985685D02*
X137919142Y-98016161D01*
X137919142Y-98016161D02*
X137949618Y-98046638D01*
X137949618Y-98046638D02*
X137980095Y-98107590D01*
X137980095Y-98107590D02*
X137980095Y-98259971D01*
X137980095Y-98259971D02*
X137949618Y-98320923D01*
X137949618Y-98320923D02*
X137919142Y-98351400D01*
X137919142Y-98351400D02*
X137858190Y-98381876D01*
X137858190Y-98381876D02*
X137675333Y-98381876D01*
X137675333Y-98381876D02*
X137614380Y-98351400D01*
X137614380Y-98351400D02*
X137583904Y-98320923D01*
X138528666Y-97741876D02*
X138406761Y-97741876D01*
X138406761Y-97741876D02*
X138345809Y-97772352D01*
X138345809Y-97772352D02*
X138315333Y-97802828D01*
X138315333Y-97802828D02*
X138254380Y-97894257D01*
X138254380Y-97894257D02*
X138223904Y-98016161D01*
X138223904Y-98016161D02*
X138223904Y-98259971D01*
X138223904Y-98259971D02*
X138254380Y-98320923D01*
X138254380Y-98320923D02*
X138284857Y-98351400D01*
X138284857Y-98351400D02*
X138345809Y-98381876D01*
X138345809Y-98381876D02*
X138467714Y-98381876D01*
X138467714Y-98381876D02*
X138528666Y-98351400D01*
X138528666Y-98351400D02*
X138559142Y-98320923D01*
X138559142Y-98320923D02*
X138589619Y-98259971D01*
X138589619Y-98259971D02*
X138589619Y-98107590D01*
X138589619Y-98107590D02*
X138559142Y-98046638D01*
X138559142Y-98046638D02*
X138528666Y-98016161D01*
X138528666Y-98016161D02*
X138467714Y-97985685D01*
X138467714Y-97985685D02*
X138345809Y-97985685D01*
X138345809Y-97985685D02*
X138284857Y-98016161D01*
X138284857Y-98016161D02*
X138254380Y-98046638D01*
X138254380Y-98046638D02*
X138223904Y-98107590D01*
X133254856Y-98381876D02*
X133254856Y-97741876D01*
X133254856Y-97741876D02*
X133407237Y-97741876D01*
X133407237Y-97741876D02*
X133498666Y-97772352D01*
X133498666Y-97772352D02*
X133559618Y-97833304D01*
X133559618Y-97833304D02*
X133590095Y-97894257D01*
X133590095Y-97894257D02*
X133620571Y-98016161D01*
X133620571Y-98016161D02*
X133620571Y-98107590D01*
X133620571Y-98107590D02*
X133590095Y-98229495D01*
X133590095Y-98229495D02*
X133559618Y-98290447D01*
X133559618Y-98290447D02*
X133498666Y-98351400D01*
X133498666Y-98351400D02*
X133407237Y-98381876D01*
X133407237Y-98381876D02*
X133254856Y-98381876D01*
X133833904Y-97741876D02*
X134230095Y-97741876D01*
X134230095Y-97741876D02*
X134016761Y-97985685D01*
X134016761Y-97985685D02*
X134108190Y-97985685D01*
X134108190Y-97985685D02*
X134169142Y-98016161D01*
X134169142Y-98016161D02*
X134199618Y-98046638D01*
X134199618Y-98046638D02*
X134230095Y-98107590D01*
X134230095Y-98107590D02*
X134230095Y-98259971D01*
X134230095Y-98259971D02*
X134199618Y-98320923D01*
X134199618Y-98320923D02*
X134169142Y-98351400D01*
X134169142Y-98351400D02*
X134108190Y-98381876D01*
X134108190Y-98381876D02*
X133925333Y-98381876D01*
X133925333Y-98381876D02*
X133864380Y-98351400D01*
X133864380Y-98351400D02*
X133833904Y-98320923D01*
X134443428Y-97741876D02*
X134870095Y-97741876D01*
X134870095Y-97741876D02*
X134595809Y-98381876D01*
X99504856Y-98381876D02*
X99504856Y-97741876D01*
X99504856Y-97741876D02*
X99657237Y-97741876D01*
X99657237Y-97741876D02*
X99748666Y-97772352D01*
X99748666Y-97772352D02*
X99809618Y-97833304D01*
X99809618Y-97833304D02*
X99840095Y-97894257D01*
X99840095Y-97894257D02*
X99870571Y-98016161D01*
X99870571Y-98016161D02*
X99870571Y-98107590D01*
X99870571Y-98107590D02*
X99840095Y-98229495D01*
X99840095Y-98229495D02*
X99809618Y-98290447D01*
X99809618Y-98290447D02*
X99748666Y-98351400D01*
X99748666Y-98351400D02*
X99657237Y-98381876D01*
X99657237Y-98381876D02*
X99504856Y-98381876D01*
X100419142Y-97955209D02*
X100419142Y-98381876D01*
X100266761Y-97711400D02*
X100114380Y-98168542D01*
X100114380Y-98168542D02*
X100510571Y-98168542D01*
X101028666Y-97741876D02*
X100906761Y-97741876D01*
X100906761Y-97741876D02*
X100845809Y-97772352D01*
X100845809Y-97772352D02*
X100815333Y-97802828D01*
X100815333Y-97802828D02*
X100754380Y-97894257D01*
X100754380Y-97894257D02*
X100723904Y-98016161D01*
X100723904Y-98016161D02*
X100723904Y-98259971D01*
X100723904Y-98259971D02*
X100754380Y-98320923D01*
X100754380Y-98320923D02*
X100784857Y-98351400D01*
X100784857Y-98351400D02*
X100845809Y-98381876D01*
X100845809Y-98381876D02*
X100967714Y-98381876D01*
X100967714Y-98381876D02*
X101028666Y-98351400D01*
X101028666Y-98351400D02*
X101059142Y-98320923D01*
X101059142Y-98320923D02*
X101089619Y-98259971D01*
X101089619Y-98259971D02*
X101089619Y-98107590D01*
X101089619Y-98107590D02*
X101059142Y-98046638D01*
X101059142Y-98046638D02*
X101028666Y-98016161D01*
X101028666Y-98016161D02*
X100967714Y-97985685D01*
X100967714Y-97985685D02*
X100845809Y-97985685D01*
X100845809Y-97985685D02*
X100784857Y-98016161D01*
X100784857Y-98016161D02*
X100754380Y-98046638D01*
X100754380Y-98046638D02*
X100723904Y-98107590D01*
X54504856Y-98381876D02*
X54504856Y-97741876D01*
X54504856Y-97741876D02*
X54657237Y-97741876D01*
X54657237Y-97741876D02*
X54748666Y-97772352D01*
X54748666Y-97772352D02*
X54809618Y-97833304D01*
X54809618Y-97833304D02*
X54840095Y-97894257D01*
X54840095Y-97894257D02*
X54870571Y-98016161D01*
X54870571Y-98016161D02*
X54870571Y-98107590D01*
X54870571Y-98107590D02*
X54840095Y-98229495D01*
X54840095Y-98229495D02*
X54809618Y-98290447D01*
X54809618Y-98290447D02*
X54748666Y-98351400D01*
X54748666Y-98351400D02*
X54657237Y-98381876D01*
X54657237Y-98381876D02*
X54504856Y-98381876D01*
X55449618Y-97741876D02*
X55144856Y-97741876D01*
X55144856Y-97741876D02*
X55114380Y-98046638D01*
X55114380Y-98046638D02*
X55144856Y-98016161D01*
X55144856Y-98016161D02*
X55205809Y-97985685D01*
X55205809Y-97985685D02*
X55358190Y-97985685D01*
X55358190Y-97985685D02*
X55419142Y-98016161D01*
X55419142Y-98016161D02*
X55449618Y-98046638D01*
X55449618Y-98046638D02*
X55480095Y-98107590D01*
X55480095Y-98107590D02*
X55480095Y-98259971D01*
X55480095Y-98259971D02*
X55449618Y-98320923D01*
X55449618Y-98320923D02*
X55419142Y-98351400D01*
X55419142Y-98351400D02*
X55358190Y-98381876D01*
X55358190Y-98381876D02*
X55205809Y-98381876D01*
X55205809Y-98381876D02*
X55144856Y-98351400D01*
X55144856Y-98351400D02*
X55114380Y-98320923D01*
X55845809Y-98016161D02*
X55784857Y-97985685D01*
X55784857Y-97985685D02*
X55754380Y-97955209D01*
X55754380Y-97955209D02*
X55723904Y-97894257D01*
X55723904Y-97894257D02*
X55723904Y-97863780D01*
X55723904Y-97863780D02*
X55754380Y-97802828D01*
X55754380Y-97802828D02*
X55784857Y-97772352D01*
X55784857Y-97772352D02*
X55845809Y-97741876D01*
X55845809Y-97741876D02*
X55967714Y-97741876D01*
X55967714Y-97741876D02*
X56028666Y-97772352D01*
X56028666Y-97772352D02*
X56059142Y-97802828D01*
X56059142Y-97802828D02*
X56089619Y-97863780D01*
X56089619Y-97863780D02*
X56089619Y-97894257D01*
X56089619Y-97894257D02*
X56059142Y-97955209D01*
X56059142Y-97955209D02*
X56028666Y-97985685D01*
X56028666Y-97985685D02*
X55967714Y-98016161D01*
X55967714Y-98016161D02*
X55845809Y-98016161D01*
X55845809Y-98016161D02*
X55784857Y-98046638D01*
X55784857Y-98046638D02*
X55754380Y-98077114D01*
X55754380Y-98077114D02*
X55723904Y-98138066D01*
X55723904Y-98138066D02*
X55723904Y-98259971D01*
X55723904Y-98259971D02*
X55754380Y-98320923D01*
X55754380Y-98320923D02*
X55784857Y-98351400D01*
X55784857Y-98351400D02*
X55845809Y-98381876D01*
X55845809Y-98381876D02*
X55967714Y-98381876D01*
X55967714Y-98381876D02*
X56028666Y-98351400D01*
X56028666Y-98351400D02*
X56059142Y-98320923D01*
X56059142Y-98320923D02*
X56089619Y-98259971D01*
X56089619Y-98259971D02*
X56089619Y-98138066D01*
X56089619Y-98138066D02*
X56059142Y-98077114D01*
X56059142Y-98077114D02*
X56028666Y-98046638D01*
X56028666Y-98046638D02*
X55967714Y-98016161D01*
X170754856Y-98381876D02*
X170754856Y-97741876D01*
X170754856Y-97741876D02*
X170907237Y-97741876D01*
X170907237Y-97741876D02*
X170998666Y-97772352D01*
X170998666Y-97772352D02*
X171059618Y-97833304D01*
X171059618Y-97833304D02*
X171090095Y-97894257D01*
X171090095Y-97894257D02*
X171120571Y-98016161D01*
X171120571Y-98016161D02*
X171120571Y-98107590D01*
X171120571Y-98107590D02*
X171090095Y-98229495D01*
X171090095Y-98229495D02*
X171059618Y-98290447D01*
X171059618Y-98290447D02*
X170998666Y-98351400D01*
X170998666Y-98351400D02*
X170907237Y-98381876D01*
X170907237Y-98381876D02*
X170754856Y-98381876D01*
X171364380Y-97802828D02*
X171394856Y-97772352D01*
X171394856Y-97772352D02*
X171455809Y-97741876D01*
X171455809Y-97741876D02*
X171608190Y-97741876D01*
X171608190Y-97741876D02*
X171669142Y-97772352D01*
X171669142Y-97772352D02*
X171699618Y-97802828D01*
X171699618Y-97802828D02*
X171730095Y-97863780D01*
X171730095Y-97863780D02*
X171730095Y-97924733D01*
X171730095Y-97924733D02*
X171699618Y-98016161D01*
X171699618Y-98016161D02*
X171333904Y-98381876D01*
X171333904Y-98381876D02*
X171730095Y-98381876D01*
X171943428Y-97741876D02*
X172370095Y-97741876D01*
X172370095Y-97741876D02*
X172095809Y-98381876D01*
X149238095Y-94454819D02*
X149238095Y-95264342D01*
X149238095Y-95264342D02*
X149285714Y-95359580D01*
X149285714Y-95359580D02*
X149333333Y-95407200D01*
X149333333Y-95407200D02*
X149428571Y-95454819D01*
X149428571Y-95454819D02*
X149619047Y-95454819D01*
X149619047Y-95454819D02*
X149714285Y-95407200D01*
X149714285Y-95407200D02*
X149761904Y-95359580D01*
X149761904Y-95359580D02*
X149809523Y-95264342D01*
X149809523Y-95264342D02*
X149809523Y-94454819D01*
X150190476Y-94454819D02*
X150809523Y-94454819D01*
X150809523Y-94454819D02*
X150476190Y-94835771D01*
X150476190Y-94835771D02*
X150619047Y-94835771D01*
X150619047Y-94835771D02*
X150714285Y-94883390D01*
X150714285Y-94883390D02*
X150761904Y-94931009D01*
X150761904Y-94931009D02*
X150809523Y-95026247D01*
X150809523Y-95026247D02*
X150809523Y-95264342D01*
X150809523Y-95264342D02*
X150761904Y-95359580D01*
X150761904Y-95359580D02*
X150714285Y-95407200D01*
X150714285Y-95407200D02*
X150619047Y-95454819D01*
X150619047Y-95454819D02*
X150333333Y-95454819D01*
X150333333Y-95454819D02*
X150238095Y-95407200D01*
X150238095Y-95407200D02*
X150190476Y-95359580D01*
X114504856Y-98381876D02*
X114504856Y-97741876D01*
X114504856Y-97741876D02*
X114657237Y-97741876D01*
X114657237Y-97741876D02*
X114748666Y-97772352D01*
X114748666Y-97772352D02*
X114809618Y-97833304D01*
X114809618Y-97833304D02*
X114840095Y-97894257D01*
X114840095Y-97894257D02*
X114870571Y-98016161D01*
X114870571Y-98016161D02*
X114870571Y-98107590D01*
X114870571Y-98107590D02*
X114840095Y-98229495D01*
X114840095Y-98229495D02*
X114809618Y-98290447D01*
X114809618Y-98290447D02*
X114748666Y-98351400D01*
X114748666Y-98351400D02*
X114657237Y-98381876D01*
X114657237Y-98381876D02*
X114504856Y-98381876D01*
X115419142Y-97955209D02*
X115419142Y-98381876D01*
X115266761Y-97711400D02*
X115114380Y-98168542D01*
X115114380Y-98168542D02*
X115510571Y-98168542D01*
X115723904Y-97802828D02*
X115754380Y-97772352D01*
X115754380Y-97772352D02*
X115815333Y-97741876D01*
X115815333Y-97741876D02*
X115967714Y-97741876D01*
X115967714Y-97741876D02*
X116028666Y-97772352D01*
X116028666Y-97772352D02*
X116059142Y-97802828D01*
X116059142Y-97802828D02*
X116089619Y-97863780D01*
X116089619Y-97863780D02*
X116089619Y-97924733D01*
X116089619Y-97924733D02*
X116059142Y-98016161D01*
X116059142Y-98016161D02*
X115693428Y-98381876D01*
X115693428Y-98381876D02*
X116089619Y-98381876D01*
X58254856Y-98381876D02*
X58254856Y-97741876D01*
X58254856Y-97741876D02*
X58407237Y-97741876D01*
X58407237Y-97741876D02*
X58498666Y-97772352D01*
X58498666Y-97772352D02*
X58559618Y-97833304D01*
X58559618Y-97833304D02*
X58590095Y-97894257D01*
X58590095Y-97894257D02*
X58620571Y-98016161D01*
X58620571Y-98016161D02*
X58620571Y-98107590D01*
X58620571Y-98107590D02*
X58590095Y-98229495D01*
X58590095Y-98229495D02*
X58559618Y-98290447D01*
X58559618Y-98290447D02*
X58498666Y-98351400D01*
X58498666Y-98351400D02*
X58407237Y-98381876D01*
X58407237Y-98381876D02*
X58254856Y-98381876D01*
X59199618Y-97741876D02*
X58894856Y-97741876D01*
X58894856Y-97741876D02*
X58864380Y-98046638D01*
X58864380Y-98046638D02*
X58894856Y-98016161D01*
X58894856Y-98016161D02*
X58955809Y-97985685D01*
X58955809Y-97985685D02*
X59108190Y-97985685D01*
X59108190Y-97985685D02*
X59169142Y-98016161D01*
X59169142Y-98016161D02*
X59199618Y-98046638D01*
X59199618Y-98046638D02*
X59230095Y-98107590D01*
X59230095Y-98107590D02*
X59230095Y-98259971D01*
X59230095Y-98259971D02*
X59199618Y-98320923D01*
X59199618Y-98320923D02*
X59169142Y-98351400D01*
X59169142Y-98351400D02*
X59108190Y-98381876D01*
X59108190Y-98381876D02*
X58955809Y-98381876D01*
X58955809Y-98381876D02*
X58894856Y-98351400D01*
X58894856Y-98351400D02*
X58864380Y-98320923D01*
X59443428Y-97741876D02*
X59870095Y-97741876D01*
X59870095Y-97741876D02*
X59595809Y-98381876D01*
X219504856Y-98381876D02*
X219504856Y-97741876D01*
X219504856Y-97741876D02*
X219657237Y-97741876D01*
X219657237Y-97741876D02*
X219748666Y-97772352D01*
X219748666Y-97772352D02*
X219809618Y-97833304D01*
X219809618Y-97833304D02*
X219840095Y-97894257D01*
X219840095Y-97894257D02*
X219870571Y-98016161D01*
X219870571Y-98016161D02*
X219870571Y-98107590D01*
X219870571Y-98107590D02*
X219840095Y-98229495D01*
X219840095Y-98229495D02*
X219809618Y-98290447D01*
X219809618Y-98290447D02*
X219748666Y-98351400D01*
X219748666Y-98351400D02*
X219657237Y-98381876D01*
X219657237Y-98381876D02*
X219504856Y-98381876D01*
X220480095Y-98381876D02*
X220114380Y-98381876D01*
X220297237Y-98381876D02*
X220297237Y-97741876D01*
X220297237Y-97741876D02*
X220236285Y-97833304D01*
X220236285Y-97833304D02*
X220175333Y-97894257D01*
X220175333Y-97894257D02*
X220114380Y-97924733D01*
X221028666Y-97955209D02*
X221028666Y-98381876D01*
X220876285Y-97711400D02*
X220723904Y-98168542D01*
X220723904Y-98168542D02*
X221120095Y-98168542D01*
X39504856Y-98381876D02*
X39504856Y-97741876D01*
X39504856Y-97741876D02*
X39657237Y-97741876D01*
X39657237Y-97741876D02*
X39748666Y-97772352D01*
X39748666Y-97772352D02*
X39809618Y-97833304D01*
X39809618Y-97833304D02*
X39840095Y-97894257D01*
X39840095Y-97894257D02*
X39870571Y-98016161D01*
X39870571Y-98016161D02*
X39870571Y-98107590D01*
X39870571Y-98107590D02*
X39840095Y-98229495D01*
X39840095Y-98229495D02*
X39809618Y-98290447D01*
X39809618Y-98290447D02*
X39748666Y-98351400D01*
X39748666Y-98351400D02*
X39657237Y-98381876D01*
X39657237Y-98381876D02*
X39504856Y-98381876D01*
X40419142Y-97741876D02*
X40297237Y-97741876D01*
X40297237Y-97741876D02*
X40236285Y-97772352D01*
X40236285Y-97772352D02*
X40205809Y-97802828D01*
X40205809Y-97802828D02*
X40144856Y-97894257D01*
X40144856Y-97894257D02*
X40114380Y-98016161D01*
X40114380Y-98016161D02*
X40114380Y-98259971D01*
X40114380Y-98259971D02*
X40144856Y-98320923D01*
X40144856Y-98320923D02*
X40175333Y-98351400D01*
X40175333Y-98351400D02*
X40236285Y-98381876D01*
X40236285Y-98381876D02*
X40358190Y-98381876D01*
X40358190Y-98381876D02*
X40419142Y-98351400D01*
X40419142Y-98351400D02*
X40449618Y-98320923D01*
X40449618Y-98320923D02*
X40480095Y-98259971D01*
X40480095Y-98259971D02*
X40480095Y-98107590D01*
X40480095Y-98107590D02*
X40449618Y-98046638D01*
X40449618Y-98046638D02*
X40419142Y-98016161D01*
X40419142Y-98016161D02*
X40358190Y-97985685D01*
X40358190Y-97985685D02*
X40236285Y-97985685D01*
X40236285Y-97985685D02*
X40175333Y-98016161D01*
X40175333Y-98016161D02*
X40144856Y-98046638D01*
X40144856Y-98046638D02*
X40114380Y-98107590D01*
X40723904Y-97802828D02*
X40754380Y-97772352D01*
X40754380Y-97772352D02*
X40815333Y-97741876D01*
X40815333Y-97741876D02*
X40967714Y-97741876D01*
X40967714Y-97741876D02*
X41028666Y-97772352D01*
X41028666Y-97772352D02*
X41059142Y-97802828D01*
X41059142Y-97802828D02*
X41089619Y-97863780D01*
X41089619Y-97863780D02*
X41089619Y-97924733D01*
X41089619Y-97924733D02*
X41059142Y-98016161D01*
X41059142Y-98016161D02*
X40693428Y-98381876D01*
X40693428Y-98381876D02*
X41089619Y-98381876D01*
X69504856Y-98381876D02*
X69504856Y-97741876D01*
X69504856Y-97741876D02*
X69657237Y-97741876D01*
X69657237Y-97741876D02*
X69748666Y-97772352D01*
X69748666Y-97772352D02*
X69809618Y-97833304D01*
X69809618Y-97833304D02*
X69840095Y-97894257D01*
X69840095Y-97894257D02*
X69870571Y-98016161D01*
X69870571Y-98016161D02*
X69870571Y-98107590D01*
X69870571Y-98107590D02*
X69840095Y-98229495D01*
X69840095Y-98229495D02*
X69809618Y-98290447D01*
X69809618Y-98290447D02*
X69748666Y-98351400D01*
X69748666Y-98351400D02*
X69657237Y-98381876D01*
X69657237Y-98381876D02*
X69504856Y-98381876D01*
X70449618Y-97741876D02*
X70144856Y-97741876D01*
X70144856Y-97741876D02*
X70114380Y-98046638D01*
X70114380Y-98046638D02*
X70144856Y-98016161D01*
X70144856Y-98016161D02*
X70205809Y-97985685D01*
X70205809Y-97985685D02*
X70358190Y-97985685D01*
X70358190Y-97985685D02*
X70419142Y-98016161D01*
X70419142Y-98016161D02*
X70449618Y-98046638D01*
X70449618Y-98046638D02*
X70480095Y-98107590D01*
X70480095Y-98107590D02*
X70480095Y-98259971D01*
X70480095Y-98259971D02*
X70449618Y-98320923D01*
X70449618Y-98320923D02*
X70419142Y-98351400D01*
X70419142Y-98351400D02*
X70358190Y-98381876D01*
X70358190Y-98381876D02*
X70205809Y-98381876D01*
X70205809Y-98381876D02*
X70144856Y-98351400D01*
X70144856Y-98351400D02*
X70114380Y-98320923D01*
X71028666Y-97955209D02*
X71028666Y-98381876D01*
X70876285Y-97711400D02*
X70723904Y-98168542D01*
X70723904Y-98168542D02*
X71120095Y-98168542D01*
X167004856Y-98381876D02*
X167004856Y-97741876D01*
X167004856Y-97741876D02*
X167157237Y-97741876D01*
X167157237Y-97741876D02*
X167248666Y-97772352D01*
X167248666Y-97772352D02*
X167309618Y-97833304D01*
X167309618Y-97833304D02*
X167340095Y-97894257D01*
X167340095Y-97894257D02*
X167370571Y-98016161D01*
X167370571Y-98016161D02*
X167370571Y-98107590D01*
X167370571Y-98107590D02*
X167340095Y-98229495D01*
X167340095Y-98229495D02*
X167309618Y-98290447D01*
X167309618Y-98290447D02*
X167248666Y-98351400D01*
X167248666Y-98351400D02*
X167157237Y-98381876D01*
X167157237Y-98381876D02*
X167004856Y-98381876D01*
X167614380Y-97802828D02*
X167644856Y-97772352D01*
X167644856Y-97772352D02*
X167705809Y-97741876D01*
X167705809Y-97741876D02*
X167858190Y-97741876D01*
X167858190Y-97741876D02*
X167919142Y-97772352D01*
X167919142Y-97772352D02*
X167949618Y-97802828D01*
X167949618Y-97802828D02*
X167980095Y-97863780D01*
X167980095Y-97863780D02*
X167980095Y-97924733D01*
X167980095Y-97924733D02*
X167949618Y-98016161D01*
X167949618Y-98016161D02*
X167583904Y-98381876D01*
X167583904Y-98381876D02*
X167980095Y-98381876D01*
X168345809Y-98016161D02*
X168284857Y-97985685D01*
X168284857Y-97985685D02*
X168254380Y-97955209D01*
X168254380Y-97955209D02*
X168223904Y-97894257D01*
X168223904Y-97894257D02*
X168223904Y-97863780D01*
X168223904Y-97863780D02*
X168254380Y-97802828D01*
X168254380Y-97802828D02*
X168284857Y-97772352D01*
X168284857Y-97772352D02*
X168345809Y-97741876D01*
X168345809Y-97741876D02*
X168467714Y-97741876D01*
X168467714Y-97741876D02*
X168528666Y-97772352D01*
X168528666Y-97772352D02*
X168559142Y-97802828D01*
X168559142Y-97802828D02*
X168589619Y-97863780D01*
X168589619Y-97863780D02*
X168589619Y-97894257D01*
X168589619Y-97894257D02*
X168559142Y-97955209D01*
X168559142Y-97955209D02*
X168528666Y-97985685D01*
X168528666Y-97985685D02*
X168467714Y-98016161D01*
X168467714Y-98016161D02*
X168345809Y-98016161D01*
X168345809Y-98016161D02*
X168284857Y-98046638D01*
X168284857Y-98046638D02*
X168254380Y-98077114D01*
X168254380Y-98077114D02*
X168223904Y-98138066D01*
X168223904Y-98138066D02*
X168223904Y-98259971D01*
X168223904Y-98259971D02*
X168254380Y-98320923D01*
X168254380Y-98320923D02*
X168284857Y-98351400D01*
X168284857Y-98351400D02*
X168345809Y-98381876D01*
X168345809Y-98381876D02*
X168467714Y-98381876D01*
X168467714Y-98381876D02*
X168528666Y-98351400D01*
X168528666Y-98351400D02*
X168559142Y-98320923D01*
X168559142Y-98320923D02*
X168589619Y-98259971D01*
X168589619Y-98259971D02*
X168589619Y-98138066D01*
X168589619Y-98138066D02*
X168559142Y-98077114D01*
X168559142Y-98077114D02*
X168528666Y-98046638D01*
X168528666Y-98046638D02*
X168467714Y-98016161D01*
X261059618Y-98381876D02*
X261059618Y-97741876D01*
X261059618Y-97741876D02*
X261211999Y-97741876D01*
X261211999Y-97741876D02*
X261303428Y-97772352D01*
X261303428Y-97772352D02*
X261364380Y-97833304D01*
X261364380Y-97833304D02*
X261394857Y-97894257D01*
X261394857Y-97894257D02*
X261425333Y-98016161D01*
X261425333Y-98016161D02*
X261425333Y-98107590D01*
X261425333Y-98107590D02*
X261394857Y-98229495D01*
X261394857Y-98229495D02*
X261364380Y-98290447D01*
X261364380Y-98290447D02*
X261303428Y-98351400D01*
X261303428Y-98351400D02*
X261211999Y-98381876D01*
X261211999Y-98381876D02*
X261059618Y-98381876D01*
X261638666Y-97741876D02*
X262034857Y-97741876D01*
X262034857Y-97741876D02*
X261821523Y-97985685D01*
X261821523Y-97985685D02*
X261912952Y-97985685D01*
X261912952Y-97985685D02*
X261973904Y-98016161D01*
X261973904Y-98016161D02*
X262004380Y-98046638D01*
X262004380Y-98046638D02*
X262034857Y-98107590D01*
X262034857Y-98107590D02*
X262034857Y-98259971D01*
X262034857Y-98259971D02*
X262004380Y-98320923D01*
X262004380Y-98320923D02*
X261973904Y-98351400D01*
X261973904Y-98351400D02*
X261912952Y-98381876D01*
X261912952Y-98381876D02*
X261730095Y-98381876D01*
X261730095Y-98381876D02*
X261669142Y-98351400D01*
X261669142Y-98351400D02*
X261638666Y-98320923D01*
X118254856Y-98381876D02*
X118254856Y-97741876D01*
X118254856Y-97741876D02*
X118407237Y-97741876D01*
X118407237Y-97741876D02*
X118498666Y-97772352D01*
X118498666Y-97772352D02*
X118559618Y-97833304D01*
X118559618Y-97833304D02*
X118590095Y-97894257D01*
X118590095Y-97894257D02*
X118620571Y-98016161D01*
X118620571Y-98016161D02*
X118620571Y-98107590D01*
X118620571Y-98107590D02*
X118590095Y-98229495D01*
X118590095Y-98229495D02*
X118559618Y-98290447D01*
X118559618Y-98290447D02*
X118498666Y-98351400D01*
X118498666Y-98351400D02*
X118407237Y-98381876D01*
X118407237Y-98381876D02*
X118254856Y-98381876D01*
X119169142Y-97955209D02*
X119169142Y-98381876D01*
X119016761Y-97711400D02*
X118864380Y-98168542D01*
X118864380Y-98168542D02*
X119260571Y-98168542D01*
X119839619Y-98381876D02*
X119473904Y-98381876D01*
X119656761Y-98381876D02*
X119656761Y-97741876D01*
X119656761Y-97741876D02*
X119595809Y-97833304D01*
X119595809Y-97833304D02*
X119534857Y-97894257D01*
X119534857Y-97894257D02*
X119473904Y-97924733D01*
D11*
%TO.C,D5*%
X253000000Y-98861000D02*
X255000000Y-98861000D01*
X253000000Y-101139000D02*
X255000000Y-101139000D01*
D12*
X252450000Y-99000000D02*
G75*
G03*
X252250000Y-99000000I-100000J0D01*
G01*
X252250000Y-99000000D02*
G75*
G03*
X252450000Y-99000000I100000J0D01*
G01*
D11*
%TO.C,D60*%
X46750000Y-98861000D02*
X48750000Y-98861000D01*
X46750000Y-101139000D02*
X48750000Y-101139000D01*
D12*
X46200000Y-99000000D02*
G75*
G03*
X46000000Y-99000000I-100000J0D01*
G01*
X46000000Y-99000000D02*
G75*
G03*
X46200000Y-99000000I100000J0D01*
G01*
D11*
%TO.C,D38*%
X129250000Y-98861000D02*
X131250000Y-98861000D01*
X129250000Y-101139000D02*
X131250000Y-101139000D01*
D12*
X128700000Y-99000000D02*
G75*
G03*
X128500000Y-99000000I-100000J0D01*
G01*
X128500000Y-99000000D02*
G75*
G03*
X128700000Y-99000000I100000J0D01*
G01*
D11*
%TO.C,D12*%
X226750000Y-98861000D02*
X228750000Y-98861000D01*
X226750000Y-101139000D02*
X228750000Y-101139000D01*
D12*
X226200000Y-99000000D02*
G75*
G03*
X226000000Y-99000000I-100000J0D01*
G01*
X226000000Y-99000000D02*
G75*
G03*
X226200000Y-99000000I100000J0D01*
G01*
D11*
%TO.C,D53*%
X73000000Y-98861000D02*
X75000000Y-98861000D01*
X73000000Y-101139000D02*
X75000000Y-101139000D01*
D12*
X72450000Y-99000000D02*
G75*
G03*
X72250000Y-99000000I-100000J0D01*
G01*
X72250000Y-99000000D02*
G75*
G03*
X72450000Y-99000000I100000J0D01*
G01*
D11*
%TO.C,D29*%
X163000000Y-98861000D02*
X165000000Y-98861000D01*
X163000000Y-101139000D02*
X165000000Y-101139000D01*
D12*
X162450000Y-99000000D02*
G75*
G03*
X162250000Y-99000000I-100000J0D01*
G01*
X162250000Y-99000000D02*
G75*
G03*
X162450000Y-99000000I100000J0D01*
G01*
D11*
%TO.C,D9*%
X238000000Y-98861000D02*
X240000000Y-98861000D01*
X238000000Y-101139000D02*
X240000000Y-101139000D01*
D12*
X237450000Y-99000000D02*
G75*
G03*
X237250000Y-99000000I-100000J0D01*
G01*
X237250000Y-99000000D02*
G75*
G03*
X237450000Y-99000000I100000J0D01*
G01*
D11*
%TO.C,D7*%
X245500000Y-98861000D02*
X247500000Y-98861000D01*
X245500000Y-101139000D02*
X247500000Y-101139000D01*
D12*
X244950000Y-99000000D02*
G75*
G03*
X244750000Y-99000000I-100000J0D01*
G01*
X244750000Y-99000000D02*
G75*
G03*
X244950000Y-99000000I100000J0D01*
G01*
D11*
%TO.C,D63*%
X35500000Y-98861000D02*
X37500000Y-98861000D01*
X35500000Y-101139000D02*
X37500000Y-101139000D01*
D12*
X34950000Y-99000000D02*
G75*
G03*
X34750000Y-99000000I-100000J0D01*
G01*
X34750000Y-99000000D02*
G75*
G03*
X34950000Y-99000000I100000J0D01*
G01*
D11*
%TO.C,D43*%
X110500000Y-98861000D02*
X112500000Y-98861000D01*
X110500000Y-101139000D02*
X112500000Y-101139000D01*
D12*
X109950000Y-99000000D02*
G75*
G03*
X109750000Y-99000000I-100000J0D01*
G01*
X109750000Y-99000000D02*
G75*
G03*
X109950000Y-99000000I100000J0D01*
G01*
D13*
%TO.C,J1*%
X138880000Y-107730000D02*
X137550000Y-107730000D01*
X138880000Y-106400000D02*
X138880000Y-107730000D01*
X138880000Y-105130000D02*
X138880000Y-102530000D01*
X138880000Y-105130000D02*
X136220000Y-105130000D01*
X138880000Y-102530000D02*
X136220000Y-102530000D01*
X136220000Y-105130000D02*
X136220000Y-102530000D01*
D11*
%TO.C,D16*%
X211750000Y-98861000D02*
X213750000Y-98861000D01*
X211750000Y-101139000D02*
X213750000Y-101139000D01*
D12*
X211200000Y-99000000D02*
G75*
G03*
X211000000Y-99000000I-100000J0D01*
G01*
X211000000Y-99000000D02*
G75*
G03*
X211200000Y-99000000I100000J0D01*
G01*
D11*
%TO.C,D25*%
X178000000Y-98861000D02*
X180000000Y-98861000D01*
X178000000Y-101139000D02*
X180000000Y-101139000D01*
D12*
X177450000Y-99000000D02*
G75*
G03*
X177250000Y-99000000I-100000J0D01*
G01*
X177250000Y-99000000D02*
G75*
G03*
X177450000Y-99000000I100000J0D01*
G01*
D11*
%TO.C,D44*%
X106750000Y-98861000D02*
X108750000Y-98861000D01*
X106750000Y-101139000D02*
X108750000Y-101139000D01*
D12*
X106200000Y-99000000D02*
G75*
G03*
X106000000Y-99000000I-100000J0D01*
G01*
X106000000Y-99000000D02*
G75*
G03*
X106200000Y-99000000I100000J0D01*
G01*
D11*
%TO.C,D22*%
X189250000Y-98861000D02*
X191250000Y-98861000D01*
X189250000Y-101139000D02*
X191250000Y-101139000D01*
D12*
X188700000Y-99000000D02*
G75*
G03*
X188500000Y-99000000I-100000J0D01*
G01*
X188500000Y-99000000D02*
G75*
G03*
X188700000Y-99000000I100000J0D01*
G01*
D11*
%TO.C,D17*%
X208000000Y-98861000D02*
X210000000Y-98861000D01*
X208000000Y-101139000D02*
X210000000Y-101139000D01*
D12*
X207450000Y-99000000D02*
G75*
G03*
X207250000Y-99000000I-100000J0D01*
G01*
X207250000Y-99000000D02*
G75*
G03*
X207450000Y-99000000I100000J0D01*
G01*
D11*
%TO.C,D55*%
X65500000Y-98861000D02*
X67500000Y-98861000D01*
X65500000Y-101139000D02*
X67500000Y-101139000D01*
D12*
X64950000Y-99000000D02*
G75*
G03*
X64750000Y-99000000I-100000J0D01*
G01*
X64750000Y-99000000D02*
G75*
G03*
X64950000Y-99000000I100000J0D01*
G01*
D13*
%TO.C,L1*%
X160278733Y-106240000D02*
X160621267Y-106240000D01*
X160278733Y-107260000D02*
X160621267Y-107260000D01*
D11*
%TO.C,D59*%
X50500000Y-98861000D02*
X52500000Y-98861000D01*
X50500000Y-101139000D02*
X52500000Y-101139000D01*
D12*
X49950000Y-99000000D02*
G75*
G03*
X49750000Y-99000000I-100000J0D01*
G01*
X49750000Y-99000000D02*
G75*
G03*
X49950000Y-99000000I100000J0D01*
G01*
D11*
%TO.C,D8*%
X241750000Y-98861000D02*
X243750000Y-98861000D01*
X241750000Y-101139000D02*
X243750000Y-101139000D01*
D12*
X241200000Y-99000000D02*
G75*
G03*
X241000000Y-99000000I-100000J0D01*
G01*
X241000000Y-99000000D02*
G75*
G03*
X241200000Y-99000000I100000J0D01*
G01*
D11*
%TO.C,D45*%
X103000000Y-98861000D02*
X105000000Y-98861000D01*
X103000000Y-101139000D02*
X105000000Y-101139000D01*
D12*
X102450000Y-99000000D02*
G75*
G03*
X102250000Y-99000000I-100000J0D01*
G01*
X102250000Y-99000000D02*
G75*
G03*
X102450000Y-99000000I100000J0D01*
G01*
D11*
%TO.C,D23*%
X185500000Y-98861000D02*
X187500000Y-98861000D01*
X185500000Y-101139000D02*
X187500000Y-101139000D01*
D12*
X184950000Y-99000000D02*
G75*
G03*
X184750000Y-99000000I-100000J0D01*
G01*
X184750000Y-99000000D02*
G75*
G03*
X184950000Y-99000000I100000J0D01*
G01*
D11*
%TO.C,D34*%
X144250000Y-98861000D02*
X146250000Y-98861000D01*
X144250000Y-101139000D02*
X146250000Y-101139000D01*
D12*
X143700000Y-99000000D02*
G75*
G03*
X143500000Y-99000000I-100000J0D01*
G01*
X143500000Y-99000000D02*
G75*
G03*
X143700000Y-99000000I100000J0D01*
G01*
D11*
%TO.C,D31*%
X155500000Y-98861000D02*
X157500000Y-98861000D01*
X155500000Y-101139000D02*
X157500000Y-101139000D01*
D12*
X154950000Y-99000000D02*
G75*
G03*
X154750000Y-99000000I-100000J0D01*
G01*
X154750000Y-99000000D02*
G75*
G03*
X154950000Y-99000000I100000J0D01*
G01*
D11*
%TO.C,D15*%
X215500000Y-98861000D02*
X217500000Y-98861000D01*
X215500000Y-101139000D02*
X217500000Y-101139000D01*
D12*
X214950000Y-99000000D02*
G75*
G03*
X214750000Y-99000000I-100000J0D01*
G01*
X214750000Y-99000000D02*
G75*
G03*
X214950000Y-99000000I100000J0D01*
G01*
D11*
%TO.C,D2*%
X264250000Y-98861000D02*
X266250000Y-98861000D01*
X264250000Y-101139000D02*
X266250000Y-101139000D01*
D12*
X263700000Y-99000000D02*
G75*
G03*
X263500000Y-99000000I-100000J0D01*
G01*
X263500000Y-99000000D02*
G75*
G03*
X263700000Y-99000000I100000J0D01*
G01*
D11*
%TO.C,D51*%
X80500000Y-98861000D02*
X82500000Y-98861000D01*
X80500000Y-101139000D02*
X82500000Y-101139000D01*
D12*
X79950000Y-99000000D02*
G75*
G03*
X79750000Y-99000000I-100000J0D01*
G01*
X79750000Y-99000000D02*
G75*
G03*
X79950000Y-99000000I100000J0D01*
G01*
D11*
%TO.C,D49*%
X88000000Y-98861000D02*
X90000000Y-98861000D01*
X88000000Y-101139000D02*
X90000000Y-101139000D01*
D12*
X87450000Y-99000000D02*
G75*
G03*
X87250000Y-99000000I-100000J0D01*
G01*
X87250000Y-99000000D02*
G75*
G03*
X87450000Y-99000000I100000J0D01*
G01*
D13*
%TO.C,R4*%
X147022500Y-88645276D02*
X147022500Y-89154724D01*
X145977500Y-88645276D02*
X145977500Y-89154724D01*
D11*
%TO.C,D48*%
X91750000Y-98861000D02*
X93750000Y-98861000D01*
X91750000Y-101139000D02*
X93750000Y-101139000D01*
D12*
X91200000Y-99000000D02*
G75*
G03*
X91000000Y-99000000I-100000J0D01*
G01*
X91000000Y-99000000D02*
G75*
G03*
X91200000Y-99000000I100000J0D01*
G01*
D11*
%TO.C,D19*%
X200500000Y-98861000D02*
X202500000Y-98861000D01*
X200500000Y-101139000D02*
X202500000Y-101139000D01*
D12*
X199950000Y-99000000D02*
G75*
G03*
X199750000Y-99000000I-100000J0D01*
G01*
X199750000Y-99000000D02*
G75*
G03*
X199950000Y-99000000I100000J0D01*
G01*
D11*
%TO.C,D32*%
X151750000Y-98861000D02*
X153750000Y-98861000D01*
X151750000Y-101139000D02*
X153750000Y-101139000D01*
D12*
X151200000Y-99000000D02*
G75*
G03*
X151000000Y-99000000I-100000J0D01*
G01*
X151000000Y-99000000D02*
G75*
G03*
X151200000Y-99000000I100000J0D01*
G01*
D11*
%TO.C,D4*%
X256750000Y-98861000D02*
X258750000Y-98861000D01*
X256750000Y-101139000D02*
X258750000Y-101139000D01*
D12*
X256200000Y-99000000D02*
G75*
G03*
X256000000Y-99000000I-100000J0D01*
G01*
X256000000Y-99000000D02*
G75*
G03*
X256200000Y-99000000I100000J0D01*
G01*
D11*
%TO.C,D35*%
X140500000Y-98861000D02*
X142500000Y-98861000D01*
X140500000Y-101139000D02*
X142500000Y-101139000D01*
D12*
X139950000Y-99000000D02*
G75*
G03*
X139750000Y-99000000I-100000J0D01*
G01*
X139750000Y-99000000D02*
G75*
G03*
X139950000Y-99000000I100000J0D01*
G01*
D11*
%TO.C,D10*%
X234250000Y-98861000D02*
X236250000Y-98861000D01*
X234250000Y-101139000D02*
X236250000Y-101139000D01*
D12*
X233700000Y-99000000D02*
G75*
G03*
X233500000Y-99000000I-100000J0D01*
G01*
X233500000Y-99000000D02*
G75*
G03*
X233700000Y-99000000I100000J0D01*
G01*
D13*
%TO.C,R1*%
X151877500Y-89204724D02*
X151877500Y-88695276D01*
X152922500Y-89204724D02*
X152922500Y-88695276D01*
D11*
%TO.C,D64*%
X31750000Y-98861000D02*
X33750000Y-98861000D01*
X31750000Y-101139000D02*
X33750000Y-101139000D01*
D12*
X31200000Y-99000000D02*
G75*
G03*
X31000000Y-99000000I-100000J0D01*
G01*
X31000000Y-99000000D02*
G75*
G03*
X31200000Y-99000000I100000J0D01*
G01*
D13*
%TO.C,R3*%
X151422500Y-88695276D02*
X151422500Y-89204724D01*
X150377500Y-88695276D02*
X150377500Y-89204724D01*
D11*
%TO.C,D40*%
X121750000Y-98861000D02*
X123750000Y-98861000D01*
X121750000Y-101139000D02*
X123750000Y-101139000D01*
D12*
X121200000Y-99000000D02*
G75*
G03*
X121000000Y-99000000I-100000J0D01*
G01*
X121000000Y-99000000D02*
G75*
G03*
X121200000Y-99000000I100000J0D01*
G01*
D11*
%TO.C,D47*%
X95500000Y-98861000D02*
X97500000Y-98861000D01*
X95500000Y-101139000D02*
X97500000Y-101139000D01*
D12*
X94950000Y-99000000D02*
G75*
G03*
X94750000Y-99000000I-100000J0D01*
G01*
X94750000Y-99000000D02*
G75*
G03*
X94950000Y-99000000I100000J0D01*
G01*
D11*
%TO.C,D52*%
X76750000Y-98861000D02*
X78750000Y-98861000D01*
X76750000Y-101139000D02*
X78750000Y-101139000D01*
D12*
X76200000Y-99000000D02*
G75*
G03*
X76000000Y-99000000I-100000J0D01*
G01*
X76000000Y-99000000D02*
G75*
G03*
X76200000Y-99000000I100000J0D01*
G01*
D13*
%TO.C,U1*%
X154820000Y-108560000D02*
X156580000Y-108560000D01*
X156580000Y-105490000D02*
X154150000Y-105490000D01*
D11*
%TO.C,D13*%
X223000000Y-98861000D02*
X225000000Y-98861000D01*
X223000000Y-101139000D02*
X225000000Y-101139000D01*
D12*
X222450000Y-99000000D02*
G75*
G03*
X222250000Y-99000000I-100000J0D01*
G01*
X222250000Y-99000000D02*
G75*
G03*
X222450000Y-99000000I100000J0D01*
G01*
D11*
%TO.C,D11*%
X230500000Y-98861000D02*
X232500000Y-98861000D01*
X230500000Y-101139000D02*
X232500000Y-101139000D01*
D12*
X229950000Y-99000000D02*
G75*
G03*
X229750000Y-99000000I-100000J0D01*
G01*
X229750000Y-99000000D02*
G75*
G03*
X229950000Y-99000000I100000J0D01*
G01*
D11*
%TO.C,D1*%
X268000000Y-98861000D02*
X270000000Y-98861000D01*
X268000000Y-101139000D02*
X270000000Y-101139000D01*
D12*
X267450000Y-99000000D02*
G75*
G03*
X267250000Y-99000000I-100000J0D01*
G01*
X267250000Y-99000000D02*
G75*
G03*
X267450000Y-99000000I100000J0D01*
G01*
D11*
%TO.C,D50*%
X84250000Y-98861000D02*
X86250000Y-98861000D01*
X84250000Y-101139000D02*
X86250000Y-101139000D01*
D12*
X83700000Y-99000000D02*
G75*
G03*
X83500000Y-99000000I-100000J0D01*
G01*
X83500000Y-99000000D02*
G75*
G03*
X83700000Y-99000000I100000J0D01*
G01*
D11*
%TO.C,D39*%
X125500000Y-98861000D02*
X127500000Y-98861000D01*
X125500000Y-101139000D02*
X127500000Y-101139000D01*
D12*
X124950000Y-99000000D02*
G75*
G03*
X124750000Y-99000000I-100000J0D01*
G01*
X124750000Y-99000000D02*
G75*
G03*
X124950000Y-99000000I100000J0D01*
G01*
D11*
%TO.C,D56*%
X61750000Y-98861000D02*
X63750000Y-98861000D01*
X61750000Y-101139000D02*
X63750000Y-101139000D01*
D12*
X61200000Y-99000000D02*
G75*
G03*
X61000000Y-99000000I-100000J0D01*
G01*
X61000000Y-99000000D02*
G75*
G03*
X61200000Y-99000000I100000J0D01*
G01*
D11*
%TO.C,D18*%
X204250000Y-98861000D02*
X206250000Y-98861000D01*
X204250000Y-101139000D02*
X206250000Y-101139000D01*
D12*
X203700000Y-99000000D02*
G75*
G03*
X203500000Y-99000000I-100000J0D01*
G01*
X203500000Y-99000000D02*
G75*
G03*
X203700000Y-99000000I100000J0D01*
G01*
D11*
%TO.C,D24*%
X181750000Y-98861000D02*
X183750000Y-98861000D01*
X181750000Y-101139000D02*
X183750000Y-101139000D01*
D12*
X181200000Y-99000000D02*
G75*
G03*
X181000000Y-99000000I-100000J0D01*
G01*
X181000000Y-99000000D02*
G75*
G03*
X181200000Y-99000000I100000J0D01*
G01*
D13*
%TO.C,R2*%
X149222500Y-88695276D02*
X149222500Y-89204724D01*
X148177500Y-88695276D02*
X148177500Y-89204724D01*
D11*
%TO.C,D33*%
X148000000Y-98861000D02*
X150000000Y-98861000D01*
X148000000Y-101139000D02*
X150000000Y-101139000D01*
D12*
X147450000Y-99000000D02*
G75*
G03*
X147250000Y-99000000I-100000J0D01*
G01*
X147250000Y-99000000D02*
G75*
G03*
X147450000Y-99000000I100000J0D01*
G01*
D11*
%TO.C,D20*%
X196750000Y-98861000D02*
X198750000Y-98861000D01*
X196750000Y-101139000D02*
X198750000Y-101139000D01*
D12*
X196200000Y-99000000D02*
G75*
G03*
X196000000Y-99000000I-100000J0D01*
G01*
X196000000Y-99000000D02*
G75*
G03*
X196200000Y-99000000I100000J0D01*
G01*
D11*
%TO.C,D21*%
X193000000Y-98861000D02*
X195000000Y-98861000D01*
X193000000Y-101139000D02*
X195000000Y-101139000D01*
D12*
X192450000Y-99000000D02*
G75*
G03*
X192250000Y-99000000I-100000J0D01*
G01*
X192250000Y-99000000D02*
G75*
G03*
X192450000Y-99000000I100000J0D01*
G01*
D11*
%TO.C,D6*%
X249250000Y-98861000D02*
X251250000Y-98861000D01*
X249250000Y-101139000D02*
X251250000Y-101139000D01*
D12*
X248700000Y-99000000D02*
G75*
G03*
X248500000Y-99000000I-100000J0D01*
G01*
X248500000Y-99000000D02*
G75*
G03*
X248700000Y-99000000I100000J0D01*
G01*
D11*
%TO.C,D26*%
X174250000Y-98861000D02*
X176250000Y-98861000D01*
X174250000Y-101139000D02*
X176250000Y-101139000D01*
D12*
X173700000Y-99000000D02*
G75*
G03*
X173500000Y-99000000I-100000J0D01*
G01*
X173500000Y-99000000D02*
G75*
G03*
X173700000Y-99000000I100000J0D01*
G01*
D13*
%TO.C,C6*%
X158353733Y-104040000D02*
X158646267Y-104040000D01*
X158353733Y-105060000D02*
X158646267Y-105060000D01*
D11*
%TO.C,D61*%
X43000000Y-98861000D02*
X45000000Y-98861000D01*
X43000000Y-101139000D02*
X45000000Y-101139000D01*
D12*
X42450000Y-99000000D02*
G75*
G03*
X42250000Y-99000000I-100000J0D01*
G01*
X42250000Y-99000000D02*
G75*
G03*
X42450000Y-99000000I100000J0D01*
G01*
D11*
%TO.C,D30*%
X159250000Y-98861000D02*
X161250000Y-98861000D01*
X159250000Y-101139000D02*
X161250000Y-101139000D01*
D12*
X158700000Y-99000000D02*
G75*
G03*
X158500000Y-99000000I-100000J0D01*
G01*
X158500000Y-99000000D02*
G75*
G03*
X158700000Y-99000000I100000J0D01*
G01*
D11*
%TO.C,D36*%
X136750000Y-98861000D02*
X138750000Y-98861000D01*
X136750000Y-101139000D02*
X138750000Y-101139000D01*
D12*
X136200000Y-99000000D02*
G75*
G03*
X136000000Y-99000000I-100000J0D01*
G01*
X136000000Y-99000000D02*
G75*
G03*
X136200000Y-99000000I100000J0D01*
G01*
D11*
%TO.C,D37*%
X133000000Y-98861000D02*
X135000000Y-98861000D01*
X133000000Y-101139000D02*
X135000000Y-101139000D01*
D12*
X132450000Y-99000000D02*
G75*
G03*
X132250000Y-99000000I-100000J0D01*
G01*
X132250000Y-99000000D02*
G75*
G03*
X132450000Y-99000000I100000J0D01*
G01*
D11*
%TO.C,D46*%
X99250000Y-98861000D02*
X101250000Y-98861000D01*
X99250000Y-101139000D02*
X101250000Y-101139000D01*
D12*
X98700000Y-99000000D02*
G75*
G03*
X98500000Y-99000000I-100000J0D01*
G01*
X98500000Y-99000000D02*
G75*
G03*
X98700000Y-99000000I100000J0D01*
G01*
D11*
%TO.C,D58*%
X54250000Y-98861000D02*
X56250000Y-98861000D01*
X54250000Y-101139000D02*
X56250000Y-101139000D01*
D12*
X53700000Y-99000000D02*
G75*
G03*
X53500000Y-99000000I-100000J0D01*
G01*
X53500000Y-99000000D02*
G75*
G03*
X53700000Y-99000000I100000J0D01*
G01*
D11*
%TO.C,D27*%
X170500000Y-98861000D02*
X172500000Y-98861000D01*
X170500000Y-101139000D02*
X172500000Y-101139000D01*
D12*
X169950000Y-99000000D02*
G75*
G03*
X169750000Y-99000000I-100000J0D01*
G01*
X169750000Y-99000000D02*
G75*
G03*
X169950000Y-99000000I100000J0D01*
G01*
D13*
%TO.C,U3*%
X150000000Y-90840000D02*
X146550000Y-90840000D01*
X150000000Y-90840000D02*
X151950000Y-90840000D01*
X150000000Y-95960000D02*
X148050000Y-95960000D01*
X150000000Y-95960000D02*
X151950000Y-95960000D01*
D11*
%TO.C,D42*%
X114250000Y-98861000D02*
X116250000Y-98861000D01*
X114250000Y-101139000D02*
X116250000Y-101139000D01*
D12*
X113700000Y-99000000D02*
G75*
G03*
X113500000Y-99000000I-100000J0D01*
G01*
X113500000Y-99000000D02*
G75*
G03*
X113700000Y-99000000I100000J0D01*
G01*
D11*
%TO.C,D57*%
X58000000Y-98861000D02*
X60000000Y-98861000D01*
X58000000Y-101139000D02*
X60000000Y-101139000D01*
D12*
X57450000Y-99000000D02*
G75*
G03*
X57250000Y-99000000I-100000J0D01*
G01*
X57250000Y-99000000D02*
G75*
G03*
X57450000Y-99000000I100000J0D01*
G01*
D11*
%TO.C,D14*%
X219250000Y-98861000D02*
X221250000Y-98861000D01*
X219250000Y-101139000D02*
X221250000Y-101139000D01*
D12*
X218700000Y-99000000D02*
G75*
G03*
X218500000Y-99000000I-100000J0D01*
G01*
X218500000Y-99000000D02*
G75*
G03*
X218700000Y-99000000I100000J0D01*
G01*
D11*
%TO.C,D62*%
X39250000Y-98861000D02*
X41250000Y-98861000D01*
X39250000Y-101139000D02*
X41250000Y-101139000D01*
D12*
X38700000Y-99000000D02*
G75*
G03*
X38500000Y-99000000I-100000J0D01*
G01*
X38500000Y-99000000D02*
G75*
G03*
X38700000Y-99000000I100000J0D01*
G01*
D11*
%TO.C,D54*%
X69250000Y-98861000D02*
X71250000Y-98861000D01*
X69250000Y-101139000D02*
X71250000Y-101139000D01*
D12*
X68700000Y-99000000D02*
G75*
G03*
X68500000Y-99000000I-100000J0D01*
G01*
X68500000Y-99000000D02*
G75*
G03*
X68700000Y-99000000I100000J0D01*
G01*
D11*
%TO.C,D28*%
X166750000Y-98861000D02*
X168750000Y-98861000D01*
X166750000Y-101139000D02*
X168750000Y-101139000D01*
D12*
X166200000Y-99000000D02*
G75*
G03*
X166000000Y-99000000I-100000J0D01*
G01*
X166000000Y-99000000D02*
G75*
G03*
X166200000Y-99000000I100000J0D01*
G01*
D11*
%TO.C,D3*%
X260500000Y-98861000D02*
X262500000Y-98861000D01*
X260500000Y-101139000D02*
X262500000Y-101139000D01*
D12*
X259950000Y-99000000D02*
G75*
G03*
X259750000Y-99000000I-100000J0D01*
G01*
X259750000Y-99000000D02*
G75*
G03*
X259950000Y-99000000I100000J0D01*
G01*
D11*
%TO.C,D41*%
X118000000Y-98861000D02*
X120000000Y-98861000D01*
X118000000Y-101139000D02*
X120000000Y-101139000D01*
D12*
X117450000Y-99000000D02*
G75*
G03*
X117250000Y-99000000I-100000J0D01*
G01*
X117250000Y-99000000D02*
G75*
G03*
X117450000Y-99000000I100000J0D01*
G01*
%TD*%
M02*
