%TF.GenerationSoftware,KiCad,Pcbnew,7.0.10-7.0.10~ubuntu22.04.1*%
%TF.CreationDate,2024-01-14T15:54:07-07:00*%
%TF.ProjectId,tiny_pov_arm,74696e79-5f70-46f7-965f-61726d2e6b69,rev?*%
%TF.SameCoordinates,Original*%
%TF.FileFunction,Drillmap*%
%TF.FilePolarity,Positive*%
%FSLAX45Y45*%
G04 Gerber Fmt 4.5, Leading zero omitted, Abs format (unit mm)*
G04 Created by KiCad (PCBNEW 7.0.10-7.0.10~ubuntu22.04.1) date 2024-01-14 15:54:07*
%MOMM*%
%LPD*%
G01*
G04 APERTURE LIST*
%ADD10C,0.200000*%
G04 APERTURE END LIST*
D10*
X27000000Y-10500000D02*
G75*
G03*
X27000000Y-9500000I0J500000D01*
G01*
X15979345Y-11431889D02*
G75*
G03*
X16525617Y-11205617I226275J226269D01*
G01*
X16375617Y-11205617D02*
G75*
G03*
X16035617Y-11205617I-170000J0D01*
G01*
X16035617Y-11205617D02*
G75*
G03*
X16375617Y-11205617I170000J0D01*
G01*
X14020657Y-8568109D02*
G75*
G03*
X14549533Y-8690304I362253J362259D01*
G01*
X12768766Y-9500000D02*
G75*
G03*
X13474383Y-8794383I0J705617D01*
G01*
X27000000Y-9500000D02*
X17231234Y-9500000D01*
X16375617Y-8794383D02*
G75*
G03*
X16035617Y-8794383I-170000J0D01*
G01*
X16035617Y-8794383D02*
G75*
G03*
X16375617Y-8794383I170000J0D01*
G01*
X13964383Y-11205617D02*
G75*
G03*
X13624383Y-11205617I-170000J0D01*
G01*
X13624383Y-11205617D02*
G75*
G03*
X13964383Y-11205617I170000J0D01*
G01*
X12768766Y-10500000D02*
X3000000Y-10500000D01*
X27000000Y-10500000D02*
X17231234Y-10500000D01*
X13964383Y-8794383D02*
G75*
G03*
X13624383Y-8794383I-170000J0D01*
G01*
X13624383Y-8794383D02*
G75*
G03*
X13964383Y-8794383I170000J0D01*
G01*
X16525620Y-8794383D02*
G75*
G03*
X17231234Y-9500000I705600J-17D01*
G01*
X15450467Y-8690304D02*
G75*
G03*
X14549533Y-8690304I-450467J-1309696D01*
G01*
X17231234Y-10500000D02*
G75*
G03*
X16525617Y-11205617I8J-705625D01*
G01*
X14549532Y-11309699D02*
G75*
G03*
X14020657Y-11431891I-166632J-484421D01*
G01*
X14020655Y-8568111D02*
G75*
G03*
X13474383Y-8794383I-226275J-226269D01*
G01*
X14549533Y-11309696D02*
G75*
G03*
X15450467Y-11309696I450467J1309696D01*
G01*
X3000000Y-9500000D02*
G75*
G03*
X3000000Y-10500000I0J-500000D01*
G01*
X15450468Y-8690301D02*
G75*
G03*
X15979343Y-8568109I166632J484421D01*
G01*
X16525620Y-8794383D02*
G75*
G03*
X15979343Y-8568109I-320000J3D01*
G01*
X13474380Y-11205617D02*
G75*
G03*
X12768766Y-10500000I-705600J17D01*
G01*
X15979343Y-11431891D02*
G75*
G03*
X15450467Y-11309696I-362253J-362259D01*
G01*
X13474380Y-11205617D02*
G75*
G03*
X14020657Y-11431891I320000J-3D01*
G01*
X12768766Y-9500000D02*
X3000000Y-9500000D01*
X2750777Y-11847104D02*
X2750777Y-11647104D01*
X2750777Y-11647104D02*
X2798396Y-11647104D01*
X2798396Y-11647104D02*
X2826967Y-11656628D01*
X2826967Y-11656628D02*
X2846015Y-11675675D01*
X2846015Y-11675675D02*
X2855539Y-11694723D01*
X2855539Y-11694723D02*
X2865062Y-11732818D01*
X2865062Y-11732818D02*
X2865062Y-11761389D01*
X2865062Y-11761389D02*
X2855539Y-11799485D01*
X2855539Y-11799485D02*
X2846015Y-11818532D01*
X2846015Y-11818532D02*
X2826967Y-11837580D01*
X2826967Y-11837580D02*
X2798396Y-11847104D01*
X2798396Y-11847104D02*
X2750777Y-11847104D01*
X2950777Y-11847104D02*
X2950777Y-11713770D01*
X2950777Y-11751866D02*
X2960301Y-11732818D01*
X2960301Y-11732818D02*
X2969824Y-11723294D01*
X2969824Y-11723294D02*
X2988872Y-11713770D01*
X2988872Y-11713770D02*
X3007920Y-11713770D01*
X3074586Y-11847104D02*
X3074586Y-11713770D01*
X3074586Y-11647104D02*
X3065062Y-11656628D01*
X3065062Y-11656628D02*
X3074586Y-11666151D01*
X3074586Y-11666151D02*
X3084110Y-11656628D01*
X3084110Y-11656628D02*
X3074586Y-11647104D01*
X3074586Y-11647104D02*
X3074586Y-11666151D01*
X3198396Y-11847104D02*
X3179348Y-11837580D01*
X3179348Y-11837580D02*
X3169824Y-11818532D01*
X3169824Y-11818532D02*
X3169824Y-11647104D01*
X3303158Y-11847104D02*
X3284110Y-11837580D01*
X3284110Y-11837580D02*
X3274586Y-11818532D01*
X3274586Y-11818532D02*
X3274586Y-11647104D01*
X3531729Y-11847104D02*
X3531729Y-11647104D01*
X3531729Y-11647104D02*
X3598396Y-11789961D01*
X3598396Y-11789961D02*
X3665062Y-11647104D01*
X3665062Y-11647104D02*
X3665062Y-11847104D01*
X3846015Y-11847104D02*
X3846015Y-11742342D01*
X3846015Y-11742342D02*
X3836491Y-11723294D01*
X3836491Y-11723294D02*
X3817443Y-11713770D01*
X3817443Y-11713770D02*
X3779348Y-11713770D01*
X3779348Y-11713770D02*
X3760301Y-11723294D01*
X3846015Y-11837580D02*
X3826967Y-11847104D01*
X3826967Y-11847104D02*
X3779348Y-11847104D01*
X3779348Y-11847104D02*
X3760301Y-11837580D01*
X3760301Y-11837580D02*
X3750777Y-11818532D01*
X3750777Y-11818532D02*
X3750777Y-11799485D01*
X3750777Y-11799485D02*
X3760301Y-11780437D01*
X3760301Y-11780437D02*
X3779348Y-11770913D01*
X3779348Y-11770913D02*
X3826967Y-11770913D01*
X3826967Y-11770913D02*
X3846015Y-11761389D01*
X3941253Y-11713770D02*
X3941253Y-11913770D01*
X3941253Y-11723294D02*
X3960301Y-11713770D01*
X3960301Y-11713770D02*
X3998396Y-11713770D01*
X3998396Y-11713770D02*
X4017443Y-11723294D01*
X4017443Y-11723294D02*
X4026967Y-11732818D01*
X4026967Y-11732818D02*
X4036491Y-11751866D01*
X4036491Y-11751866D02*
X4036491Y-11809008D01*
X4036491Y-11809008D02*
X4026967Y-11828056D01*
X4026967Y-11828056D02*
X4017443Y-11837580D01*
X4017443Y-11837580D02*
X3998396Y-11847104D01*
X3998396Y-11847104D02*
X3960301Y-11847104D01*
X3960301Y-11847104D02*
X3941253Y-11837580D01*
X4122205Y-11828056D02*
X4131729Y-11837580D01*
X4131729Y-11837580D02*
X4122205Y-11847104D01*
X4122205Y-11847104D02*
X4112682Y-11837580D01*
X4112682Y-11837580D02*
X4122205Y-11828056D01*
X4122205Y-11828056D02*
X4122205Y-11847104D01*
X4122205Y-11723294D02*
X4131729Y-11732818D01*
X4131729Y-11732818D02*
X4122205Y-11742342D01*
X4122205Y-11742342D02*
X4112682Y-11732818D01*
X4112682Y-11732818D02*
X4122205Y-11723294D01*
X4122205Y-11723294D02*
X4122205Y-11742342D01*
M02*
