%TF.GenerationSoftware,KiCad,Pcbnew,7.0.10-7.0.10~ubuntu22.04.1*%
%TF.CreationDate,2024-01-14T15:54:07-07:00*%
%TF.ProjectId,tiny_pov_arm,74696e79-5f70-46f7-965f-61726d2e6b69,rev?*%
%TF.SameCoordinates,Original*%
%TF.FileFunction,Drillmap*%
%TF.FilePolarity,Positive*%
%FSLAX45Y45*%
G04 Gerber Fmt 4.5, Leading zero omitted, Abs format (unit mm)*
G04 Created by KiCad (PCBNEW 7.0.10-7.0.10~ubuntu22.04.1) date 2024-01-14 15:54:07*
%MOMM*%
%LPD*%
G01*
G04 APERTURE LIST*
%ADD10C,0.200000*%
%ADD11C,0.100000*%
G04 APERTURE END LIST*
D10*
X27000000Y-10500000D02*
G75*
G03*
X27000000Y-9500000I0J500000D01*
G01*
X15979345Y-11431889D02*
G75*
G03*
X16525617Y-11205617I226275J226269D01*
G01*
X16375617Y-11205617D02*
G75*
G03*
X16035617Y-11205617I-170000J0D01*
G01*
X16035617Y-11205617D02*
G75*
G03*
X16375617Y-11205617I170000J0D01*
G01*
X14020657Y-8568109D02*
G75*
G03*
X14549533Y-8690304I362253J362259D01*
G01*
X12768766Y-9500000D02*
G75*
G03*
X13474383Y-8794383I0J705617D01*
G01*
X27000000Y-9500000D02*
X17231234Y-9500000D01*
X16375617Y-8794383D02*
G75*
G03*
X16035617Y-8794383I-170000J0D01*
G01*
X16035617Y-8794383D02*
G75*
G03*
X16375617Y-8794383I170000J0D01*
G01*
X13964383Y-11205617D02*
G75*
G03*
X13624383Y-11205617I-170000J0D01*
G01*
X13624383Y-11205617D02*
G75*
G03*
X13964383Y-11205617I170000J0D01*
G01*
X12768766Y-10500000D02*
X3000000Y-10500000D01*
X27000000Y-10500000D02*
X17231234Y-10500000D01*
X13964383Y-8794383D02*
G75*
G03*
X13624383Y-8794383I-170000J0D01*
G01*
X13624383Y-8794383D02*
G75*
G03*
X13964383Y-8794383I170000J0D01*
G01*
X16525620Y-8794383D02*
G75*
G03*
X17231234Y-9500000I705600J-17D01*
G01*
X15450467Y-8690304D02*
G75*
G03*
X14549533Y-8690304I-450467J-1309696D01*
G01*
X17231234Y-10500000D02*
G75*
G03*
X16525617Y-11205617I8J-705625D01*
G01*
X14549532Y-11309699D02*
G75*
G03*
X14020657Y-11431891I-166632J-484421D01*
G01*
X14020655Y-8568111D02*
G75*
G03*
X13474383Y-8794383I-226275J-226269D01*
G01*
X14549533Y-11309696D02*
G75*
G03*
X15450467Y-11309696I450467J1309696D01*
G01*
X3000000Y-9500000D02*
G75*
G03*
X3000000Y-10500000I0J-500000D01*
G01*
X15450468Y-8690301D02*
G75*
G03*
X15979343Y-8568109I166632J484421D01*
G01*
X16525620Y-8794383D02*
G75*
G03*
X15979343Y-8568109I-320000J3D01*
G01*
X13474380Y-11205617D02*
G75*
G03*
X12768766Y-10500000I-705600J17D01*
G01*
X15979343Y-11431891D02*
G75*
G03*
X15450467Y-11309696I-362253J-362259D01*
G01*
X13474380Y-11205617D02*
G75*
G03*
X14020657Y-11431891I320000J-3D01*
G01*
X12768766Y-9500000D02*
X3000000Y-9500000D01*
D11*
X3455000Y-9900000D02*
X3495000Y-9940000D01*
X3495000Y-9900000D02*
X3455000Y-9940000D01*
X3830000Y-9900000D02*
X3870000Y-9940000D01*
X3870000Y-9900000D02*
X3830000Y-9940000D01*
X4205000Y-9900000D02*
X4245000Y-9940000D01*
X4245000Y-9900000D02*
X4205000Y-9940000D01*
X4580000Y-9900000D02*
X4620000Y-9940000D01*
X4620000Y-9900000D02*
X4580000Y-9940000D01*
X4955000Y-9900000D02*
X4995000Y-9940000D01*
X4995000Y-9900000D02*
X4955000Y-9940000D01*
X5330000Y-9900000D02*
X5370000Y-9940000D01*
X5370000Y-9900000D02*
X5330000Y-9940000D01*
X5705000Y-9900000D02*
X5745000Y-9940000D01*
X5745000Y-9900000D02*
X5705000Y-9940000D01*
X6080000Y-9900000D02*
X6120000Y-9940000D01*
X6120000Y-9900000D02*
X6080000Y-9940000D01*
X6455000Y-9900000D02*
X6495000Y-9940000D01*
X6495000Y-9900000D02*
X6455000Y-9940000D01*
X6830000Y-9900000D02*
X6870000Y-9940000D01*
X6870000Y-9900000D02*
X6830000Y-9940000D01*
X7205000Y-9900000D02*
X7245000Y-9940000D01*
X7245000Y-9900000D02*
X7205000Y-9940000D01*
X7580000Y-9900000D02*
X7620000Y-9940000D01*
X7620000Y-9900000D02*
X7580000Y-9940000D01*
X7955000Y-9900000D02*
X7995000Y-9940000D01*
X7995000Y-9900000D02*
X7955000Y-9940000D01*
X8330000Y-9900000D02*
X8370000Y-9940000D01*
X8370000Y-9900000D02*
X8330000Y-9940000D01*
X8705000Y-9900000D02*
X8745000Y-9940000D01*
X8745000Y-9900000D02*
X8705000Y-9940000D01*
X9080000Y-9900000D02*
X9120000Y-9940000D01*
X9120000Y-9900000D02*
X9080000Y-9940000D01*
X9455000Y-9900000D02*
X9495000Y-9940000D01*
X9495000Y-9900000D02*
X9455000Y-9940000D01*
X9830000Y-9900000D02*
X9870000Y-9940000D01*
X9870000Y-9900000D02*
X9830000Y-9940000D01*
X10205000Y-9900000D02*
X10245000Y-9940000D01*
X10245000Y-9900000D02*
X10205000Y-9940000D01*
X10580000Y-9900000D02*
X10620000Y-9940000D01*
X10620000Y-9900000D02*
X10580000Y-9940000D01*
X10955000Y-9900000D02*
X10995000Y-9940000D01*
X10995000Y-9900000D02*
X10955000Y-9940000D01*
X11330000Y-9900000D02*
X11370000Y-9940000D01*
X11370000Y-9900000D02*
X11330000Y-9940000D01*
X11705000Y-9900000D02*
X11745000Y-9940000D01*
X11745000Y-9900000D02*
X11705000Y-9940000D01*
X12080000Y-9900000D02*
X12120000Y-9940000D01*
X12120000Y-9900000D02*
X12080000Y-9940000D01*
X12290000Y-9775000D02*
X12330000Y-9815000D01*
X12330000Y-9775000D02*
X12290000Y-9815000D01*
X12455000Y-9900000D02*
X12495000Y-9940000D01*
X12495000Y-9900000D02*
X12455000Y-9940000D01*
X12625000Y-9665000D02*
X12665000Y-9705000D01*
X12665000Y-9665000D02*
X12625000Y-9705000D01*
X12830000Y-9900000D02*
X12870000Y-9940000D01*
X12870000Y-9900000D02*
X12830000Y-9940000D01*
X13205000Y-9900000D02*
X13245000Y-9940000D01*
X13245000Y-9900000D02*
X13205000Y-9940000D01*
X13580000Y-9900000D02*
X13620000Y-9940000D01*
X13620000Y-9900000D02*
X13580000Y-9940000D01*
X13955000Y-9900000D02*
X13995000Y-9940000D01*
X13995000Y-9900000D02*
X13955000Y-9940000D01*
X14330000Y-9900000D02*
X14370000Y-9940000D01*
X14370000Y-9900000D02*
X14330000Y-9940000D01*
X14400000Y-8830000D02*
X14440000Y-8870000D01*
X14440000Y-8830000D02*
X14400000Y-8870000D01*
X14495000Y-9605000D02*
X14535000Y-9645000D01*
X14535000Y-9605000D02*
X14495000Y-9645000D01*
X14630000Y-8785000D02*
X14670000Y-8825000D01*
X14670000Y-8785000D02*
X14630000Y-8825000D01*
X14690000Y-9370000D02*
X14730000Y-9410000D01*
X14730000Y-9370000D02*
X14690000Y-9410000D01*
X14705000Y-9900000D02*
X14745000Y-9940000D01*
X14745000Y-9900000D02*
X14705000Y-9940000D01*
X14722500Y-9129500D02*
X14762500Y-9169500D01*
X14762500Y-9129500D02*
X14722500Y-9169500D01*
X14850000Y-8785000D02*
X14890000Y-8825000D01*
X14890000Y-8785000D02*
X14850000Y-8825000D01*
X14895000Y-10920000D02*
X14935000Y-10960000D01*
X14935000Y-10920000D02*
X14895000Y-10960000D01*
X14955000Y-8961250D02*
X14995000Y-9001250D01*
X14995000Y-8961250D02*
X14955000Y-9001250D01*
X15070000Y-8780000D02*
X15110000Y-8820000D01*
X15110000Y-8780000D02*
X15070000Y-8820000D01*
X15080000Y-9900000D02*
X15120000Y-9940000D01*
X15120000Y-9900000D02*
X15080000Y-9940000D01*
X15105000Y-10630000D02*
X15145000Y-10670000D01*
X15145000Y-10630000D02*
X15105000Y-10670000D01*
X15180500Y-8785000D02*
X15220500Y-8825000D01*
X15220500Y-8785000D02*
X15180500Y-8825000D01*
X15237500Y-9383500D02*
X15277500Y-9423500D01*
X15277500Y-9383500D02*
X15237500Y-9423500D01*
X15237500Y-9487500D02*
X15277500Y-9527500D01*
X15277500Y-9487500D02*
X15237500Y-9527500D01*
X15300000Y-11165000D02*
X15340000Y-11205000D01*
X15340000Y-11165000D02*
X15300000Y-11205000D01*
X15345000Y-10330000D02*
X15385000Y-10370000D01*
X15385000Y-10330000D02*
X15345000Y-10370000D01*
X15375000Y-10685000D02*
X15415000Y-10725000D01*
X15415000Y-10685000D02*
X15375000Y-10725000D01*
X15375000Y-10780000D02*
X15415000Y-10820000D01*
X15415000Y-10780000D02*
X15375000Y-10820000D01*
X15455000Y-9900000D02*
X15495000Y-9940000D01*
X15495000Y-9900000D02*
X15455000Y-9940000D01*
X15545000Y-8800000D02*
X15585000Y-8840000D01*
X15585000Y-8800000D02*
X15545000Y-8840000D01*
X15715000Y-10795000D02*
X15755000Y-10835000D01*
X15755000Y-10795000D02*
X15715000Y-10835000D01*
X15830000Y-9900000D02*
X15870000Y-9940000D01*
X15870000Y-9900000D02*
X15830000Y-9940000D01*
X15940000Y-10805000D02*
X15980000Y-10845000D01*
X15980000Y-10805000D02*
X15940000Y-10845000D01*
X16010000Y-9785000D02*
X16050000Y-9825000D01*
X16050000Y-9785000D02*
X16010000Y-9825000D01*
X16070000Y-10615000D02*
X16110000Y-10655000D01*
X16110000Y-10615000D02*
X16070000Y-10655000D01*
X16070000Y-10695000D02*
X16110000Y-10735000D01*
X16110000Y-10695000D02*
X16070000Y-10735000D01*
X16115000Y-10355000D02*
X16155000Y-10395000D01*
X16155000Y-10355000D02*
X16115000Y-10395000D01*
X16150000Y-10695000D02*
X16190000Y-10735000D01*
X16190000Y-10695000D02*
X16150000Y-10735000D01*
X16155000Y-10615000D02*
X16195000Y-10655000D01*
X16195000Y-10615000D02*
X16155000Y-10655000D01*
X16214474Y-9890526D02*
X16254474Y-9930526D01*
X16254474Y-9890526D02*
X16214474Y-9930526D01*
X16440000Y-10505000D02*
X16480000Y-10545000D01*
X16480000Y-10505000D02*
X16440000Y-10545000D01*
X16445000Y-10355000D02*
X16485000Y-10395000D01*
X16485000Y-10355000D02*
X16445000Y-10395000D01*
X16445000Y-10655000D02*
X16485000Y-10695000D01*
X16485000Y-10655000D02*
X16445000Y-10695000D01*
X16580000Y-9900000D02*
X16620000Y-9940000D01*
X16620000Y-9900000D02*
X16580000Y-9940000D01*
X16955000Y-9900000D02*
X16995000Y-9940000D01*
X16995000Y-9900000D02*
X16955000Y-9940000D01*
X17330000Y-9900000D02*
X17370000Y-9940000D01*
X17370000Y-9900000D02*
X17330000Y-9940000D01*
X17705000Y-9900000D02*
X17745000Y-9940000D01*
X17745000Y-9900000D02*
X17705000Y-9940000D01*
X18080000Y-9900000D02*
X18120000Y-9940000D01*
X18120000Y-9900000D02*
X18080000Y-9940000D01*
X18455000Y-9900000D02*
X18495000Y-9940000D01*
X18495000Y-9900000D02*
X18455000Y-9940000D01*
X18830000Y-9900000D02*
X18870000Y-9940000D01*
X18870000Y-9900000D02*
X18830000Y-9940000D01*
X19205000Y-9900000D02*
X19245000Y-9940000D01*
X19245000Y-9900000D02*
X19205000Y-9940000D01*
X19580000Y-9900000D02*
X19620000Y-9940000D01*
X19620000Y-9900000D02*
X19580000Y-9940000D01*
X19955000Y-9900000D02*
X19995000Y-9940000D01*
X19995000Y-9900000D02*
X19955000Y-9940000D01*
X20330000Y-9900000D02*
X20370000Y-9940000D01*
X20370000Y-9900000D02*
X20330000Y-9940000D01*
X20705000Y-9900000D02*
X20745000Y-9940000D01*
X20745000Y-9900000D02*
X20705000Y-9940000D01*
X21080000Y-9900000D02*
X21120000Y-9940000D01*
X21120000Y-9900000D02*
X21080000Y-9940000D01*
X21455000Y-9900000D02*
X21495000Y-9940000D01*
X21495000Y-9900000D02*
X21455000Y-9940000D01*
X21830000Y-9900000D02*
X21870000Y-9940000D01*
X21870000Y-9900000D02*
X21830000Y-9940000D01*
X22205000Y-9900000D02*
X22245000Y-9940000D01*
X22245000Y-9900000D02*
X22205000Y-9940000D01*
X22580000Y-9900000D02*
X22620000Y-9940000D01*
X22620000Y-9900000D02*
X22580000Y-9940000D01*
X22955000Y-9900000D02*
X22995000Y-9940000D01*
X22995000Y-9900000D02*
X22955000Y-9940000D01*
X23330000Y-9900000D02*
X23370000Y-9940000D01*
X23370000Y-9900000D02*
X23330000Y-9940000D01*
X23705000Y-9900000D02*
X23745000Y-9940000D01*
X23745000Y-9900000D02*
X23705000Y-9940000D01*
X24080000Y-9900000D02*
X24120000Y-9940000D01*
X24120000Y-9900000D02*
X24080000Y-9940000D01*
X24455000Y-9900000D02*
X24495000Y-9940000D01*
X24495000Y-9900000D02*
X24455000Y-9940000D01*
X24830000Y-9900000D02*
X24870000Y-9940000D01*
X24870000Y-9900000D02*
X24830000Y-9940000D01*
X25205000Y-9900000D02*
X25245000Y-9940000D01*
X25245000Y-9900000D02*
X25205000Y-9940000D01*
X25580000Y-9900000D02*
X25620000Y-9940000D01*
X25620000Y-9900000D02*
X25580000Y-9940000D01*
X25955000Y-9900000D02*
X25995000Y-9940000D01*
X25995000Y-9900000D02*
X25955000Y-9940000D01*
X26330000Y-9900000D02*
X26370000Y-9940000D01*
X26370000Y-9900000D02*
X26330000Y-9940000D01*
X26705000Y-9900000D02*
X26745000Y-9940000D01*
X26745000Y-9900000D02*
X26705000Y-9940000D01*
X26945000Y-9845000D02*
X26985000Y-9885000D01*
X26985000Y-9845000D02*
X26945000Y-9885000D01*
X13805000Y-10386000D02*
G75*
G03*
X13705000Y-10386000I-50000J0D01*
G01*
X13705000Y-10386000D02*
G75*
G03*
X13805000Y-10386000I50000J0D01*
G01*
X13805000Y-10640000D02*
G75*
G03*
X13705000Y-10640000I-50000J0D01*
G01*
X13705000Y-10640000D02*
G75*
G03*
X13805000Y-10640000I50000J0D01*
G01*
D10*
X2750777Y-11847104D02*
X2750777Y-11647104D01*
X2750777Y-11647104D02*
X2798396Y-11647104D01*
X2798396Y-11647104D02*
X2826967Y-11656628D01*
X2826967Y-11656628D02*
X2846015Y-11675675D01*
X2846015Y-11675675D02*
X2855539Y-11694723D01*
X2855539Y-11694723D02*
X2865062Y-11732818D01*
X2865062Y-11732818D02*
X2865062Y-11761389D01*
X2865062Y-11761389D02*
X2855539Y-11799485D01*
X2855539Y-11799485D02*
X2846015Y-11818532D01*
X2846015Y-11818532D02*
X2826967Y-11837580D01*
X2826967Y-11837580D02*
X2798396Y-11847104D01*
X2798396Y-11847104D02*
X2750777Y-11847104D01*
X2950777Y-11847104D02*
X2950777Y-11713770D01*
X2950777Y-11751866D02*
X2960301Y-11732818D01*
X2960301Y-11732818D02*
X2969824Y-11723294D01*
X2969824Y-11723294D02*
X2988872Y-11713770D01*
X2988872Y-11713770D02*
X3007920Y-11713770D01*
X3074586Y-11847104D02*
X3074586Y-11713770D01*
X3074586Y-11647104D02*
X3065062Y-11656628D01*
X3065062Y-11656628D02*
X3074586Y-11666151D01*
X3074586Y-11666151D02*
X3084110Y-11656628D01*
X3084110Y-11656628D02*
X3074586Y-11647104D01*
X3074586Y-11647104D02*
X3074586Y-11666151D01*
X3198396Y-11847104D02*
X3179348Y-11837580D01*
X3179348Y-11837580D02*
X3169824Y-11818532D01*
X3169824Y-11818532D02*
X3169824Y-11647104D01*
X3303158Y-11847104D02*
X3284110Y-11837580D01*
X3284110Y-11837580D02*
X3274586Y-11818532D01*
X3274586Y-11818532D02*
X3274586Y-11647104D01*
X3531729Y-11847104D02*
X3531729Y-11647104D01*
X3531729Y-11647104D02*
X3598396Y-11789961D01*
X3598396Y-11789961D02*
X3665062Y-11647104D01*
X3665062Y-11647104D02*
X3665062Y-11847104D01*
X3846015Y-11847104D02*
X3846015Y-11742342D01*
X3846015Y-11742342D02*
X3836491Y-11723294D01*
X3836491Y-11723294D02*
X3817443Y-11713770D01*
X3817443Y-11713770D02*
X3779348Y-11713770D01*
X3779348Y-11713770D02*
X3760301Y-11723294D01*
X3846015Y-11837580D02*
X3826967Y-11847104D01*
X3826967Y-11847104D02*
X3779348Y-11847104D01*
X3779348Y-11847104D02*
X3760301Y-11837580D01*
X3760301Y-11837580D02*
X3750777Y-11818532D01*
X3750777Y-11818532D02*
X3750777Y-11799485D01*
X3750777Y-11799485D02*
X3760301Y-11780437D01*
X3760301Y-11780437D02*
X3779348Y-11770913D01*
X3779348Y-11770913D02*
X3826967Y-11770913D01*
X3826967Y-11770913D02*
X3846015Y-11761389D01*
X3941253Y-11713770D02*
X3941253Y-11913770D01*
X3941253Y-11723294D02*
X3960301Y-11713770D01*
X3960301Y-11713770D02*
X3998396Y-11713770D01*
X3998396Y-11713770D02*
X4017443Y-11723294D01*
X4017443Y-11723294D02*
X4026967Y-11732818D01*
X4026967Y-11732818D02*
X4036491Y-11751866D01*
X4036491Y-11751866D02*
X4036491Y-11809008D01*
X4036491Y-11809008D02*
X4026967Y-11828056D01*
X4026967Y-11828056D02*
X4017443Y-11837580D01*
X4017443Y-11837580D02*
X3998396Y-11847104D01*
X3998396Y-11847104D02*
X3960301Y-11847104D01*
X3960301Y-11847104D02*
X3941253Y-11837580D01*
X4122205Y-11828056D02*
X4131729Y-11837580D01*
X4131729Y-11837580D02*
X4122205Y-11847104D01*
X4122205Y-11847104D02*
X4112682Y-11837580D01*
X4112682Y-11837580D02*
X4122205Y-11828056D01*
X4122205Y-11828056D02*
X4122205Y-11847104D01*
X4122205Y-11723294D02*
X4131729Y-11732818D01*
X4131729Y-11732818D02*
X4122205Y-11742342D01*
X4122205Y-11742342D02*
X4112682Y-11732818D01*
X4112682Y-11732818D02*
X4122205Y-11723294D01*
X4122205Y-11723294D02*
X4122205Y-11742342D01*
D11*
X2450000Y-12155620D02*
X2490000Y-12195620D01*
X2490000Y-12155620D02*
X2450000Y-12195620D01*
D10*
X2788872Y-12067104D02*
X2807920Y-12067104D01*
X2807920Y-12067104D02*
X2826967Y-12076628D01*
X2826967Y-12076628D02*
X2836491Y-12086151D01*
X2836491Y-12086151D02*
X2846015Y-12105199D01*
X2846015Y-12105199D02*
X2855539Y-12143294D01*
X2855539Y-12143294D02*
X2855539Y-12190913D01*
X2855539Y-12190913D02*
X2846015Y-12229008D01*
X2846015Y-12229008D02*
X2836491Y-12248056D01*
X2836491Y-12248056D02*
X2826967Y-12257580D01*
X2826967Y-12257580D02*
X2807920Y-12267104D01*
X2807920Y-12267104D02*
X2788872Y-12267104D01*
X2788872Y-12267104D02*
X2769824Y-12257580D01*
X2769824Y-12257580D02*
X2760301Y-12248056D01*
X2760301Y-12248056D02*
X2750777Y-12229008D01*
X2750777Y-12229008D02*
X2741253Y-12190913D01*
X2741253Y-12190913D02*
X2741253Y-12143294D01*
X2741253Y-12143294D02*
X2750777Y-12105199D01*
X2750777Y-12105199D02*
X2760301Y-12086151D01*
X2760301Y-12086151D02*
X2769824Y-12076628D01*
X2769824Y-12076628D02*
X2788872Y-12067104D01*
X2941253Y-12248056D02*
X2950777Y-12257580D01*
X2950777Y-12257580D02*
X2941253Y-12267104D01*
X2941253Y-12267104D02*
X2931729Y-12257580D01*
X2931729Y-12257580D02*
X2941253Y-12248056D01*
X2941253Y-12248056D02*
X2941253Y-12267104D01*
X3122205Y-12133770D02*
X3122205Y-12267104D01*
X3074586Y-12057580D02*
X3026967Y-12200437D01*
X3026967Y-12200437D02*
X3150777Y-12200437D01*
X3265062Y-12067104D02*
X3284110Y-12067104D01*
X3284110Y-12067104D02*
X3303158Y-12076628D01*
X3303158Y-12076628D02*
X3312682Y-12086151D01*
X3312682Y-12086151D02*
X3322205Y-12105199D01*
X3322205Y-12105199D02*
X3331729Y-12143294D01*
X3331729Y-12143294D02*
X3331729Y-12190913D01*
X3331729Y-12190913D02*
X3322205Y-12229008D01*
X3322205Y-12229008D02*
X3312682Y-12248056D01*
X3312682Y-12248056D02*
X3303158Y-12257580D01*
X3303158Y-12257580D02*
X3284110Y-12267104D01*
X3284110Y-12267104D02*
X3265062Y-12267104D01*
X3265062Y-12267104D02*
X3246015Y-12257580D01*
X3246015Y-12257580D02*
X3236491Y-12248056D01*
X3236491Y-12248056D02*
X3226967Y-12229008D01*
X3226967Y-12229008D02*
X3217443Y-12190913D01*
X3217443Y-12190913D02*
X3217443Y-12143294D01*
X3217443Y-12143294D02*
X3226967Y-12105199D01*
X3226967Y-12105199D02*
X3236491Y-12086151D01*
X3236491Y-12086151D02*
X3246015Y-12076628D01*
X3246015Y-12076628D02*
X3265062Y-12067104D01*
X3455539Y-12067104D02*
X3474586Y-12067104D01*
X3474586Y-12067104D02*
X3493634Y-12076628D01*
X3493634Y-12076628D02*
X3503158Y-12086151D01*
X3503158Y-12086151D02*
X3512682Y-12105199D01*
X3512682Y-12105199D02*
X3522205Y-12143294D01*
X3522205Y-12143294D02*
X3522205Y-12190913D01*
X3522205Y-12190913D02*
X3512682Y-12229008D01*
X3512682Y-12229008D02*
X3503158Y-12248056D01*
X3503158Y-12248056D02*
X3493634Y-12257580D01*
X3493634Y-12257580D02*
X3474586Y-12267104D01*
X3474586Y-12267104D02*
X3455539Y-12267104D01*
X3455539Y-12267104D02*
X3436491Y-12257580D01*
X3436491Y-12257580D02*
X3426967Y-12248056D01*
X3426967Y-12248056D02*
X3417443Y-12229008D01*
X3417443Y-12229008D02*
X3407920Y-12190913D01*
X3407920Y-12190913D02*
X3407920Y-12143294D01*
X3407920Y-12143294D02*
X3417443Y-12105199D01*
X3417443Y-12105199D02*
X3426967Y-12086151D01*
X3426967Y-12086151D02*
X3436491Y-12076628D01*
X3436491Y-12076628D02*
X3455539Y-12067104D01*
X3607920Y-12267104D02*
X3607920Y-12133770D01*
X3607920Y-12152818D02*
X3617443Y-12143294D01*
X3617443Y-12143294D02*
X3636491Y-12133770D01*
X3636491Y-12133770D02*
X3665063Y-12133770D01*
X3665063Y-12133770D02*
X3684110Y-12143294D01*
X3684110Y-12143294D02*
X3693634Y-12162342D01*
X3693634Y-12162342D02*
X3693634Y-12267104D01*
X3693634Y-12162342D02*
X3703158Y-12143294D01*
X3703158Y-12143294D02*
X3722205Y-12133770D01*
X3722205Y-12133770D02*
X3750777Y-12133770D01*
X3750777Y-12133770D02*
X3769824Y-12143294D01*
X3769824Y-12143294D02*
X3779348Y-12162342D01*
X3779348Y-12162342D02*
X3779348Y-12267104D01*
X3874586Y-12267104D02*
X3874586Y-12133770D01*
X3874586Y-12152818D02*
X3884110Y-12143294D01*
X3884110Y-12143294D02*
X3903158Y-12133770D01*
X3903158Y-12133770D02*
X3931729Y-12133770D01*
X3931729Y-12133770D02*
X3950777Y-12143294D01*
X3950777Y-12143294D02*
X3960301Y-12162342D01*
X3960301Y-12162342D02*
X3960301Y-12267104D01*
X3960301Y-12162342D02*
X3969824Y-12143294D01*
X3969824Y-12143294D02*
X3988872Y-12133770D01*
X3988872Y-12133770D02*
X4017443Y-12133770D01*
X4017443Y-12133770D02*
X4036491Y-12143294D01*
X4036491Y-12143294D02*
X4046015Y-12162342D01*
X4046015Y-12162342D02*
X4046015Y-12267104D01*
X4436491Y-12057580D02*
X4265063Y-12314723D01*
X4693634Y-12067104D02*
X4712682Y-12067104D01*
X4712682Y-12067104D02*
X4731729Y-12076628D01*
X4731729Y-12076628D02*
X4741253Y-12086151D01*
X4741253Y-12086151D02*
X4750777Y-12105199D01*
X4750777Y-12105199D02*
X4760301Y-12143294D01*
X4760301Y-12143294D02*
X4760301Y-12190913D01*
X4760301Y-12190913D02*
X4750777Y-12229008D01*
X4750777Y-12229008D02*
X4741253Y-12248056D01*
X4741253Y-12248056D02*
X4731729Y-12257580D01*
X4731729Y-12257580D02*
X4712682Y-12267104D01*
X4712682Y-12267104D02*
X4693634Y-12267104D01*
X4693634Y-12267104D02*
X4674587Y-12257580D01*
X4674587Y-12257580D02*
X4665063Y-12248056D01*
X4665063Y-12248056D02*
X4655539Y-12229008D01*
X4655539Y-12229008D02*
X4646015Y-12190913D01*
X4646015Y-12190913D02*
X4646015Y-12143294D01*
X4646015Y-12143294D02*
X4655539Y-12105199D01*
X4655539Y-12105199D02*
X4665063Y-12086151D01*
X4665063Y-12086151D02*
X4674587Y-12076628D01*
X4674587Y-12076628D02*
X4693634Y-12067104D01*
X4846015Y-12248056D02*
X4855539Y-12257580D01*
X4855539Y-12257580D02*
X4846015Y-12267104D01*
X4846015Y-12267104D02*
X4836491Y-12257580D01*
X4836491Y-12257580D02*
X4846015Y-12248056D01*
X4846015Y-12248056D02*
X4846015Y-12267104D01*
X4979348Y-12067104D02*
X4998396Y-12067104D01*
X4998396Y-12067104D02*
X5017444Y-12076628D01*
X5017444Y-12076628D02*
X5026968Y-12086151D01*
X5026968Y-12086151D02*
X5036491Y-12105199D01*
X5036491Y-12105199D02*
X5046015Y-12143294D01*
X5046015Y-12143294D02*
X5046015Y-12190913D01*
X5046015Y-12190913D02*
X5036491Y-12229008D01*
X5036491Y-12229008D02*
X5026968Y-12248056D01*
X5026968Y-12248056D02*
X5017444Y-12257580D01*
X5017444Y-12257580D02*
X4998396Y-12267104D01*
X4998396Y-12267104D02*
X4979348Y-12267104D01*
X4979348Y-12267104D02*
X4960301Y-12257580D01*
X4960301Y-12257580D02*
X4950777Y-12248056D01*
X4950777Y-12248056D02*
X4941253Y-12229008D01*
X4941253Y-12229008D02*
X4931729Y-12190913D01*
X4931729Y-12190913D02*
X4931729Y-12143294D01*
X4931729Y-12143294D02*
X4941253Y-12105199D01*
X4941253Y-12105199D02*
X4950777Y-12086151D01*
X4950777Y-12086151D02*
X4960301Y-12076628D01*
X4960301Y-12076628D02*
X4979348Y-12067104D01*
X5236491Y-12267104D02*
X5122206Y-12267104D01*
X5179348Y-12267104D02*
X5179348Y-12067104D01*
X5179348Y-12067104D02*
X5160301Y-12095675D01*
X5160301Y-12095675D02*
X5141253Y-12114723D01*
X5141253Y-12114723D02*
X5122206Y-12124247D01*
X5417444Y-12067104D02*
X5322206Y-12067104D01*
X5322206Y-12067104D02*
X5312682Y-12162342D01*
X5312682Y-12162342D02*
X5322206Y-12152818D01*
X5322206Y-12152818D02*
X5341253Y-12143294D01*
X5341253Y-12143294D02*
X5388872Y-12143294D01*
X5388872Y-12143294D02*
X5407920Y-12152818D01*
X5407920Y-12152818D02*
X5417444Y-12162342D01*
X5417444Y-12162342D02*
X5426968Y-12181389D01*
X5426968Y-12181389D02*
X5426968Y-12229008D01*
X5426968Y-12229008D02*
X5417444Y-12248056D01*
X5417444Y-12248056D02*
X5407920Y-12257580D01*
X5407920Y-12257580D02*
X5388872Y-12267104D01*
X5388872Y-12267104D02*
X5341253Y-12267104D01*
X5341253Y-12267104D02*
X5322206Y-12257580D01*
X5322206Y-12257580D02*
X5312682Y-12248056D01*
X5493634Y-12067104D02*
X5626967Y-12067104D01*
X5626967Y-12067104D02*
X5541253Y-12267104D01*
X5693634Y-12067104D02*
X5693634Y-12105199D01*
X5769825Y-12067104D02*
X5769825Y-12105199D01*
X6065063Y-12343294D02*
X6055539Y-12333770D01*
X6055539Y-12333770D02*
X6036491Y-12305199D01*
X6036491Y-12305199D02*
X6026968Y-12286151D01*
X6026968Y-12286151D02*
X6017444Y-12257580D01*
X6017444Y-12257580D02*
X6007920Y-12209961D01*
X6007920Y-12209961D02*
X6007920Y-12171866D01*
X6007920Y-12171866D02*
X6017444Y-12124247D01*
X6017444Y-12124247D02*
X6026968Y-12095675D01*
X6026968Y-12095675D02*
X6036491Y-12076628D01*
X6036491Y-12076628D02*
X6055539Y-12048056D01*
X6055539Y-12048056D02*
X6065063Y-12038532D01*
X6150777Y-12267104D02*
X6188872Y-12267104D01*
X6188872Y-12267104D02*
X6207920Y-12257580D01*
X6207920Y-12257580D02*
X6217444Y-12248056D01*
X6217444Y-12248056D02*
X6236491Y-12219485D01*
X6236491Y-12219485D02*
X6246015Y-12181389D01*
X6246015Y-12181389D02*
X6246015Y-12105199D01*
X6246015Y-12105199D02*
X6236491Y-12086151D01*
X6236491Y-12086151D02*
X6226968Y-12076628D01*
X6226968Y-12076628D02*
X6207920Y-12067104D01*
X6207920Y-12067104D02*
X6169825Y-12067104D01*
X6169825Y-12067104D02*
X6150777Y-12076628D01*
X6150777Y-12076628D02*
X6141253Y-12086151D01*
X6141253Y-12086151D02*
X6131729Y-12105199D01*
X6131729Y-12105199D02*
X6131729Y-12152818D01*
X6131729Y-12152818D02*
X6141253Y-12171866D01*
X6141253Y-12171866D02*
X6150777Y-12181389D01*
X6150777Y-12181389D02*
X6169825Y-12190913D01*
X6169825Y-12190913D02*
X6207920Y-12190913D01*
X6207920Y-12190913D02*
X6226968Y-12181389D01*
X6226968Y-12181389D02*
X6236491Y-12171866D01*
X6236491Y-12171866D02*
X6246015Y-12152818D01*
X6426968Y-12067104D02*
X6331729Y-12067104D01*
X6331729Y-12067104D02*
X6322206Y-12162342D01*
X6322206Y-12162342D02*
X6331729Y-12152818D01*
X6331729Y-12152818D02*
X6350777Y-12143294D01*
X6350777Y-12143294D02*
X6398396Y-12143294D01*
X6398396Y-12143294D02*
X6417444Y-12152818D01*
X6417444Y-12152818D02*
X6426968Y-12162342D01*
X6426968Y-12162342D02*
X6436491Y-12181389D01*
X6436491Y-12181389D02*
X6436491Y-12229008D01*
X6436491Y-12229008D02*
X6426968Y-12248056D01*
X6426968Y-12248056D02*
X6417444Y-12257580D01*
X6417444Y-12257580D02*
X6398396Y-12267104D01*
X6398396Y-12267104D02*
X6350777Y-12267104D01*
X6350777Y-12267104D02*
X6331729Y-12257580D01*
X6331729Y-12257580D02*
X6322206Y-12248056D01*
X6674587Y-12267104D02*
X6674587Y-12067104D01*
X6760301Y-12267104D02*
X6760301Y-12162342D01*
X6760301Y-12162342D02*
X6750777Y-12143294D01*
X6750777Y-12143294D02*
X6731730Y-12133770D01*
X6731730Y-12133770D02*
X6703158Y-12133770D01*
X6703158Y-12133770D02*
X6684110Y-12143294D01*
X6684110Y-12143294D02*
X6674587Y-12152818D01*
X6884110Y-12267104D02*
X6865063Y-12257580D01*
X6865063Y-12257580D02*
X6855539Y-12248056D01*
X6855539Y-12248056D02*
X6846015Y-12229008D01*
X6846015Y-12229008D02*
X6846015Y-12171866D01*
X6846015Y-12171866D02*
X6855539Y-12152818D01*
X6855539Y-12152818D02*
X6865063Y-12143294D01*
X6865063Y-12143294D02*
X6884110Y-12133770D01*
X6884110Y-12133770D02*
X6912682Y-12133770D01*
X6912682Y-12133770D02*
X6931730Y-12143294D01*
X6931730Y-12143294D02*
X6941253Y-12152818D01*
X6941253Y-12152818D02*
X6950777Y-12171866D01*
X6950777Y-12171866D02*
X6950777Y-12229008D01*
X6950777Y-12229008D02*
X6941253Y-12248056D01*
X6941253Y-12248056D02*
X6931730Y-12257580D01*
X6931730Y-12257580D02*
X6912682Y-12267104D01*
X6912682Y-12267104D02*
X6884110Y-12267104D01*
X7065063Y-12267104D02*
X7046015Y-12257580D01*
X7046015Y-12257580D02*
X7036491Y-12238532D01*
X7036491Y-12238532D02*
X7036491Y-12067104D01*
X7217444Y-12257580D02*
X7198396Y-12267104D01*
X7198396Y-12267104D02*
X7160301Y-12267104D01*
X7160301Y-12267104D02*
X7141253Y-12257580D01*
X7141253Y-12257580D02*
X7131730Y-12238532D01*
X7131730Y-12238532D02*
X7131730Y-12162342D01*
X7131730Y-12162342D02*
X7141253Y-12143294D01*
X7141253Y-12143294D02*
X7160301Y-12133770D01*
X7160301Y-12133770D02*
X7198396Y-12133770D01*
X7198396Y-12133770D02*
X7217444Y-12143294D01*
X7217444Y-12143294D02*
X7226968Y-12162342D01*
X7226968Y-12162342D02*
X7226968Y-12181389D01*
X7226968Y-12181389D02*
X7131730Y-12200437D01*
X7303158Y-12257580D02*
X7322206Y-12267104D01*
X7322206Y-12267104D02*
X7360301Y-12267104D01*
X7360301Y-12267104D02*
X7379349Y-12257580D01*
X7379349Y-12257580D02*
X7388872Y-12238532D01*
X7388872Y-12238532D02*
X7388872Y-12229008D01*
X7388872Y-12229008D02*
X7379349Y-12209961D01*
X7379349Y-12209961D02*
X7360301Y-12200437D01*
X7360301Y-12200437D02*
X7331730Y-12200437D01*
X7331730Y-12200437D02*
X7312682Y-12190913D01*
X7312682Y-12190913D02*
X7303158Y-12171866D01*
X7303158Y-12171866D02*
X7303158Y-12162342D01*
X7303158Y-12162342D02*
X7312682Y-12143294D01*
X7312682Y-12143294D02*
X7331730Y-12133770D01*
X7331730Y-12133770D02*
X7360301Y-12133770D01*
X7360301Y-12133770D02*
X7379349Y-12143294D01*
X7455539Y-12343294D02*
X7465063Y-12333770D01*
X7465063Y-12333770D02*
X7484111Y-12305199D01*
X7484111Y-12305199D02*
X7493634Y-12286151D01*
X7493634Y-12286151D02*
X7503158Y-12257580D01*
X7503158Y-12257580D02*
X7512682Y-12209961D01*
X7512682Y-12209961D02*
X7512682Y-12171866D01*
X7512682Y-12171866D02*
X7503158Y-12124247D01*
X7503158Y-12124247D02*
X7493634Y-12095675D01*
X7493634Y-12095675D02*
X7484111Y-12076628D01*
X7484111Y-12076628D02*
X7465063Y-12048056D01*
X7465063Y-12048056D02*
X7455539Y-12038532D01*
D11*
X2490000Y-12439620D02*
G75*
G03*
X2390000Y-12439620I-50000J0D01*
G01*
X2390000Y-12439620D02*
G75*
G03*
X2490000Y-12439620I50000J0D01*
G01*
D10*
X2855539Y-12531104D02*
X2741253Y-12531104D01*
X2798396Y-12531104D02*
X2798396Y-12331104D01*
X2798396Y-12331104D02*
X2779348Y-12359675D01*
X2779348Y-12359675D02*
X2760301Y-12378723D01*
X2760301Y-12378723D02*
X2741253Y-12388247D01*
X2941253Y-12512056D02*
X2950777Y-12521580D01*
X2950777Y-12521580D02*
X2941253Y-12531104D01*
X2941253Y-12531104D02*
X2931729Y-12521580D01*
X2931729Y-12521580D02*
X2941253Y-12512056D01*
X2941253Y-12512056D02*
X2941253Y-12531104D01*
X3074586Y-12331104D02*
X3093634Y-12331104D01*
X3093634Y-12331104D02*
X3112682Y-12340628D01*
X3112682Y-12340628D02*
X3122205Y-12350151D01*
X3122205Y-12350151D02*
X3131729Y-12369199D01*
X3131729Y-12369199D02*
X3141253Y-12407294D01*
X3141253Y-12407294D02*
X3141253Y-12454913D01*
X3141253Y-12454913D02*
X3131729Y-12493008D01*
X3131729Y-12493008D02*
X3122205Y-12512056D01*
X3122205Y-12512056D02*
X3112682Y-12521580D01*
X3112682Y-12521580D02*
X3093634Y-12531104D01*
X3093634Y-12531104D02*
X3074586Y-12531104D01*
X3074586Y-12531104D02*
X3055539Y-12521580D01*
X3055539Y-12521580D02*
X3046015Y-12512056D01*
X3046015Y-12512056D02*
X3036491Y-12493008D01*
X3036491Y-12493008D02*
X3026967Y-12454913D01*
X3026967Y-12454913D02*
X3026967Y-12407294D01*
X3026967Y-12407294D02*
X3036491Y-12369199D01*
X3036491Y-12369199D02*
X3046015Y-12350151D01*
X3046015Y-12350151D02*
X3055539Y-12340628D01*
X3055539Y-12340628D02*
X3074586Y-12331104D01*
X3265062Y-12331104D02*
X3284110Y-12331104D01*
X3284110Y-12331104D02*
X3303158Y-12340628D01*
X3303158Y-12340628D02*
X3312682Y-12350151D01*
X3312682Y-12350151D02*
X3322205Y-12369199D01*
X3322205Y-12369199D02*
X3331729Y-12407294D01*
X3331729Y-12407294D02*
X3331729Y-12454913D01*
X3331729Y-12454913D02*
X3322205Y-12493008D01*
X3322205Y-12493008D02*
X3312682Y-12512056D01*
X3312682Y-12512056D02*
X3303158Y-12521580D01*
X3303158Y-12521580D02*
X3284110Y-12531104D01*
X3284110Y-12531104D02*
X3265062Y-12531104D01*
X3265062Y-12531104D02*
X3246015Y-12521580D01*
X3246015Y-12521580D02*
X3236491Y-12512056D01*
X3236491Y-12512056D02*
X3226967Y-12493008D01*
X3226967Y-12493008D02*
X3217443Y-12454913D01*
X3217443Y-12454913D02*
X3217443Y-12407294D01*
X3217443Y-12407294D02*
X3226967Y-12369199D01*
X3226967Y-12369199D02*
X3236491Y-12350151D01*
X3236491Y-12350151D02*
X3246015Y-12340628D01*
X3246015Y-12340628D02*
X3265062Y-12331104D01*
X3455539Y-12331104D02*
X3474586Y-12331104D01*
X3474586Y-12331104D02*
X3493634Y-12340628D01*
X3493634Y-12340628D02*
X3503158Y-12350151D01*
X3503158Y-12350151D02*
X3512682Y-12369199D01*
X3512682Y-12369199D02*
X3522205Y-12407294D01*
X3522205Y-12407294D02*
X3522205Y-12454913D01*
X3522205Y-12454913D02*
X3512682Y-12493008D01*
X3512682Y-12493008D02*
X3503158Y-12512056D01*
X3503158Y-12512056D02*
X3493634Y-12521580D01*
X3493634Y-12521580D02*
X3474586Y-12531104D01*
X3474586Y-12531104D02*
X3455539Y-12531104D01*
X3455539Y-12531104D02*
X3436491Y-12521580D01*
X3436491Y-12521580D02*
X3426967Y-12512056D01*
X3426967Y-12512056D02*
X3417443Y-12493008D01*
X3417443Y-12493008D02*
X3407920Y-12454913D01*
X3407920Y-12454913D02*
X3407920Y-12407294D01*
X3407920Y-12407294D02*
X3417443Y-12369199D01*
X3417443Y-12369199D02*
X3426967Y-12350151D01*
X3426967Y-12350151D02*
X3436491Y-12340628D01*
X3436491Y-12340628D02*
X3455539Y-12331104D01*
X3607920Y-12531104D02*
X3607920Y-12397770D01*
X3607920Y-12416818D02*
X3617443Y-12407294D01*
X3617443Y-12407294D02*
X3636491Y-12397770D01*
X3636491Y-12397770D02*
X3665063Y-12397770D01*
X3665063Y-12397770D02*
X3684110Y-12407294D01*
X3684110Y-12407294D02*
X3693634Y-12426342D01*
X3693634Y-12426342D02*
X3693634Y-12531104D01*
X3693634Y-12426342D02*
X3703158Y-12407294D01*
X3703158Y-12407294D02*
X3722205Y-12397770D01*
X3722205Y-12397770D02*
X3750777Y-12397770D01*
X3750777Y-12397770D02*
X3769824Y-12407294D01*
X3769824Y-12407294D02*
X3779348Y-12426342D01*
X3779348Y-12426342D02*
X3779348Y-12531104D01*
X3874586Y-12531104D02*
X3874586Y-12397770D01*
X3874586Y-12416818D02*
X3884110Y-12407294D01*
X3884110Y-12407294D02*
X3903158Y-12397770D01*
X3903158Y-12397770D02*
X3931729Y-12397770D01*
X3931729Y-12397770D02*
X3950777Y-12407294D01*
X3950777Y-12407294D02*
X3960301Y-12426342D01*
X3960301Y-12426342D02*
X3960301Y-12531104D01*
X3960301Y-12426342D02*
X3969824Y-12407294D01*
X3969824Y-12407294D02*
X3988872Y-12397770D01*
X3988872Y-12397770D02*
X4017443Y-12397770D01*
X4017443Y-12397770D02*
X4036491Y-12407294D01*
X4036491Y-12407294D02*
X4046015Y-12426342D01*
X4046015Y-12426342D02*
X4046015Y-12531104D01*
X4436491Y-12321580D02*
X4265063Y-12578723D01*
X4693634Y-12331104D02*
X4712682Y-12331104D01*
X4712682Y-12331104D02*
X4731729Y-12340628D01*
X4731729Y-12340628D02*
X4741253Y-12350151D01*
X4741253Y-12350151D02*
X4750777Y-12369199D01*
X4750777Y-12369199D02*
X4760301Y-12407294D01*
X4760301Y-12407294D02*
X4760301Y-12454913D01*
X4760301Y-12454913D02*
X4750777Y-12493008D01*
X4750777Y-12493008D02*
X4741253Y-12512056D01*
X4741253Y-12512056D02*
X4731729Y-12521580D01*
X4731729Y-12521580D02*
X4712682Y-12531104D01*
X4712682Y-12531104D02*
X4693634Y-12531104D01*
X4693634Y-12531104D02*
X4674587Y-12521580D01*
X4674587Y-12521580D02*
X4665063Y-12512056D01*
X4665063Y-12512056D02*
X4655539Y-12493008D01*
X4655539Y-12493008D02*
X4646015Y-12454913D01*
X4646015Y-12454913D02*
X4646015Y-12407294D01*
X4646015Y-12407294D02*
X4655539Y-12369199D01*
X4655539Y-12369199D02*
X4665063Y-12350151D01*
X4665063Y-12350151D02*
X4674587Y-12340628D01*
X4674587Y-12340628D02*
X4693634Y-12331104D01*
X4846015Y-12512056D02*
X4855539Y-12521580D01*
X4855539Y-12521580D02*
X4846015Y-12531104D01*
X4846015Y-12531104D02*
X4836491Y-12521580D01*
X4836491Y-12521580D02*
X4846015Y-12512056D01*
X4846015Y-12512056D02*
X4846015Y-12531104D01*
X4979348Y-12331104D02*
X4998396Y-12331104D01*
X4998396Y-12331104D02*
X5017444Y-12340628D01*
X5017444Y-12340628D02*
X5026968Y-12350151D01*
X5026968Y-12350151D02*
X5036491Y-12369199D01*
X5036491Y-12369199D02*
X5046015Y-12407294D01*
X5046015Y-12407294D02*
X5046015Y-12454913D01*
X5046015Y-12454913D02*
X5036491Y-12493008D01*
X5036491Y-12493008D02*
X5026968Y-12512056D01*
X5026968Y-12512056D02*
X5017444Y-12521580D01*
X5017444Y-12521580D02*
X4998396Y-12531104D01*
X4998396Y-12531104D02*
X4979348Y-12531104D01*
X4979348Y-12531104D02*
X4960301Y-12521580D01*
X4960301Y-12521580D02*
X4950777Y-12512056D01*
X4950777Y-12512056D02*
X4941253Y-12493008D01*
X4941253Y-12493008D02*
X4931729Y-12454913D01*
X4931729Y-12454913D02*
X4931729Y-12407294D01*
X4931729Y-12407294D02*
X4941253Y-12369199D01*
X4941253Y-12369199D02*
X4950777Y-12350151D01*
X4950777Y-12350151D02*
X4960301Y-12340628D01*
X4960301Y-12340628D02*
X4979348Y-12331104D01*
X5112682Y-12331104D02*
X5236491Y-12331104D01*
X5236491Y-12331104D02*
X5169825Y-12407294D01*
X5169825Y-12407294D02*
X5198396Y-12407294D01*
X5198396Y-12407294D02*
X5217444Y-12416818D01*
X5217444Y-12416818D02*
X5226968Y-12426342D01*
X5226968Y-12426342D02*
X5236491Y-12445389D01*
X5236491Y-12445389D02*
X5236491Y-12493008D01*
X5236491Y-12493008D02*
X5226968Y-12512056D01*
X5226968Y-12512056D02*
X5217444Y-12521580D01*
X5217444Y-12521580D02*
X5198396Y-12531104D01*
X5198396Y-12531104D02*
X5141253Y-12531104D01*
X5141253Y-12531104D02*
X5122206Y-12521580D01*
X5122206Y-12521580D02*
X5112682Y-12512056D01*
X5331729Y-12531104D02*
X5369825Y-12531104D01*
X5369825Y-12531104D02*
X5388872Y-12521580D01*
X5388872Y-12521580D02*
X5398396Y-12512056D01*
X5398396Y-12512056D02*
X5417444Y-12483485D01*
X5417444Y-12483485D02*
X5426968Y-12445389D01*
X5426968Y-12445389D02*
X5426968Y-12369199D01*
X5426968Y-12369199D02*
X5417444Y-12350151D01*
X5417444Y-12350151D02*
X5407920Y-12340628D01*
X5407920Y-12340628D02*
X5388872Y-12331104D01*
X5388872Y-12331104D02*
X5350777Y-12331104D01*
X5350777Y-12331104D02*
X5331729Y-12340628D01*
X5331729Y-12340628D02*
X5322206Y-12350151D01*
X5322206Y-12350151D02*
X5312682Y-12369199D01*
X5312682Y-12369199D02*
X5312682Y-12416818D01*
X5312682Y-12416818D02*
X5322206Y-12435866D01*
X5322206Y-12435866D02*
X5331729Y-12445389D01*
X5331729Y-12445389D02*
X5350777Y-12454913D01*
X5350777Y-12454913D02*
X5388872Y-12454913D01*
X5388872Y-12454913D02*
X5407920Y-12445389D01*
X5407920Y-12445389D02*
X5417444Y-12435866D01*
X5417444Y-12435866D02*
X5426968Y-12416818D01*
X5598396Y-12397770D02*
X5598396Y-12531104D01*
X5550777Y-12321580D02*
X5503158Y-12464437D01*
X5503158Y-12464437D02*
X5626967Y-12464437D01*
X5693634Y-12331104D02*
X5693634Y-12369199D01*
X5769825Y-12331104D02*
X5769825Y-12369199D01*
X6065063Y-12607294D02*
X6055539Y-12597770D01*
X6055539Y-12597770D02*
X6036491Y-12569199D01*
X6036491Y-12569199D02*
X6026968Y-12550151D01*
X6026968Y-12550151D02*
X6017444Y-12521580D01*
X6017444Y-12521580D02*
X6007920Y-12473961D01*
X6007920Y-12473961D02*
X6007920Y-12435866D01*
X6007920Y-12435866D02*
X6017444Y-12388247D01*
X6017444Y-12388247D02*
X6026968Y-12359675D01*
X6026968Y-12359675D02*
X6036491Y-12340628D01*
X6036491Y-12340628D02*
X6055539Y-12312056D01*
X6055539Y-12312056D02*
X6065063Y-12302532D01*
X6131729Y-12350151D02*
X6141253Y-12340628D01*
X6141253Y-12340628D02*
X6160301Y-12331104D01*
X6160301Y-12331104D02*
X6207920Y-12331104D01*
X6207920Y-12331104D02*
X6226968Y-12340628D01*
X6226968Y-12340628D02*
X6236491Y-12350151D01*
X6236491Y-12350151D02*
X6246015Y-12369199D01*
X6246015Y-12369199D02*
X6246015Y-12388247D01*
X6246015Y-12388247D02*
X6236491Y-12416818D01*
X6236491Y-12416818D02*
X6122206Y-12531104D01*
X6122206Y-12531104D02*
X6246015Y-12531104D01*
X6484110Y-12531104D02*
X6484110Y-12331104D01*
X6569825Y-12531104D02*
X6569825Y-12426342D01*
X6569825Y-12426342D02*
X6560301Y-12407294D01*
X6560301Y-12407294D02*
X6541253Y-12397770D01*
X6541253Y-12397770D02*
X6512682Y-12397770D01*
X6512682Y-12397770D02*
X6493634Y-12407294D01*
X6493634Y-12407294D02*
X6484110Y-12416818D01*
X6693634Y-12531104D02*
X6674587Y-12521580D01*
X6674587Y-12521580D02*
X6665063Y-12512056D01*
X6665063Y-12512056D02*
X6655539Y-12493008D01*
X6655539Y-12493008D02*
X6655539Y-12435866D01*
X6655539Y-12435866D02*
X6665063Y-12416818D01*
X6665063Y-12416818D02*
X6674587Y-12407294D01*
X6674587Y-12407294D02*
X6693634Y-12397770D01*
X6693634Y-12397770D02*
X6722206Y-12397770D01*
X6722206Y-12397770D02*
X6741253Y-12407294D01*
X6741253Y-12407294D02*
X6750777Y-12416818D01*
X6750777Y-12416818D02*
X6760301Y-12435866D01*
X6760301Y-12435866D02*
X6760301Y-12493008D01*
X6760301Y-12493008D02*
X6750777Y-12512056D01*
X6750777Y-12512056D02*
X6741253Y-12521580D01*
X6741253Y-12521580D02*
X6722206Y-12531104D01*
X6722206Y-12531104D02*
X6693634Y-12531104D01*
X6874587Y-12531104D02*
X6855539Y-12521580D01*
X6855539Y-12521580D02*
X6846015Y-12502532D01*
X6846015Y-12502532D02*
X6846015Y-12331104D01*
X7026968Y-12521580D02*
X7007920Y-12531104D01*
X7007920Y-12531104D02*
X6969825Y-12531104D01*
X6969825Y-12531104D02*
X6950777Y-12521580D01*
X6950777Y-12521580D02*
X6941253Y-12502532D01*
X6941253Y-12502532D02*
X6941253Y-12426342D01*
X6941253Y-12426342D02*
X6950777Y-12407294D01*
X6950777Y-12407294D02*
X6969825Y-12397770D01*
X6969825Y-12397770D02*
X7007920Y-12397770D01*
X7007920Y-12397770D02*
X7026968Y-12407294D01*
X7026968Y-12407294D02*
X7036491Y-12426342D01*
X7036491Y-12426342D02*
X7036491Y-12445389D01*
X7036491Y-12445389D02*
X6941253Y-12464437D01*
X7112682Y-12521580D02*
X7131730Y-12531104D01*
X7131730Y-12531104D02*
X7169825Y-12531104D01*
X7169825Y-12531104D02*
X7188872Y-12521580D01*
X7188872Y-12521580D02*
X7198396Y-12502532D01*
X7198396Y-12502532D02*
X7198396Y-12493008D01*
X7198396Y-12493008D02*
X7188872Y-12473961D01*
X7188872Y-12473961D02*
X7169825Y-12464437D01*
X7169825Y-12464437D02*
X7141253Y-12464437D01*
X7141253Y-12464437D02*
X7122206Y-12454913D01*
X7122206Y-12454913D02*
X7112682Y-12435866D01*
X7112682Y-12435866D02*
X7112682Y-12426342D01*
X7112682Y-12426342D02*
X7122206Y-12407294D01*
X7122206Y-12407294D02*
X7141253Y-12397770D01*
X7141253Y-12397770D02*
X7169825Y-12397770D01*
X7169825Y-12397770D02*
X7188872Y-12407294D01*
X7265063Y-12607294D02*
X7274587Y-12597770D01*
X7274587Y-12597770D02*
X7293634Y-12569199D01*
X7293634Y-12569199D02*
X7303158Y-12550151D01*
X7303158Y-12550151D02*
X7312682Y-12521580D01*
X7312682Y-12521580D02*
X7322206Y-12473961D01*
X7322206Y-12473961D02*
X7322206Y-12435866D01*
X7322206Y-12435866D02*
X7312682Y-12388247D01*
X7312682Y-12388247D02*
X7303158Y-12359675D01*
X7303158Y-12359675D02*
X7293634Y-12340628D01*
X7293634Y-12340628D02*
X7274587Y-12312056D01*
X7274587Y-12312056D02*
X7265063Y-12302532D01*
M02*
