%TF.GenerationSoftware,KiCad,Pcbnew,7.0.10-7.0.10~ubuntu22.04.1*%
%TF.CreationDate,2024-01-14T15:54:16-07:00*%
%TF.ProjectId,tiny_pov_arm,74696e79-5f70-46f7-965f-61726d2e6b69,rev?*%
%TF.SameCoordinates,Original*%
%TF.FileFunction,Profile,NP*%
%FSLAX46Y46*%
G04 Gerber Fmt 4.6, Leading zero omitted, Abs format (unit mm)*
G04 Created by KiCad (PCBNEW 7.0.10-7.0.10~ubuntu22.04.1) date 2024-01-14 15:54:16*
%MOMM*%
%LPD*%
G01*
G04 APERTURE LIST*
%TA.AperFunction,Profile*%
%ADD10C,0.200000*%
%TD*%
G04 APERTURE END LIST*
D10*
X270000000Y-105000000D02*
G75*
G03*
X270000000Y-95000000I0J5000000D01*
G01*
X159793449Y-114318892D02*
G75*
G03*
X165256171Y-112056171I2262751J2262692D01*
G01*
X163756171Y-112056171D02*
G75*
G03*
X160356171Y-112056171I-1700000J0D01*
G01*
X160356171Y-112056171D02*
G75*
G03*
X163756171Y-112056171I1700000J0D01*
G01*
X140206571Y-85681088D02*
G75*
G03*
X145495326Y-86903038I3622529J3622588D01*
G01*
X127687659Y-94999999D02*
G75*
G03*
X134743829Y-87943829I1J7056169D01*
G01*
X270000000Y-95000000D02*
X172312341Y-95000000D01*
X163756171Y-87943829D02*
G75*
G03*
X160356171Y-87943829I-1700000J0D01*
G01*
X160356171Y-87943829D02*
G75*
G03*
X163756171Y-87943829I1700000J0D01*
G01*
X139643829Y-112056171D02*
G75*
G03*
X136243829Y-112056171I-1700000J0D01*
G01*
X136243829Y-112056171D02*
G75*
G03*
X139643829Y-112056171I1700000J0D01*
G01*
X127687659Y-105000000D02*
X30000000Y-105000000D01*
X270000000Y-105000000D02*
X172312341Y-105000000D01*
X139643829Y-87943829D02*
G75*
G03*
X136243829Y-87943829I-1700000J0D01*
G01*
X136243829Y-87943829D02*
G75*
G03*
X139643829Y-87943829I1700000J0D01*
G01*
X165256200Y-87943829D02*
G75*
G03*
X172312341Y-95000000I7056000J-171D01*
G01*
X154504674Y-86903039D02*
G75*
G03*
X145495326Y-86903039I-4504674J-13096962D01*
G01*
X172312341Y-105000001D02*
G75*
G03*
X165256171Y-112056171I79J-7056249D01*
G01*
X145495316Y-113096992D02*
G75*
G03*
X140206571Y-114318912I-1666316J-4844208D01*
G01*
X140206551Y-85681108D02*
G75*
G03*
X134743829Y-87943829I-2262751J-2262692D01*
G01*
X145495326Y-113096961D02*
G75*
G03*
X154504674Y-113096961I4504674J13096962D01*
G01*
X30000000Y-95000000D02*
G75*
G03*
X30000000Y-105000000I0J-5000000D01*
G01*
X154504684Y-86903008D02*
G75*
G03*
X159793429Y-85681088I1666316J4844208D01*
G01*
X165256199Y-87943829D02*
G75*
G03*
X159793430Y-85681089I-3199999J29D01*
G01*
X134743800Y-112056171D02*
G75*
G03*
X127687659Y-105000000I-7056000J171D01*
G01*
X159793429Y-114318912D02*
G75*
G03*
X154504674Y-113096962I-3622529J-3622588D01*
G01*
X134743801Y-112056171D02*
G75*
G03*
X140206570Y-114318911I3199999J-29D01*
G01*
X127687659Y-95000000D02*
X30000000Y-95000000D01*
M02*
